<?xml version="1.0" encoding="utf-8"?>
<!-- Generator: Adobe Illustrator 15.1.0, SVG Export Plug-In  -->
<!DOCTYPE svg PUBLIC "-//W3C//DTD SVG 1.1//EN" "http://www.w3.org/Graphics/SVG/1.1/DTD/svg11.dtd" [
	<!ENTITY ns_flows "http://ns.adobe.com/Flows/1.0/">
]>
<svg version="1.1"
	 xmlns="http://www.w3.org/2000/svg" xmlns:xlink="http://www.w3.org/1999/xlink" xmlns:a="http://ns.adobe.com/AdobeSVGViewerExtensions/3.0/"
	 x="0px" y="0px" width="284px" height="120px" viewBox="0 0 284 120" enable-background="new 0 0 284 120" xml:space="preserve">
<defs>
</defs>
<g>
	<g>
		<path fill-rule="evenodd" clip-rule="evenodd" fill="#FFFFFF" d="M249.969,0c-12.751,0.462-19.18,21.542-8.999,29.996
			c-1.56,3.773-2.387,8.279-2.999,12.999c-13.055,9.068-35.301,2.339-51.994,5.999c-5.049,1.107-15.434,4.915-17.998,8.999
			c-5.058,8.056-0.92,21.316-3.999,30.997c-2.513,7.899-8.951,7.069-11.998,14.998c5.89,5.339,18.532,2.62,22.997-2
			c-3.02-15.685,6.313-19.017,4.999-32.996c30.956,1.012,71.43,1.22,102.987,1c1.282-5.615-4.984-3.682-8.999-3.999
			c0.304-4.637-0.01-8.656-2-10.999c-6.854-2.91-13.792-3.908-19.997-3c-1.846-3.626-2.34-11.161,0-14.998
			c5.634-3.698,13.293-5.372,16.998-10.999C272.208,12.649,267.196,1.883,255.968,0c9.332,0,18.665,0,27.997,0
			c0,39.995,0,79.99,0,119.985c-87.992-1.077-180.322,1.431-269.967,0c-3.785-0.061-13.394,2.392-13.998-3
			c0.972,0.027,0.776,1.224,1,2c7.768-0.231,13.137-2.861,17.998-5.999c3.634-9.031,2.11-23.221,8.999-28.997
			c0.956-5.086-1.584-10.437,0-12.998c9.504,0,20.482,0,31.996,0c10.529,0,23.482-2.312,30.996,0
			c6.496,1.999,6.838,9.824,13.998,8.999c4.79-0.553,7.137-7.814,9.999-8.999c10.699-0.966,25.477,2.147,32.996-2
			c1.525-4.525-3.836-2.163-4.999-3.999c1.621-1.975,3.22-7.279,1-9.999c-3.176-5.157-9.452-7.213-17.998-6.999
			c4.86-17.366-5.749-27.454-18.998-29.997c-12.988,2.147-23.936,11.206-20.998,25.997c-29.46,0.869-59.891,0.768-74.991,15.998
			C10.303,79.294,10.905,99.894,0,108.986C0,72.658,0,36.329,0,0C83.323,0,166.646,0,249.969,0z"/>
		<path fill-rule="evenodd" clip-rule="evenodd" d="M249.969,0c2,0,3.999,0,5.999,0c11.229,1.883,16.24,12.649,12.999,25.997
			c-3.705,5.627-11.364,7.301-16.998,10.999c-2.34,3.837-1.846,11.372,0,14.998c6.205-0.908,13.144,0.089,19.997,3
			c1.99,2.343,2.304,6.362,2,10.999c4.015,0.317,10.281-1.616,8.999,3.999c-31.558,0.22-72.031,0.012-102.987-1
			c1.314,13.979-8.019,17.312-4.999,32.996c-4.465,4.62-17.107,7.339-22.997,2c3.047-7.929,9.485-7.099,11.998-14.998
			c3.079-9.681-1.059-22.94,3.999-30.997c2.564-4.084,12.949-7.892,17.998-8.999c16.693-3.66,38.939,3.069,51.994-5.999
			c0.612-4.72,1.439-9.226,2.999-12.999C230.789,21.542,237.218,0.462,249.969,0z M267.967,18.998
			c2.195-27.431-43.404-16.702-25.997,7.999c2.295-6.075,13.063-24.071,17.998-8.999c-1.466,5.534-9.489,4.509-6.999,13.999
			C261.846,30.938,267.388,26.229,267.967,18.998z M244.97,29.996c2.409-0.409,2.173,1.826,4.999,1
			c-0.412-6.412,1.491-10.507,5.999-11.999c-3.056,0.722-3.644-1.022-5.999-1C249.173,22.868,245.203,24.564,244.97,29.996z
			 M238.97,48.994c3.541,0.542,2.459-3.541,6-3c0,1.667,0,3.333,0,5c-1.335,1.666-5.665,0.334-6.999,2
			c0.419,5.752-1.049,9.617-5,10.999c-1.867-1.778,0.812-2.541,0-6c-4.509-1.386-4.992,3.888-7.999,1
			c1.919-2.747,4.684-4.649,9.999-4c-0.022-2.355,1.722-2.944,1-6c-5.377,0.957-10.773,1.892-15.998,3
			c1.969,2.364-0.278,8.944,2,10.999c1.174-5.264,4.351,2.328,5.999,3c6.257-0.742,10.943,0.335,18.997,0
			c0.335-3.332,2.897-4.436,2-9c-5.486-5.749-1.626-15.723,0-22.997c-2.355,0.022-2.943-1.722-5.999-1
			C241.892,38.583,241.171,44.528,238.97,48.994z M171.979,58.993c-4.724,8.941-4.024,23.305-5.999,34.996
			c-3.521,2.145-6.188,5.145-7.999,8.999c5.334,0.335,8.754-1.244,12.998-2c1.235-3.235-3.235-0.764-2-3.999
			c4.837-4.829,2.822-16.51,7.999-20.998c1.374-5.039-2.051-5.281-1.999-8.999c6.605-3.617,16.353,1.156,24.996-0.999
			c1.146-4.522,0.268-10.211-1.999-13.999C189.087,50.457,178.524,54.95,171.979,58.993z M202.975,64.992
			c6.239-0.603,9.175,1.705,13.998,0c1.093-6.426-2.042-8.624-2.999-12.999c-3.825-0.842-8.026-1.306-12.999-1
			C202.688,54.614,203.469,59.165,202.975,64.992z M254.968,55.993c-0.112,7.468,7.332,6.205,9.999,5.999
			c1.069,3.735-2.482,2.85-2,5.999c4.687,1.021,5.688-1.646,7.999-2.999c0.729-4.729-1.426-6.573-2.999-8.999
			C261.995,55.923,260.323,54.783,254.968,55.993z M250.969,64.992c1.758-0.575,5.874,1.208,5.999-1
			c-3.287-0.046-2.392-4.274-5.999-4C250.969,61.659,250.969,63.325,250.969,64.992z"/>
		<path fill-rule="evenodd" clip-rule="evenodd" fill="#FFFFFF" d="M252.969,31.996c-2.49-9.489,5.533-8.465,6.999-13.999
			c-4.935-15.072-15.703,2.924-17.998,8.999c-17.407-24.701,28.192-35.43,25.997-7.999
			C267.388,26.229,261.846,30.938,252.969,31.996z"/>
		<path fill-rule="evenodd" clip-rule="evenodd" d="M0,116.985c0-0.667,0-1.333,0-2c7.167,0.501,10.807-2.525,15.998-3.999
			c3.303-3.287-2.683-2.392-2-5.999c6.844-4.821,3.975-19.356,10.999-23.997c-0.9-3.767-1.987-7.346-3-10.999
			c7.747-5.296,22.313,2.359,28.997-3.999c2.725-7.79-1.979-11.286-5-15.999c-13.079,2.252-26.008,4.655-31.996,13.999
			C13.542,83.867,15.36,106.015,0,110.986c0-0.667,0-1.333,0-2c10.905-9.093,10.303-29.692,10.999-48.994
			c15.1-15.23,45.53-15.129,74.991-15.998c-2.938-14.791,8.009-23.85,20.998-25.997c13.249,2.543,23.858,12.631,18.998,29.997
			c8.546-0.214,14.822,1.842,17.998,6.999c2.22,2.72,0.621,8.024-1,9.999c1.163,1.836,6.524-0.526,4.999,3.999
			c-7.519,4.147-22.296,1.034-32.996,2c-2.862,1.185-5.209,8.446-9.999,8.999c-7.16,0.825-7.502-7-13.998-8.999
			c-7.514-2.312-20.467,0-30.996,0c-11.514,0-22.492,0-31.996,0c-1.584,2.562,0.956,7.912,0,12.998
			c-6.889,5.776-5.365,19.966-8.999,28.997c-4.86,3.138-10.229,5.768-17.998,5.999C0.776,118.209,0.972,117.013,0,116.985z
			 M113.986,22.997c-12.633-4.656-25.369,3.185-25.997,17.998c1.566-0.632,7.066-0.953,9.999,2c1.022-6.862,12.988-11.854,15.998-3
			c-2.684,5.369-3.616,10.86,2,13.998C129.907,46.87,123.615,26.545,113.986,22.997z M97.988,56.993
			c1.182,1.151,3.534,1.132,5.999,1c-0.902-5.328-1.346-11.528,3-13.998c-2.409,0.409-2.173-1.826-5-1
			C100.769,47.776,97.796,50.802,97.988,56.993z M88.989,44.994c-0.01,5.01,3.189,6.81,6,8.999c0.445-3.221,1.916-5.417,2-8.999
			C94.187,43.844,91.79,43.844,88.989,44.994z M75.991,47.994c1.459,4.206,2.689,8.643,2,14.998c5.325,0.674,7.518,4.48,14.998,3
			c1.378-1.289,0.99-4.344,1-7c-3.74-1.328-6.912,2.981-8.999,0c0.92-1.747,3.126-2.207,6-2
			C88.622,49.47,86.461,45.75,75.991,47.994z M53.993,66.991c7.367-0.299,16.737,1.405,19.998-2.999
			c-1.314-5.019-2.318-10.347-4-14.999c-5.983-1.305-15.915-0.714-19.998-1C52.549,54.36,56.018,61.435,53.993,66.991z
			 M106.987,57.993c1.453-0.547,5.167,1.168,4.999-1c-1.173-1.493-4.155-1.178-4-4c1.177-0.156,2.838,0.172,3-1
			c-3.629,0.962-0.84-4.493-4-4C105.052,51.535,107.012,53.769,106.987,57.993z M122.984,52.993
			c-1.661,4.339-6.419,5.579-4.999,12.999c3.235-0.431,8.648,1.315,8.999-2c-2.657-0.676-5.091-1.574-6.999-3
			c5.356-2.649,10.523,3.919,14.998,0c1.328,4.661-2.227,4.438-4,5.999c7.852,0.681,12.152-5.808,8.999-12.998
			C135.469,51.986,128.466,51.238,122.984,52.993z M100.987,75.99c8.607-1.392,12.224-7.773,13.999-15.998
			c-5.81,0.311-3.721,5.629-7,9.999c-2.646-1.687-2.537-6.129-4-8.999c-3.468,0.802-3.843-1.489-6.999-1
			C96.677,66.969,96.983,73.328,100.987,75.99z"/>
		<path fill-rule="evenodd" clip-rule="evenodd" fill="#FFFFFF" d="M249.969,17.998c2.355-0.022,2.943,1.722,5.999,1
			c-4.508,1.491-6.411,5.587-5.999,11.999c-2.826,0.826-2.59-1.409-4.999-1C245.203,24.564,249.173,22.868,249.969,17.998z"/>
		<path fill-rule="evenodd" clip-rule="evenodd" fill="#FFFFFF" d="M115.985,53.993c-5.616-3.138-4.683-8.629-2-13.998
			c-3.01-8.855-14.976-3.862-15.998,3c-2.933-2.952-8.433-2.631-9.999-2c0.628-14.813,13.364-22.654,25.997-17.998
			C123.615,26.545,129.907,46.87,115.985,53.993z"/>
		<path fill-rule="evenodd" clip-rule="evenodd" fill="#FFFFFF" d="M242.97,32.996c3.056-0.723,3.644,1.022,5.999,1
			c-1.626,7.274-5.486,17.248,0,22.997c0.897,4.564-1.665,5.667-2,9c-8.054,0.335-12.74-0.742-18.997,0
			c-1.648-0.672-4.825-8.264-5.999-3c-2.278-2.055-0.031-8.634-2-10.999c5.225-1.108,10.621-2.043,15.998-3
			c0.722,3.056-1.022,3.644-1,6c-5.315-0.649-8.08,1.252-9.999,4c3.007,2.888,3.49-2.386,7.999-1c0.812,3.458-1.867,4.221,0,6
			c3.951-1.382,5.419-5.247,5-10.999c1.334-1.665,5.664-0.334,6.999-2c0-1.667,0-3.333,0-5c-3.541-0.541-2.459,3.541-6,3
			C241.171,44.528,241.892,38.583,242.97,32.996z M238.97,60.992c4.229-0.104,5.975-2.691,6.999-5.999
			C240.841,54.197,240.185,57.875,238.97,60.992z"/>
		<path fill-rule="evenodd" clip-rule="evenodd" fill="#FFFFFF" d="M101.987,42.995c2.826-0.826,2.59,1.409,5,1
			c-4.346,2.47-3.902,8.67-3,13.998c-2.465,0.132-4.817,0.151-5.999-1C97.796,50.802,100.769,47.776,101.987,42.995z"/>
		<path fill-rule="evenodd" clip-rule="evenodd" fill="#FFFFFF" d="M96.988,44.994c-0.084,3.583-1.555,5.778-2,8.999
			c-2.811-2.189-6.01-3.989-6-8.999C91.79,43.844,94.187,43.844,96.988,44.994z"/>
		<path fill-rule="evenodd" clip-rule="evenodd" fill="#FFFFFF" d="M90.989,56.993c-2.874-0.207-5.08,0.253-6,2
			c2.087,2.981,5.259-1.328,8.999,0c-0.01,2.656,0.378,5.71-1,7c-7.48,1.48-9.673-2.326-14.998-3c0.689-6.355-0.54-10.792-2-14.998
			C86.461,45.75,88.622,49.47,90.989,56.993z"/>
		<path fill-rule="evenodd" clip-rule="evenodd" fill="#FFFFFF" d="M49.994,47.994c4.083,0.286,14.015-0.305,19.998,1
			c1.681,4.651,2.686,9.979,4,14.999c-3.261,4.404-12.631,2.7-19.998,2.999C56.018,61.435,52.549,54.36,49.994,47.994z"/>
		<path fill-rule="evenodd" clip-rule="evenodd" fill="#FFFFFF" d="M106.987,47.994c3.16-0.494,0.371,4.961,4,4
			c-0.162,1.171-1.823,0.843-3,1c-0.155,2.822,2.827,2.506,4,4c0.168,2.168-3.546,0.453-4.999,1
			C107.012,53.769,105.052,51.535,106.987,47.994z"/>
		<path fill-rule="evenodd" clip-rule="evenodd" fill="#FFFFFF" d="M0,114.985c0-1.333,0-2.666,0-3.999
			c15.36-4.972,13.542-27.119,13.998-46.994c5.988-9.344,18.917-11.746,31.996-13.999c3.021,4.713,7.725,8.208,5,15.999
			c-6.683,6.358-21.25-1.297-28.997,3.999c1.013,3.653,2.1,7.232,3,10.999c-7.024,4.641-4.155,19.176-10.999,23.997
			c-0.683,3.607,5.303,2.712,2,5.999C10.807,112.46,7.167,115.486,0,114.985z"/>
		<path fill-rule="evenodd" clip-rule="evenodd" fill="#FFFFFF" d="M197.976,51.994c2.267,3.788,3.145,9.476,1.999,13.999
			c-8.644,2.155-18.391-2.618-24.996,0.999c-0.052,3.718,3.373,3.96,1.999,8.999c-5.177,4.488-3.162,16.169-7.999,20.998
			c-1.235,3.235,3.235,0.764,2,3.999c-4.244,0.756-7.664,2.335-12.998,2c1.812-3.854,4.478-6.854,7.999-8.999
			c1.975-11.69,1.275-26.055,5.999-34.996C178.524,54.95,189.087,50.457,197.976,51.994z"/>
		<path fill-rule="evenodd" clip-rule="evenodd" fill="#FFFFFF" d="M200.975,50.994c4.973-0.306,9.174,0.158,12.999,1
			c0.957,4.375,4.092,6.573,2.999,12.999c-4.823,1.705-7.759-0.603-13.998,0C203.469,59.165,202.688,54.614,200.975,50.994z"/>
		<path fill-rule="evenodd" clip-rule="evenodd" fill="#FFFFFF" d="M139.982,53.993c3.153,7.19-1.147,13.679-8.999,12.998
			c1.772-1.561,5.328-1.338,4-5.999c-4.475,3.919-9.642-2.649-14.998,0c1.908,1.426,4.342,2.324,6.999,3
			c-0.351,3.315-5.763,1.569-8.999,2c-1.42-7.42,3.338-8.66,4.999-12.999C128.466,51.238,135.469,51.986,139.982,53.993z"/>
		<path fill-rule="evenodd" clip-rule="evenodd" d="M245.969,54.993c-1.024,3.308-2.77,5.896-6.999,5.999
			C240.185,57.875,240.841,54.197,245.969,54.993z"/>
		<path fill-rule="evenodd" clip-rule="evenodd" fill="#FFFFFF" d="M267.967,55.993c1.573,2.426,3.729,4.27,2.999,8.999
			c-2.312,1.354-3.312,4.02-7.999,2.999c-0.482-3.149,3.069-2.264,2-5.999c-2.667,0.206-10.111,1.469-9.999-5.999
			C260.323,54.783,261.995,55.923,267.967,55.993z"/>
		<path fill-rule="evenodd" clip-rule="evenodd" fill="#FFFFFF" d="M96.988,59.993c3.156-0.49,3.531,1.801,6.999,1
			c1.463,2.87,1.354,7.312,4,8.999c3.279-4.369,1.19-9.688,7-9.999c-1.775,8.224-5.392,14.606-13.999,15.998
			C96.983,73.328,96.677,66.969,96.988,59.993z M104.987,73.991c-0.898-3.436-1.554-7.112-4-8.999
			C98.759,68.197,100.33,74.518,104.987,73.991z"/>
		<path fill-rule="evenodd" clip-rule="evenodd" fill="#FFFFFF" d="M250.969,59.993c3.607-0.274,2.712,3.954,5.999,4
			c-0.125,2.208-4.241,0.425-5.999,1C250.969,63.325,250.969,61.659,250.969,59.993z"/>
		<path fill-rule="evenodd" clip-rule="evenodd" d="M100.987,64.992c2.445,1.887,3.102,5.563,4,8.999
			C100.33,74.518,98.759,68.197,100.987,64.992z"/>
	</g>
</g>
</svg>
