<?xml version="1.0" encoding="utf-8"?>
<!-- Generator: Adobe Illustrator 15.1.0, SVG Export Plug-In  -->
<!DOCTYPE svg PUBLIC "-//W3C//DTD SVG 1.1//EN" "http://www.w3.org/Graphics/SVG/1.1/DTD/svg11.dtd" [
	<!ENTITY ns_flows "http://ns.adobe.com/Flows/1.0/">
]>
<svg version="1.1"
	 xmlns="http://www.w3.org/2000/svg" xmlns:xlink="http://www.w3.org/1999/xlink" xmlns:a="http://ns.adobe.com/AdobeSVGViewerExtensions/3.0/"
	 x="0px" y="0px" width="207px" height="153px" viewBox="0 0 207 153" enable-background="new 0 0 207 153" xml:space="preserve">
<defs>
</defs>
<g>
	<g>
		<path fill-rule="evenodd" clip-rule="evenodd" d="M154.98,22.997c0.667,0,1.333,0,2,0c0,0.667,0,1.333,0,2c-0.667,0-1.333,0-2,0
			C154.98,24.33,154.98,23.664,154.98,22.997z"/>
		<path fill-rule="evenodd" clip-rule="evenodd" d="M161.979,26.997c-1.066,0.933-0.311,3.688-2.999,3
			C158.799,27.815,159.799,26.815,161.979,26.997z"/>
		<path fill-rule="evenodd" clip-rule="evenodd" fill="#FFFFFF" d="M148.981,31.996c-0.086,1.419-0.165,2.832,1,3
			c-1.288,2.044-5.611,1.055-5.999,4C141.156,36.103,145.93,32.326,148.981,31.996z"/>
		<path fill-rule="evenodd" clip-rule="evenodd" d="M162.979,40.995c0.933,1.067,3.688,0.311,3,3
			C163.798,44.176,162.798,43.176,162.979,40.995z"/>
		<path fill-rule="evenodd" clip-rule="evenodd" fill="#FFFFFF" d="M160.979,46.994c0.891,0.776,2.259,1.075,4,1
			c0.132,2.465,0.151,4.817-1,5.999c-3.562,0.229-5.228-1.438-4.999-5C160.681,49.361,160.866,48.214,160.979,46.994z"/>
		<path fill-rule="evenodd" clip-rule="evenodd" fill="#FFFFFF" d="M144.981,48.994c0.667,0,1.334,0,2,0c0,0.667,0,1.333,0,2
			c-0.666,0-1.333,0-2,0C144.981,50.327,144.981,49.661,144.981,48.994z"/>
		<path fill-rule="evenodd" clip-rule="evenodd" fill="#FFFFFF" d="M185.977,54.993c0.282,1.615-0.944,1.721-1,3
			C183.036,58.389,183.517,53.438,185.977,54.993z"/>
		<path fill-rule="evenodd" clip-rule="evenodd" d="M40.995,66.992c1.004-2.516,4.421,0.796,3.999,3
			C42.956,69.697,43.034,67.286,40.995,66.992z"/>
		<path fill-rule="evenodd" clip-rule="evenodd" d="M34.996,76.99c2.007-0.34,3.128,0.205,3,2c-1,0-2,0-3,0
			C34.996,78.323,34.996,77.657,34.996,76.99z"/>
		<path fill-rule="evenodd" clip-rule="evenodd" d="M55.993,84.989c0.667,0,1.333,0,2,0c0.282,1.615-0.945,1.722-1,3
			c-0.667,0-1.333,0-2,0C54.711,86.374,55.938,86.268,55.993,84.989z"/>
		<path fill-rule="evenodd" clip-rule="evenodd" fill="#FFFFFF" d="M74.991,152.98c-2.667,0-5.333,0-7.999,0
			c0.169-11.704,2.479-23.598-6-31.995c0.239-6.438,2.454-12.572-2-15.998c2.944-5.722,7.568-9.763,5.999-19.998
			c2.94,1.849,2.773,7.243,3,9.999c0.38,4.633-0.93,9.523,0,13.998c0.562,2.702,3.192,4.426,4,6.999
			c2.08,6.636-0.03,13.791,1,20.997c0.691,4.837,4.025,9.094,4,13.999C75.771,151.095,74.623,151.28,74.991,152.98z M68.991,138.982
			c0.667,0,1.333,0,2,0c0-0.666,0-1.333,0-2c-0.667,0-1.333,0-2,0C68.991,137.649,68.991,138.316,68.991,138.982z"/>
		<path fill-rule="evenodd" clip-rule="evenodd" d="M18.998,86.989c0.381-1.903,1.272,0.639,1,2
			C19.617,90.893,18.726,88.351,18.998,86.989z"/>
		<path fill-rule="evenodd" clip-rule="evenodd" d="M18.998,91.988c0.381-1.903,1.272,0.639,1,2
			C19.617,95.892,18.726,93.35,18.998,91.988z"/>
		<path fill-rule="evenodd" clip-rule="evenodd" fill="#FFFFFF" d="M54.993,109.986c-0.013,1.986-2.728,1.271-2,3.999
			c-2.318,0.319-3.839-0.16-4.999-0.999C49.551,111.21,50.807,109.133,54.993,109.986z"/>
		<path fill-rule="evenodd" clip-rule="evenodd" fill="#FFFFFF" d="M139.982,121.984c-2.61,4.762-13.591,10.558-19.997,5
			c-0.358-3.69,2.486-4.179,4.999-5c0.93-4.736,4.409-6.923,6.999-9.998C136.596,113.373,137.28,118.688,139.982,121.984z"/>
		<path fill-rule="evenodd" clip-rule="evenodd" fill="#FFFFFF" d="M45.994,120.985C50.049,118.126,52.5,124.251,45.994,120.985
			L45.994,120.985z"/>
		<path fill-rule="evenodd" clip-rule="evenodd" d="M68.991,136.982c0.667,0,1.333,0,2,0c0,0.667,0,1.334,0,2c-0.667,0-1.333,0-2,0
			C68.991,138.316,68.991,137.649,68.991,136.982z"/>
		<path fill-rule="evenodd" clip-rule="evenodd" d="M159.98,0c1.999,0,3.999,0,5.999,0c2.125,1.541,3.723,3.609,5.999,5
			c0.992,14.014,13.704,19.729,13.998,33.996c0.067,3.274-1.492,7.293-1,10.999c1.22,9.167,9.764,18.163,6,29.997
			c4.659,8.339,8.322,17.674,7.999,30.996c0.948,2.051,1.239,4.759,3.999,4.999c-0.359,6.025,2.359,8.973,2,14.998
			c-2.816,2.797-3.608,5.631-6.999,5.999c-16.532,1.798-4.192-30.822-16.998-37.995c-0.629-4.737,0.881-8.327,0-11.998
			c-0.782-3.259-3.717-4.11-6.999-7.999c-4.586-5.432-5.97-9.125-13.998-11.999c-3.479,3.188-7.418,5.914-10.999,8.999
			c-2.861,6.431,1.089,11.583,0,16.998c-0.832,4.133-4.631,5.385-5.999,8.999c-2.789,7.362-0.542,13.637-1,22.997
			c-5.574,5.018-17.852,10.683-24.997,3c0.291-5.714,6.244-7.52,8.999-10.999c1.891-2.389,1.208-6.43,4.999-6.999
			c0.174-11.492-1.231-24.562,4-30.996c0.488-8.178,0.798-16.533,4.999-20.998c-0.558-2.442-3.869-2.13-3-5.999
			c-3.998,3-0.756,13.242-3.999,16.998c-4.252,0.585-0.748-6.584-4.999-5.999c-3.454-0.349,0.544,4.695-3,5.999
			c-3.708,0.708-4.291-1.708-7.999-1c2.52-1.751-0.978-4.621,0-7.999c1.353-4.674,7.613-5.964,8.999-9.999
			c-2.317-16.315,10.289-17.708,9.999-31.996c5.354-2.722,6.905-9.723,11.998-12.998C151.629,2.654,157.134,4.005,159.98,0z
			 M184.977,57.993c0.056-1.278,1.282-1.385,1-3C183.517,53.438,183.036,58.389,184.977,57.993z M171.979,70.991
			c0.843,5.569,4.193,6.574,7.999,6.999c2.239,4.76,2.205,11.793,2,18.998c5.542,4.123,8.028,11.302,8.999,19.997
			c2.278,1.373,3.758-2.577,3.999,0c-1.864,2.555-3.354,7.164-4.999,2c-0.722,8.868,2.371,18.758,11.998,13.998
			c0.562-8.561-0.475-15.523-5.999-17.998c3.163-7.514-1.828-15.489-1-23.997c-6.238-5.708-6.52-12.722-4.999-21.997
			c-3.815-1.851-0.677-10.655-6.999-9.999C180.19,63.872,177.803,69.149,171.979,70.991z M175.978,67.992
			c3.714-2.518,8.487-20.46,5-19.998c6.175-12.581-2.684-25.448-8.999-31.996c-0.429-5.237-2.798-8.534-4-12.999
			c-7.567-3.073-9.155,1.817-14.998,4c-3.312,1.237-9.677,1.99-8.998,8.999c-2.487-0.154-3.096,1.571-5,2
			c-2.101,13.564-12.135,19.194-11.998,34.996c-2.738,2.928-7.396,3.937-6.999,9.999c2.026-0.375,1.373,2.675,3.999,4
			c-0.799-5.465,1.534-7.798,6.999-6.999c0.547,1.453-1.168,5.167,1,4.999c-2.412-13.53,8.157-17.948,8.999-30.996
			c-1.771-0.228-5.007,1.008-4-2c3.129-0.205,7.341,0.674,8.999-1c1.364-5.073-2.37-10.236,0-12.999
			c2.474,8.525,3.55,18.448,12.999,19.998c0.115,5.884,4.006,7.993,8.998,8.999c-0.408-2.003-2.476-7.416,0-8.999
			c-1.582,5.916,3.509,5.158,3,9.999c-3.145-1.146-2.43,1.57-3.999,2c-1.635,7.967,6.263,6.402,5.999,12.999
			c-2.752-2.248-6.049-3.95-6.999-7.999c-3.643,0.309-6.507-0.159-8.999-1c1.03,4.696-4.669,2.664-4,6.999
			C160.459,62.584,167.647,73.64,175.978,67.992z M143.982,38.995c0.388-2.945,4.711-1.955,5.999-4c-1.165-0.168-1.086-1.581-1-3
			C145.93,32.326,141.156,36.103,143.982,38.995z M158.98,48.994c-0.229,3.562,1.438,5.228,4.999,5c1.151-1.182,1.132-3.534,1-5.999
			c-1.741,0.075-3.109-0.224-4-1C160.866,48.214,160.681,49.361,158.98,48.994z M144.981,50.994c0.667,0,1.334,0,2,0
			c0-0.667,0-1.333,0-2c-0.666,0-1.333,0-2,0C144.981,49.661,144.981,50.327,144.981,50.994z M131.983,111.986
			c-2.59,3.075-6.069,5.262-6.999,9.998c-2.513,0.821-5.357,1.31-4.999,5c6.406,5.558,17.387-0.238,19.997-5
			C137.28,118.688,136.596,113.373,131.983,111.986z M139.982,113.985c-0.897-8.896,1.641-14.356,5.999-17.997
			c0.528-6.138-1.143-14.476,1-18.998c-3.04,0.04-6.581,0.582-5.999-3c7.351,2.449,12.496-4.425,15.998-8.999
			c-4.576-4.621-9.972-2.262-15.998-4.999c-4.206,15.878-11.739,40.22-4.999,54.993C137.874,115.21,138.189,113.858,139.982,113.985
			z"/>
		<path fill-rule="evenodd" clip-rule="evenodd" fill="#FFFFFF" d="M77.99,152.98c-2.068-10.566-1.353-22.295-3-32.995
			c-0.456-2.96-4.418-10.876-5-15.998c-0.434-3.827,0.535-7.399,0-10.999c-0.843-5.678-4.384-11.434-5-16.998
			c-0.605-5.471,1.938-11.463,1-15.998c-1.39-6.726-7.238-13.271-12.999-15.998c-1.286-14.074-17.242-15.327-25.997-6.999
			C25.16,50.156,15.538,55.532,15.998,70.991c-5.381,0.285-5.533,5.799-7.999,8.999c-0.004,3.67,3.501,3.831,5,5.999
			c1.893-0.201,6.626-2.578,4-3.999c2.291-4.097,1.333,3.188,3,2.999c4.863-0.47,3.799-6.866,4-11.999
			c1.082-5.583,6.219-7.112,5.999-13.998c1.889,0.111,0.694,3.306,3,3c2.304-1.41-0.075-6.512-3-5.999
			c-2.919,1.617-1.098,2.461-1,5.999c-3.385,2.615-4.769,7.23-7.999,9.999c1.296,2.902,1.296,7.096,0,9.999
			c-2.841,0.174,1.208-6.542-3-5c-3.353,0.313-2.802,4.53-3,7.999c-0.949-2.05-2.458-3.54-5-3.999
			c0.944-4.722,4.425-6.907,7.999-8.999c0.925-6.741,0.088-15.244,6-16.998c0-2.333,0-4.666,0-6.999
			c3.126-1.873,5.393-4.606,5-9.999c5.242-0.424,7.481-3.851,11.999-4.999c6.202-0.126,6.421,6.702,8.999,9.999
			c3.982,5.092,10.036,8.373,12.999,13.998c-1.045,16.143,2.114,32.104-4,43.995c-7.462-1.084-7.476-8.527-5-14.998
			c-4.116-4.532-1.348-15.51-4-18.998c0.076,1.049-1.987,3.174-2,5c-0.038,5.323,3.547,11.66,4,14.998
			c-3.124,0.457-3.197-2.137-3-4.999c-7.817,4.256-10.684,18.543-21.997,15.997c2.792,2.197,3.075,11.152,3,17.998
			c-5.662,3.671-6.43,12.234-10.999,16.998c3.09,0.576,3.516,3.816,3,7.999c-6.107,1.303-11.731,6.668-16.998,1
			c3.832-3.834,6.69-8.642,10.999-11.999c3.542-7.789,1.76-20.903,6.999-26.996c0-2.667,0-5.333,0-7.999
			c2.563-3.104,4.219-7.113,5-11.999c3.286-3.047,6.769-5.896,8.999-9.999c2.355-0.022,2.944,1.722,5.999,1
			c0.367-3.034-3.257-2.076-5-3c3.34-3.634-2.937-3.712-3-6.999c0.807,0.693,2.739,1.556,3,0c-0.443-0.89-0.878-1.789-2-2
			c-5.336,1.467,0.789,6.637,0,9.999c-3.759,2.573-5.861,6.804-9.999,8.999c-0.241,6.091-1.72,10.944-4.999,13.998
			c0.338,7.338-1.073,12.925-4,16.998c1.263,16.261-8.09,21.906-14.999,29.996c6.552,7.149,12.738,2.774,21.998,1
			c-1.917-14.249,2.816-21.848,7.999-28.997c-3.119-17.45,11.115-17.548,14.998-27.996c4.536,2.688,3.031,5.33,3,11.998
			c-6.581-1.581-6.234,3.765-8.999,6c-0.873,3.205,1.539,3.127,3,3.999c-1.633,3.541-3.889,3.55-4,6.999
			c-0.237,7.377,11.735,11.515,16.998,6c2.884-3.068-3.404-10.523,3-10.999c-5.208,9.841,3.535,15.048,4.999,21.997
			c1.203,5.709-1.243,11.388-1,16.998c0.131,3.032,0.431,2.414,2,3.999c-21.997,0-43.995,0-65.992,0C0,101.987,0,50.994,0,0
			c53.327,0,106.653,0,159.98,0c-2.847,4.005-8.352,2.654-11.999,5c-5.093,3.275-6.644,10.276-11.998,12.998
			c0.29,14.289-12.316,15.681-9.999,31.996c-1.386,4.035-7.646,5.325-8.999,9.999c-0.978,3.378,2.52,6.248,0,7.999
			c3.708-0.708,4.291,1.708,7.999,1c3.544-1.304-0.454-6.348,3-5.999c4.251-0.585,0.747,6.584,4.999,5.999
			c3.243-3.756,0.001-13.998,3.999-16.998c-0.869,3.869,2.442,3.557,3,5.999c-4.201,4.464-4.511,12.82-4.999,20.998
			c-5.231,6.435-3.826,19.504-4,30.996c-3.791,0.569-3.108,4.61-4.999,6.999c-2.755,3.479-8.708,5.285-8.999,10.999
			c7.146,7.683,19.423,2.018,24.997-3c0.458-9.36-1.789-15.635,1-22.997c1.368-3.614,5.167-4.866,5.999-8.999
			c1.089-5.414-2.861-10.566,0-16.998c3.581-3.085,7.521-5.812,10.999-8.999c8.028,2.874,9.412,6.567,13.998,11.999
			c3.282,3.889,6.217,4.74,6.999,7.999c0.881,3.671-0.629,7.261,0,11.998c12.806,7.173,0.466,39.793,16.998,37.995
			c3.391-0.368,4.183-3.202,6.999-5.999c0.359-6.025-2.359-8.973-2-14.998c-2.76-0.24-3.051-2.948-3.999-4.999
			c0.323-13.322-3.34-22.657-7.999-30.996c3.764-11.834-4.78-20.83-6-29.997c-0.492-3.705,1.067-7.725,1-10.999
			C185.683,24.729,172.971,19.014,171.979,5c-2.276-1.391-3.874-3.459-5.999-5c13.665,0,27.33,0,40.995,0
			c0,50.994,0,101.987,0,152.98C163.979,152.98,120.985,152.98,77.99,152.98z M44.994,69.991c0.422-2.204-2.995-5.515-3.999-3
			C43.034,67.286,42.956,69.697,44.994,69.991z M34.996,78.99c1,0,2,0,3,0c0.129-1.795-0.993-2.34-3-2
			C34.996,77.657,34.996,78.323,34.996,78.99z M43.995,83.989c0.398-2.81-4.256-5.637-5-3.999
			C41.258,80.728,41.183,83.801,43.995,83.989z M54.993,87.989c0.667,0,1.333,0,2,0c0.055-1.278,1.282-1.385,1-3
			c-0.667,0-1.333,0-2,0C55.938,86.268,54.711,86.374,54.993,87.989z M19.998,88.989c0.272-1.361-0.619-3.903-1-2
			C18.726,88.351,19.617,90.893,19.998,88.989z M19.998,93.988c0.272-1.361-0.619-3.903-1-2
			C18.726,93.35,19.617,95.892,19.998,93.988z"/>
		<path fill-rule="evenodd" clip-rule="evenodd" d="M65.992,152.98c-1.568-1.585-1.868-0.967-2-3.999
			c-0.243-5.61,2.203-11.289,1-16.998c-1.464-6.949-10.207-12.156-4.999-21.997c-6.404,0.476-0.116,7.931-3,10.999
			c-5.262,5.515-17.235,1.377-16.998-6c0.111-3.449,2.366-3.458,4-6.999c-1.461-0.872-3.872-0.794-3-3.999
			c2.765-2.235,2.418-7.581,8.999-6c0.031-6.668,1.536-9.31-3-11.998c-3.883,10.448-18.117,10.546-14.998,27.996
			c-5.183,7.149-9.916,14.748-7.999,28.997c-9.26,1.774-15.445,6.149-21.998-1c6.909-8.09,16.262-13.735,14.999-29.996
			c2.926-4.073,4.338-9.66,4-16.998c3.279-3.054,4.758-7.907,4.999-13.998c4.138-2.195,6.24-6.426,9.999-8.999
			c0.789-3.362-5.336-8.532,0-9.999c1.122,0.211,1.557,1.11,2,2c-0.261,1.556-2.193,0.693-3,0c0.062,3.287,6.34,3.365,3,6.999
			c1.743,0.924,5.367-0.034,5,3c-3.055,0.722-3.644-1.022-5.999-1c-2.23,4.102-5.713,6.952-8.999,9.999
			c-0.78,4.886-2.437,8.896-5,11.999c0,2.666,0,5.332,0,7.999c-5.239,6.093-3.457,19.207-6.999,26.996
			C11.69,133.341,8.831,138.148,5,141.982c5.266,5.668,10.891,0.303,16.998-1c0.516-4.183,0.091-7.423-3-7.999
			c4.568-4.764,5.337-13.327,10.999-16.998c0.076-6.846-0.208-15.801-3-17.998c11.313,2.546,14.18-11.741,21.997-15.997
			c-0.197,2.862-0.124,5.456,3,4.999c-0.453-3.338-4.037-9.675-4-14.998c0.013-1.825,2.075-3.95,2-5
			c2.652,3.488-0.117,14.465,4,18.998c-2.476,6.471-2.462,13.914,5,14.998c6.114-11.891,2.954-27.852,4-43.995
			c-2.962-5.625-9.017-8.906-12.999-13.998c-2.578-3.296-2.796-10.125-8.999-9.999c-4.518,1.148-6.757,4.575-11.999,4.999
			c0.393,5.393-1.873,8.126-5,9.999c0,2.333,0,4.666,0,6.999c-5.911,1.754-5.075,10.257-6,16.998
			c-3.574,2.092-7.055,4.277-7.999,8.999c2.541,0.459,4.05,1.949,5,3.999c0.198-3.469-0.354-7.686,3-7.999
			c4.208-1.542,0.159,5.174,3,5c1.296-2.903,1.296-7.097,0-9.999c3.23-2.769,4.614-7.384,7.999-9.999
			c-0.099-3.538-1.92-4.382,1-5.999c2.925-0.513,5.304,4.589,3,5.999c-2.306,0.306-1.111-2.889-3-3
			c0.22,6.886-4.917,8.415-5.999,13.998c-0.201,5.132,0.864,11.529-4,11.999c-1.667,0.189-0.708-7.096-3-2.999
			c2.627,1.421-2.106,3.798-4,3.999c-1.499-2.168-5.003-2.329-5-5.999c2.466-3.2,2.618-8.714,7.999-8.999
			c-0.46-15.459,9.162-20.835,10.999-33.996c8.755-8.328,24.71-7.075,25.997,6.999c5.761,2.727,11.608,9.272,12.999,15.998
			c0.938,4.535-1.605,10.527-1,15.998c0.616,5.564,4.156,11.32,5,16.998c0.535,3.6-0.434,7.172,0,10.999
			c0.581,5.122,4.544,13.038,5,15.998c1.646,10.7,0.932,22.429,3,32.995c-1,0-2,0-3,0c-0.368-1.7,0.78-1.886,2-1.999
			c0.025-4.905-3.309-9.162-4-13.999c-1.029-7.206,1.081-14.361-1-20.997c-0.807-2.573-3.438-4.297-4-6.999
			c-0.93-4.475,0.38-9.365,0-13.998c-0.227-2.756-0.06-8.15-3-9.999c1.569,10.235-3.055,14.276-5.999,19.998
			c4.453,3.426,2.238,9.56,2,15.998c8.479,8.397,6.169,20.291,6,31.995C66.658,152.98,66.325,152.98,65.992,152.98z M47.994,109.986
			c0.155-2.821-2.827-2.506-4-4C43.839,108.809,46.821,108.493,47.994,109.986z M47.994,112.986c1.16,0.839,2.681,1.318,4.999,0.999
			c-0.728-2.728,1.987-2.013,2-3.999C50.807,109.133,49.551,111.21,47.994,112.986z M45.994,120.985
			C52.5,124.251,50.049,118.126,45.994,120.985L45.994,120.985z"/>
		<path fill-rule="evenodd" clip-rule="evenodd" fill="#FFFFFF" d="M43.995,105.986c1.173,1.494,4.155,1.179,4,4
			C46.821,108.493,43.839,108.809,43.995,105.986z"/>
		<path fill-rule="evenodd" clip-rule="evenodd" d="M38.995,79.99c0.744-1.638,5.397,1.189,5,3.999
			C41.183,83.801,41.258,80.728,38.995,79.99z"/>
		<path fill-rule="evenodd" clip-rule="evenodd" fill="#FFFFFF" d="M152.98,60.992c-0.669-4.335,5.03-2.303,4-6.999
			c2.492,0.841,5.356,1.309,8.999,1c0.95,4.049,4.247,5.751,6.999,7.999c0.264-6.597-7.634-5.032-5.999-12.999
			c1.569-0.43,0.854-3.145,3.999-2c0.509-4.841-4.582-4.083-3-9.999c-2.476,1.583-0.408,6.996,0,8.999
			c-4.992-1.006-8.883-3.115-8.998-8.999c-9.449-1.549-10.525-11.472-12.999-19.998c-2.37,2.762,1.364,7.925,0,12.999
			c-1.658,1.674-5.87,0.795-8.999,1c-1.007,3.007,2.229,1.772,4,2c-0.842,13.048-11.411,17.466-8.999,30.996
			c-2.168,0.168-0.453-3.546-1-4.999c-5.465-0.799-7.798,1.534-6.999,6.999c-2.626-1.325-1.973-4.375-3.999-4
			c-0.396-6.062,4.261-7.071,6.999-9.999c-0.137-15.801,9.897-21.432,11.998-34.996c1.904-0.429,2.513-2.154,5-2
			c-0.679-7.009,5.687-7.762,8.998-8.999c5.843-2.182,7.431-7.073,14.998-4c1.202,4.464,3.571,7.761,4,12.999
			c6.315,6.548,15.174,19.416,8.999,31.996c3.487-0.463-1.286,17.48-5,19.998C167.647,73.64,160.459,62.584,152.98,60.992z
			 M154.98,24.997c0.667,0,1.333,0,2,0c0-0.667,0-1.333,0-2c-0.667,0-1.333,0-2,0C154.98,23.664,154.98,24.33,154.98,24.997z
			 M158.98,29.996c2.688,0.689,1.933-2.067,2.999-3C159.799,26.815,158.799,27.815,158.98,29.996z M165.979,43.995
			c0.688-2.688-2.067-1.933-3-3C162.798,43.176,163.798,44.176,165.979,43.995z"/>
		<path fill-rule="evenodd" clip-rule="evenodd" fill="#FFFFFF" d="M182.978,58.993c6.322-0.657,3.184,8.148,6.999,9.999
			c-1.521,9.275-1.239,16.289,4.999,21.997c-0.828,8.508,4.163,16.483,1,23.997c5.524,2.475,6.561,9.438,5.999,17.998
			c-9.627,4.76-12.72-5.13-11.998-13.998c1.646,5.164,3.135,0.555,4.999-2c-0.241-2.577-1.721,1.373-3.999,0
			c-0.971-8.695-3.457-15.874-8.999-19.997c0.205-7.205,0.239-14.238-2-18.998c-3.806-0.425-7.156-1.43-7.999-6.999
			C177.803,69.149,180.19,63.872,182.978,58.993z"/>
		<path fill-rule="evenodd" clip-rule="evenodd" fill="#FFFFFF" d="M135.983,114.985c-6.74-14.772,0.793-39.115,4.999-54.993
			c6.026,2.737,11.422,0.378,15.998,4.999c-3.502,4.574-8.647,11.448-15.998,8.999c-0.582,3.582,2.959,3.04,5.999,3
			c-2.143,4.522-0.472,12.86-1,18.998c-4.358,3.641-6.896,9.102-5.999,17.997C138.189,113.858,137.874,115.21,135.983,114.985z"/>
	</g>
</g>
</svg>
