<?xml version="1.0" encoding="utf-8"?>
<!-- Generator: Adobe Illustrator 15.1.0, SVG Export Plug-In  -->
<!DOCTYPE svg PUBLIC "-//W3C//DTD SVG 1.1//EN" "http://www.w3.org/Graphics/SVG/1.1/DTD/svg11.dtd" [
	<!ENTITY ns_flows "http://ns.adobe.com/Flows/1.0/">
]>
<svg version="1.1"
	 xmlns="http://www.w3.org/2000/svg" xmlns:xlink="http://www.w3.org/1999/xlink" xmlns:a="http://ns.adobe.com/AdobeSVGViewerExtensions/3.0/"
	 x="0px" y="0px" width="268px" height="112px" viewBox="0.044 0 268 112" enable-background="new 0.044 0 268 112"
	 xml:space="preserve">
<defs>
</defs>
<g>
	<g>
		<path fill-rule="evenodd" clip-rule="evenodd" fill="#FFFFFF" d="M1.044,0c88.989,0,177.978,0,266.967,0
			c0,37.329,0,74.657,0,111.986c-89.323,0-178.644,0-267.967,0c0-36.329,0-72.658,0-108.987C-0.042,1.581-0.121,0.168,1.044,0z
			 M3.043,3C-4.122,27.262,18.133,35.83,21.042,49.994c-4.333,0-8.666,0-12.999,0c-1.774,1.893-0.729,6.604-1,9.999
			c5.411,1.922,14.038,0.627,20.998,1c1.733,11.152,1.557,26.291-1,33.996c-4,0-7.999,0-11.999,0c0,3.333,0,6.666,0,9.999
			c4.674,0.675-0.443-8.443,4-7.999c10.999,0,21.998,0,32.996,0c2.672,0.993-1.326,8.657,3,7.999c0-3.333,0-6.666,0-9.999
			c-4.666,0-9.332,0-13.998,0c0.662-11.003-1.328-24.658,1-33.996c5.666,0,11.332,0,16.998,0c0.924-3.339,0.924-7.659,0-10.999
			c-5.333,0-10.666,0-15.998,0c4.912-5.138,11.099-8.437,18.998-7.999c3.242,0.18,6.124,2.756,8.999,3
			c9.962,0.846,15.927-5.683,24.997-7.999c8.74,6.341,4.449,17.876,7,25.997c1.564,4.983,7.609,10.484,10.999,15.998
			c4.734,7.701,5.589,16.762,9.999,21.997c7.746,9.195,23.818,8.286,39.995,8.999c8.968,0.395,18.806,0.714,26.997,0
			c12.178-1.062,22.74-7.397,32.995-7.999c9.105-7.559,16.79-16.54,18.998-30.996c5.597-6.62,19.607-8.49,21.997-18.998
			c3.13-13.759-6.432-26.616-21.997-23.997c-7.312,1.23-8.453,9.061-18.998,8.999c-0.252,6.414-4.287,9.044-7.999,11.998
			c-1.463,3.558,3.213,5.992,1,7c-8.138-0.528-11.109-6.221-15.998-9.999c-3.495,0.339-7.757,1.256-10.998,1
			c-6.604,9.438-4.109,21.392-16.998,22.997c-6.905,0.86-16.209-2.696-21.997-6.999c-4.608-16.522-15.342-29.546-25.997-38.995
			c-4.883-4.33-7.203-5.06-12.999-7.999c-3.122-1.583-3.321-3.602-5.999-4c-6.491-0.965-19.044,2.247-28.997,4
			c-12.832,2.26-25.378,8.541-35.995,6.999c-7.942-1.153-10.641-9.316-16.998-13.998c-4.357-1.358-3.618,2.382-6,3
			C13.957,8.228,11.066-3.32,3.043,3z"/>
		<path fill-rule="evenodd" clip-rule="evenodd" fill="#FFFFFF" d="M6.043,4c1,0,2,0,3,0c4.622,9.709,12.653,16.01,24.997,17.998
			c-0.774,3.024-5.309,18.333,3,19.998c-1.992,3.674-5.746,5.586-8.999,7.999c-9.259-8.739-15.306-20.69-22.997-30.996
			C5.212,13.834,4.424,7.713,6.043,4z"/>
		<path fill-rule="evenodd" clip-rule="evenodd" fill="#FFFFFF" d="M139.026,44.994c-3.572,13.426-14.287,19.709-25.997,24.997
			c-11.372-5.293-4.194-29.135-14.998-34.996c-10.104-0.858-16.563,7.379-25.997,6.999c-6.185-0.249-11.439-5.664-17.998-5.999
			c-7.514-0.385-13.81,5.407-19.998,0c-1.97-2.089-0.764-6.64,0-8.999c22.354-2.343,47.316-9.139,66.992-10.999
			C117.43,14.448,130.079,34.062,139.026,44.994z M64.036,27.997c-4.159-2.456-11.036,0.936-13.999,3
			c5.444,0.112,7.784-2.882,12.999-3c-0.013,1.987-2.728,1.271-2,4c4.389-2.61,8.422-5.577,13.999-6.999
			C71.745,22.946,67.482,27.03,64.036,27.997z"/>
		<path fill-rule="evenodd" clip-rule="evenodd" fill="#FFFFFF" d="M248.013,62.992c2.021-2.055,6.776-7.221,2-9.999
			c-0.805,2.17,0.227,6.103-3,7.999c-5.358-1.251-9.034-2.647-14.998-1c3.619,2.58,8.317,1.802,14.998,3
			c-3.228,1.438-4.029,5.303-6.999,6.999c0,1.666,0,3.333,0,4.999c-6.419,9.913-8.975,23.688-22.997,25.997
			c1.414-3.586,4.325-5.674,5.999-8.999c-5.716,0.975-6.719,7.441-10.998,9.999c-5.439,3.251-14.058,3.012-23.997,3.999
			c-3.182-3.782-5.881-3.186-8.999-2.999c-3.214-21.123,8.712-28.05,10.999-45.994c3.357-3.087,12.452-2.431,15.998,0
			c-0.31,3.642,0.158,6.507,1,8.999c-2.395,1.271-3.683,3.65-7.999,2.999c-4.521,7.387,1.755,15.22-1,22.997
			c7.481-2.328-1.339-15.702,4.999-17.997c2.333,0,4.666,0,6.999,0c3.535-3.495-1.533-8.671-1-16.998
			c4.654,0.678,8.379,2.287,12.999,2.999c-1.548,1.786-6.002,0.665-7,3c11.313,0.02,13.371,9.294,19.998,13.998
			c-2.462-5.87-6.564-10.1-9.999-14.998c-0.044-2.557,0.743-1.219,2-1c-1.844-3.822-5.969-5.363-7.999-8.999
			c0.834-5.832,8.353-4.979,6.999-12.999c3.246,0.58,4.651-0.681,6.999-1c8.86-12.81,29.779-6.575,29.996,7.999
			C263.134,54.208,256.752,60.479,248.013,62.992z M202.019,84.989c1.365-0.426,8.16-1.907,10.999-2
			C210.325,81.275,202.72,81.561,202.019,84.989z M185.021,96.988c3.22-0.491,4.007-8.601,2-10.999
			C185.889,89.19,184.987,92.621,185.021,96.988z"/>
		<path fill-rule="evenodd" clip-rule="evenodd" fill="#FFFFFF" d="M59.037,39.995c-11.025,0.307-14.012,8.651-23.997,9.999
			C38.236,42.076,48.52,37.436,59.037,39.995z"/>
		<path fill-rule="evenodd" clip-rule="evenodd" fill="#FFFFFF" d="M204.019,51.994c-3.075,0.466-11.253-0.537-14.998,2
			C191.036,48.269,198.946,48.417,204.019,51.994z"/>
		<path fill-rule="evenodd" clip-rule="evenodd" fill="#FFFFFF" d="M31.04,60.992c2.333,0,4.666,0,6.999,0
			c2.268,9.398,0.382,22.949,1,33.996c-2.667,0-5.333,0-7.999,0C31.04,83.656,31.04,72.324,31.04,60.992z"/>
		<path fill-rule="evenodd" clip-rule="evenodd" fill="#FFFFFF" d="M182.021,69.991c-2.913,9.185-13.114,28.123-2,35.995
			c-5.109,1.754-16.854,1.541-21.997,0c4.416-8.248,3.922-21.408,3.999-33.995c5.378-0.712,7.344,1.988,7.999,5.999
			c2.726-0.92-1.396-3.126,0-5.999C176.065,74.915,176.052,69.659,182.021,69.991z M178.021,76.99
			c0.182-2.181-0.818-3.181-2.999-2.999C174.841,76.172,175.841,77.172,178.021,76.99z"/>
		<path fill-rule="evenodd" clip-rule="evenodd" fill="#FFFFFF" d="M208.018,69.991c-0.24,1.759-1.72,2.279-3.999,2
			C204.676,70.649,206.155,70.129,208.018,69.991z"/>
		<path fill-rule="evenodd" clip-rule="evenodd" d="M175.022,73.991c2.181-0.182,3.181,0.818,2.999,2.999
			C175.841,77.172,174.841,76.172,175.022,73.991z"/>
		<path fill-rule="evenodd" clip-rule="evenodd" d="M213.018,82.989c-2.839,0.093-9.634,1.574-10.999,2
			C202.72,81.561,210.325,81.275,213.018,82.989z"/>
		<path fill-rule="evenodd" clip-rule="evenodd" d="M187.021,85.989c2.007,2.398,1.22,10.508-2,10.999
			C184.987,92.621,185.889,89.19,187.021,85.989z"/>
		<path fill-rule="evenodd" clip-rule="evenodd" fill="#FFFFFF" d="M20.042,11.999c4.85-3.61,7.381,2.204,8.999,5
			C27.213,18.107,20.707,15.371,20.042,11.999z"/>
		<path fill-rule="evenodd" clip-rule="evenodd" d="M75.035,24.997c-5.577,1.422-9.609,4.389-13.999,6.999
			c-0.728-2.728,1.987-2.013,2-4c-5.215,0.118-7.554,3.111-12.999,3c2.963-2.063,9.84-5.455,13.999-3
			C67.482,27.03,71.745,22.946,75.035,24.997z"/>
		<path fill-rule="evenodd" clip-rule="evenodd" fill="#FFFFFF" d="M156.024,68.991c2.457,11.078,0.733,25.853-2,34.996
			c7.139-5.527,1.826-23.505,5-32.996c4.871,9.796,0.18,26.654-3,34.995c-31.677,6.348-31.271-19.389-42.995-32.995
			c8.602-5.397,17.364-10.633,23.997-17.998c1.757-2.243,0.812-7.187,5-6.999c4.172,8.492,8.13,17.2,7.999,29.996
			c3.427,1.015,2.381-7.511,1-7.999C151.217,65.863,152.883,72.129,156.024,68.991z"/>
		<path fill-rule="evenodd" clip-rule="evenodd" d="M18.042,11.999c2.382-0.618,1.642-4.357,6-3
			c6.357,4.682,9.056,12.845,16.998,13.998c10.617,1.542,23.164-4.739,35.995-6.999c9.952-1.752,22.506-4.965,28.997-4
			c2.678,0.398,2.877,2.416,5.999,4c5.795,2.939,8.116,3.669,12.999,7.999c10.655,9.449,21.389,22.473,25.997,38.995
			c5.788,4.303,15.092,7.859,21.997,6.999c12.889-1.605,10.395-13.559,16.998-22.997c3.241,0.256,7.503-0.661,10.998-1
			c4.889,3.778,7.86,9.471,15.998,9.999c2.213-1.008-2.463-3.442-1-7c3.712-2.954,7.747-5.584,7.999-11.998
			c10.545,0.062,11.687-7.769,18.998-8.999c15.565-2.619,25.127,10.238,21.997,23.997c-2.39,10.507-16.4,12.377-21.997,18.998
			c-2.208,14.456-9.893,23.438-18.998,30.996c-10.255,0.602-20.817,6.937-32.995,7.999c-8.191,0.714-18.029,0.395-26.997,0
			c-16.177-0.713-32.25,0.196-39.995-8.999c-4.41-5.235-5.265-14.296-9.999-21.997c-3.389-5.514-9.434-11.015-10.999-15.998
			c-2.55-8.121,1.74-19.655-7-25.997c-9.069,2.316-15.034,8.844-24.997,7.999c-2.875-0.244-5.757-2.82-8.999-3
			c-7.899-0.438-14.085,2.861-18.998,7.999c5.333,0,10.666,0,15.998,0c0.924,3.339,0.924,7.66,0,10.999c-5.666,0-11.332,0-16.998,0
			c-2.328,9.338-0.337,22.993-1,33.996c4.666,0,9.332,0,13.998,0c0,3.333,0,6.666,0,9.999c-4.325,0.658-0.327-7.006-3-7.999
			c-10.999,0-21.998,0-32.996,0c-4.443-0.444,0.675,8.674-4,7.999c0-3.333,0-6.666,0-9.999c4,0,7.999,0,11.999,0
			c2.557-7.705,2.733-22.844,1-33.996c-6.959-0.373-15.586,0.922-20.998-1c0.271-3.395-0.774-8.106,1-9.999
			c4.333,0,8.666,0,12.999,0C18.133,35.83-4.122,27.262,3.043,3C11.066-3.32,13.957,8.228,18.042,11.999z M5.043,18.998
			c7.691,10.306,13.738,22.257,22.997,30.996c3.253-2.413,7.007-4.325,8.999-7.999c-8.309-1.664-3.774-16.974-3-19.998
			C21.696,20.009,13.665,13.709,9.043,4c-1,0-2,0-3,0C4.424,7.713,5.212,13.834,5.043,18.998z M29.041,16.998
			c-1.618-2.796-4.149-8.609-8.999-5C20.707,15.371,27.213,18.107,29.041,16.998z M101.031,15.998
			c-19.676,1.86-44.637,8.656-66.992,10.999c-0.764,2.359-1.97,6.91,0,8.999c6.188,5.407,12.483-0.385,19.998,0
			c6.559,0.335,11.813,5.75,17.998,5.999c9.433,0.38,15.893-7.857,25.997-6.999c10.804,5.86,3.626,29.703,14.998,34.996
			c11.71-5.288,22.424-11.571,25.997-24.997C130.079,34.062,117.43,14.448,101.031,15.998z M263.011,45.994
			c-0.217-14.574-21.136-20.809-29.996-7.999c-2.348,0.319-3.753,1.58-6.999,1c1.354,8.019-6.165,7.167-6.999,12.999
			c2.03,3.635,6.155,5.176,7.999,8.999c-1.257-0.219-2.044-1.557-2,1c3.435,4.898,7.537,9.128,9.999,14.998
			c-6.627-4.704-8.685-13.979-19.998-13.998c0.998-2.335,5.452-1.214,7-3c-4.62-0.712-8.345-2.321-12.999-2.999
			c-0.533,8.327,4.535,13.503,1,16.998c-2.333,0-4.666,0-6.999,0c-6.338,2.295,2.482,15.669-4.999,17.997
			c2.755-7.777-3.521-15.61,1-22.997c4.316,0.651,5.604-1.728,7.999-2.999c-0.842-2.492-1.31-5.357-1-8.999
			c-3.546-2.431-12.641-3.087-15.998,0c-2.287,17.944-14.213,24.871-10.999,45.994c3.118-0.187,5.817-0.783,8.999,2.999
			c9.939-0.987,18.558-0.748,23.997-3.999c4.279-2.558,5.282-9.024,10.998-9.999c-1.674,3.325-4.585,5.413-5.999,8.999
			c14.022-2.31,16.578-16.084,22.997-25.997c0-1.666,0-3.333,0-4.999c2.97-1.696,3.771-5.562,6.999-6.999
			c-6.681-1.198-11.379-0.42-14.998-3c5.964-1.647,9.64-0.251,14.998,1c3.227-1.896,2.195-5.829,3-7.999
			c4.776,2.778,0.021,7.944-2,9.999C256.752,60.479,263.134,54.208,263.011,45.994z M35.04,49.994
			c9.985-1.347,12.972-9.692,23.997-9.999C48.52,37.436,38.236,42.076,35.04,49.994z M151.025,69.991
			c1.381,0.488,2.427,9.014-1,7.999c0.131-12.796-3.827-21.504-7.999-29.996c-4.188-0.188-3.243,4.756-5,6.999
			c-6.632,7.365-15.395,12.601-23.997,17.998c11.724,13.606,11.317,39.343,42.995,32.995c3.18-8.341,7.871-25.199,3-34.995
			c-3.174,9.491,2.139,27.469-5,32.996c2.733-9.144,4.457-23.918,2-34.996C152.883,72.129,151.217,65.863,151.025,69.991z
			 M189.021,53.993c3.745-2.536,11.923-1.533,14.998-2C198.946,48.417,191.036,48.269,189.021,53.993z M31.04,94.988
			c2.667,0,5.333,0,7.999,0c-0.618-11.047,1.268-24.598-1-33.996c-2.333,0-4.666,0-6.999,0C31.04,72.324,31.04,83.656,31.04,94.988z
			 M170.022,71.991c-1.396,2.873,2.726,5.079,0,5.999c-0.655-4.011-2.621-6.711-7.999-5.999
			c-0.077,12.587,0.417,25.747-3.999,33.995c5.143,1.541,16.888,1.754,21.997,0c-11.114-7.872-0.913-26.811,2-35.995
			C176.052,69.659,176.065,74.915,170.022,71.991z M204.019,71.991c2.279,0.279,3.759-0.241,3.999-2
			C206.155,70.129,204.676,70.649,204.019,71.991z"/>
	</g>
</g>
</svg>
