<?xml version="1.0" encoding="utf-8"?>
<!-- Generator: Adobe Illustrator 15.1.0, SVG Export Plug-In  -->
<!DOCTYPE svg PUBLIC "-//W3C//DTD SVG 1.1//EN" "http://www.w3.org/Graphics/SVG/1.1/DTD/svg11.dtd" [
	<!ENTITY ns_flows "http://ns.adobe.com/Flows/1.0/">
]>
<svg version="1.1"
	 xmlns="http://www.w3.org/2000/svg" xmlns:xlink="http://www.w3.org/1999/xlink" xmlns:a="http://ns.adobe.com/AdobeSVGViewerExtensions/3.0/"
	 x="0px" y="0px" width="244px" height="176px" viewBox="0.044 0 244 176" enable-background="new 0.044 0 244 176"
	 xml:space="preserve">
<defs>
</defs>
<g>
	<g>
		<path fill-rule="evenodd" clip-rule="evenodd" fill="#FFFFFF" d="M1.044,0c80.99,0,161.979,0,242.97,0
			c0,58.659,0,117.319,0,175.978c-81.323,0-162.647,0-243.97,0c0-57.659,0-115.319,0-172.978C-0.042,1.581-0.121,0.168,1.044,0z
			 M190.021,3c-6.999,0-13.999,0-20.998,0C171.125,6.334,188.945,6.178,190.021,3z M55.037,28.997c1.517-3.483,2.659-7.34,8.999-6
			c0.295,6.236,0.864,0.839,4,5c-1.556-9.173,8.187-18.205,21.997-17.998c-0.279,2.279,0.241,3.759,2,4
			c-0.289-4.955,4.538-4.794,7-6.999c4.164,0.502,5.687,3.646,10.999,3c-2.346-3.987-8.49-4.175-12.999-5.999
			c0.377,3.044-3.635,1.698-4,4c-2.631-1.036-6.136-1.196-9.999-1c-1.386,2.644-4.93,1.877-6.999,3c-0.644,0.349-0.473,2.672-1,3
			c-0.904,0.562-3.181-0.661-4,0c-3.478,2.808-4.674,9.877-11.999,7.999c1.453-5.453-3.173-4.826-4-7.999
			c-3.781-1.448-1.919,2.747-5,2c-1.815-1.518-3.444-3.221-5.999-4c-7.37,1.829-22.378,1.573-24.997,10.999
			c-1.162,4.182,0.169,10.263,4,13.999c-6.333,0-12.665,0-18.998,0c0.151,3.646,5.514,1.921,6.999,2
			c48.975,2.582,99.297-1.944,146.982,0c-2.768-3.865-7.896-1.936-11.999-2c-39.163-0.614-81.381,0.463-118.985,0
			C10.865,24.05,30.812,11.157,44.039,13.998c3.988,3.25,8.709,3.773,11.999,3C58.912,19.622,52.803,30.338,55.037,28.997z
			 M143.026,9.999c8.762,1.096,16.609-7.885,21.997-1c-0.826-2.826,1.409-2.59,1-5C156.039,3.556,147.753,5.353,143.026,9.999z
			 M237.015,72.991c-2.813,3.52-11.206,1.46-16.998,2c-3.433-4.9-14.956-1.709-16.998-7.999c5.89-13.982-21.146-26.206-6.999-41.995
			c-4.666,0-9.332,0-13.998,0c-3.434,1.988-7.839,5.395-13.999,5.999c-1.226,0.12-3.373-1.866-4.999-2
			c-11.572-0.954-20.852,1.602-27.996-2c-1.687-0.85-4.203-0.854-3-3c-3.425,3.111-4.139,0.296-6.999-2
			c-0.096,1.571,0.134,3.467-2,3c-4.999,0-9.999,0-14.998,0c-2.015-1.683-10.192-6.637-11.999-2c2.735,1.598,6.607,2.059,10.999,2
			c2.88,0.12,1.735,4.264,4.999,4c11.453-5.567,23.668,2.377,35.996,4c6.446,0.848,13.191-1.637,18.998,2
			c1.018,5.684-2.47,6.863-6,7.999c0-1.667,0-3.333,0-5c-2.117,1.093-4.585,1.689-6.999,2c-26.924,3.463-64.181-0.637-90.988,0
			c-3.356,0.08-8.964-1.784-10.999,2c37.217,1.111,79.019-2.362,112.986,2c0.24-1.759,1.72-2.279,3.999-2
			c0.827-4.076,0.153-3.443,0-7.999c6.262-3.071,12.78-5.884,20.998-6.999c0.754,6.087-1.599,9.067-1,14.998
			c6.529,6.136,13.16,12.17,10.998,26.997c9.326,6.148,31.074,13.854,39.995,3c-5.155-7.843-16.5-9.497-22.997-15.998
			C209.185,38.162,216.84,4.843,192.02,4c4.197,4.469,12.178,5.154,14.999,10.999c0.948,15.715,5.834,27.495,6.999,42.995
			C221.255,63.42,232.067,65.273,237.015,72.991z M125.028,19.998c3.351-0.982,2.467-6.199,5.999-6.999c2.409-0.41,2.174,1.826,5,1
			c1.532-1.8,3.666-2.999,5.999-4c-10.838,1.103-22.189,0.16-30.996,1C116.6,16.163,131.151,10.094,125.028,19.998z M162.023,13.998
			c0.667,0,1.333,0,2,0c0-1.333,0-2.666,0-4c-0.667,0-1.333,0-2,0C162.023,11.332,162.023,12.665,162.023,13.998z M164.023,20.998
			c-0.605-2.062,1.613-6.946-2-6C162.629,17.059,160.41,21.944,164.023,20.998z M86.033,29.996c2.197-1.135,3.322-3.344,5.999-4
			c0.992-4.587-4.285-6.213-1-9.999c-3.541,0.334-2.458,2.75-6,1c0.504,3.495,4.426,3.573,5,6.999
			C89.035,25.733,84.531,29.07,86.033,29.996z M130.027,22.997c1.375-1.282,1.741-5.979-1-5.999
			C129.604,18.756,127.819,22.873,130.027,22.997z M78.034,20.998c0.125-2.208,4.241-0.425,5.999-1
			C84.489,15.088,74.102,19.335,78.034,20.998z M162.023,25.997c0.667,0,1.333,0,2,0c0-0.667,0-1.333,0-2c-0.667,0-1.333,0-2,0
			C162.023,24.664,162.023,25.33,162.023,25.997z M66.036,33.996c0.772-0.684,2.603-5.957-1-4.999
			C65.583,30.449,63.867,34.164,66.036,33.996z M38.039,33.996c0.667,0,1.333,0,2,0c0-1.333,0-2.666,0-4c-0.667,0-1.333,0-2,0
			C38.039,31.33,38.039,32.663,38.039,33.996z M45.038,33.996c3.882,0.216,6.272-1.06,7-4
			C48.551,30.176,47.654,32.945,45.038,33.996z M83.034,33.996c-0.957-1.862,2.995-3.342,0-4
			C82.161,31.759,79.688,33.092,83.034,33.996z M115.03,33.996c11.987,0.335,9.362-1.545,0-1c-0.224-0.776-0.028-1.973-1-2
			C113.986,32.373,114.5,33.191,115.03,33.996z M48.038,162.979c51.083,1.053,98.363-0.369,146.981,1c0.61,0.057,1.184,0.149,1,1
			c-32.33,2.332-68.991,0.334-102.987,1c2.227,3.845,7.913,1.92,10.999,1.999c32.803,0.843,66.49-0.636,97.988,0
			c1.507,1.494,1.518,4.482,5,4c3.231-1.017,5.231,0.709,5.999-4c2.467,2.174,5.645-1.004,4.999-4.999
			c-5.775-7.557-20.559-6.104-30.996-8.999c12.328-4.504,10.232-23.379,3-31.996c-10.95-4.715-23.562-7.767-39.995-6.999
			c2.753-4.676-1.384-6.848-1-11.998c2.263-4.489,5.556-4.687,5.999-8.999c0.556-5.399-5.646-8.938-3.999-15.998
			c-6.002-3.997-9.988-10.01-18.998-10.999c-10.876,3.74-5.537,17.912-2,25.997c-2.763,8.306-14.042,14.798-15.998,24.997
			c-0.959,4.999-0.287,11.46,2,16.998c-7.362,2.637-8.427,11.569-18.998,10.998c-2.246-0.42-0.027-5.305-2-5.999
			c-10.41,0.607-25.715-6.009-34.996,2c-4.621,3.987-5.671,12.314-4,18.997c-6.666,0-13.332,0-19.998,0
			C38.688,164.771,44.691,162.91,48.038,162.979z"/>
		<path fill-rule="evenodd" clip-rule="evenodd" d="M169.022,3c6.999,0,13.999,0,20.998,0C188.945,6.178,171.125,6.334,169.022,3z"
			/>
		<path fill-rule="evenodd" clip-rule="evenodd" d="M166.023,4c0.409,2.409-1.826,2.173-1,5c-5.388-6.885-13.235,2.096-21.997,1
			C147.753,5.353,156.039,3.556,166.023,4z"/>
		<path fill-rule="evenodd" clip-rule="evenodd" d="M162.023,9.999c0.667,0,1.333,0,2,0c0,1.333,0,2.667,0,4c-0.667,0-1.333,0-2,0
			C162.023,12.665,162.023,11.332,162.023,9.999z"/>
		<path fill-rule="evenodd" clip-rule="evenodd" d="M162.023,14.998c3.613-0.947,1.395,3.938,2,6
			C160.41,21.944,162.629,17.059,162.023,14.998z"/>
		<path fill-rule="evenodd" clip-rule="evenodd" d="M129.027,16.998c2.741,0.02,2.375,4.717,1,5.999
			C127.819,22.873,129.604,18.756,129.027,16.998z"/>
		<path fill-rule="evenodd" clip-rule="evenodd" d="M162.023,23.997c0.667,0,1.333,0,2,0c0,0.667,0,1.333,0,2c-0.667,0-1.333,0-2,0
			C162.023,25.33,162.023,24.664,162.023,23.997z"/>
		<path fill-rule="evenodd" clip-rule="evenodd" d="M65.036,28.997c3.603-0.958,1.772,4.315,1,4.999
			C63.867,34.164,65.583,30.449,65.036,28.997z"/>
		<path fill-rule="evenodd" clip-rule="evenodd" d="M38.039,29.996c0.667,0,1.333,0,2,0c0,1.333,0,2.667,0,4c-0.667,0-1.333,0-2,0
			C38.039,32.663,38.039,31.33,38.039,29.996z"/>
		<path fill-rule="evenodd" clip-rule="evenodd" d="M52.038,29.996c-0.727,2.94-3.117,4.215-7,4
			C47.654,32.945,48.551,30.176,52.038,29.996z"/>
		<path fill-rule="evenodd" clip-rule="evenodd" d="M83.034,29.996c2.995,0.658-0.957,2.137,0,4
			C79.688,33.092,82.161,31.759,83.034,29.996z"/>
		<path fill-rule="evenodd" clip-rule="evenodd" d="M144.026,94.988c1.207-3.013,4.37,0.151,2.999,2.999
			C145.137,97.877,146.332,94.682,144.026,94.988z"/>
		<path fill-rule="evenodd" clip-rule="evenodd" d="M138.026,109.986c2.134-0.467,1.904,1.429,2,3c-1,0-2,0-3,0
			C137.556,112.182,138.07,111.362,138.026,109.986z"/>
		<path fill-rule="evenodd" clip-rule="evenodd" d="M166.023,132.983c4.427-0.127,0.893,5.206,0,5.999
			C162.985,137.75,167.107,135.544,166.023,132.983z"/>
		<path fill-rule="evenodd" clip-rule="evenodd" d="M142.026,148.981C134.866,151.969,130.548,147.864,142.026,148.981
			L142.026,148.981z"/>
		<path fill-rule="evenodd" clip-rule="evenodd" d="M152.025,149.981c2.296,3.704,9.815-1.975,11.998,2.999
			c-5.429-0.762-8.099,1.234-12.998,1C151.802,153.091,152.1,151.723,152.025,149.981z"/>
		<path fill-rule="evenodd" clip-rule="evenodd" d="M169.022,150.981c1.44,0.56,2.44,1.56,3,2.999c8.445,2.134-3.781-0.987-5.999,0
			C165.717,151.675,168.912,152.87,169.022,150.981z"/>
		<path fill-rule="evenodd" clip-rule="evenodd" d="M160.024,159.98c-0.169-2.169,3.546-0.453,4.999-1
			C165.191,161.148,161.477,159.434,160.024,159.98z"/>
		<path fill-rule="evenodd" clip-rule="evenodd" d="M56.037,16.998c-3.289,0.773-8.01,0.25-11.999-3
			C30.812,11.157,10.865,24.05,27.041,35.996c37.604,0.463,79.822-0.614,118.985,0c4.103,0.064,9.231-1.866,11.999,2
			c-47.685-1.944-98.007,2.582-146.982,0c-1.485-0.078-6.848,1.646-6.999-2c6.333,0,12.665,0,18.998,0
			c-3.831-3.736-5.161-9.817-4-13.999c2.619-9.425,17.627-9.169,24.997-10.999c2.555,0.778,4.184,2.481,5.999,4
			c3.081,0.748,1.219-3.447,5-2c0.827,3.173,5.453,2.546,4,7.999c7.324,1.878,8.521-5.191,11.999-7.999c0.818-0.661,3.095,0.562,4,0
			c0.527-0.328,0.356-2.651,1-3c2.069-1.122,5.613-0.356,6.999-3c3.863-0.196,7.368-0.036,9.999,1c0.365-2.302,4.377-0.956,4-4
			c4.509,1.824,10.653,2.012,12.999,5.999c-5.312,0.646-6.834-2.498-10.999-3c-2.462,2.205-7.289,2.044-7,6.999
			c-1.759-0.241-2.279-1.72-2-4c-13.811-0.207-23.553,8.825-21.997,17.998c-3.136-4.16-3.704,1.236-4-5
			c-6.34-1.341-7.482,2.517-8.999,6C52.803,30.338,58.912,19.622,56.037,16.998z"/>
		<path fill-rule="evenodd" clip-rule="evenodd" d="M214.018,57.993c-1.165-15.5-6.051-27.279-6.999-42.995
			C204.197,9.153,196.217,8.468,192.02,4c24.82,0.844,17.165,34.162,24.997,51.994c6.497,6.501,17.842,8.155,22.997,15.998
			c-8.921,10.854-30.669,3.148-39.995-3c2.162-14.827-4.469-20.861-10.998-26.997c-0.599-5.931,1.754-8.911,1-14.998
			c-8.218,1.115-14.736,3.928-20.998,6.999c0.153,4.556,0.827,3.923,0,7.999c-2.279-0.279-3.759,0.241-3.999,2
			c-33.967-4.362-75.769-0.889-112.986-2c2.034-3.783,7.642-1.92,10.999-2c26.808-0.637,64.064,3.463,90.988,0
			c2.414-0.311,4.882-0.907,6.999-2c0,1.667,0,3.333,0,5c3.53-1.136,7.018-2.315,6-7.999c-5.807-3.637-12.552-1.151-18.998-2
			c-12.327-1.623-24.543-9.566-35.996-4c-3.264,0.264-2.119-3.88-4.999-4c-4.392,0.059-8.264-0.402-10.999-2
			c1.807-4.637,9.983,0.317,11.999,2c5,0,9.999,0,14.998,0c2.134,0.467,1.904-1.429,2-3c2.86,2.296,3.574,5.111,6.999,2
			c-1.203,2.145,1.313,2.149,3,3c7.145,3.602,16.424,1.046,27.996,2c1.626,0.134,3.773,2.12,4.999,2
			c6.16-0.604,10.565-4.011,13.999-5.999c4.666,0,9.332,0,13.998,0c-14.146,15.789,12.889,28.013,6.999,41.995
			c2.042,6.29,13.565,3.099,16.998,7.999c5.792-0.54,14.185,1.52,16.998-2C232.067,65.273,221.255,63.42,214.018,57.993z"/>
		<path fill-rule="evenodd" clip-rule="evenodd" d="M111.03,10.999c8.807-0.84,20.158,0.103,30.996-1c-2.333,1-4.467,2.199-5.999,4
			c-2.826,0.827-2.591-1.409-5-1c-3.532,0.8-2.648,6.017-5.999,6.999C131.151,10.094,116.6,16.163,111.03,10.999z"/>
		<path fill-rule="evenodd" clip-rule="evenodd" d="M90.033,23.997c-0.574-3.426-4.495-3.504-5-6.999c3.541,1.75,2.458-0.666,6-1
			c-3.286,3.786,1.992,5.412,1,9.999c-2.677,0.656-3.802,2.864-5.999,4C84.531,29.07,89.035,25.733,90.033,23.997z"/>
		<path fill-rule="evenodd" clip-rule="evenodd" d="M84.033,19.998c-1.758,0.575-5.875-1.208-5.999,1
			C74.102,19.335,84.489,15.088,84.033,19.998z"/>
		<path fill-rule="evenodd" clip-rule="evenodd" d="M114.03,30.996c0.972,0.027,0.776,1.224,1,2c9.362-0.545,11.987,1.335,0,1
			C114.5,33.191,113.986,32.373,114.03,30.996z"/>
		<path fill-rule="evenodd" clip-rule="evenodd" d="M36.04,160.979c6.666,0,13.332,0,19.998,0c-1.672-6.683-0.622-15.01,4-18.997
			c9.28-8.009,24.586-1.393,34.996-2c1.972,0.694-0.247,5.579,2,5.999c10.57,0.571,11.636-8.361,18.998-10.998
			c-2.286-5.538-2.958-11.999-2-16.998c1.956-10.199,13.235-16.691,15.998-24.997c-3.537-8.084-8.876-22.256,2-25.997
			c9.01,0.989,12.996,7.001,18.998,10.999c-1.646,7.06,4.555,10.599,3.999,15.998c-0.443,4.312-3.736,4.51-5.999,8.999
			c-0.384,5.15,3.753,7.322,1,11.998c16.433-0.768,29.045,2.284,39.995,6.999c7.232,8.617,9.328,27.492-3,31.996
			c10.438,2.895,25.221,1.442,30.996,8.999c0.646,3.995-2.532,7.173-4.999,4.999c-0.768,4.709-2.768,2.983-5.999,4
			c-3.482,0.482-3.493-2.506-5-4c-31.498-0.636-65.185,0.843-97.988,0c-3.085-0.079-8.772,1.846-10.999-1.999
			c33.996-0.666,70.657,1.332,102.987-1c0.184-0.851-0.39-0.943-1-1c-48.618-1.369-95.898,0.053-146.981-1
			C44.691,162.91,38.688,164.771,36.04,160.979z M141.026,70.991c-5.556,0.277-7.412-1.604-11.999,0
			c-3.126,8.326,1.834,15.779,4,21.997c-5.625,12.351-22.133,21.163-15.998,38.995c2.684,1.982,6.854,2.478,6.999,6.999
			c-2.442-0.558-2.13-3.868-5.999-2.999c-5.751,4.247-12.042,7.956-14.998,14.998c-0.878-5.146-13.758-1.267-8.999-8.999
			c-12.617,0.651-25.48-5.408-34.996,3.999c-0.732,4.905-1.553,9.328,0,13.999c3.8,0.565,11.556,2.396,14.998,0
			c-2.295-0.785-0.973-6.19,2-5c-0.426,1.907-2.857,1.81-2,5c3.386,0.28,5.742,1.59,9.999,0.999c1.45-4.549,7.383-4.615,9.999-7.999
			c-0.043,5.29-6.248,4.418-7.999,7.999c5.665-0.608,10.476,0.828,14.998,0c4.993-0.913,1.84-0.881,6,0
			c5.909,1.252,12.855-0.672,14.998-1.999c-0.285,1.622-1.471,1.56,1,1.999c19.9,3.544,48.97-2.632,70.991,0
			c1.023,3.977,7.029,2.97,11.999,3c0.318,2.318-0.161,3.839-1,4.999c6.085,0.419,9.741-1.591,10.998-5.999
			c-7.851-6.146-25.702-2.294-32.995-8.999c6.874-3.791,11.494-9.836,9.998-21.997c-1.007-4.325-5.968-4.697-5.999-9.999
			c-5.755-0.577-10.929-1.736-14.998-3.999c-4.427-1.094-4.973,1.693-7.999,2c-5.456-8.098-23.265,2.132-29.996-4
			c6.504-2.883,9.156,2.545,13.998-2c-0.079-6.529-3.13-8.552-1-14.998c1.333,0,2.667,0,4,0
			C155.332,87.365,145.66,79.5,141.026,70.991z"/>
		<path fill-rule="evenodd" clip-rule="evenodd" fill="#FFFFFF" d="M151.025,98.987c-1.333,0-2.667,0-4,0
			c-2.13,6.446,0.921,8.469,1,14.998c-4.842,4.545-7.494-0.883-13.998,2c6.731,6.132,24.54-4.098,29.996,4
			c3.026-0.307,3.572-3.094,7.999-2c4.069,2.263,9.243,3.422,14.998,3.999c0.031,5.302,4.992,5.674,5.999,9.999
			c1.496,12.161-3.124,18.206-9.998,21.997c7.293,6.705,25.145,2.853,32.995,8.999c-1.257,4.408-4.913,6.418-10.998,5.999
			c0.839-1.16,1.318-2.681,1-4.999c-4.97-0.03-10.976,0.977-11.999-3c-22.021-2.632-51.091,3.544-70.991,0
			c-2.471-0.439-1.284-0.377-1-1.999c-2.143,1.327-9.089,3.251-14.998,1.999c-4.16-0.881-1.006-0.913-6,0
			c-4.522,0.828-9.333-0.608-14.998,0c1.751-3.581,7.956-2.709,7.999-7.999c-2.616,3.384-8.549,3.45-9.999,7.999
			c-4.257,0.591-6.613-0.719-9.999-0.999c-0.857-3.19,1.574-3.093,2-5c-2.973-1.19-4.295,4.215-2,5
			c-3.442,2.396-11.198,0.565-14.998,0c-1.553-4.671-0.732-9.094,0-13.999c9.516-9.407,22.378-3.348,34.996-3.999
			c-4.759,7.732,8.121,3.854,8.999,8.999c2.957-7.042,9.247-10.751,14.998-14.998c3.869-0.869,3.557,2.441,5.999,2.999
			c-0.145-4.521-4.315-5.017-6.999-6.999c-6.135-17.832,10.373-26.645,15.998-38.995c-2.166-6.218-7.126-13.671-4-21.997
			c4.587-1.604,6.443,0.277,11.999,0C145.66,79.5,155.332,87.365,151.025,98.987z M109.03,144.981c-1.63,3.361-9.171,9.236-4,12.999
			C103.058,150.98,111.12,148.774,109.03,144.981z M147.025,97.987c1.371-2.848-1.792-6.012-2.999-2.999
			C146.332,94.682,145.137,97.877,147.025,97.987z M142.026,110.986c0.572-2.14,4.107-4.779,0-5.999
			C143.423,107.86,139.301,110.066,142.026,110.986z M137.026,112.986c1,0,2,0,3,0c-0.096-1.571,0.134-3.467-2-3
			C138.07,111.362,137.556,112.182,137.026,112.986z M166.023,138.982c0.893-0.793,4.427-6.126,0-5.999
			C167.107,135.544,162.985,137.75,166.023,138.982z M142.026,141.982c-6.952,0.619-10.25-2.415-14.998-4
			C129.424,140.818,138.503,146.855,142.026,141.982z M155.024,144.981c-4.78,1.114-4.218-3.113-8.999-1.999
			C146.295,145.771,153.591,146.672,155.024,144.981z M157.024,147.981c4.146-1.146,3.896,2.104,6.999,2
			c3.301-3.365,11.072-2.26,13.998-5.999c-4.284,1.072-12.238,3.727-16.998,0.999c0.776-0.224,1.973-0.027,2-0.999
			C160.82,145.111,157.508,145.132,157.024,147.981z M142.026,148.981C130.548,147.864,134.866,151.969,142.026,148.981
			L142.026,148.981z M151.025,153.98c4.899,0.234,7.569-1.762,12.998-1c-2.183-4.974-9.702,0.705-11.998-2.999
			C152.1,151.723,151.802,153.091,151.025,153.98z M166.023,153.98c2.218-0.987,14.444,2.134,5.999,0
			c-0.56-1.439-1.56-2.439-3-2.999C168.912,152.87,165.717,151.675,166.023,153.98z M131.027,154.98c1.78-0.553,4.152-0.514,5-2
			C135.24,151.059,129.38,154.77,131.027,154.98z M165.023,158.98c-1.453,0.547-5.168-1.169-4.999,1
			C161.477,159.434,165.191,161.148,165.023,158.98z"/>
		<path fill-rule="evenodd" clip-rule="evenodd" d="M105.031,157.98c-5.171-3.763,2.369-9.638,4-12.999
			C111.12,148.774,103.058,150.98,105.031,157.98z"/>
		<path fill-rule="evenodd" clip-rule="evenodd" d="M142.026,104.987c4.107,1.22,0.572,3.859,0,5.999
			C139.301,110.066,143.423,107.86,142.026,104.987z"/>
		<path fill-rule="evenodd" clip-rule="evenodd" d="M127.028,137.982c4.748,1.585,8.046,4.619,14.998,4
			C138.503,146.855,129.424,140.818,127.028,137.982z"/>
		<path fill-rule="evenodd" clip-rule="evenodd" d="M146.025,142.982c4.781-1.114,4.219,3.113,8.999,1.999
			C153.591,146.672,146.295,145.771,146.025,142.982z"/>
		<path fill-rule="evenodd" clip-rule="evenodd" d="M163.023,143.982c-0.027,0.972-1.224,0.775-2,0.999
			c4.76,2.728,12.714,0.073,16.998-0.999c-2.926,3.739-10.697,2.634-13.998,5.999c-3.104,0.104-2.854-3.146-6.999-2
			C157.508,145.132,160.82,145.111,163.023,143.982z"/>
		<path fill-rule="evenodd" clip-rule="evenodd" d="M136.027,152.98c-0.848,1.486-3.22,1.447-5,2
			C129.38,154.77,135.24,151.059,136.027,152.98z"/>
	</g>
</g>
</svg>
