<?xml version="1.0" encoding="utf-8"?>
<!-- Generator: Adobe Illustrator 15.1.0, SVG Export Plug-In  -->
<!DOCTYPE svg PUBLIC "-//W3C//DTD SVG 1.1//EN" "http://www.w3.org/Graphics/SVG/1.1/DTD/svg11.dtd" [
	<!ENTITY ns_flows "http://ns.adobe.com/Flows/1.0/">
]>
<svg version="1.1"
	 xmlns="http://www.w3.org/2000/svg" xmlns:xlink="http://www.w3.org/1999/xlink" xmlns:a="http://ns.adobe.com/AdobeSVGViewerExtensions/3.0/"
	 x="0px" y="0px" width="392px" height="165px" viewBox="0 0 392 165" enable-background="new 0 0 392 165" xml:space="preserve">
<defs>
</defs>
<path fill="#292123" d="M299.57,2.345c3.529-1.23,7.29-3.13,11.1-2c3.96,1.5,7.58,3.74,11.24,5.85c-0.391,7.2,1.89,15.36-2.76,21.61
	c-1.771,3-5.75,2.01-8.66,2.47c-0.41,2.261-0.82,4.521-1.36,6.771c-0.63-2.311-1.11-4.65-1.56-6.99c-3.17,0.01-6.341,0.01-9.511,0
	c0.221,8.7-1.22,17.66,1.44,26.12c0.79,3.79,0.47,7.689,0.56,11.53c0.9,0.689,1.82,1.38,2.73,2.069c1.12-1.42,2.26-2.81,3.49-4.13
	c-0.351,3.55-2.931,6.15-4.261,9.3c-0.35,2.37,0.25,4.74,0.881,7.011c1.85,5.3,0.319,11.159,2.51,16.39
	c1.41,5.33,5.49,9.39,7.05,14.65c-2.75-1.761-5.16-3.971-7.42-6.311c-4.54,2.03-6.44,6.68-8.92,10.63
	c-0.05-1.79-0.19-3.569,0.04-5.34c2.189-3.33,5.39-5.81,8.25-8.53c-1.54-3.109-2.681-6.63-5.41-8.93
	c-1.83-0.38-3.75-0.43-5.56,0.021c-3.091,2.359-5.351,5.829-9.021,7.42c1.14-2.61,2.07-5.631,4.58-7.261
	c3.45-1.989,7.39-2.85,11.08-4.29c0.49-5.96-3.73-11.689-0.851-17.479c-1.529-3.18-3.479-6.37-3.3-10.04
	c-0.029-11.05,0.07-22.11,0.061-33.16c0.239-5.29-3.15-9.79-3.86-14.88C293.09,10.095,294.54,4.286,299.57,2.345"/>
<path fill="#292123" d="M311.02,43.945c-1.88-2.409-0.739-5.55-0.529-8.27c1.26,2.91,2.279,6.01,4.41,8.439
	c3.43,3.86,4.439,9.07,6.069,13.811c1.8,4.76,0.13,10.11,2.24,14.78c1.33,3.06,2.44,6.21,3.94,9.18c2.909,4.38,7.14,8.43,12.63,8.91
	c-0.65-2.65-2.511-5.63-1.12-8.32c2.46-3.3,6.87-1.979,10.34-1.88c-2.89,1.47-5.93,2.6-8.83,4.04c2.3,2.88,4,6.229,6.54,8.93
	c3.04,0.87,6.28,0.83,9.29,1.86c2.19,0.55,4.55,1.67,6.8,0.82c1.33-1.421,2.36-3.08,3.601-4.57c-0.271,2.46-0.391,5.27-2.78,6.689
	c-4.23,0.921-8.271-1.279-12.43-1.68c-5.421-0.5-9.7-4.76-15.29-4.56c0.25,3.25,1.149,6.39,2.699,9.27
	c2.4,4.271,2.341,9.561,0.58,14.05c-1.06-7.88-4.92-15.069-5.52-23.02c-3.25-1.95-7.34-3.39-9.04-7.061
	c-1.69-4.649-2.92-9.479-5.12-13.939c-2.62-4.78-0.67-10.47-2.5-15.46C315.86,51.575,313.61,47.625,311.02,43.945"/>
<path fill="#292123" d="M306.39,47.246c2.21,2.96,1.78,6.68,0.83,10.029C305.81,54.095,305.77,50.605,306.39,47.246"/>
<path fill="#292123" d="M308.11,64.675c-0.721-3.11,0.06-6.29,0.979-9.26c0.94,4.59,1.25,9.29,2.55,13.8
	C310.4,67.765,308.9,66.445,308.11,64.675"/>
<path fill="#292123" d="M134.43,70.246c7.03,0.17,13.64-3.28,20.72-2.2c5.15,0.38,8.31,5.05,10.34,9.31
	c1.51,5.01,1.88,10.38,0.75,15.521c2.93,2.12,8.4,4.04,7.63,8.439c-2.17,2.44-5.41,3.41-8.38,4.48c2.06-2.12,4.47-3.83,6.91-5.48
	c-1.24-1.569-2.52-3.12-3.81-4.64c-4.73,2.72-9.83,4.71-15.15,5.899c3.22-2.979,7.41-4.84,10.18-8.3
	c0.75-5.77,1.27-12.439-2.68-17.239c-4.02-4.351-10.58-4.881-16-3.271c-3.44,1.1-7.06,1.37-10.65,1.49
	c-0.18,1.819-0.33,3.649-0.49,5.49c-2.73,0.22-5.47,0.409-8.2,0.659c1.47,3.91,2.79,7.881,4.41,11.74c-1.15-0.09-2.3-0.17-3.45-0.25
	c-0.42-1.5-0.86-2.99-1.29-4.47c-1.15,1.399-2.37,2.75-3.33,4.29c1.52,2.83,3.96,5.28,4.17,8.68c-1.82-2.13-3.46-4.399-5.09-6.68
	c-1.73,4.59-4.35,8.75-7.74,12.29c-2.5,2.25-0.6,5.649,0.23,8.25c1.2,4.859,6.75,7.42,6.72,12.72
	c-6.79-4.56-10.42-12.91-10.55-20.93c-3.21,0.01-6.42,0.02-9.62,0.02c0.27,9.36-1.28,18.99,1.39,28.12
	c0.52,2.33,0.67,4.73,0.91,7.11c2.31,1.42,4.49,3.05,6.51,4.87c-2.71-0.15-6.57,1.12-8-2.03c-1.95-6.32-3.29-12.88-3.03-19.53
	c-1.37-0.319-2.75-0.649-4.11-0.99c1.37-0.609,2.75-1.189,4.13-1.75c0.11-4.609,0.11-9.22,0.09-13.819
	c-3.05,0.01-6.09,0.029-9.14,0.06c-1.01,2.22-2.12,4.4-3.29,6.55c-0.49-0.17-1.45-0.52-1.93-0.689c2.02-2.95,3.1-8.271,7.6-7.91
	c2.39-0.14,4.79-0.19,7.19-0.31c-2.89-3.25-6.25-6.311-7.83-10.471c-0.89-3.02-0.59-6.22-0.72-9.319
	c-5.17-0.101-10.87,0.08-15.07,3.5c-5.16,5.25-10.82,10.359-14.11,17.05c-1.12,1.899,0.24,3.89,1.21,5.52
	c1.94,3.11,4.59,5.7,6.6,8.771c-4.2-2.42-7.45-6.15-9.53-10.5c-0.97,0.939-1.95,1.87-2.93,2.81c4.73,5.12,9.45,10.59,16.09,13.26
	c-0.51-2.229-1.15-4.43-1.73-6.64c1.75,1.67,3.47,3.37,5.17,5.09c0.32-1.56,0.63-3.12,0.95-4.67c5.9,2.09,11.82,4.351,18.15,4.641
	c-3.86,2.35-7.92,4.34-12.07,6.109c-0.05-0.56-0.16-1.689-0.21-2.26c1.4-0.42,2.8-0.85,4.2-1.29c-2.43-0.8-4.97-2.97-7.59-1.68
	c-4.44,1.359-5.04,7.08-9.14,8.93c-2.51,1.64-5.53,1.75-8.43,1.5c3.31-2.271,6.9-4.05,10.44-5.91c-0.04-0.29-0.12-0.87-0.17-1.16
	c-5.46-3.21-10.68-6.96-15.08-11.54c-4.41-4.1-8.57-8.569-13.86-11.58c-0.6,1.7-1.19,3.4-1.84,5.091
	c-0.45-1.53-0.89-3.051-1.31-4.57c-5.55-1.16-10.93-3.07-16.51-4.09c-4.2-0.36-8.48-0.32-12.51-1.75
	c-3.58-1.34-7.1,0.66-10.48,1.649c-0.02-1.399-0.05-2.8-0.07-4.199c8.54,0.38,17.3-1.07,25.66,1.25
	c3.54,0.67,7.17,1.069,10.44,2.689c5.63,2.76,12.31,3.41,17.14,7.69c1.91-1.601,4.06-2.96,5.74-4.811c2.05-3.83,3.63-8.2,7.28-10.85
	c3.55-2.55,6.79-5.641,8.65-9.66c6.78,0.36,12.6-3.33,18.95-4.95c4.11-1.6,7.83-4.42,12.27-5.08c2.27,0.44,4.46,1.28,6.6,2.15
	c4.02,1.93,6.47,5.899,8.52,9.7c0.56-0.12,1.7-0.36,2.27-0.48c0.69-3.26,1.76-6.399,2.84-9.54c1.05,0.561,2.11,1.11,3.16,1.67
	C131.18,75.305,132.76,72.746,134.43,70.246"/>
<path fill="#292123" d="M348.46,74.125c4.31-0.74,8.73-0.21,13.01-1.21c3.12-0.561,6.42-1.12,9.54-0.29
	c3.72,2.33,6.62,5.76,9.061,9.37c-4.771,0.22-7.03-5.07-11.44-5.99c-4.02-1.811-8.33-0.24-12.439,0.29
	c-3.15,0.24-5.591,2.35-8.131,3.99C348.18,78.235,348.32,76.175,348.46,74.125"/>
<path fill="#292123" d="M305.92,90.456c2.53-3.351,4.2-7.2,5.75-11.07c0.19,2.84,0.28,5.689,0.28,8.54
	C309.91,88.695,307.91,89.565,305.92,90.456"/>
<path fill="#FFFFFF" d="M90.21,82.135c1.63-0.521,2.18,0.04,1.66,1.67C90.24,84.315,89.68,83.755,90.21,82.135"/>
<path fill="#292123" d="M380.53,82.675c1.04,0.52,2.06,1.09,3.02,1.78c0.94,3.859,0.771,7.939,2.24,11.689
	c-8.92,0.33-11.64,11.94-20.69,12.29c-6.149,0.48-12.3,2.24-17.39,5.82c-4.24,2.93-8.8,5.609-13.93,6.56
	c2.47-2.05,5.35-3.569,7.68-5.779c2.05-2.171,3.89-4.53,5.82-6.801c1.41,0.71,2.819,1.45,4.22,2.21c0.5-1.31,1-2.62,1.51-3.92
	c3.92-0.029,7.891,0.391,11.771-0.3c4.3-1.65,8.069-4.43,11.689-7.22C380.97,94.805,379.95,88.195,380.53,82.675"/>
<path fill="#292123" d="M317.97,88.025c0.57-0.899,1.101-1.81,1.59-2.75c0.15,2.021,0.101,4.04-0.01,6.07
	C319.22,90.145,317.95,89.275,317.97,88.025"/>
<path fill="#292123" d="M147.77,89.625c1.76,1.3,3.32,2.859,4.62,4.63C150.46,93.135,148.88,91.545,147.77,89.625"/>
<path fill="#292123" d="M320.38,91.456c1.15,1.21,2.37,2.39,3.32,3.779c0.51,2.021,0.069,4.141-0.04,6.2
	C322.04,98.305,321.04,94.905,320.38,91.456"/>
<path fill="#292123" d="M139.29,95.675c2.68-2.49,6.37-1.61,9.64-1.16C146.1,96.625,142.56,96.155,139.29,95.675"/>
<path fill="#292123" d="M388.42,93.555c1.3,1.4,2.68,2.77,3.771,4.36c-0.181,2.239-1.44,4.26-2.811,5.989
	c-4.11,2.641-9,3.86-13.77,4.67c3.31-3.039,7.909-3.64,11.649-5.88C390.42,100.615,388.27,96.545,388.42,93.555"/>
<path fill="#292123" d="M125.76,101.885c0.7,0.11,2.11,0.32,2.82,0.43c-0.7,1.391-1.33,2.82-2.08,4.181
	C126.26,104.956,126.01,103.416,125.76,101.885"/>
<path fill="#292123" d="M133.58,103.255c1.39-1.61,3.72-1.12,5.6-1.25c4.5,0.14,9,0.39,13.5,0.45c-2.88,1.83-5.98,3.55-9.5,3.55
	c-6.53-0.08-11.27,5.51-13.81,10.979c1.49,0.641,2.99,1.271,4.5,1.891c-3.88,2.449-4.94,7.069-6.61,11.04
	c-1.23,2.939-1,6.22-1.95,9.239c-1.21,2.5-2.87,4.761-4.22,7.19c-1.81-0.08-3.61-0.16-5.42-0.25c2.56-3.01,5.6-5.76,7.13-9.48
	c2.47-6.159,2.82-12.85,3.9-19.31C128.91,112.615,129.63,106.905,133.58,103.255"/>
<path fill="#292123" d="M277.33,108.496c1.92-2.24,3.99-4.44,6.68-5.73c-0.18,1.57,0.021,3.44-1.39,4.53
	C281.41,108.996,279.09,108.246,277.33,108.496"/>
<path fill="#FFFFFF" d="M134.36,106.175c1.39-0.49,1.88-0.03,1.48,1.39C134.44,108.055,133.95,107.595,134.36,106.175"/>
<path fill="#292123" d="M147.63,112.605c3.28-3.8,8.04-5.899,12.89-6.87C156.99,109.206,152.55,111.775,147.63,112.605"/>
<path fill="#292123" d="M328.3,117.175c-3.92-2.25-6.1-6.561-6.17-11.021C324.76,109.456,327.66,112.845,328.3,117.175"/>
<path fill="#292123" d="M114.06,107.475c2.34,2.061,4.49,4.311,6.53,6.67c-1.34,0.08-2.68,0.16-4.02,0.24
	C115.75,112.075,114.85,109.795,114.06,107.475"/>
<path fill="#292123" d="M209.75,119.105c0.31-4.58,3.81-8.2,7.66-10.25c4.56-0.729,9.2-0.2,13.8-0.31
	c5.96,0.14,11.94-0.391,17.88,0.279c7.96,1.721,16.021,3.73,23.101,7.921c-0.9-1.71-1.801-3.41-2.66-5.131
	c2.239-1.069,4.41-2.329,6.779-3.109c2.091,0.43,2.841,2.71,3.561,4.439c1.149,3.311,2.58,6.511,4.22,9.601
	c-1.36-0.61-2.7-1.24-4.07-1.82c0.58,1.28,1.19,2.55,1.78,3.84c-4.52-1.8-9.28-3.21-13.189-6.22c-3.051-2.36-6.66-3.87-10.53-4.1
	c-0.2,5.21,0.01,10.42-0.09,15.63c0.13,4.149-2.5,7.609-4.32,11.13c2.26,2.479,4.45,5.05,7.021,7.22
	c2.319,1.97,5.34,2.73,8.039,4.021c-2.68,0.199-5.359,0.319-8.05,0.399c-1.739-2.359-2.97-5.37-5.76-6.7
	c-3.42-1.989-7.85-0.56-11.16-2.81c-3.74-2.43-7.66-4.57-11.66-6.54c1.521,3.28,3.78,6.43,3.9,10.16c0.12,3.17,0.26,6.38-0.32,9.52
	c-1.29,1.84-3.569,2.38-5.59,3.05c1.18-3.18,3.271-6.119,3.74-9.52c-1.09-6.04-2.98-11.95-5.69-17.47
	c4.82,1.39,9.63,2.92,14.03,5.38c2.68,1.26,5.35,3.229,8.47,2.859c2.41-3.13,5.53-6.449,5.33-10.68
	c-0.01-4.859,0.351-9.76-0.31-14.57c-1.84-3.55-6.25-2.529-9.51-2.81c-4.4,0.1-8.471-2.07-12.87-1.96c-4.61,0-9.271-0.37-13.83,0.33
	C215.91,113.225,213.28,116.706,209.75,119.105"/>
<path fill="#292123" d="M361.729,114.775c3.591-3.319,8.12-5.649,13.011-6.25C371.04,111.706,366.55,113.956,361.729,114.775"/>
<path fill="#292123" d="M135.74,118.725c2.79-3.32,6.41-6.13,10.8-6.79C143.57,115.025,140.06,117.865,135.74,118.725"/>
<path fill="#FFFFFF" d="M273.63,112.815c0.94-0.1,2.811-0.3,3.75-0.399c0.97,2.68,2.061,5.319,3.08,7.979
	c-1.32,0.05-2.65,0.11-3.97,0.17C275.59,117.965,274.56,115.405,273.63,112.815"/>
<path fill="#292123" d="M42.25,114.166c1.41-1.13,3.27,1.25,1.69,2.27C42.53,117.575,40.67,115.185,42.25,114.166"/>
<path fill="#292123" d="M349.63,120.706c2.48-2.431,5.64-4.11,9.17-4.15C356.229,118.815,353.16,120.655,349.63,120.706"/>
<path fill="#292123" d="M40.17,117.255c2.26,2.17,1.96,5.2,1.01,7.93C40.18,122.655,39.94,119.945,40.17,117.255"/>
<path fill="#292123" d="M8.18,119.365c1.52,2.96,2.26,6.41,4.58,8.891c2.17,1.939,5.19,2.3,7.81,3.34
	c-1.4,0.34-2.81,0.66-4.21,0.979c-0.27,3.521-0.44,7.07-1.08,10.561c-1.5-5.021-3.7-9.75-6.13-14.37
	C7.49,125.895,8.02,122.505,8.18,119.365"/>
<path fill="#292123" d="M323.29,124.235c2.84-1.949,5.99-3.529,9.5-3.72C330.16,122.835,327,125.065,323.29,124.235"/>
<path fill="#292123" d="M335.729,126.786c3.58-3.341,8.11-5.671,13-6.261C345.04,123.706,340.55,125.956,335.729,126.786"/>
<path fill="#292123" d="M281.71,129.155c0.36-2.58,1.48-4.909,3.1-6.93c1.23,1.3,2.471,2.6,3.71,3.9
	C286.31,127.255,284.04,128.295,281.71,129.155"/>
<path fill="#292123" d="M38.24,125.115c1.47-1.17,3.1,1.381,1.62,2.37C38.39,128.655,36.77,126.095,38.24,125.115"/>
<path fill="#292123" d="M293.53,128.515c0.38-1.229,0.75-2.45,1.14-3.68c4.55,1.77,9.08,3.87,13.95,4.569
	c4.1-0.239,7.89-2.189,11.92-2.89c-3.84,3.03-7.68,6.35-12.37,7.98c-3.25-1.021-6.14-2.9-9.18-4.391
	c-3.04,3.76-4.04,9.48-8.84,11.54c-3.46,1.84-7.061,3.42-10.721,4.82c3.34-3.82,8.141-5.7,12.49-8.07
	c0.021-1.76,0.04-3.51,0.07-5.26c-2.16-1.37-4.34-2.69-6.49-4.05C287.95,127.255,290.8,127.515,293.53,128.515"/>
<path fill="#292123" d="M36.24,129.105c1.47-1.16,3.1,1.391,1.62,2.38C36.39,132.655,34.77,130.095,36.24,129.105"/>
<path fill="#292123" d="M330.3,128.786c1.63-0.53,2.18,0.02,1.67,1.649C330.34,130.956,329.78,130.405,330.3,128.786"/>
<path fill="#292123" d="M76.38,130.195c1.18,0.021,2.35,0.04,3.53,0.061c0,0.53,0,1.569,0,2.1c-1.18,0.01-2.35,0.04-3.52,0.061
	C76.39,131.865,76.38,130.755,76.38,130.195"/>
<path fill="#292123" d="M326.2,130.795c1.62-0.521,2.18,0.029,1.67,1.66C326.24,132.975,325.68,132.425,326.2,130.795"/>
<path fill="#292123" d="M92.38,132.195c1.18,0.021,2.35,0.04,3.53,0.061c0,0.52,0,1.569,0,2.1c-1.18,0.01-2.35,0.03-3.52,0.061
	C92.38,133.855,92.38,132.755,92.38,132.195"/>
<path fill="#292123" d="M112.1,131.355c2.09,2.9,4.24,6.12,3.67,9.9c-1.18-1.25-2.45-2.42-3.41-3.851
	C111.79,135.445,112.1,133.365,112.1,131.355"/>
<path fill="#292123" d="M19.15,132.765c5.24-0.72,10.54-0.5,15.8-0.4c2.1,4.61,5.87,8.811,11.1,9.62
	c5.45-2.279,10.8-5.08,16.79-5.649c-1.77,1.83-3.79,3.45-6.29,4.12c-3.91,1.199-7.38,3.42-10.42,6.119
	c-4.9-3.35-10.83-6.1-12.97-12.1c-0.78-0.13-1.57-0.26-2.35-0.38c-0.53,1.51-1.05,3.04-1.59,4.56c-0.7-1.359-1.38-2.739-2.07-4.1
	C24.39,134.465,21.59,134.175,19.15,132.765"/>
<path fill="#292123" d="M322.21,132.795c1.62-0.521,2.17,0.029,1.66,1.66C322.229,134.965,321.68,134.416,322.21,132.795"/>
<path fill="#292123" d="M88.25,134.166c1.42-1.13,3.27,1.26,1.69,2.27C88.52,137.575,86.67,135.175,88.25,134.166"/>
<path fill="#292123" d="M298.21,134.795c1.62-0.53,2.17,0.029,1.66,1.66C298.229,136.965,297.68,136.416,298.21,134.795"/>
<path fill="#292123" d="M309.28,138.246c2.819-1.931,5.939-3.5,9.41-3.73C316.11,136.865,312.97,139.065,309.28,138.246"/>
<path fill="#292123" d="M84.25,136.166c1.41-1.13,3.27,1.25,1.7,2.27C84.53,139.575,82.67,137.175,84.25,136.166"/>
<path fill="#292123" d="M65.6,146.595c4.41-4.5,10.63-6.39,16.27-8.85c-0.05,0.529-0.15,1.59-0.2,2.119
	C76.25,141.975,71.37,145.445,65.6,146.595"/>
<path fill="#292123" d="M30.23,139.125c1.46-1.181,3.11,1.359,1.64,2.37C30.41,142.675,28.77,140.125,30.23,139.125"/>
<path fill="#292123" d="M304.2,140.795c1.63-0.521,2.18,0.04,1.66,1.67C304.22,142.965,303.67,142.416,304.2,140.795"/>
<path fill="#292123" d="M32.24,143.125c1.46-1.181,3.1,1.37,1.63,2.37C32.4,146.666,30.77,144.115,32.24,143.125"/>
<path fill="#292123" d="M295.5,146.725c1.6-2.63,3.97-4.5,7.22-4.15C300.53,144.315,298.06,145.635,295.5,146.725"/>
<path fill="#292123" d="M58.25,146.166c1.42-1.13,3.27,1.26,1.69,2.27C58.52,149.575,56.67,147.166,58.25,146.166"/>
<path fill="#292123" d="M36.01,151.246c-2.43-1.221-1.77-3.65-0.98-5.721C35.53,147.395,35.71,149.335,36.01,151.246"/>
<path fill="#292123" d="M107.21,146.855c3.24-0.58,6.56-0.6,9.81-0.1C113.98,148.685,110.26,148.905,107.21,146.855"/>
<path fill="#292123" d="M269.49,150.725c1.609-2.62,3.979-4.5,7.22-4.15C274.53,148.325,272.06,149.635,269.49,150.725"/>
<path fill="#292123" d="M283.28,150.246c2.819-1.931,5.939-3.5,9.41-3.73C290.11,148.875,286.97,151.055,283.28,150.246"/>
<path fill="#292123" d="M47.56,152.545c2.07-2.61,5.24-3.79,8.27-4.86c-0.01,0.61-0.04,1.84-0.05,2.46
	C53.06,151.015,50.36,151.985,47.56,152.545"/>
<path fill="#292123" d="M248.2,148.055c3.09,2.3,4.66,5.85,5.77,9.42C250.9,155.155,249.229,151.666,248.2,148.055"/>
<path fill="#292123" d="M35.38,152.505c3.71,1.89,7.74,1.68,11.5,0.069c-2.53,2.461-5.52,4.351-8.6,6.051
	C37.28,156.595,36.3,154.555,35.38,152.505"/>
<path fill="#292123" d="M269.44,158.615c2.729-3.479,6.8-5.699,11.21-6.06C277.49,155.505,273.51,157.315,269.44,158.615"/>
<path fill="#292123" d="M254.18,158.975c1.62-0.53,2.181,0.03,1.66,1.66C254.21,161.145,253.66,160.595,254.18,158.975"/>
<path fill="#292123" d="M255.44,164.625c2.699-3.471,6.76-5.71,11.18-5.931C263.39,161.496,259.479,163.315,255.44,164.625"/>
</svg>
