<?xml version="1.0" encoding="utf-8"?>
<!-- Generator: Adobe Illustrator 15.1.0, SVG Export Plug-In  -->
<!DOCTYPE svg PUBLIC "-//W3C//DTD SVG 1.1//EN" "http://www.w3.org/Graphics/SVG/1.1/DTD/svg11.dtd" [
	<!ENTITY ns_flows "http://ns.adobe.com/Flows/1.0/">
]>
<svg version="1.1"
	 xmlns="http://www.w3.org/2000/svg" xmlns:xlink="http://www.w3.org/1999/xlink" xmlns:a="http://ns.adobe.com/AdobeSVGViewerExtensions/3.0/"
	 x="0px" y="0px" width="228px" height="116px" viewBox="0 0 228 116" enable-background="new 0 0 228 116" xml:space="preserve">
<defs>
</defs>
<g>
	<g>
		<path fill-rule="evenodd" clip-rule="evenodd" fill="#FFFFFF" d="M184.977,0c0.885,12.216-1.222,21.441-6.999,26.997
			c-5.907,1.425-13.025,1.64-19.997,2c0.099-4.234,6.699-1.966,6.999-6c1.347-3.019,1.347-7.98,0-10.999
			c-6.27-7.141-15.884-3.385-21.997,2c-6.198,0.865-7.544-3.122-11.999-4c-11.225-0.559-18.622,2.709-23.997,7.999
			c-4.461-1.398-7.736-6.345-12.999-6.999c-7.459-0.926-8.189,2.148-11.999,3c-3.524,0.788-6.893,0.068-10.999,1
			c-4.976,1.129-10.07,5.334-14.998,6c-5.44,0.734-11.039-2.312-15.998-2c-6.205,0.391-10.803,5.286-15.998,6
			c2.344-16.514-21.337-8.18-11.999,3C3.222,26.552,6.157,36.82,0,37.995C0,25.33,0,12.665,0,0C61.659,0,123.317,0,184.977,0z"/>
		<path fill-rule="evenodd" clip-rule="evenodd" fill="#FFFFFF" d="M187.977,0c0.333,0,0.666,0,1,0c0,2.667,0,5.333,0,7.999
			c-1.629,3.371,0.079,10.078-2,12.999c-0.695-7.694,1-12.999,1-19.998C187.977,0.667,187.977,0.333,187.977,0z"/>
		<path fill-rule="evenodd" clip-rule="evenodd" fill="#FFFFFF" d="M191.976,0c11.999,0,23.997,0,35.996,0
			c0,30.996,0,61.992,0,92.988c-6.053-4.629,0.906-12.632-2-17.998c-4.089,0.91-0.937,9.062-3,11.999
			c-2.933-1.4,0.934-9.599-1.999-10.999c-4.354,0.979-0.893,9.773-2,13.998c-0.69,3.976-5.988,3.344-4.999,8.999
			c-7.77-0.77-12.466,1.532-19.998,1c18.683-9.913-4.775-32.768-14.998-13.998c-11.682-6.386-28.971-3.94-37.995,3
			c-4.404-6.181-14.183-10.19-21.997-5c1.462-7.128-4.4-6.932-6-10.998c4.581,0.247,3.892-4.774,7.999-5
			c-4.887-7.806-13.535-21.297-25.996-14.998c0.131,8.756,6.23,8.155,5.999,13.998c-0.213,5.405-6.77,7.453-10.999,11.999
			c-4.496,4.833-11.129,14.797-10.999,17.998c0.228,5.595,4.396,5.22,6.999,9.998c5.743-0.922,15.792,2.46,16.998-2.999
			c10.332,0,20.664,0,30.996,0c3.554-1.555,0.604,3.396,2.999,2.999c3.913,1.58,2.07-2.596,4-2.999
			c9.338,0.661,21.323-1.326,28.996,1c0.388,4.054-6.23,1.101-8.999,1.999c1.467,1.917,8.677,3.256,10.999,1
			c3.864,5.135,15.401,2.596,19.997,6.999c10.95,2.903,18.072-3.72,23.997-4.999c1.947-0.42,8.432,0.729,7.999,1
			c3.409-2.143,2.147-6.907,4-6.999c0,3.999,0,7.999,0,11.998c-75.99,0-151.981,0-227.972,0c0-23.33,0-46.66,0-69.991
			c3.54,6.528,5.687,6.19,9.999,2c3.01-2.925,10.324-7.673,10.999-9.999c9.209-1.122,19.793-0.871,27.996-3
			c23.397,6.721,58.514-1.925,85.99,2c3.654,0.522,6.557,3.116,9.998,4c7.01,1.799,14.003-0.21,17.998,3
			c7.135-1.531,14.282-3.049,19.998-6c0,3,0,6,0,8.999c10.57,2.565,4.892-5.23,5.999-8.999c0.883-3.006,4.454-2.278,3.999-4.999
			C192.087,20.427,190.777,13.432,191.976,0z M157.98,106.986c-1.453,0.547-5.168-1.168-5,1
			C154.434,107.439,158.148,109.155,157.98,106.986z"/>
		<path fill-rule="evenodd" clip-rule="evenodd" fill="#FFFFFF" d="M152.98,10.999c8.218-0.726,10.665,4.454,8.999,10.999
			c-4.312,2.365-10.351,4.675-13.998,0c1.136-2.197,3.344-3.322,4-5.999c1.017,0.649,1.033,2.299,2.999,2
			C158.749,15.124,152.969,13.422,152.98,10.999z"/>
		<path fill-rule="evenodd" clip-rule="evenodd" fill="#FFFFFF" d="M101.987,18.998c-0.724,4.608-3.583,7.083-4,11.999
			c-8.74-0.593-19.897,1.232-26.997-1c-0.351-5.35,1.774-8.224,3-11.999c6.192,0.526,10.323-1.008,12.999-4
			C94.786,12.868,96.753,17.566,101.987,18.998z"/>
		<path fill-rule="evenodd" clip-rule="evenodd" fill="#FFFFFF" d="M131.983,13.998c0.776,0.89,1.075,2.258,1,4c3,0,5.999,0,8.999,0
			c1.245,2.421,2.475,4.857,2.999,7.999c6.062,0.604,10.202,3.13,12.999,7c5.792-1.874,12.911-2.42,20.997-2
			c2.522-1.478,4.132-3.867,4.999-6.999c1.274,0.203,4.898,2.906,5,1c2.701,2.124,0.095,7.36-1,8.999
			c-10.58-0.248-14.961,5.703-23.997,7c-3.364-2.302-8.704-2.628-13.998-3c-3.666-2.155,5.592,0.375,4.999-2
			c-1.42-5.015-8.667-2.279-10.998,0c-7.667-1.332-8.374-9.624-15.998-10.999c-3.008-1.008-1.772,2.228-2,4
			c-4.821-1.512-6.988-5.677-12.999-6c1.483,4.517,5.766,6.232,10.999,6.999c-2.395,2.431-14.871,1.116-19.998,0
			C106.09,17.435,117.163,13.842,131.983,13.998z M143.982,24.997c-4.491,0.491-7.492-0.507-10.999-1
			C131.747,28.351,143.958,28.396,143.982,24.997z"/>
		<path fill-rule="evenodd" clip-rule="evenodd" fill="#FFFFFF" d="M18.998,17.998c0.576,2.091,2.479,2.854,2,6
			C15.085,31.491,8.448,17.034,18.998,17.998z"/>
		<path fill-rule="evenodd" clip-rule="evenodd" fill="#FFFFFF" d="M68.991,18.998c1.866,2.584-1.8,8.16-2,11.999
			c-4.735,0.402-6.881-1.785-11.999-1c-8.494,6.845-22.257,1.135-32.996,4c-2.602,0.694-5.007,2.96-6.999,5
			c-2.441,2.5-8.088,4.071-8.999,8.999c-6.539-6.75,3.387-11.093,4-16.998c6.289-1.044,14.102-0.563,17.998-4
			c3.239,4.137,12.724,5.385,16.998,1c-3.328-4.327-8.813,3.672-13.998-1c4.408-1.526,4.819-4.689,8.999-5
			c4.195-0.312,8.09,4.018,11.999,4C58.885,25.966,62.64,20.601,68.991,18.998z"/>
		<path fill-rule="evenodd" clip-rule="evenodd" d="M132.983,23.997c3.507,0.493,6.508,1.491,10.999,1
			C143.958,28.396,131.747,28.351,132.983,23.997z"/>
		<path fill-rule="evenodd" clip-rule="evenodd" fill="#FFFFFF" d="M62.992,32.996C55.833,35.983,51.514,31.879,62.992,32.996
			L62.992,32.996z"/>
		<path fill-rule="evenodd" clip-rule="evenodd" fill="#FFFFFF" d="M66.992,33.996c-0.168-2.168,3.546-0.453,5-1
			C72.16,35.164,68.444,33.449,66.992,33.996z"/>
		<path fill-rule="evenodd" clip-rule="evenodd" fill="#FFFFFF" d="M185.977,39.995c1.378-3.183,0.99,3.533,1,4.999
			C185.599,48.177,185.987,41.461,185.977,39.995z"/>
		<path fill-rule="evenodd" clip-rule="evenodd" fill="#FFFFFF" d="M115.985,83.989c-0.89,0.443-1.788,0.878-2,2
			c-3.973,0.64-5.396-1.27-6.999-3C107.332,75.995,117.029,75.311,115.985,83.989z"/>
		<path fill-rule="evenodd" clip-rule="evenodd" fill="#FFFFFF" d="M194.976,94.988c-1.771,0.228-5.007-1.008-3.999,2
			c-2.162-0.838-3.411-2.589-7-2c-0.988-3.988,2.989-3.011,2-6.999c1.667,0,3.333,0,5,0c0.472-4.531-4.677-2.728-7-2
			C189.477,76.641,203.242,87.095,194.976,94.988z"/>
		<path fill-rule="evenodd" clip-rule="evenodd" fill="#FFFFFF" d="M134.983,102.987c-5.186-0.481-12.409,1.076-15.998-1
			c0.494-5.827-0.288-10.378-2-13.998c7.243-3.38,16.209-4.115,19.997,2.999C136.812,95.483,136.189,99.527,134.983,102.987z"/>
		<path fill-rule="evenodd" clip-rule="evenodd" fill="#FFFFFF" d="M107.986,87.989c-0.577,2.422-3.775,2.224-5.999,2.999
			C102.835,88.837,104.45,87.452,107.986,87.989z"/>
		<path fill-rule="evenodd" clip-rule="evenodd" fill="#FFFFFF" d="M180.978,87.989c0.666,0,1.333,0,2,0c0,0.666,0,1.333,0,1.999
			c-0.667,0-1.334,0-2,0C180.978,89.322,180.978,88.655,180.978,87.989z"/>
		<path fill-rule="evenodd" clip-rule="evenodd" fill="#FFFFFF" d="M221.973,88.989c0.38-1.903,1.271,0.638,0.999,1.999
			C222.592,92.892,221.7,90.351,221.973,88.989z"/>
		<path fill-rule="evenodd" clip-rule="evenodd" d="M152.98,107.986c-0.168-2.168,3.547-0.453,5-1
			C158.148,109.155,154.434,107.439,152.98,107.986z"/>
		<path fill-rule="evenodd" clip-rule="evenodd" fill="#FFFFFF" d="M103.987,80.99c-1.398,7.601-10.202,7.795-13.998,12.998
			c1.919,4.439,5.995-2.304,9.999-2c-0.529,0.805-1.043,1.623-1,3c5.964-0.368,8.074-4.591,15.998-3
			c1.774,1.893,0.729,6.604,1,9.999c-9.606,1.041-27.665,3.41-32.996-3c1.71-17.389,32.973-25.384,15.998-42.994
			c8.006-3.323,10.512,7.473,16.998,8.999c-4.537,4.606-7.486,10.44-11.999,13.998c-0.503,0.396-3.844,0.28-4.999,1
			c-3.468,2.16-4.905,4.681-6,8.999C98.849,88.517,97.952,81.287,103.987,80.99z"/>
		<path fill-rule="evenodd" clip-rule="evenodd" fill="#FFFFFF" d="M163.979,95.988c-3.21-0.877-2.073,2.593-3.999,2.999
			c-5.494,0.161-6.282-4.384-10.999-4.999c-0.973,6.639,7.498,3.834,7.999,8.999c-5.451-0.216-12.021,0.688-15.998-1
			c0.762-13.57,11.929-16.734,26.996-15.998c0.41,2.409-1.826,2.173-0.999,4.999c2.332-0.334,4.308-1.024,4.999-2.999
			c2.733,2.599,7.644,3.021,7.999,7.999c-3.416,2.445-8.613-0.765-10.999,1c0.829,4.426,10.659,3.439,11.999,0
			c5.14,1.858,10.29,3.708,12.998,7.999c4.648-3.685,15.716-0.949,21.997-3c1.486-0.847,1.447-3.219,2-4.999
			c3.469,0.802,3.844-1.489,6.999-1c1.254,7.109-2.002,8.272-7.999,9.998c-11.092,3.193-17.082,6.913-29.996,4
			c1.444-3.096-0.164-3.884-2-5.999c-2.774,0.225-2.828,3.171-4.999,3.999C173.286,105.346,169.912,99.388,163.979,95.988z"/>
		<path fill-rule="evenodd" clip-rule="evenodd" d="M184.977,0c1,0,2,0,3,0c0,0.333,0,0.667,0,1c0,6.999-1.695,12.303-1,19.998
			c2.079-2.921,0.371-9.627,2-12.999c0-2.667,0-5.333,0-7.999c1,0,2,0,2.999,0c-1.198,13.432,0.111,20.427,1,32.996
			c0.455,2.721-3.116,1.993-3.999,4.999c-1.107,3.769,4.571,11.564-5.999,8.999c0-3,0-5.999,0-8.999
			c-5.716,2.95-12.863,4.468-19.998,6c-3.995-3.209-10.988-1.201-17.998-3c-3.441-0.884-6.344-3.478-9.998-4
			c-27.476-3.925-62.592,4.721-85.99-2c-8.203,2.129-18.787,1.877-27.996,3c-0.675,2.326-7.989,7.074-10.999,9.999
			c-4.312,4.19-6.458,4.528-9.999-2c0-2.666,0-5.333,0-7.999c6.157-1.175,3.222-11.443,11.999-9.999
			c-9.339-11.179,14.342-19.513,11.999-3c5.195-0.713,9.793-5.609,15.998-6c4.959-0.312,10.558,2.734,15.998,2
			c4.928-0.665,10.022-4.87,14.998-6c4.105-0.932,7.474-0.212,10.999-1c3.81-0.851,4.539-3.926,11.999-3
			c5.263,0.654,8.537,5.601,12.999,6.999c5.375-5.29,12.772-8.558,23.997-7.999c4.455,0.878,5.801,4.865,11.999,4
			c6.113-5.385,15.728-9.14,21.997-2c1.347,3.019,1.347,7.98,0,10.999c-0.3,4.033-6.9,1.766-6.999,6
			c6.972-0.36,14.09-0.575,19.997-2C183.755,21.441,185.861,12.216,184.977,0z M154.98,17.998c-1.966,0.299-1.982-1.35-2.999-2
			c-0.656,2.677-2.864,3.802-4,5.999c3.647,4.675,9.686,2.365,13.998,0c1.666-6.545-0.781-11.724-8.999-10.999
			C152.969,13.422,158.749,15.124,154.98,17.998z M86.989,13.998c-2.675,2.991-6.807,4.525-12.999,4
			c-1.225,3.774-3.351,6.648-3,11.999c7.1,2.232,18.257,0.407,26.997,1c0.417-4.916,3.275-7.39,4-11.999
			C96.753,17.566,94.786,12.868,86.989,13.998z M103.987,29.996c5.126,1.116,17.603,2.431,19.998,0
			c-5.232-0.767-9.516-2.482-10.999-6.999c6.01,0.322,8.177,4.488,12.999,6c0.228-1.772-1.008-5.007,2-4
			c7.624,1.375,8.331,9.667,15.998,10.999c2.331-2.279,9.578-5.015,10.998,0c0.593,2.375-8.665-0.155-4.999,2
			c5.294,0.372,10.634,0.698,13.998,3c9.036-1.296,13.417-7.247,23.997-7c1.095-1.638,3.701-6.875,1-8.999
			c-0.102,1.906-3.726-0.797-5-1c-0.867,3.132-2.477,5.521-4.999,6.999c-8.086-0.42-15.205,0.126-20.997,2
			c-2.797-3.869-6.938-6.395-12.999-7c-0.524-3.142-1.754-5.578-2.999-7.999c-3,0-5.999,0-8.999,0c0.075-1.741-0.224-3.109-1-4
			C117.163,13.842,106.09,17.435,103.987,29.996z M20.998,23.997c0.479-3.146-1.424-3.909-2-6
			C8.448,17.034,15.085,31.491,20.998,23.997z M51.994,25.997c-3.908,0.018-7.804-4.311-11.999-4c-4.18,0.311-4.591,3.473-8.999,5
			c5.185,4.672,10.67-3.327,13.998,1c-4.273,4.385-13.758,3.137-16.998-1c-3.896,3.437-11.709,2.956-17.998,4
			c-0.612,5.905-10.539,10.249-4,16.998c0.911-4.928,6.558-6.499,8.999-8.999c1.992-2.04,4.397-4.306,6.999-5
			c10.739-2.864,24.502,2.845,32.996-4c5.118-0.785,7.263,1.402,11.999,1c0.199-3.838,3.866-9.415,2-11.999
			C62.64,20.601,58.885,25.966,51.994,25.997z M62.992,32.996C51.514,31.879,55.833,35.983,62.992,32.996L62.992,32.996z
			 M71.991,32.996c-1.453,0.546-5.168-1.168-5,1C68.444,33.449,72.16,35.164,71.991,32.996z M186.977,44.994
			c-0.01-1.466,0.378-8.182-1-4.999C185.987,41.461,185.599,48.177,186.977,44.994z"/>
		<path fill-rule="evenodd" clip-rule="evenodd" d="M227.972,92.988c0,3.666,0,7.332,0,10.999c-1.853,0.092-0.591,4.856-4,6.999
			c0.433-0.271-6.052-1.42-7.999-1c-5.925,1.279-13.047,7.902-23.997,4.999c-4.596-4.403-16.133-1.864-19.997-6.999
			c-2.322,2.256-9.532,0.917-10.999-1c2.769-0.898,9.387,2.055,8.999-1.999c-7.673-2.326-19.658-0.339-28.996-1
			c-1.93,0.403-0.087,4.579-4,2.999c-2.396,0.396,0.555-4.554-2.999-2.999c-10.332,0-20.664,0-30.996,0
			c-1.207,5.459-11.255,2.077-16.998,2.999c-2.603-4.778-6.771-4.403-6.999-9.998c-0.131-3.201,6.502-13.165,10.999-17.998
			c4.229-4.546,10.785-6.594,10.999-11.999c0.231-5.843-5.868-5.242-5.999-13.998c12.461-6.299,21.109,7.192,25.996,14.998
			c-4.106,0.226-3.418,5.247-7.999,5c1.599,4.066,7.461,3.87,6,10.998c7.814-5.19,17.593-1.181,21.997,5
			c9.024-6.94,26.313-9.386,37.995-3c10.223-18.77,33.681,4.085,14.998,13.998c7.532,0.532,12.229-1.77,19.998-1
			c-0.989-5.655,4.309-5.023,4.999-8.999c1.107-4.225-2.354-13.02,2-13.998c2.933,1.4-0.934,9.599,1.999,10.999
			c2.063-2.937-1.089-11.089,3-11.999C228.878,80.356,221.919,88.359,227.972,92.988z M92.988,88.989
			c1.094-4.318,2.531-6.839,6-8.999c1.155-0.72,4.496-0.604,4.999-1c4.513-3.558,7.461-9.392,11.999-13.998
			c-6.486-1.526-8.992-12.322-16.998-8.999C115.963,73.604,84.7,81.599,82.99,98.987c5.331,6.41,23.39,4.041,32.996,3
			c-0.271-3.395,0.774-8.106-1-9.999c-7.923-1.591-10.033,2.632-15.998,3c-0.043-1.377,0.471-2.195,1-3
			c-4.003-0.304-8.08,6.439-9.999,2c3.796-5.203,12.6-5.397,13.998-12.998C97.952,81.287,98.849,88.517,92.988,88.989z
			 M106.987,82.989c1.603,1.73,3.026,3.64,6.999,3c0.211-1.122,1.11-1.557,2-2C117.029,75.311,107.332,75.995,106.987,82.989z
			 M183.977,85.989c2.323-0.728,7.472-2.531,7,2c-1.667,0-3.333,0-5,0c0.989,3.988-2.988,3.011-2,6.999c3.589-0.589,4.838,1.162,7,2
			c-1.008-3.008,2.228-1.772,3.999-2C203.242,87.095,189.477,76.641,183.977,85.989z M136.982,90.988
			c-3.788-7.114-12.754-6.379-19.997-2.999c1.712,3.62,2.494,8.171,2,13.998c3.589,2.076,10.812,0.519,15.998,1
			C136.189,99.527,136.812,95.483,136.982,90.988z M179.978,107.986c2.171-0.828,2.225-3.774,4.999-3.999
			c1.836,2.115,3.444,2.903,2,5.999c12.914,2.913,18.904-0.807,29.996-4c5.997-1.726,9.253-2.889,7.999-9.998
			c-3.155-0.489-3.53,1.802-6.999,1c-0.553,1.78-0.514,4.152-2,4.999c-6.281,2.051-17.349-0.685-21.997,3
			c-2.708-4.291-7.858-6.141-12.998-7.999c-1.34,3.439-11.17,4.426-11.999,0c2.386-1.765,7.583,1.445,10.999-1
			c-0.355-4.978-5.266-5.4-7.999-7.999c-0.691,1.975-2.667,2.665-4.999,2.999c-0.827-2.826,1.409-2.59,0.999-4.999
			c-15.067-0.736-26.234,2.428-26.996,15.998c3.978,1.688,10.547,0.784,15.998,1c-0.501-5.165-8.972-2.36-7.999-8.999
			c4.717,0.615,5.505,5.16,10.999,4.999c1.926-0.406,0.789-3.876,3.999-2.999C169.912,99.388,173.286,105.346,179.978,107.986z
			 M101.987,90.988c2.224-0.775,5.422-0.577,5.999-2.999C104.45,87.452,102.835,88.837,101.987,90.988z M180.978,89.988
			c0.666,0,1.333,0,2,0c0-0.666,0-1.333,0-1.999c-0.667,0-1.334,0-2,0C180.978,88.655,180.978,89.322,180.978,89.988z
			 M222.972,90.988c0.272-1.361-0.619-3.902-0.999-1.999C221.7,90.351,222.592,92.892,222.972,90.988z"/>
	</g>
</g>
</svg>
