<?xml version="1.0" encoding="utf-8"?>
<!-- Generator: Adobe Illustrator 15.1.0, SVG Export Plug-In  -->
<!DOCTYPE svg PUBLIC "-//W3C//DTD SVG 1.1//EN" "http://www.w3.org/Graphics/SVG/1.1/DTD/svg11.dtd" [
	<!ENTITY ns_flows "http://ns.adobe.com/Flows/1.0/">
]>
<svg version="1.1"
	 xmlns="http://www.w3.org/2000/svg" xmlns:xlink="http://www.w3.org/1999/xlink" xmlns:a="http://ns.adobe.com/AdobeSVGViewerExtensions/3.0/"
	 x="0px" y="0px" width="275px" height="334px" viewBox="0.044 0 275 334" enable-background="new 0.044 0 275 334"
	 xml:space="preserve">
<defs>
</defs>
<g>
	<g>
		<path fill-rule="evenodd" clip-rule="evenodd" fill="#FFFFFF" d="M1.044,0C92.366,0,183.688,0,275.01,0
			c0,111.319,0,222.641,0,333.958c-91.655,0-183.311,0-274.966,0c0-110.318,0-220.641,0-330.958C-0.042,1.581-0.121,0.168,1.044,0z
			 M119.029,134.983c0.369-4.397-1.415-8.738-1-12.998c0.082-0.84,1.712-2.483,2-4c0.417-2.197-0.483-4.349,0-6
			c1.341-4.583,5.308-8.097,6-12.998c1.687-11.957-4.701-21.404-6.999-32.996c-8.175-6.25-14.421-12.359-20.998-18.998
			c-3.758-3.793-6.838-5.724-7.999-9.999c-1.467-5.404,1.965-13.109,1-18.998c-0.735-4.485-4.033-7.189-5-11.999
			c-8.145-7.933-24.386-4.08-29.996,4c-4.767,15.468-2.302,18.613-2,37.996c3.085,1.581,6.505,2.827,9.999,4
			c-9.747,7.113-22.63,12.761-23.997,26.997c-0.295,3.076,2.12,5.617,2,8.999c-0.073,2.048-3.476,5.776-4,8.999
			c-0.521,3.214,0.572,6.965,0,8.999c-1.402,4.983-5.679,9.673-7.999,14.998c-4.752,10.907-6.645,20.98-6.999,35.996
			c-21.613-10.337-26.312,31.329-7.999,32.996c5.257,0.479,6.362-3.693,10.999-4c9.561-0.633,10.38,11.482,19.998,9.999
			c0.954,10.186,4.586,13.698,2,23.997c6.148,15.183,1.6,41.061,3,60.992c-5.062,2.937-8.069,7.929-9.999,13.998
			c-5.752,4.247-15.846,4.151-13.999,15.998c6.77,3.443,11.226,4.681,16.998,4c6.085-0.719,9.512-6.045,14.998-7.999
			c4.792-1.707,10.025,0.407,13.998-3c3.624-11.865-4.72-18.778-3-29.996c1.03-6.716,6.484-11.862,6.999-18.998
			c0.829-11.487-6.537-24.089-1-36.995c1.575,7.096,6.948,16.032,7.999,21.997c2.698,15.319-2.434,33.242,7,42.995
			c-2.206,3.985,0.638,6.803,0,11.998c-3.447,13.435-24.152,14.214-20.998,30.996c6.724,4.462,14.501,5.525,21.997,3
			c4.281-1.442,7.298-6.928,11.999-8.999c2.582-1.138,5.127,0.249,7-2c3.488-9.688-3.436-15.674-3-24.997
			c0.524-11.207,7.946-21.148,7-31.995c-0.522-5.98-5.732-12.061-7.999-18.998c-4.09-12.514-5.516-24.008-2-37.995
			c22.688,18.669,30.945-39.602,5-29.996C108.353,159.654,117.917,148.222,119.029,134.983z M164.023,112.986
			c-21.144-4.762-29.973,21.078-17.998,35.996c6.464,2.535,8.325,9.673,13.999,12.998c-3.021,7.352,3.084,13.593,3.999,20.998
			c1.523,12.329-1.515,26.642,0,39.994c-13.579,3.798-14.796,32.531,2,33.996c3.999-0.334,4.526-4.139,8.999-3.999
			c1.744,2.922,5.383,3.948,9.998,3.999c0.965,4.701,5.342,5.991,7.999,8.999c2.035,19.366-4.803,29.859-18.997,32.996
			c-0.502,4.164-3.498,5.834-4,9.998c5.605,5.136,11.109,8.203,18.998,7c3.912-0.598,7.44-5.355,11.998-7
			c6.379-2.3,12.057-0.204,15.998-3.999c4.024-15.027-10.189-29.016,0-41.995c1.562,6.104,5.604,9.728,11.999,10.999
			c0.741,7.258,2.197,13.8,3.999,19.997c-3.534,1.466-4.598,5.401-5.999,8.999c-8.316,3.402-24.525,21.935-8.999,25.997
			c12.919,3.38,19.589-6.673,25.997-8.999c4.24-1.539,7.231-1.191,8.999-3c1.882-4.45,2.245-10.419,1.999-16.997
			c-4.526-2.82-5.151-14.826-2.999-20.998c3.82,2.041,7.646,0.204,11.998,0c5.873-5.69,8.485-21.68,3-29.996
			c-6.38-3.163-13.918,0.03-16.998,1c-0.231-8.768-2.949-15.049-2-24.997c6.845-7.63,13.148-20.021,15.998-33.995
			c0.766-3.756,0.174-7.587,1-10.999c0.941-3.889,3.918-6.922,4-10.999c0.241-12.122-10.108-18.38-14.999-26.996
			c-8.237-1.77-12.78-4.904-20.997-2c-11.926-8.899-33.467-14.421-50.993-8.999C173.938,126.2,172.859,114.976,164.023,112.986z"/>
		<path fill-rule="evenodd" clip-rule="evenodd" fill="#FFFFFF" d="M87.033,21.997c-1.333,0-2.667,0-4,0
			c1.026,2.974,4.166,3.833,4,7.999c-1.428,2.905-4.86,3.806-7.999,5c1.219,11.523-15.013,15.972-21.998,9.999
			c-0.769-6.072,2.225-9.694-1-12.998c-0.857-3.19,1.574-3.092,2-5C53.704,18.045,62.682,2.026,77.034,5
			C83.188,6.274,86.489,12.672,87.033,21.997z"/>
		<path fill-rule="evenodd" clip-rule="evenodd" fill="#FFFFFF" d="M83.034,35.996c1.333,0,2.666,0,4,0c0,2,0,4,0,5.999
			c5.245,5.753,13.187,8.811,15.998,16.998c6.205,0.46,7.783,5.548,12.998,6.999c2.385,4.904,1.88,9.811,1,15.998
			c-0.296,1.788,3.879,0.062,3-2c2.95,6.613,2.667,19.379,0,25.997c-4.472-2.857,1.012-4.141,1-7.999
			c-10.451,6.994,0.485,29.626-13.998,32.996c-0.208,7.288,0.993,9.773,0,15.998c4.271-3.508,1.498-13.642,6.999-17.998
			c3.678,0.809,2.115,5.043,2,6.999c-0.089,1.511-1.793,6.444-3,9.999c-1.611,4.746-2.775,11.268-6.999,10.999
			c0.795,15.059-2.963,23.129-4,37.995c-3.727,0.061-6.324-1.009-8.999-2c-3.819-7.489,1.525-13.716,3-19.997
			c2.627-11.192-0.711-24.757,1-36.996c1.03-7.367,6.064-12.198,5-18.998c-0.226-1.44-2.984-0.349-3-2
			c-1.811-9.989-6.224-15.646-4-25.997c3.146-0.5,3.909,2.18,5.999,0c-3.982-2.35-8.381-4.284-8.999-9.999
			c-4.994,2.077,1.245,4.665,0,8.999c-7.281,5.646-20.202-0.203-25.997,2c-6.625-12.1,2.06-30.891,16.998-30.996
			C67.602,53.899,64.507,69.791,60.037,78.99c-0.491,4.49,0.507,7.492,1,10.999c-3.601,0.732-5.05,3.615-9.999,3
			c-2.76-7.034-2.493-12.269-3-17.998c-4.634-0.634-2.532,5.467-3,8.999c-4.359-9.817,5.093-21.904,15.998-22.997
			c-1.118-1.074-0.246-6.027,5-5.999c0.228,1.772-1.008,5.007,2,4c1.646-0.136,1.646-6.864,0-6.999
			C74.392,48.019,82.911,46.205,83.034,35.996z M84.033,58.993c2.271-0.729,7.801,1.801,7-2c-2.333,0-4.666,0-7,0
			C84.033,57.66,84.033,58.326,84.033,58.993z M108.03,89.989c4.132-0.867,5.593-4.406,7-7.999
			C111.306,83.265,110,86.959,108.03,89.989z M105.031,115.985c0.662-2.72,4.654-7.278,2-9.999
			C107.735,109.81,100.582,114.912,105.031,115.985z"/>
		<path fill-rule="evenodd" clip-rule="evenodd" d="M84.033,56.993c2.333,0,4.667,0,7,0c0.801,3.801-4.728,1.271-7,2
			C84.033,58.326,84.033,57.66,84.033,56.993z"/>
		<path fill-rule="evenodd" clip-rule="evenodd" d="M115.03,81.99c-1.407,3.593-2.867,7.132-7,7.999
			C110,86.959,111.306,83.265,115.03,81.99z"/>
		<path fill-rule="evenodd" clip-rule="evenodd" fill="#FFFFFF" d="M45.038,85.989c1.478,3.855,3.106,7.56,6,9.999
			c-5.037,7.594,4.217,18.974-3,24.997c3.947,1.302,2.419-3.669,4.999-1c-1.791,19.54-14.452,28.21-19.997,43.995
			c3.25,5.247-3.075,10.182-1,19.997c-5.097-0.568-7.586-3.745-10.999-5.999c1.354-13.977,7.504-23.158,5.999-39.995
			c2.784-0.451-0.784,5.45,2,4.999c4.293-3.874,1.429-12.776,3-18.998c1.314-5.206,5.778-8.362,5.999-12.998
			c3.214,1.452,2.622,6.71,4,9.999c4.796-2.68-0.647-8.521-1-12.999c-0.607-7.719,1.761-14.285,3.999-19.998
			C45.038,87.322,45.038,86.656,45.038,85.989z M42.039,124.984c0.667,0,1.333,0,2,0c0-0.667,0-1.333,0-2c-0.667,0-1.333,0-2,0
			C42.039,123.651,42.039,124.318,42.039,124.984z M41.039,133.983c4.269,1.178,4.013-7.903,1-7.999
			C42.807,129.752,40.819,130.764,41.039,133.983z"/>
		<path fill-rule="evenodd" clip-rule="evenodd" fill="#FFFFFF" d="M89.033,119.985c4.867,1.272,4.679-5.819,7.999-3
			c2.85,6.776-1.557,10.673-3,15.998c-11.265,2.828-21.898,1.8-33.996,0c-2.122-11.877-8.382-19.615-7.999-33.996
			c2.912-3.42,6.978-5.687,10.999-7.999c8.941,2.121,20.144,5.484,28.996,2c-0.616,8.616,1.467,14.532,3,20.998
			C94.844,117.797,89.452,116.405,89.033,119.985z M64.036,102.987C59.994,99.471,61.678,106.204,64.036,102.987L64.036,102.987z
			 M83.034,119.985c-1.364-3.244-7.41-11.544-8.999-7.999C78.246,113.44,78.098,119.255,83.034,119.985z M83.034,127.984
			c0.576-0.606,2.34-4.743,0-5C84.334,125.468,80.1,127.134,83.034,127.984z"/>
		<path fill-rule="evenodd" clip-rule="evenodd" d="M64.036,102.987C61.678,106.204,59.994,99.471,64.036,102.987L64.036,102.987z"
			/>
		<path fill-rule="evenodd" clip-rule="evenodd" d="M107.031,105.987c2.654,2.72-1.338,7.278-2,9.999
			C100.582,114.912,107.735,109.81,107.031,105.987z"/>
		<path fill-rule="evenodd" clip-rule="evenodd" fill="#FFFFFF" d="M173.022,123.984c-0.069,2.931-3.809,2.191-3,6
			c2.222,3.732,2.681-2.537,5.999-1c4.363,8.025,5.548,31.013-8.998,30.996c-0.895-1.772-4.059-1.274-3-5
			c-3.657,0.218-3.836,1.374-6.999,0c-0.777-2.222-2.101-3.899-2-6.999c-5.07,0.737-6.187-2.479-8.999-4
			C134.856,122.299,162.027,106.765,173.022,123.984z M159.024,146.981c2.808,1.027,6.952-1.557,3.999-3
			C162.749,146.041,159.299,144.923,159.024,146.981z"/>
		<path fill-rule="evenodd" clip-rule="evenodd" d="M42.039,122.984c0.667,0,1.333,0,2,0c0,0.667,0,1.333,0,2c-0.667,0-1.333,0-2,0
			C42.039,124.318,42.039,123.651,42.039,122.984z"/>
		<path fill-rule="evenodd" clip-rule="evenodd" d="M83.034,122.984c2.34,0.257,0.576,4.393,0,5
			C80.1,127.134,84.334,125.468,83.034,122.984z"/>
		<path fill-rule="evenodd" clip-rule="evenodd" d="M42.039,125.984c3.014,0.096,3.269,9.177-1,7.999
			C40.819,130.764,42.807,129.752,42.039,125.984z"/>
		<path fill-rule="evenodd" clip-rule="evenodd" fill="#FFFFFF" d="M55.037,127.984c5.219,11.82-3.088,21.383-4,32.996
			c-5.602-0.603-9.47,0.528-12.999,2C42.163,149.772,52.158,142.437,55.037,127.984z"/>
		<path fill-rule="evenodd" clip-rule="evenodd" fill="#FFFFFF" d="M93.032,133.983c2.728,7.079-11.22,6.097-18.998,5.999
			c2.324,6.53,15.433,1.802,18.998,0c1.55,10.992,0.018,19.337,0,30.996c-11.009-6.674-18.553,4.729-19.998,13.998
			c-2.488-9.83,5.52-17.803,7-26.996c-8.136,4.529-8.725,16.605-11.999,25.996c-5.118,0.785-7.263-1.402-11.999-0.999
			c-0.024-7.642,0.863-16.195-4-18.998c1.861-8.471,7.231-13.433,6.999-23.997c1.667,0,3.333,0,5,0c-1.163-1.837-5.307-0.693-4-5
			C71.914,135.774,83.777,139.843,93.032,133.983z M73.035,148.981c-3.491,0.758-7.549-3.026-9.999,0
			C66.146,149.144,71.404,153.432,73.035,148.981z M60.037,156.98c5.161-0.55,6.548,2.493,10.999,0
			C67.552,156.986,61.528,152.803,60.037,156.98z"/>
		<path fill-rule="evenodd" clip-rule="evenodd" d="M209.018,141.982c-0.068-4.341,12.394-0.562,3-1
			C211.213,141.511,210.395,142.025,209.018,141.982z"/>
		<path fill-rule="evenodd" clip-rule="evenodd" d="M192.02,142.982c2.892,1.511,4.559-1.461,5,3
			C194.156,146.179,191.562,146.106,192.02,142.982z"/>
		<path fill-rule="evenodd" clip-rule="evenodd" fill="#FFFFFF" d="M246.013,197.976c-0.424-10.241-1.684-19.646-3.999-27.997
			c6.458,0.821,8.093-2.787,12.998-1c-1.054-2.316,0.97-3.277,2-7.999c-4.29,3.375-7.336,7.996-15.998,6.999
			c3.23-4.435,9.279-6.052,8.999-13.998c-4.854,4.821-2.649-7.471-4.999-10.999c1.752,0.914,3.474,1.859,2.999,5
			c2.134,0.467,1.904-1.428,2-3c8.818,5.951,17.013,16.374,14.998,29.997c-1.615-0.282-1.722,0.944-3,0.999
			c0.051,12.382-3.513,21.151-5.999,30.997C254.498,202.156,250.565,199.756,246.013,197.976z"/>
		<path fill-rule="evenodd" clip-rule="evenodd" d="M163.023,143.982c2.953,1.442-1.191,4.026-3.999,3
			C159.299,144.923,162.749,146.041,163.023,143.982z"/>
		<path fill-rule="evenodd" clip-rule="evenodd" d="M200.019,145.982c-0.886,3.961,0.217,6.111-0.999,7.999
			c-3.008,1.007-1.772-2.228-2-4c-5.613,0.053-6.776,4.556-11.999,4.999C188.127,150.088,194.224,148.186,200.019,145.982z"/>
		<path fill-rule="evenodd" clip-rule="evenodd" d="M205.019,146.981c3.033-0.367,2.075,3.257,2.999,5
			C205.206,152.126,205.134,149.532,205.019,146.981z"/>
		<path fill-rule="evenodd" clip-rule="evenodd" d="M63.036,148.981c2.449-3.026,6.508,0.758,9.999,0
			C71.404,153.432,66.146,149.144,63.036,148.981z"/>
		<path fill-rule="evenodd" clip-rule="evenodd" d="M71.035,156.98c-4.45,2.493-5.838-0.55-10.999,0
			C61.528,152.803,67.552,156.986,71.035,156.98z"/>
		<path fill-rule="evenodd" clip-rule="evenodd" d="M227.016,155.98c2.457,2.849-0.926,8.363-2,10.999c-0.823,2.509,1.944,8.61-2,8
			C223.934,168.23,224.618,161.249,227.016,155.98z"/>
		<path fill-rule="evenodd" clip-rule="evenodd" d="M236.015,177.978c1.219,3.113,3.072,5.593,2.999,9.999
			c-2.186-0.147-2.146-2.52-1.999-4.999c-1.329,1.004-3.721,0.945-4,2.999C230.361,183.58,234.48,179.501,236.015,177.978z"/>
		<path fill-rule="evenodd" clip-rule="evenodd" fill="#FFFFFF" d="M210.018,178.978c-1.453,1.547-3.9,2.1-6.999,2
			C203.983,178.942,206.858,178.818,210.018,178.978z"/>
		<path fill-rule="evenodd" clip-rule="evenodd" fill="#FFFFFF" d="M198.02,183.977c-4.198,16.062-9.632,34.887-7.999,50.994
			c-3.657,0.657-3.836-2.164-6.999-2c-0.186-17.555,5.514-30.982,1.999-48.994C188.729,181.247,193.388,184.479,198.02,183.977z"/>
		<path fill-rule="evenodd" clip-rule="evenodd" fill="#FFFFFF" d="M55.037,183.977c2.989,2.012,9.434,0.565,13.998,1
			c-0.531,9.864,0.6,18.065,1,26.997c-1.649,3.351-4.848,5.15-5.999,8.999c4.305-1.027,5.594-5.072,6.999-8.999
			c1.06,5.079,1.03,17.68-3,20.997c0.226,1.44,2.984,0.349,3,2c-0.328,8.161,3.738,14.142,3,20.997
			c-0.572,5.308-5.884,11.786-6.999,18.998c-0.589,3.807,1.333,7.04-2,9.999c-0.745,3.077,2.745,1.921,2,4.999
			c-5.831-0.502-8.095-4.57-12.999-5.999c0-15.665,0-31.33,0-46.994c2.715-0.716-0.715,4.715,2,3.999
			c0.83-6.842-5.038-15.616-5-24.997c3.526,0.808,2.563,6.103,6.999,6c-0.129-4.627-5.667-8.621-5.999-14.998
			c-0.354-6.8,5.692-12.032,3-17.998c-2.614,3.052-4.349,6.982-4,12.998C45.157,195.045,53.526,189.648,55.037,183.977z
			 M62.036,261.967c2.938-0.204,1.98,8.596,5,5c-4.891-4.428-1.086-19.494-4-22.997C61.176,250.94,63.094,256.43,62.036,261.967z"/>
		<path fill-rule="evenodd" clip-rule="evenodd" fill="#FFFFFF" d="M71.035,188.977c3.745-1.915,2.318,4.453,3,5.999
			c3.896,8.833,13.762,12.479,20.998,2c3.163-0.164,3.342,2.657,6.999,2c-1.146,8.187-5.167,13.497-5,22.997
			c3.077-9.212,3.449,11.66,4,16.997c0.354,1.147,1.76,2.535,2,1c1.639,8.579,8.328,13.882,8.999,21.997
			c1.021,12.35-9.892,24.965-7.999,39.995c-4.222-0.777-6.109-3.89-9.999-4.999c-0.828-13.171,2.18-30.177-3-38.995
			c-1.047,4.403,3.295,12.019,2,19.997c-5.941-5.724-5.103-18.228-5-29.996c1.762,0.905,1.652,3.681,4,4
			c-2.5-14.912-15.794-26.694-7.999-42.995c2.481,2.186,3.868,5.464,6,7.999c2.116-3.489-4.1-7.202-5-10.998
			c-4.497,1.169-3.7,7.631-5.999,10.998C72.749,211.518,71.674,196.903,71.035,188.977z"/>
		<path fill-rule="evenodd" clip-rule="evenodd" d="M173.022,191.976c2.731,4.602,5.835,8.83,5.999,15.998
			C174.638,205.693,175.144,198.651,173.022,191.976z"/>
		<path fill-rule="evenodd" clip-rule="evenodd" fill="#FFFFFF" d="M250.013,217.973c-3.488-3.845-2.322-12.343-4.999-16.998
			C254.011,200.289,256.263,211.765,250.013,217.973z"/>
		<path fill-rule="evenodd" clip-rule="evenodd" d="M236.015,201.975c5.78,3.886-0.267,11.138-1,15.998
			c-0.345,2.284,2.523,4.539,0,5.999c-5.338-4.457,1.638-11.798,2-16.997C237.195,204.147,233.255,204.646,236.015,201.975z"/>
		<path fill-rule="evenodd" clip-rule="evenodd" fill="#FFFFFF" d="M219.017,220.973c0.728,3.96,0.289,10.179,1,15.998
			c0.328,2.691,5.304,8.115-1,7.999C217.11,236.699,210.138,226.16,219.017,220.973z"/>
		<path fill-rule="evenodd" clip-rule="evenodd" fill="#FFFFFF" d="M223.016,223.972c1.392,5.293,7.508,13.052,4,16.998
			C222.51,237.306,222.332,230.454,223.016,223.972z"/>
		<path fill-rule="evenodd" clip-rule="evenodd" d="M63.036,243.97c2.913,3.503-0.891,18.569,4,22.997c-3.019,3.596-2.062-5.204-5-5
			C63.094,256.43,61.176,250.94,63.036,243.97z"/>
		<path fill-rule="evenodd" clip-rule="evenodd" fill="#FFFFFF" d="M247.013,270.966c-0.438,7.841,2.771,20.452-1,26.997
			c0.31,1.356,2.504,0.829,4,1c0.16,2.826-3.004,2.329-3,4.999c-4.489-1.509-5.722-6.276-10.998-6.999
			c0.273-10.341-2.334-15.038-4-24.997C235.68,268.413,240.46,271.908,247.013,270.966z"/>
		<path fill-rule="evenodd" clip-rule="evenodd" fill="#FFFFFF" d="M70.035,290.964c0,3.666,0,7.332,0,10.998
			c-3.439,1.561-7.651,2.349-12.999,2c-5.104,6.129-17.06,9.399-26.997,4.999c1.692-8.307,10.905-9.093,15.998-13.998
			c-0.697-5.363,2.955-6.377,4-9.998c6.03-1.354,9.346,6.234,12.999,6.999C66.216,292.629,67.036,289.223,70.035,290.964z"/>
		<path fill-rule="evenodd" clip-rule="evenodd" fill="#FFFFFF" d="M194.02,285.964c4.347,1.652,4.349,7.65,8.999,8.999
			c5.734,1.068,7.94-1.392,11.998-2c0,3,0,6,0,8.999c-3.216,3.762-8.547,2.044-13.998,4c-5.143,1.845-8.868,6.502-12.998,6.999
			c-5.469,0.657-10.19-1.865-14.998-4.999C177.293,297.9,191.614,297.891,194.02,285.964z"/>
		<path fill-rule="evenodd" clip-rule="evenodd" fill="#FFFFFF" d="M233.015,296.963c5.952,1.381,7.502,7.163,12.998,8.999
			c2.925-0.408,3.245-3.422,5-5c3.087,3.479-1.096,8.193,0,12.999c-1.966,0.446-6.184,3.709-7.999,1
			c-4.603,6.77-20.735,16.312-28.996,6.999C216.412,309.689,230.225,308.838,233.015,296.963z"/>
		<path fill-rule="evenodd" clip-rule="evenodd" fill="#FFFFFF" d="M108.03,305.962c0,2.999,0,5.999,0,8.999
			c-10.182,4.084-19.895,16.113-34.996,8.998c0.226-14.439,16.669-12.66,18.998-24.996
			C98.841,299.819,101.34,304.986,108.03,305.962z"/>
		<path fill-rule="evenodd" clip-rule="evenodd" d="M110.03,173.979c25.946-9.605,17.688,48.665-5,29.996
			c-3.516,13.987-2.09,25.481,2,37.995c2.267,6.938,7.477,13.018,7.999,18.998c0.946,10.847-6.475,20.788-7,31.995
			c-0.436,9.323,6.488,15.309,3,24.997c-1.872,2.249-4.417,0.862-7,2c-4.701,2.071-7.717,7.557-11.999,8.999
			c-7.496,2.525-15.273,1.462-21.997-3c-3.155-16.782,17.551-17.562,20.998-30.996c0.638-5.195-2.206-8.013,0-11.998
			c-9.433-9.753-4.302-27.676-7-42.995c-1.05-5.965-6.424-14.901-7.999-21.997c-5.538,12.906,1.829,25.508,1,36.995
			c-0.515,7.136-5.969,12.282-6.999,18.998c-1.72,11.218,6.623,18.131,3,29.996c-3.973,3.407-9.207,1.293-13.998,3
			c-5.486,1.954-8.913,7.28-14.998,7.999c-5.772,0.681-10.228-0.557-16.998-4c-1.848-11.847,8.247-11.751,13.999-15.998
			c1.929-6.069,4.936-11.062,9.999-13.998c-1.399-19.932,3.148-45.81-3-60.992c2.586-10.299-1.046-13.812-2-23.997
			c-9.617,1.483-10.437-10.632-19.998-9.999c-4.637,0.307-5.741,4.479-10.999,4c-18.312-1.667-13.614-43.333,7.999-32.996
			c0.354-15.015,2.247-25.089,6.999-35.996c2.32-5.325,6.597-10.015,7.999-14.998c0.572-2.034-0.521-5.785,0-8.999
			c0.523-3.223,3.927-6.951,4-8.999c0.121-3.381-2.295-5.922-2-8.999c1.367-14.235,14.25-19.884,23.997-26.997
			c-3.494-1.173-6.914-2.418-9.999-4c-0.302-19.382-2.767-22.528,2-37.996c5.61-8.08,21.852-11.932,29.996-4
			c0.966,4.809,4.264,7.514,5,11.999c0.965,5.889-2.467,13.594-1,18.998c1.161,4.275,4.241,6.206,7.999,9.999
			c6.577,6.639,12.823,12.748,20.998,18.998c2.298,11.592,8.686,21.04,6.999,32.996c-0.692,4.901-4.658,8.415-6,12.998
			c-0.483,1.651,0.417,3.802,0,6c-0.287,1.516-1.918,3.159-2,4c-0.415,4.26,1.369,8.601,1,12.998
			C117.917,148.222,108.353,159.654,110.03,173.979z M77.034,5C62.682,2.026,53.704,18.045,58.037,26.997
			c-0.426,1.907-2.857,1.809-2,5c3.225,3.304,0.231,6.926,1,12.998c6.984,5.974,23.216,1.525,21.998-9.999
			c3.139-1.193,6.571-2.095,7.999-5c0.166-4.166-2.974-5.025-4-7.999c1.333,0,2.666,0,4,0C86.489,12.672,83.188,6.274,77.034,5z
			 M68.036,51.994c1.646,0.135,1.646,6.863,0,6.999c-3.008,1.008-1.772-2.228-2-4c-5.246-0.028-6.117,4.925-5,5.999
			c-10.905,1.093-20.357,13.18-15.998,22.997c0.468-3.532-1.634-9.633,3-8.999c0.507,5.729,0.24,10.964,3,17.998
			c4.948,0.616,6.397-2.268,9.999-3c-0.493-3.507-1.491-6.508-1-10.999c4.471-9.199,7.565-25.091,22.997-19.998
			c-14.938,0.105-23.623,18.896-16.998,30.996c5.794-2.203,18.715,3.646,25.997-2c1.245-4.334-4.994-6.922,0-8.999
			c0.618,5.714,5.017,7.648,8.999,9.999c-2.09,2.18-2.854-0.5-5.999,0c-2.224,10.352,2.189,16.008,4,25.997
			c0.015,1.651,2.773,0.559,3,2c1.064,6.8-3.97,11.631-5,18.998c-1.711,12.239,1.627,25.804-1,36.996
			c-1.475,6.281-6.818,12.508-3,19.997c2.675,0.991,5.272,2.061,8.999,2c1.036-14.866,4.794-22.937,4-37.995
			c4.224,0.27,5.388-6.253,6.999-10.999c1.207-3.555,2.911-8.488,3-9.999c0.115-1.956,1.678-6.19-2-6.999
			c-5.501,4.355-2.728,14.49-6.999,17.998c0.993-6.225-0.208-8.71,0-15.998c14.483-3.369,3.547-26.001,13.998-32.996
			c0.012,3.858-5.472,5.142-1,7.999c2.667-6.617,2.95-19.383,0-25.997c0.88,2.062-3.296,3.787-3,2c0.88-6.187,1.385-11.094-1-15.998
			c-5.215-1.451-6.793-6.539-12.998-6.999c-2.812-8.188-10.753-11.245-15.998-16.998c0-2,0-4,0-5.999c-1.333,0-2.667,0-4,0
			C82.911,46.205,74.392,48.019,68.036,51.994z M45.038,87.989c-2.238,5.712-4.606,12.279-3.999,19.998
			c0.352,4.478,5.795,10.318,1,12.999c-1.377-3.289-0.786-8.546-4-9.999c-0.221,4.636-4.685,7.792-5.999,12.998
			c-1.57,6.222,1.294,15.124-3,18.998c-2.784,0.451,0.784-5.45-2-4.999c1.505,16.836-4.645,26.018-5.999,39.995
			c3.412,2.254,5.901,5.431,10.999,5.999c-2.075-9.815,4.25-14.75,1-19.997c5.545-15.785,18.207-24.455,19.997-43.995
			c-2.58-2.669-1.052,2.302-4.999,1c7.217-6.023-2.038-17.403,3-24.997c-2.894-2.439-4.521-6.144-6-9.999
			C45.038,86.656,45.038,87.322,45.038,87.989z M95.032,113.986c-1.533-6.466-3.616-12.382-3-20.998
			c-8.852,3.484-20.055,0.121-28.996-2c-4.021,2.312-8.086,4.579-10.999,7.999c-0.383,14.381,5.877,22.119,7.999,33.996
			c12.098,1.8,22.73,2.828,33.996,0c1.443-5.325,5.849-9.222,3-15.998c-3.32-2.82-3.132,4.272-7.999,3
			C89.452,116.405,94.844,117.797,95.032,113.986z M38.039,162.979c3.528-1.471,7.396-2.602,12.999-2
			c0.912-11.613,9.218-21.176,4-32.996C52.158,142.437,42.163,149.772,38.039,162.979z M60.037,134.983
			c-1.307,4.307,2.837,3.162,4,5c-1.667,0-3.333,0-5,0c0.232,10.564-5.138,15.526-6.999,23.997c4.863,2.803,3.975,11.356,4,18.998
			c4.735-0.403,6.881,1.784,11.999,0.999c3.273-9.391,3.863-21.467,11.999-25.996c-1.479,9.193-9.487,17.166-7,26.996
			c1.445-9.27,8.989-20.672,19.998-13.998c0.018-11.659,1.55-20.004,0-30.996c-3.565,1.802-16.674,6.53-18.998,0
			c7.777,0.098,21.726,1.08,18.998-5.999C83.777,139.843,71.914,135.774,60.037,134.983z M51.038,201.975
			c-0.35-6.016,1.386-9.946,4-12.998c2.692,5.966-3.353,11.198-3,17.998c0.332,6.377,5.87,10.371,5.999,14.998
			c-4.436,0.103-3.473-5.192-6.999-6c-0.038,9.381,5.829,18.155,5,24.997c-2.715,0.716,0.715-4.715-2-3.999
			c0,15.664,0,31.329,0,46.994c4.904,1.429,7.167,5.497,12.999,5.999c0.745-3.078-2.745-1.922-2-4.999
			c3.333-2.959,1.411-6.192,2-9.999c1.115-7.212,6.427-13.69,6.999-18.998c0.739-6.855-3.327-12.836-3-20.997
			c-0.016-1.651-2.773-0.56-3-2c4.03-3.317,4.059-15.918,3-20.997c-1.405,3.927-2.694,7.972-6.999,8.999
			c1.151-3.849,4.35-5.648,5.999-8.999c-0.4-8.932-1.531-17.133-1-26.997c-4.564-0.435-11.009,1.012-13.998-1
			C53.526,189.648,45.157,195.045,51.038,201.975z M79.034,216.973c2.299-3.367,1.502-9.829,5.999-10.998
			c0.9,3.796,7.115,7.509,5,10.998c-2.131-2.535-3.519-5.813-6-7.999c-7.795,16.301,5.499,28.083,7.999,42.995
			c-2.347-0.319-2.238-3.095-4-4c-0.103,11.769-0.942,24.272,5,29.996c1.296-7.979-3.047-15.594-2-19.997
			c5.18,8.818,2.172,25.824,3,38.995c3.89,1.109,5.777,4.222,9.999,4.999c-1.893-15.03,9.02-27.646,7.999-39.995
			c-0.671-8.115-7.359-13.418-8.999-21.997c-0.24,1.535-1.646,0.147-2-1c-0.551-5.337-0.922-26.209-4-16.997
			c-0.167-9.5,3.854-14.811,5-22.997c-3.657,0.657-3.836-2.164-6.999-2c-7.235,10.479-17.102,6.833-20.998-2
			c-0.682-1.546,0.746-7.914-3-5.999C71.674,196.903,72.749,211.518,79.034,216.973z M63.036,291.964
			c-3.653-0.765-6.968-8.354-12.999-6.999c-1.044,3.621-4.696,4.635-4,9.998c-5.093,4.905-14.306,5.691-15.998,13.998
			c9.937,4.4,21.893,1.13,26.997-4.999c5.348,0.349,9.559-0.439,12.999-2c0-3.666,0-7.332,0-10.998
			C67.036,289.223,66.216,292.629,63.036,291.964z M92.032,298.963c-2.329,12.336-18.772,10.557-18.998,24.996
			c15.101,7.115,24.814-4.914,34.996-8.998c0-3,0-6,0-8.999C101.34,304.986,98.841,299.819,92.032,298.963z"/>
		<path fill-rule="evenodd" clip-rule="evenodd" d="M74.035,111.986c1.589-3.545,7.635,4.755,8.999,7.999
			C78.098,119.255,78.246,113.44,74.035,111.986z"/>
		<path fill-rule="evenodd" clip-rule="evenodd" d="M182.021,130.983c17.526-5.422,39.067,0.1,50.993,8.999
			c8.217-2.904,12.76,0.23,20.997,2c4.891,8.616,15.24,14.874,14.999,26.996c-0.082,4.077-3.059,7.11-4,10.999
			c-0.826,3.412-0.234,7.243-1,10.999c-2.85,13.974-9.153,26.365-15.998,33.995c-0.949,9.948,1.769,16.229,2,24.997
			c3.08-0.97,10.618-4.163,16.998-1c5.485,8.316,2.873,24.306-3,29.996c-4.353,0.204-8.178,2.041-11.998,0
			c-2.152,6.172-1.527,18.178,2.999,20.998c0.246,6.578-0.117,12.547-1.999,16.997c-1.768,1.809-4.759,1.461-8.999,3
			c-6.408,2.326-13.078,12.379-25.997,8.999c-15.526-4.062,0.683-22.595,8.999-25.997c1.401-3.598,2.465-7.533,5.999-8.999
			c-1.802-6.197-3.258-12.739-3.999-19.997c-6.395-1.271-10.437-4.896-11.999-10.999c-10.189,12.979,4.024,26.968,0,41.995
			c-3.941,3.795-9.619,1.699-15.998,3.999c-4.558,1.645-8.086,6.402-11.998,7c-7.889,1.203-13.393-1.864-18.998-7
			c0.502-4.164,3.498-5.834,4-9.998c14.194-3.137,21.032-13.63,18.997-32.996c-2.657-3.008-7.034-4.298-7.999-8.999
			c-4.615-0.051-8.254-1.077-9.998-3.999c-4.473-0.14-5,3.665-8.999,3.999c-16.796-1.465-15.579-30.198-2-33.996
			c-1.515-13.353,1.523-27.665,0-39.994c-0.915-7.405-7.02-13.646-3.999-20.998c-5.674-3.325-7.535-10.463-13.999-12.998
			c-11.975-14.918-3.146-40.758,17.998-35.996C172.859,114.976,173.938,126.2,182.021,130.983z M242.014,196.976
			c-1.243-12.006-0.667-22.787-3.999-31.996c-2.386-6.591-11.528-10.802-8.999-17.998c0.686,5.313,6.034,5.965,7.999,9.999
			c0.097-1.38,3.902-3.901,3.999-2c-1.368,1.722-3.929,7.988,0,8.999c9.037-6.071,2.732-27.379-8.999-19.998
			c-4.773-3.851-12.944-9.21-21.997-10.999c-3.334-0.659-10.573-1.99-10.998-2c-10.819-0.255-14.595,4.338-18.998,7
			c5.818,6.946-0.572,16.617-4,22.997c-4.354,1.095-9.562,3.358-12.998,0c-1.217,13.549,4.556,20.108,7.999,28.997
			c-3.21,0.876-2.073-2.594-3.999-3c-3.33,8.142,1.29,15.127,1.999,21.997c0.322,3.116-1.204,6.278-1,8.999
			c0.432,5.728,4.176,10.327,5,15.998c0.661,4.547-1.468,9.422,0,13.998c2.355,2.644,6.434,3.565,9.999,5
			c-0.906-6.905,2.395-9.604,1.999-15.998c-2.487,0.109-3.095,1.873-4.999,0c-3.397-15.264,5.994-28.562,2-41.995
			c-2.506-1.323-2.428,4.656-4,1c1.478-4.522,5.438-6.562,4-13.998c-5.806-0.861-7.716-5.616-11.999-7.999
			c-0.17,1.496,0.357,3.689-1,3.999c0.62-2.714-1.27-7.935,1-8.999c5.012,6.321,10.105,12.56,22.997,10.999
			c-2.191-5.075-12.239-8.792-12.998-14.998c-0.065-0.531-1.68-5.001,2-5c0.628,13.231,16.162,21.159,27.996,13.999
			c-1.273-4.727-8.567-3.432-8.999-8.999c3.485,2.515,8.034,3.965,11.999,5.999c0.916,12.258,6.016,25.074,12.998,27.997
			c-6.396,19.293,6.254,30.93,7.999,49.993c0.866,9.461-0.17,13.979,4,18.998c3.18,1.529,4.398,0.351,7.998,0
			c2.844-12.916-0.65-27.89-0.999-41.995c-0.186-7.479,1.748-15.517-3-20.997c-0.025,2.641,0.933,6.265-3,4.999
			c2.9-7.502-0.343-12.516,0-17.998C239.438,194.218,241.159,195.163,242.014,196.976z M146.025,143.982
			c2.812,1.52,3.929,4.737,8.999,4c-0.101,3.1,1.223,4.777,2,6.999c3.163,1.374,3.342,0.218,6.999,0c-1.059,3.725,2.105,3.228,3,5
			c14.546,0.017,13.361-22.971,8.998-30.996c-3.318-1.537-3.777,4.732-5.999,1c-0.809-3.809,2.931-3.069,3-6
			C162.027,106.765,134.856,122.299,146.025,143.982z M245.014,200.975c2.677,4.655,1.511,13.153,4.999,16.998
			C256.263,211.765,254.011,200.289,245.014,200.975z M256.012,206.975c2.486-9.846,6.05-18.615,5.999-30.997
			c1.278-0.055,1.385-1.281,3-0.999c2.015-13.623-6.18-24.045-14.998-29.997c-0.096,1.571,0.134,3.467-2,3
			c0.475-3.141-1.247-4.085-2.999-5c2.35,3.528,0.145,15.82,4.999,10.999c0.28,7.946-5.769,9.562-8.999,13.998
			c8.662,0.997,11.708-3.623,15.998-6.999c-1.03,4.722-3.054,5.682-2,7.999c-4.905-1.787-6.54,1.821-12.998,1
			c2.315,8.351,3.575,17.756,3.999,27.997C250.565,199.756,254.498,202.156,256.012,206.975z M203.019,180.978
			c3.099,0.1,5.546-0.453,6.999-2C206.858,178.818,203.983,178.942,203.019,180.978z M221.017,200.975
			c-2.947-6.386-7.673-10.991-8.999-18.997c-3.402,1.264-7.593,1.739-10.999,2.999c0.427,5.094-1.535,7.797-2.999,10.999
			c2.279-0.279,3.759,0.241,3.999,2c-2.826-0.826-2.59,1.409-4.999,1c-0.522,4.811-2.131,8.534-3,12.998
			c5.384,1.388,7.279,12.833,11.999,17.998c-6.171-2.495-6.72-10.612-10.999-14.999c-1.695,4.305-2.567,9.431-2,15.998
			c21.969-1.216,17.88,30.298,3,33.996c-0.79,12.455,0.002,23.328,6.999,27.996c5.011,0.598,12.132-0.626,8.999-4.999
			c-1.124-3.853-3.875,3.853-4.999,0c6.891-5.386-1.043-16.125,0.999-21.997c3.936-1.602,0.349,4.318,3,3.999
			c0.647-9.933,6.692-15.371,4.999-24.996c-1.018-5.787-8.146-10.896-6.999-17.998c3.313-5.019,5.716-10.949,6.999-17.998
			c1.385,4.294-0.548,7.362,1,9.999c3.986-2.014,3.293-8.706,5-12.998c-3.919-5.08-12.592-5.407-17.998-8.999
			C209.756,194.242,216.669,202.498,221.017,200.975z M185.021,183.977c3.515,18.012-2.185,31.439-1.999,48.994
			c3.163-0.164,3.342,2.657,6.999,2c-1.633-16.107,3.801-34.932,7.999-50.994C193.388,184.479,188.729,181.247,185.021,183.977z
			 M219.017,244.97c6.304,0.116,1.328-5.308,1-7.999c-0.711-5.819-0.272-12.038-1-15.998
			C210.138,226.16,217.11,236.699,219.017,244.97z M227.016,240.97c3.508-3.946-2.608-11.705-4-16.998
			C222.332,230.454,222.51,237.306,227.016,240.97z M232.015,271.966c1.666,9.959,4.273,14.656,4,24.997
			c5.276,0.723,6.509,5.49,10.998,6.999c-0.004-2.67,3.16-2.173,3-4.999c-1.496-0.171-3.69,0.356-4-1
			c3.771-6.545,0.562-19.156,1-26.997C240.46,271.908,235.68,268.413,232.015,271.966z M173.022,307.962
			c4.808,3.134,9.529,5.656,14.998,4.999c4.13-0.497,7.855-5.154,12.998-6.999c5.451-1.956,10.782-0.238,13.998-4
			c0-2.999,0-5.999,0-8.999c-4.058,0.608-6.264,3.068-11.998,2c-4.65-1.349-4.652-7.347-8.999-8.999
			C191.614,297.891,177.293,297.9,173.022,307.962z M214.018,321.96c8.261,9.313,24.394-0.229,28.996-6.999
			c1.815,2.709,6.033-0.554,7.999-1c-1.096-4.806,3.087-9.521,0-12.999c-1.755,1.578-2.075,4.592-5,5
			c-5.496-1.836-7.046-7.618-12.998-8.999C230.225,308.838,216.412,309.689,214.018,321.96z"/>
		<path fill-rule="evenodd" clip-rule="evenodd" fill="#FFFFFF" d="M204.019,196.976c5.406,3.592,14.079,3.919,17.998,8.999
			c-1.707,4.292-1.014,10.984-5,12.998c-1.548-2.637,0.385-5.705-1-9.999c-1.283,7.049-3.686,12.979-6.999,17.998
			c-1.146,7.103,5.981,12.211,6.999,17.998c1.693,9.625-4.352,15.063-4.999,24.996c-2.651,0.319,0.936-5.601-3-3.999
			c-2.042,5.872,5.892,16.611-0.999,21.997c1.124,3.853,3.875-3.853,4.999,0c3.133,4.373-3.988,5.597-8.999,4.999
			c-6.997-4.668-7.789-15.541-6.999-27.996c14.88-3.698,18.969-35.212-3-33.996c-0.567-6.567,0.305-11.693,2-15.998
			c4.279,4.387,4.828,12.504,10.999,14.999c-4.72-5.165-6.615-16.61-11.999-17.998c0.869-4.464,2.478-8.188,3-12.998
			c2.409,0.409,2.173-1.826,4.999-1c-0.24-1.759-1.72-2.279-3.999-2c1.464-3.202,3.426-5.905,2.999-10.999
			c3.406-1.26,7.597-1.735,10.999-2.999c1.326,8.006,6.052,12.611,8.999,18.997C216.669,202.498,209.756,194.242,204.019,196.976z"
			/>
		<path fill-rule="evenodd" clip-rule="evenodd" fill="#FFFFFF" d="M239.014,191.976c-0.343,5.482,2.9,10.496,0,17.998
			c3.933,1.266,2.975-2.358,3-4.999c4.748,5.48,2.814,13.518,3,20.997c0.349,14.105,3.843,29.079,0.999,41.995
			c-3.6,0.351-4.818,1.529-7.998,0c-4.17-5.02-3.134-9.537-4-18.998c-1.745-19.063-14.396-30.7-7.999-49.993
			c-6.982-2.923-12.082-15.739-12.998-27.997c-3.965-2.034-8.514-3.484-11.999-5.999c0.432,5.567,7.726,4.272,8.999,8.999
			c-11.834,7.16-27.368-0.768-27.996-13.999c-3.68-0.001-2.065,4.468-2,5c0.759,6.206,10.807,9.923,12.998,14.998
			c-12.892,1.561-17.985-4.678-22.997-10.999c-2.27,1.064-0.38,6.285-1,8.999c1.357-0.31,0.83-2.503,1-3.999
			c4.283,2.383,6.193,7.138,11.999,7.999c1.438,7.437-2.522,9.476-4,13.998c1.572,3.656,1.494-2.323,4-1
			c3.994,13.434-5.397,26.731-2,41.995c1.904,1.873,2.512,0.109,4.999,0c0.396,6.394-2.905,9.093-1.999,15.998
			c-3.565-1.435-7.644-2.356-9.999-5c-1.468-4.576,0.661-9.451,0-13.998c-0.824-5.671-4.568-10.271-5-15.998
			c-0.204-2.721,1.322-5.883,1-8.999c-0.709-6.87-5.329-13.855-1.999-21.997c1.926,0.406,0.789,3.876,3.999,3
			c-3.443-8.889-9.216-15.447-7.999-28.997c3.436,3.358,8.644,1.095,12.998,0c3.428-6.38,9.818-16.051,4-22.997
			c4.403-2.661,8.179-7.255,18.998-7c0.425,0.01,7.664,1.341,10.998,2c9.053,1.789,17.224,7.147,21.997,10.999
			c11.731-7.381,18.036,13.926,8.999,19.998c-3.929-1.011-1.368-7.277,0-8.999c-0.097-1.901-3.902,0.62-3.999,2
			c-1.965-4.034-7.313-4.686-7.999-9.999c-2.529,7.196,6.613,11.407,8.999,17.998c3.332,9.209,2.756,19.99,3.999,31.996
			C241.159,195.163,239.438,194.218,239.014,191.976z M212.018,140.982c9.394,0.438-3.068-3.341-3,1
			C210.395,142.025,211.213,141.511,212.018,140.982z M197.02,145.982c-0.441-4.461-2.108-1.489-5-3
			C191.562,146.106,194.156,146.179,197.02,145.982z M185.021,154.98c5.223-0.443,6.386-4.946,11.999-4.999
			c0.228,1.771-1.008,5.007,2,4c1.216-1.888,0.113-4.038,0.999-7.999C194.224,148.186,188.127,150.088,185.021,154.98z
			 M208.018,151.981c-0.924-1.742,0.034-5.367-2.999-5C205.134,149.532,205.206,152.126,208.018,151.981z M223.016,174.979
			c3.944,0.61,1.177-5.49,2-8c1.074-2.635,4.457-8.15,2-10.999C224.618,161.249,223.934,168.23,223.016,174.979z M233.015,185.977
			c0.279-2.054,2.671-1.995,4-2.999c-0.147,2.479-0.187,4.852,1.999,4.999c0.073-4.406-1.78-6.886-2.999-9.999
			C234.48,179.501,230.361,183.58,233.015,185.977z M179.021,207.974c-0.164-7.168-3.268-11.396-5.999-15.998
			C175.144,198.651,174.638,205.693,179.021,207.974z M237.015,206.975c-0.362,5.199-7.338,12.54-2,16.997
			c2.523-1.46-0.345-3.715,0-5.999c0.733-4.86,6.78-12.112,1-15.998C233.255,204.646,237.195,204.147,237.015,206.975z"/>
	</g>
</g>
</svg>
