<svg xmlns="http://www.w3.org/2000/svg" xmlns:xlink="http://www.w3.org/1999/xlink" xmlns:a="http://ns.adobe.com/AdobeSVGViewerExtensions/3.0/" version="1.1" x="0px" y="0px" width="134px" height="152px" viewBox="0 0.507 134 152" enable-background="new 0 0.507 134 152" xml:space="preserve">
<defs>
</defs>
<path fill="#292123" d="M103.927 2.621c2.062-2.6 5.752-2.997 8.806-2.345c4.705 1.1 7.3 6.8 6 11.3 c-0.68 2.862-2.628 5.922-1.033 8.821c2.72 4.3 8.2 6.2 10.5 10.775c2.103 7.3 2.1 15.509-1.021 22.5 c-1.331 2.7 0 5.7 0.3 8.466c0.404 2.791-0.984 5.533-0.304 8.304c0.488 2.5 0.6 5.1 1.2 7.6 c0.97 1.8 2.5 3.2 3.3 5.123c1.544 3.5 0.8 7.877-1.665 10.774c-1.707 2.013-4.548 1.688-6.907 1.9 c-1.41 3.5-3.408 6.951-3.309 10.848c-0.113 5.2 3.8 9.6 3.6 14.842c0.022 3.379-1.41 6.496-2.323 9.7 c-1.715 5.5 1 11.35-0.936 16.869c-2.657 0.092-5.37 0.185-7.899 1.084c-1.828 0.56-3.563 1.516-5.484 1.7 c-3.343-0.339-6.156-2.4-8.671-4.491c2.352-3.514 6.772-3.925 10.067-6.149c1.828-1.211 3.804-2.43 4.987-4.335 c0.9-3.268 0.489-6.802-0.878-9.885c-1.545-3.506-0.985-7.389-1.176-11.102c-2.396 2.068-4.896 4.662-4.918 8.1 c-0.105 4.1 0.4 8.3 0.2 12.412c-2.147 0.028-4.287-0.036-6.426 0.063c-2.31 0.1-4.457 1.105-6.752 1.3 c-1.807-0.148-3.395-1.154-5.009-1.892c0.531-1.347 0.715-3.075 2.125-3.847c3.224-1.935 6.617-3.868 8.898-6.951 c0.73-1.408 0.588-3.06 0.717-4.59c0.141-6.632 1.033-13.206 1.367-19.823c0.254-4.308-0.546-8.565-0.632-12.866 c-2.239 0.221-5.001 1.283-6.844-0.552c-3.018-2.629-3.627-7.248-2.458-10.925c0.603-2.359 2.366-4.662 4.91-5.002 c2.16-0.333 4.1 1 5.9 1.878c0.552-5.399 0.043-10.833 0.552-16.231c0.376-3.798-0.155-7.609-0.651-11.371 c-0.439-2.997-1.602-5.986-1.168-9.048c0.665-3.549 4.314-5.235 5.929-8.218c0.198-1.402 0.128-2.827 0.142-4.236 c-1.842-0.638-3.684-1.269-5.539-1.856c-0.327-3.485-1.539-6.985-0.795-10.5C101.255 7.8 102.2 5 103.9 2.6"/>
<path fill="#FFFFFF" d="M104.239 3.733c2.245-3.032 6.844-3.621 10.06-1.87c2.077 1.2 3.4 3.5 3.9 5.8 c0.809 4.088-2.728 7.758-1.523 11.838c0.447 3.1 3.4 4.6 5.4 6.597c1.806 1.8 4 3.2 5.4 5.3 c0.729 2 0.6 4.2 0.9 6.276c0.596 4 1 8.36-0.579 12.235c-2.432 5.611-4.371 11.761-3.501 17.9 c0.149-3.054 0.12-6.199 1.424-9.041c0.574 1.7 1.2 3.5 0.9 5.364c-0.695 4.824-1.807 9.585-2.637 14.4 c-0.565 3.2 0.4 6.44-0.254 9.607c-1.07 1.51-3.005 1.948-4.569 2.741c0.098-8.479-1.233-16.868-1.693-25.319 c-0.255-3.175 0.297-6.342 1.346-9.331c-1.587-1.991-2.565-4.371-2.877-6.894c-1.056-4.046 0.305-8.828-2.854-12.144 c-0.39 1.056-0.779 2.111-1.183 3.16c0.871 0.1 1.7 0.2 2.6 0.383c0.143 3.918-0.141 8 1.2 11.7 c0.595 1.9 1.6 3.9 1.5 5.944c-0.17 2.309-0.445 4.611-0.602 6.922c-2.678 0.014-5.356-0.114-8.027-0.277 c-0.411-5.632-2.798-10.769-4.498-16.061c-0.682-4.599-2.551-9.097-2.062-13.809c0.178-2.437 2.409-3.818 4.222-5.051 c-0.85 3.344-2.025 6.639-2.209 10.117c0.801-2.261 1.282-4.619 2.062-6.894c0.645-2.196 2.771-3.387 4.471-4.712 c-1.056 0.376-2.111 0.751-3.16 1.119c0.283-1.466 0.744-2.911 0.765-4.42c-0.262-1.68-1.261-3.125-1.982-4.641 c-1.319 0.035-2.629 0.078-3.946 0.105c-0.221-3.294-1.609-6.616-0.659-9.911C102.284 8.5 102.8 5.9 104.2 3.7"/>
<path fill="#292123" d="M6.731 21.998c0.744-2.649 2.614-5.208 5.208-6.256c3.727-0.475 8.473-0.999 11 2.5 c2.579 3.7 0.3 8.2 0.4 12.313c6.518 4.9 13.7 9.5 18.4 16.344c2.869 4.1 3.9 9.4 7.8 12.8 c3.152 3 5.8 7 5.4 11.526c0.255 3.975-1.672 8.155-5.313 9.968c-3.691 1.566-7.984 2.027-11.123 4.7 c-1.36 3.097-1.97 6.453-2.877 9.698c2.331-0.162 5.13-1.104 7.1 0.737c4.386 4.3 4.3 11.6 0.3 16.1 c-2.119 1.026-5.009 1.438-6.873-0.32c-1.509-1.474-2.521-3.35-3.69-5.086c-3.365 2.622-6.575 5.745-10.727 7.1 c-2.076-0.043-3.89-1.594-5.052-3.224c-1.898-2.698-1.693-6.143-1.665-9.274c-1.941-0.92-3.975-1.749-5.625-3.158 c-0.142-1.099 0.262-2.212 1.297-2.721c2.678-1.658 5.576-3.004 7.892-5.193c-1.587-2.14-3.195-4.258-4.86-6.335 c-2.047 2.359-3.245 6.547-6.922 6.626C4.088 91.2 2 89.1 1 86.93c-1.41-3.315-1.325-7.291 0.234-10.535 c1.063-2.118 3.344-3.075 5.377-4.01c0.014-2.622-0.149-5.313 0.588-7.857c1.261-2.884 4.889-4.223 5.398-7.523 c0.631-4.131-2.047-7.844-2.033-11.932c-0.148-2.323 0.758-4.506 1.467-6.659c-1.814-0.85-3.656-1.629-5.498-2.401 C6.235 31.4 6.1 26.6 6.7 22"/>
<path fill="#FFFFFF" d="M8.311 20.518c2.366-5.979 12.264-5.676 14.843-0.071c1.162 3.6 0 7.333-1.814 10.4 c6.037 3.2 11.5 7.5 16.3 12.349c5.264 5.2 7.4 12.5 10.9 18.93c3.068 0.2 4.7 3.3 5.5 5.9 c1.269 5.073-1.452 11.18-6.497 13.015c-3.089 1.162-6.228 2.218-9.273 3.515c0.34-5.414-1.906-11.095 0.651-16.231 c2.785 1.3 5.5 2.7 8.2 4.216c-0.566-1.389-1.119-2.785-1.665-4.181c-2.443 0.057-4.839-0.453-7.141-1.261 c-1.793 5.023-3.302 10.166-3.755 15.509c0.552-2.494 1.105-4.988 1.962-7.404c2.621 6.094-0.077 12.504-1.559 18.5 c-1.056 3.6 0 7.416-0.347 11.108c-1.119 2.253-4.145 1.998-6.235 2.586c-0.665-2.856-0.743-5.86-1.7-8.645 c-3.762-5.639-9.649-9.712-12.589-15.94c-1.601-2.663 0.312-5.724 2.076-7.765c2.989-2.5 6.922-3.457 10.535-4.718 c1.509 4.6 0.8 9.4 0.8 14.147c-2.225-0.531-4.436-1.127-6.667-1.643c2.487 1.1 5.6 1.5 7.4 3.8 C28.97 90.2 28.7 94 29 97.69c0.438-5.029 0.205-10.109-0.539-15.097c-0.518-3.705 0.148-7.418 1.269-10.946 c-1.049-0.56-2.479-0.899-2.827-2.203c-1.134-2.884-1.8-5.923-2.756-8.863c-2.381-0.793-5.094-1.58-6.397-3.932 c-2.111-3.047-1.651-6.907-2.21-10.394c-0.177 2.686-0.099 5.385-0.241 8.069c-1.24-1.254-2.791-2.465-3.131-4.307 c-0.588-3.21-0.368-6.504-0.106-9.729c1.013 0.1 2 0.2 3 0.27c-2.189-2.43-4.683-4.619-7.835-5.675 C6.434 30.1 6.5 25.1 8.3 20.5"/>
<path fill="#FFFFFF" d="M12.874 53.879c1.602 1 3.1 2 4.7 3.11c-0.857 0.772-1.715 1.53-2.579 2.3 C13.667 57.7 13 55.9 12.9 53.9"/>
<path fill="#FFFFFF" d="M102.915 60.631c0.104-2.168-0.199-4.768 1.564-6.384c1.63 0.9 2 2.8 2.3 4.5 c0.836 5.796-0.256 12.017-3.691 16.834C102.624 70.6 103 65.6 102.9 60.6"/>
<path fill="#FFFFFF" d="M16.82 58.704c1.913 0.7 4 1.2 5.5 2.649c2.21 2.1 2.9 5.2 3.9 7.9 c-1.403 0.581-2.813 1.147-4.23 1.686C21.354 66.5 18.9 62.7 16.8 58.7"/>
<path fill="#FFFFFF" d="M12.413 60.532c1.169-0.539 2.706-1.488 3.854-0.383c3.415 2.7 4.9 7.2 5.2 11.4 c-2.295 0.071-4.591 0.1-6.886-0.014c1.084-1.304 2.225-2.551 3.386-3.776c-2.097 1.452-4.208 3.479-6.957 3.3 c-1.622 0.178-2.855-1.254-3.323-2.663C7.468 65.1 9.5 61.9 12.4 60.5"/>
<path fill="#292123" d="M35.105 66.568c0.511-0.326 1.545-0.978 2.062-1.297c-0.383 1.304-0.809 2.607-1.254 3.9 C35.644 68.3 35.4 67.4 35.1 66.6"/>
<path fill="#FFFFFF" d="M108.242 65.618c3.074-0.035 7.325-0.786 9.2 2.239c-2.012 0.12-4.023 0.113-6.035 0.2 c1.892 0.2 3.8 0.3 5.7 0.495c0.446 3.7 0.5 7.5 0.6 11.266c-3.097-1.156-6.362-1.049-9.521-0.327 c-0.597 2.169-1.035 4.421-2.162 6.391c-1.359 0.135-2.727 0.128-4.094 0.156c0.468-4.244 1.763-8.318 3.259-12.292 C106.23 71 106.5 68 108.2 65.6"/>
<path fill="#FFFFFF" d="M8.248 71.484c3.146-0.17 6.3 0.1 9.3 1.014c-1.531 1.516-3.011 3.081-4.506 4.6 C11.436 75.3 9.8 73.4 8.2 71.5"/>
<path fill="#FFFFFF" d="M126.117 71.463c0.949 2.4 0.9 5 0.3 7.412C124.643 76.7 125.6 73.9 126.1 71.5"/>
<path fill="#FFFFFF" d="M101.979 86.228c1.558 0.1 3.1 0.2 4.7 0.327c0.333 3.9 0.1 7.8 0.4 11.7 c0.679 4.5 3 8.8 2.9 13.468c0.247 2.062-1.127 3.72-2.14 5.363c-2.656 3.451-1.7 8.368-4.782 11.6 c-1.205-1.205-3.267-2.245-2.94-4.25c0.212-3.315 0.574-6.617 0.616-9.948c0.035-4.676 2.182-9.081 1.729-13.8 c0.999 1.4 2 2.8 3 4.229c-1.104-2.125-2.288-4.285-2.494-6.724C102.574 94.2 101.9 90.2 102 86.2"/>
<path fill="#FFFFFF" d="M9.657 98.067c2.862-2.637 6.468-4.237 9.515-6.617c1.368 1.4 2.7 2.8 4.1 4.3 c-3.493 0.227-6.015 2.606-8.756 4.441C12.71 100 11.2 98.9 9.7 98.1"/>
<path fill="#FFFFFF" d="M114.1 95.686c2.316-1.197 3.961-3.329 6.009-4.902c0.843 1.3 1.8 2.5 2.4 3.9 c-0.639 2.947-2.473 5.519-2.891 8.537c-0.497 3.62-0.241 7.4 1.1 10.846c0.913 2.6 2.3 5.2 2.1 8.1 c-0.163 3.18-1.984 5.915-2.749 8.94c-0.495 2.21-0.105 4.498-0.411 6.724c-0.438 1.637-1.438 3.038-2.273 4.5 c-1.317-1.75-3.352-3.408-3.259-5.802c0.085-4.464 0.178-8.935 0.255-13.404c-0.645 0.658-1.304 1.311-1.962 2 c-0.354-1.912-0.899-3.91-0.291-5.831c0.262-1.197 0.85-2.359 0.772-3.605c-0.481-2.146-1.645-4.067-2.126-6.214 c-0.581-2.727-0.318-5.547-0.007-8.288c1.523 2.5 2.9 5.1 4.6 7.537c-1.828-3.727-4.294-7.389-3.988-11.746 c-0.61 1.884-1.432 3.691-2.409 5.413c-0.708-2.657-1.148-5.37-1.269-8.12C109.736 94.8 111.8 96 114.1 95.7"/>
<path fill="#FFFFFF" d="M89.29 132.306c3.57-1.395 6.759-3.549 9.486-6.227c1.056 0.9 2 2 3.2 2.7 c1.333 0.2 2.7 0 4.031-0.007c0.028 2 0 3.9 0 5.915c-2.939 0.142-5.916-0.305-8.827 0.2 c-2.622 0.495-5.3 0.488-7.95 0.36C89.253 134.3 89.3 133.3 89.3 132.3"/>
<path fill="#FFFFFF" d="M108.283 140.928c1.616-0.778 3.161-2.486 5.096-2.075c0.983 1.1 1.7 2.3 2.4 3.6 c1.637 0.1 3.3 0.1 4.9 0.228c-0.341 1.317-0.624 2.663-1.112 3.939c-1.885 0.906-4.018 1.026-6.029 1.5 c-2.536 0.468-4.995 1.537-7.609 1.403c-2.536-0.192-4.619-1.808-6.624-3.203C101.525 143.3 105.4 143 108.3 140.9"/>
</svg>
