<?xml version="1.0" encoding="utf-8"?>
<!-- Generator: Adobe Illustrator 15.1.0, SVG Export Plug-In  -->
<!DOCTYPE svg PUBLIC "-//W3C//DTD SVG 1.1//EN" "http://www.w3.org/Graphics/SVG/1.1/DTD/svg11.dtd" [
	<!ENTITY ns_flows "http://ns.adobe.com/Flows/1.0/">
]>
<svg version="1.1"
	 xmlns="http://www.w3.org/2000/svg" xmlns:xlink="http://www.w3.org/1999/xlink" xmlns:a="http://ns.adobe.com/AdobeSVGViewerExtensions/3.0/"
	 x="0px" y="0px" width="141px" height="205px" viewBox="0 0 141 205" enable-background="new 0 0 141 205" xml:space="preserve">
<defs>
</defs>
<g>
	<g>
		<path fill-rule="evenodd" clip-rule="evenodd" fill="#FFFFFF" d="M36.996,204.975c4.48-4.184,12.293-1.908,11.998-8.999
			c-0.217-5.221-4.02-3.701-8.999-6.999c-2.431-4.234-7.045-6.287-9.999-9.999c-1.842-13.618,1.583-27.404,3-35.995
			c3.37-20.426,4.879-44.367,1-66.992c5.292-7.374,9.046-16.285,20.998-16.998c-0.589-3.588,1.162-4.837,2-6.999
			c1.434-5.433-5.136-2.862-4.999-7C50.346,31.644,52.1,14.892,49.994,2c-5.104-0.695-2.869,6.147-3,7.999
			c-0.916,12.934,1.832,21.922,1,31.996c-2.482,4.517-6.772,7.227-10.999,9.999c0.239-9.238-6.544-11.454-8.999-17.998
			c9.263-1.568,5.66-11.793,7.999-15.998c-1.516-4.15-4.411-6.921-6-10.999c-4.733-0.502-10.647-2.062-14.998,0
			c-4.649,3.75-8.362,13.156-4,19.998C9.216,31.546,5.505,34.168,3,37.995c1.193,8.611-1.629,13.583,0,20.998
			c1.495,6.805,7.959,10.492,7.999,14.998c0.049,5.493-3.88,6.56-6.999,11.999c-2.393,9.252,2.517,13.233,4,17.998
			c0.829,2.665,0.132,6.542,1,9.998c1.861,7.419,6.875,15.15,6.999,18.998c0.232,7.237-4.741,14.232-6.999,21.997
			c1.48,8.813,6.527,14.52,6.999,23.997c0.262,5.271-4.445,14.683-2,18.998c3.342,5.896,13.66,2.617,17.998,6.999
			c-10.666,0-21.331,0-31.996,0C0,136.649,0,68.325,0,0c46.994,0,93.988,0,140.982,0c0,68.325,0,136.649,0,204.975
			C106.32,204.975,71.657,204.975,36.996,204.975z M99.987,3c-7.45,3.328-5.121,18.297-7.999,24.997
			c-2.41,5.613-3.823,9.209-5.999,12.999c-3.643,6.343,0.535,17.639,0,22.997c2.909,3.09,5.463,6.535,5.999,11.999
			c-1.868,1.797-4.04,3.292-5.999,4.999c-2.942,6.889,0.879,12.563,1,19.998c0.061,3.745-1.347,6.904-1,9.999
			c0.653,5.834,4.881,11.298,4.999,16.998c0.196,9.404-7.501,17.7-6.999,26.996c0.33,6.104,6.057,12.447,5.999,18.998
			c-0.061,6.957-6.871,14.699-3.999,22.997c6.778-1.416,12.275,5.01,18.998,5.999c8.387,1.234,17.447-0.966,17.997-6.999
			c0.808-8.859-13.461-9.909-17.997-15.998c-1.732-26.062,2.977-45.684,8.998-63.992c5.711-1.044,3.11,6.223,8.999,4.999
			c7.716-3.419,5.322-16.152-1-18.997c4.621-10.941,2.835-25.007,6-36.996c0.42-1.592,1.624-0.891,1.999-3
			c1.792-10.067,3.118-20.224,5-29.996c0.713-3.703,1.547-8.142,1.999-11.999c0.413-3.512,2.078-9.211-0.999-11.999
			c-4.396,13.268-6.743,28.586-7.999,44.994c-4.949,9.949-3.17,26.527-6,37.996c-0.56,2.271-1.967,5.977-3.999,6.999
			c0.414-10.08-3.198-16.133-4-24.997c5.709-6.024,2.339-15.458,4-25.997c-2.224-4.775-6.585-7.413-8.999-11.999
			c10.104,0.412,12.734-18.441,7.999-27.997C110.864,3.974,105.898,0.359,99.987,3z"/>
		<path fill-rule="evenodd" clip-rule="evenodd" fill="#FFFFFF" d="M111.986,30.996c-4.195,0.528-5.586-1.747-8.999-2
			c-0.296-6.197-1.193-7.627,1-11.999c-1.237-2.443-7.112-1.208-5,3c-4.646-8.157,6.765-19.537,14.998-8.999
			c0.172,5.796,1.811,8.265,1,11.999C114.562,24.952,109.473,26.672,111.986,30.996z"/>
		<path fill-rule="evenodd" clip-rule="evenodd" fill="#FFFFFF" d="M46.994,48.994c2.453,0.88,5.766,0.9,5.999,4
			c-1.289-1.377-4.343-0.989-6.999-1C46.523,51.189,47.038,50.37,46.994,48.994z"/>
		<path fill-rule="evenodd" clip-rule="evenodd" fill="#FFFFFF" d="M88.989,48.994c1.873,1.328,2.098,8.078,0.999,9.999
			C89.077,60.589,88.635,53.784,88.989,48.994z"/>
		<path fill-rule="evenodd" clip-rule="evenodd" fill="#FFFFFF" d="M13.998,69.991c3.37,0.296,2.9,4.433,6,5
			c0.168,2.168-3.546,0.453-5,1C13.847,74.809,13.866,72.456,13.998,69.991z"/>
		<path fill-rule="evenodd" clip-rule="evenodd" fill="#FFFFFF" d="M30.996,82.99c2.389,5.807-3.354,13.938,0,20.998
			c-7.128-0.13-14.143-0.146-19.998,1c-1.955-9.008-4.894-19.238,2-24.997C20.167,79.821,27.46,79.526,30.996,82.99z"/>
		<path fill-rule="evenodd" clip-rule="evenodd" fill="#FFFFFF" d="M104.987,102.987c-4.333,0-8.666,0-12.999,0
			c-2.92-6.701-4.517-16.781,0-22.997C103.248,80.729,98.523,97.452,104.987,102.987z"/>
		<path fill-rule="evenodd" clip-rule="evenodd" fill="#FFFFFF" d="M109.986,107.986c0.182,11.181-4.038,17.959-7.999,24.997
			c-0.551,2.217,1.909,1.424,2,3c-3.64,12.358-3.052,28.943-3,44.994c-3.123,1.209-4.348,4.317-7.999,4.999
			c-1.057-6.724,0.531-13.753-1-20.997c-1.796-8.496-7.506-18.037,2-25.997c0.148-10.813,0.301-21.631-4-27.996
			C90.469,104.239,105.814,104.738,109.986,107.986z"/>
		<path fill-rule="evenodd" clip-rule="evenodd" fill="#FFFFFF" d="M29.996,106.986c4.309,11.382,0.696,27.488-4.999,34.996
			c-0.396,1.94,4.554,1.461,3-1c1.869,1.612-0.063,7.878-2,8.999c-2.149,13.28,3.796,28.48-4,35.995
			c-5.467-2.495-2.005-8.316-3-12.998c-2.129-10.027-7.752-17.512-3-28.996c1.793,0.127,2.109-1.225,4-1
			c1.024-15.022-5.466-22.531-7.999-33.996C15.467,105.789,23.675,107.332,29.996,106.986z"/>
		<path fill-rule="evenodd" clip-rule="evenodd" fill="#FFFFFF" d="M28.997,183.977c4.572,4.428,8.959,9.039,14.998,11.999
			c-5.101,8.637-15.509,2.082-24.997,2c-0.605-2.396-1.438-4.562-1-7.999C24.777,191.09,26.442,187.089,28.997,183.977z"/>
		<path fill-rule="evenodd" clip-rule="evenodd" fill="#FFFFFF" d="M101.987,183.977c6.128,2.871,9.449,8.549,16.998,9.999
			c-0.806,4.178-10.168,8.697-14.998,5c-0.361-0.276-0.801-2.917-1-3c-5.396-2.257-17.227-0.406-13.998-7.999
			C94.629,191.533,99.053,186.345,101.987,183.977z"/>
		<path fill-rule="evenodd" clip-rule="evenodd" fill="#FFFFFF" d="M19.998,16.998c-4.628-0.43-6.725,1.667-5,4.999
			c-9.279-10.514,18.596-20.733,15.998,2c-0.312,2.734-2.724,1.429-2,5.999c-4.118,0.785-5.131-1.535-8.999-1
			c0.16-3.16,0.035-6.035-2-7C19.548,21.56,22.053,21.042,19.998,16.998z"/>
		<path fill-rule="evenodd" clip-rule="evenodd" fill="#FFFFFF" d="M108.986,93.988c-2.978-5.355-3.977-12.688-8.999-15.998
			c3.059-4.826-1.13-10.512-6.999-11.999c0.673-5.005-0.926-7.739-1-11.999c-0.071-4.891,2.941,2.721,5-1
			c-1.846-3.821-4.16-7.172-7.999-8.999c2.33-4.336,3.329-10.003,8.998-10.999c0.341-2.007-0.204-3.129-1.999-3
			c0.575-2.09,2.479-2.854,1.999-5.999c3.3,1.7,1.42,8.579,6,8.999c-0.227,1.44-2.984,0.349-3,2
			c4.748,4.918,10.29,9.041,13.998,14.998c-4.046,3.855,1.024,10.871-1.999,15.998c-1.503-4.521-5.297-9.728-3-14.998
			c-3.668,0.999-9.844-0.512-9.999,4c1.232,3.038,3.438-1.084,5.999,0c1.448,6.884,3.454,13.211,3,21.997
			c6.433,9.565,3.354,28.643,14.998,32.996c-0.605,2.062,1.613,6.946-2,5.999c2.315-2.222-0.339-3.898,0-6.999
			c-3.437-0.438-5.604,0.396-7.999,1c-1.547-8.451-7.899-12.098-10.998-18.998C104.54,88.542,104.127,96.435,108.986,93.988z"/>
		<path fill-rule="evenodd" clip-rule="evenodd" fill="#FFFFFF" d="M13.998,32.996c3.769,3.402,8.556,9.404,13.999,7.999
			c3.016,4.004,5.358,9.896,2,14.998c-2.144-2.189-4.477-4.188-4-8.999c-1,0-2,0-3,0c-0.907,2.76-2.423,4.909-3,7.999
			c1.222,3.048,3.816-1.462,5,1c0.472,4.805-6.109,2.557-5,7.999c4.727,1.746,8.442-4.514,12.999-7
			c3.266-1.781,8.912-2.521,11.998-4.999c-3.621,10.71-11.324,17.338-19.997,22.997C18.639,68.684,9.972,64.686,9.999,51.994
			c1.182,1.151,3.535,1.131,6,1c-4.503-1.829-5.455-7.21-7.999-10.999c0.697-6.968,6.263-9.068,7.999-14.998
			c2.452,1.548,3.235,4.764,5.999,6C21.774,34.424,17.021,32.067,13.998,32.996z"/>
		<path fill-rule="evenodd" clip-rule="evenodd" d="M36.996,204.975c-1.667,0-3.333,0-5,0c-4.338-4.382-14.656-1.103-17.998-6.999
			c-2.445-4.315,2.262-13.727,2-18.998c-0.472-9.478-5.519-15.184-6.999-23.997c2.258-7.765,7.231-14.76,6.999-21.997
			c-0.124-3.848-5.138-11.579-6.999-18.998c-0.868-3.456-0.171-7.333-1-9.998c-1.482-4.765-6.393-8.746-4-17.998
			c3.119-5.439,7.048-6.506,6.999-11.999C10.958,69.484,4.495,65.797,3,58.993c-1.629-7.414,1.193-12.387,0-20.998
			c2.506-3.827,6.216-6.449,7.999-10.999c-4.362-6.841-0.65-16.247,4-19.998c4.351-2.062,10.265-0.502,14.998,0
			c1.589,4.077,4.484,6.848,6,10.999c-2.339,4.205,1.264,14.43-7.999,15.998c2.455,6.544,9.238,8.76,8.999,17.998
			c4.227-2.772,8.517-5.482,10.999-9.999c0.832-10.074-1.916-19.062-1-31.996c0.131-1.852-2.105-8.694,3-7.999
			c2.106,12.892,0.353,29.644,2,42.994c-0.137,4.137,6.433,1.566,4.999,7c-0.837,2.162-2.588,3.411-2,6.999
			c-11.952,0.713-15.706,9.625-20.998,16.998c3.879,22.625,2.37,46.566-1,66.992c-1.417,8.591-4.842,22.377-3,35.995
			c2.954,3.712,7.568,5.765,9.999,9.999c4.979,3.298,8.782,1.778,8.999,6.999C49.289,203.066,41.476,200.791,36.996,204.975z
			 M17.998,21.997c2.035,0.965,2.16,3.84,2,7c3.868-0.535,4.881,1.785,8.999,1c-0.725-4.57,1.687-3.265,2-5.999
			c2.598-22.733-25.277-12.514-15.998-2c-1.726-3.332,0.371-5.429,5-4.999C22.053,21.042,19.548,21.56,17.998,21.997z
			 M21.997,32.996c-2.764-1.235-3.547-4.452-5.999-6c-1.736,5.93-7.302,8.03-7.999,14.998c2.544,3.789,3.496,9.169,7.999,10.999
			c-2.465,0.132-4.817,0.152-6-1c-0.026,12.692,8.64,16.69,14.999,22.997c8.673-5.659,16.376-12.287,19.997-22.997
			c-3.086,2.479-8.732,3.218-11.998,4.999c-4.556,2.485-8.272,8.746-12.999,7c-1.109-5.442,5.472-3.194,5-7.999
			c-1.184-2.462-3.777,2.048-5-1c0.576-3.09,2.093-5.239,3-7.999c1,0,2,0,3,0c-0.478,4.811,1.856,6.81,4,8.999
			c3.358-5.102,1.017-10.994-2-14.998c-5.442,1.405-10.229-4.597-13.999-7.999C17.021,32.067,21.774,34.424,21.997,32.996z
			 M45.994,51.994c2.656,0.01,5.71-0.378,6.999,1c-0.233-3.1-3.546-3.12-5.999-4C47.038,50.37,46.523,51.189,45.994,51.994z
			 M14.998,75.991c1.453-0.547,5.168,1.168,5-1c-3.1-0.567-2.629-4.704-6-5C13.866,72.456,13.847,74.809,14.998,75.991z
			 M12.999,79.99c-6.894,5.759-3.955,15.989-2,24.997c5.854-1.146,12.869-1.13,19.998-1c-3.354-7.059,2.389-15.19,0-20.998
			C27.46,79.526,20.167,79.821,12.999,79.99z M11.999,108.986c2.533,11.465,9.023,18.974,7.999,33.996c-1.891-0.225-2.206,1.127-4,1
			c-4.752,11.484,0.871,18.969,3,28.996c0.994,4.682-2.467,10.503,3,12.998c7.795-7.515,1.851-22.715,4-35.995
			c1.937-1.121,3.869-7.387,2-8.999c1.555,2.461-3.396,2.94-3,1c5.695-7.508,9.308-23.614,4.999-34.996
			C23.675,107.332,15.467,105.789,11.999,108.986z M17.998,189.977c-0.438,3.437,0.395,5.604,1,7.999
			c9.488,0.082,19.896,6.637,24.997-2c-6.039-2.96-10.426-7.571-14.998-11.999C26.442,187.089,24.777,191.09,17.998,189.977z"/>
		<path fill-rule="evenodd" clip-rule="evenodd" d="M116.985,6.999c4.735,9.555,2.104,28.409-7.999,27.997
			c2.414,4.585,6.775,7.223,8.999,11.999c-1.661,10.539,1.709,19.973-4,25.997c0.802,8.864,4.414,14.917,4,24.997
			c2.032-1.022,3.439-4.728,3.999-6.999c2.83-11.469,1.051-28.046,6-37.996c1.256-16.408,3.603-31.726,7.999-44.994
			c3.077,2.787,1.412,8.487,0.999,11.999c-0.452,3.857-1.286,8.295-1.999,11.999c-1.882,9.772-3.208,19.929-5,29.996
			c-0.375,2.109-1.579,1.408-1.999,3c-3.165,11.989-1.379,26.054-6,36.996c6.322,2.845,8.716,15.578,1,18.997
			c-5.889,1.224-3.288-6.043-8.999-4.999c-6.021,18.309-10.73,37.93-8.998,63.992c4.536,6.089,18.805,7.139,17.997,15.998
			c-0.55,6.033-9.61,8.233-17.997,6.999c-6.723-0.989-12.22-7.415-18.998-5.999c-2.872-8.298,3.938-16.04,3.999-22.997
			c0.058-6.551-5.669-12.895-5.999-18.998c-0.502-9.296,7.195-17.592,6.999-26.996c-0.118-5.7-4.346-11.164-4.999-16.998
			c-0.347-3.095,1.061-6.254,1-9.999c-0.121-7.435-3.942-13.109-1-19.998c1.959-1.708,4.131-3.202,5.999-4.999
			c-0.536-5.463-3.09-8.908-5.999-11.999c0.535-5.358-3.643-16.654,0-22.997c2.176-3.79,3.589-7.385,5.999-12.999
			c2.878-6.7,0.549-21.669,7.999-24.997C105.898,0.359,110.864,3.974,116.985,6.999z M114.985,22.997
			c0.811-3.734-0.828-6.203-1-11.999c-8.233-10.538-19.645,0.842-14.998,8.999c-2.112-4.207,3.763-5.442,5-3
			c-2.193,4.372-1.296,5.802-1,11.999c3.413,0.253,4.804,2.528,8.999,2C109.473,26.672,114.562,24.952,114.985,22.997z
			 M102.987,90.989c3.099,6.899,9.451,10.546,10.998,18.998c2.396-0.604,4.562-1.438,7.999-1c-0.339,3.101,2.315,4.777,0,6.999
			c3.613,0.947,1.395-3.938,2-5.999c-11.644-4.354-8.565-23.431-14.998-32.996c0.454-8.786-1.552-15.113-3-21.997
			c-2.561-1.084-4.767,3.038-5.999,0c0.155-4.512,6.331-3.001,9.999-4c-2.297,5.271,1.497,10.478,3,14.998
			c3.023-5.127-2.047-12.143,1.999-15.998c-3.708-5.958-9.25-10.08-13.998-14.998c0.016-1.651,2.773-0.56,3-2
			c-4.58-0.42-2.7-7.299-6-8.999c0.479,3.146-1.424,3.909-1.999,5.999c1.795-0.129,2.34,0.993,1.999,3
			c-5.669,0.996-6.668,6.663-8.998,10.999c3.839,1.826,6.153,5.178,7.999,8.999c-2.059,3.721-5.071-3.891-5,1
			c0.074,4.259,1.673,6.993,1,11.999c5.869,1.486,10.058,7.172,6.999,11.999c5.022,3.31,6.021,10.643,8.999,15.998
			C104.127,96.435,104.54,88.542,102.987,90.989z M89.988,58.993c1.099-1.921,0.874-8.671-0.999-9.999
			C88.635,53.784,89.077,60.589,89.988,58.993z M91.988,79.99c-4.517,6.216-2.92,16.296,0,22.997c4.333,0,8.666,0,12.999,0
			C98.523,97.452,103.248,80.729,91.988,79.99z M89.988,110.986c4.301,6.365,4.148,17.183,4,27.996
			c-9.506,7.96-3.796,17.501-2,25.997c1.531,7.244-0.057,14.273,1,20.997c3.651-0.682,4.876-3.79,7.999-4.999
			c-0.052-16.051-0.64-32.636,3-44.994c-0.091-1.576-2.551-0.783-2-3c3.961-7.038,8.181-13.816,7.999-24.997
			C105.814,104.738,90.469,104.239,89.988,110.986z M88.989,187.977c-3.229,7.593,8.603,5.742,13.998,7.999
			c0.199,0.083,0.639,2.724,1,3c4.83,3.697,14.192-0.822,14.998-5c-7.549-1.45-10.87-7.128-16.998-9.999
			C99.053,186.345,94.629,191.533,88.989,187.977z"/>
	</g>
</g>
</svg>
