<?xml version="1.0" encoding="utf-8"?>
<!-- Generator: Adobe Illustrator 15.1.0, SVG Export Plug-In  -->
<!DOCTYPE svg PUBLIC "-//W3C//DTD SVG 1.1//EN" "http://www.w3.org/Graphics/SVG/1.1/DTD/svg11.dtd" [
	<!ENTITY ns_flows "http://ns.adobe.com/Flows/1.0/">
]>
<svg version="1.1"
	 xmlns="http://www.w3.org/2000/svg" xmlns:xlink="http://www.w3.org/1999/xlink" xmlns:a="http://ns.adobe.com/AdobeSVGViewerExtensions/3.0/"
	 x="0px" y="0px" width="339px" height="217px" viewBox="0 0 339 217" enable-background="new 0 0 339 217" xml:space="preserve">
<defs>
</defs>
<g>
	<g>
		<path fill-rule="evenodd" clip-rule="evenodd" fill="#FFFFFF" d="M66.798,13.36c5.217,13.283,1.894,30.036-5.01,40.079
			c-16.568,2.096-15.121-13.824-23.379-20.04c-0.715-4.612,6.226-1.567,6.68-5.01c-0.428-3.469-7.337-0.457-8.35-3.34
			C36.12,8.563,56.37,4.856,66.798,13.36z"/>
		<path fill-rule="evenodd" clip-rule="evenodd" fill="#FFFFFF" d="M263.853,58.448c-14.207-0.266-15.381-13.563-23.379-20.04
			c3.817-4.853,3.751-8.46-1.67-11.689c3.75-23.125,30.134-20.384,33.398,0C274.157,38.921,267.984,47.411,263.853,58.448z"/>
		<path fill-rule="evenodd" clip-rule="evenodd" fill="#FFFFFF" d="M293.911,35.069c6.274-1.264,5.649,4.371,8.35,6.68
			c2.484-5.991,7.041,0.393,11.69,1.67c-4.649,9.98,10.268,18.377-1.67,25.049c-0.513-15.073-12.117-19.054-21.71-25.049
			C290.313,39.265,293.193,38.249,293.911,35.069z"/>
		<path fill-rule="evenodd" clip-rule="evenodd" fill="#FFFFFF" d="M242.142,46.759c3.884,6.696,6.582,14.573,18.371,13.359
			c-1.734,9.245-29.523-6.155-33.397,8.35c-9.616-1.518-14.074-8.191-21.712-11.689c5.836-7.306,20.052,2.389,28.39,3.34
			c5.222-2.701-6.638-2.076-3.341-8.35C236.812,52.561,240.879,51.059,242.142,46.759z"/>
		<path fill-rule="evenodd" clip-rule="evenodd" d="M40.079,65.128c-0.045,1.625-2.044,1.297-3.34,1.67
			c-1.957,0.269-1.409,3.045-1.67,5.01c-4.367,0.471-7.184-0.61-6.68-5.01C32.31,66.267,34.657,64.159,40.079,65.128z"/>
		<path fill-rule="evenodd" clip-rule="evenodd" fill="#FFFFFF" d="M230.452,75.148c2.158-4.172,8.096,1.766,6.681,6.68
			C231.444,83.064,234.38,75.673,230.452,75.148z"/>
		<path fill-rule="evenodd" clip-rule="evenodd" d="M240.474,105.207C236.806,110.307,229.778,103.279,240.474,105.207
			L240.474,105.207z"/>
		<path fill-rule="evenodd" clip-rule="evenodd" fill="#FFFFFF" d="M75.148,121.907c2.197,2.303,2.777,20.567,5.01,28.389
			C66.558,149.976,76.877,130.87,75.148,121.907z"/>
		<path fill-rule="evenodd" clip-rule="evenodd" d="M263.853,128.586c2.946-0.532,2.979,9.355-1.67,6.68
			C261.475,131.776,263.327,130.845,263.853,128.586z"/>
		<path fill-rule="evenodd" clip-rule="evenodd" d="M262.183,140.276c3.562-0.779,3.18,2.386,3.34,5.01
			c-1.354-0.318-1.665-1.675-3.34-1.67C262.183,142.501,262.183,141.39,262.183,140.276z"/>
		<path fill-rule="evenodd" clip-rule="evenodd" fill="#FFFFFF" d="M21.709,153.635c3.785,1.781,6.067,5.065,6.68,10.02
			c-5.14-1.244-3.209,4.585-8.35,3.34C18.756,160.7,22.076,159.012,21.709,153.635z"/>
		<path fill-rule="evenodd" clip-rule="evenodd" fill="#FFFFFF" d="M66.798,182.025c4.812,0.753,5.224,5.908,11.69,5.01
			c0.216,11.349-14.302,7.963-25.049,8.35C57.379,190.42,64.831,188.962,66.798,182.025z"/>
		<path fill-rule="evenodd" clip-rule="evenodd" fill="#FFFFFF" d="M38.409,198.724c3.533-2.033,4.85-6.283,10.02-6.68
			C52.26,196.366,45.286,200.007,38.409,198.724z"/>
		<path fill-rule="evenodd" clip-rule="evenodd" d="M45.089,217.093c-0.557,0-1.113,0-1.67,0c1.031-6.205,3.978-10.494,5.01-16.699
			c-1.404,0.037-17.285,4.092-23.379,0c-5.348,3.856,3.555,7.446,1.67,13.359c-6.504-6.523-8.836-16.846-10.02-25.049
			c-1.291-8.948-2.13-22.807,0-31.729c0.556-2.327,3.227-5.709,3.34-8.35c1.081-25.367-21.523-46.997-11.69-75.147
			C17.691,62.78,28.311,53.36,38.409,43.419C27.05,21.882,38.708-5.25,66.798,6.68c8.585,11.868,10.452,32.015,0,43.419
			c4.801,6.333,14.947,7.319,20.04,13.359c3.875,30.24,17.7,47.496,11.689,83.498c18.333,4.607,13.864,45.917-10.02,35.069
			c-9.576,5.453-7.429,22.631-15.029,30.059c-7.294-0.831,3.976-8.426,3.34-13.359c-6.056-5.029-16.521,3.537-23.379-1.67
			c-2.317,8.997,6.361,6.999,5.01,15.029c-4.405,0.508-4.307-3.486-5.01-6.68C49.185,207.831,48.956,214.281,45.089,217.093z
			 M48.429,192.044c-5.17,0.396-6.487,4.646-10.02,6.68C45.286,200.007,52.26,196.366,48.429,192.044z M36.739,25.049
			c1.013,2.883,7.922-0.129,8.35,3.34c-0.455,3.443-7.395,0.398-6.68,5.01c8.259,6.215,6.811,22.135,23.379,20.04
			c6.903-10.042,10.227-26.796,5.01-40.079C56.37,4.856,36.12,8.563,36.739,25.049z M85.167,85.167
			c4.636-14.917-6.611-27.709-21.709-28.389c-1.627,5.521-9.769-3.89-16.699,1.67c3.727-4.217-3.646-7.461-3.34-13.359
			c-14.325,14.685-34.475,26-33.399,50.098c0.273,6.121,3.328,12.36,5.01,20.04c7.863,1.774-3.375-6.264,5.01-5.01
			c-0.058,7.294-0.616,15.089,3.34,18.37c0.285-2.499-0.597-6.163,1.67-6.68c1.976,4.146,2.417,9.828,3.34,15.029
			c-2.622-0.72-1.427-5.253-6.68-3.34c1.331,18.71,12.233,27.845,23.379,36.739c2.306,3.815,1.827,10.419,8.35,10.02
			c1.499-9.293-3.65-11.937-6.68-16.7c-3.859-13.954-5.006-30.62-11.69-41.748c4.052-8.324,2.375-14.232,1.67-25.05
			c-2.499-0.285-6.163,0.597-6.68-1.67c7.344-1.562,5.91-11.903,13.36-13.359c1.164,5.616-3.433,5.475-5.01,8.35
			c2.869,9.946,4.263,21.602,0,33.399c6.51,3.509,5.949,14.092,8.35,21.709c29.759,5.268,22.697-26.287,30.059-43.418
			c-1.05-2.846-5.045-2.748-6.68-5.01c9.238-1.339,1.873-19.281,6.68-25.049c6.973,11.547,0.27,27.366,1.67,41.749
			c0.245,2.511,2.939,4.361,3.34,6.68c2.985,17.313,0.579,34.609,13.359,45.088c-2.843-13.243,2.951-31.802-3.34-35.068
			C98.776,117.495,92.16,94.579,85.167,85.167z M80.158,150.295c-2.232-7.821-2.813-26.086-5.01-28.389
			C76.877,130.87,66.558,149.976,80.158,150.295z M58.448,151.965c-3.34,0-6.68,0-10.02,0c0.442,7.352,9.908,5.679,15.029,8.35
			c1.373-4.275,10.934-8.993,5.01-15.029c-2.757,9.762-15.147-0.482-21.709,5.01C50.218,151.291,57.729,148.231,58.448,151.965z
			 M20.04,166.995c5.14,1.245,3.209-4.584,8.35-3.34c-0.612-4.954-2.895-8.238-6.68-10.02
			C22.076,159.012,18.756,160.7,20.04,166.995z M53.438,195.384c10.747-0.387,25.265,2.999,25.049-8.35
			c-6.466,0.898-6.877-4.257-11.69-5.01C64.831,188.962,57.379,190.42,53.438,195.384z"/>
		<path fill-rule="evenodd" clip-rule="evenodd" fill="#FFFFFF" d="M45.089,217.093c3.867-2.812,4.096-9.263,8.35-11.689
			c0.703,3.193,0.605,7.188,5.01,6.68c1.351-8.03-7.327-6.032-5.01-15.029c6.858,5.207,17.323-3.359,23.379,1.67
			c0.636,4.934-10.634,12.528-3.34,13.359c7.6-7.428,5.453-24.605,15.029-30.059c23.883,10.848,28.353-30.462,10.02-35.069
			c6.011-36.001-7.814-53.257-11.689-83.498c-5.093-6.041-15.238-7.027-20.04-13.359c10.452-11.404,8.585-31.551,0-43.419
			C38.708-5.25,27.05,21.882,38.409,43.419C28.311,53.36,17.691,62.78,8.35,73.478c-9.833,28.151,12.771,49.78,11.69,75.147
			c-0.113,2.641-2.784,6.022-3.34,8.35c-2.13,8.923-1.291,22.781,0,31.729c1.183,8.203,3.515,18.525,10.02,25.049
			c1.885-5.913-7.018-9.503-1.67-13.359c6.094,4.092,21.975,0.037,23.379,0c-1.032,6.205-3.979,10.494-5.01,16.699
			c-14.474,0-28.946,0-43.419,0C0,144.728,0,72.366,0,0c112.999,0,226,0,339,0c0,72.366,0,144.728,0,217.093
			C241.03,217.093,143.059,217.093,45.089,217.093z M278.882,170.335c2.844-11.521-3.648-20.832-3.34-30.06
			c0.38-11.357,8.223-21.174,10.02-31.729c1.662-9.759-3.235-17.062,1.67-26.719c9.292,5.318,19.367-1.323,23.38-6.68
			c20.153,10.879,33.591-21,16.699-31.729c-5.271,0.817-5.897-3.009-11.689-1.67c-5.576-19.018-27.044-8.146-40.079-3.34
			c8.245-31.873-31.001-41.804-40.079-18.369c-1,9.905,2.93,14.883,1.67,25.049c-16.177,15.673-64.983-8.79-70.138,21.709
			c8.724,8.533,14.672,19.841,35.069,16.7c-1.34,5.792,2.487,6.419,1.669,11.689c9.398,11.997,26.606,25.438,25.048,43.419
			c-0.95,11.015-12.674,14.896-8.348,26.719c3.421-6.598,4.853-15.186,11.689-18.369c-1.689,7.835,5.28,8.615,1.67,1.67
			c3.518,4.327,17.232,7.192,23.38,3.34c-12.185,1.052-19.942-2.325-25.05-8.35c7.139-19.046-10.396-27.295-15.03-40.079
			c7.001-1.347,11.154-5.545,15.03-10.02c6.507,2.3,20.455,11.523,26.72,3.34c-3.459-0.993-10.971,2.065-11.689-1.67
			c9.782-3.219,8.589-22.924,6.679-28.389c7.304,1.603,3.492,14.322,10.021,16.7c3.06-3.713-3.399-12.115-5.01-16.7
			c8.958-3.845,13.274-12.331,15.029-23.379c7.984,1.86,7.047-5.201,15.029-3.34c1.219,7.898-0.979,12.381-6.68,13.36
			c-0.284-2.499,0.597-6.163-1.67-6.68c-2.826,11.849,3.239,25.416,1.67,35.069c-1.195,7.361-7.534,9.84-6.68,15.029
			c0.685-2.099,2.152-3.413,5.01-3.34c5.946,16.92-5.008,20.9-6.68,36.739c-0.431,4.077,0.329,8.459,0,11.689
			c-1.005,9.851-19.433,9.155-11.689,13.359c-7.312,2.104-21.924-3.752-21.709,1.67c10.595,3.107,25.979,2.643,30.059-3.34
			c-1.776,0.073-4.242-0.786-1.67-1.67C281.326,151.79,267.763,168.292,278.882,170.335z M240.474,105.207
			C229.778,103.279,236.806,110.307,240.474,105.207L240.474,105.207z M262.183,135.266c4.649,2.676,4.616-7.212,1.67-6.68
			C263.327,130.845,261.475,131.776,262.183,135.266z M262.183,143.616c1.675-0.005,1.986,1.352,3.34,1.67
			c-0.16-2.624,0.223-5.789-3.34-5.01C262.183,141.39,262.183,142.501,262.183,143.616z"/>
		<path fill-rule="evenodd" clip-rule="evenodd" d="M268.862,151.965c-2.572,0.884-0.106,1.743,1.67,1.67
			c-4.079,5.982-19.464,6.447-30.059,3.34c-0.215-5.422,14.397,0.434,21.709-1.67c-7.743-4.204,10.685-3.509,11.689-13.359
			c0.329-3.23-0.431-7.612,0-11.689c1.672-15.839,12.626-19.819,6.68-36.739c-2.857-0.073-4.325,1.241-5.01,3.34
			c-0.854-5.189,5.484-7.668,6.68-15.029c1.569-9.653-4.496-23.22-1.67-35.069c2.267,0.517,1.386,4.181,1.67,6.68
			c5.701-0.979,7.898-5.461,6.68-13.36c-7.982-1.86-7.045,5.201-15.029,3.34c-1.755,11.048-6.071,19.534-15.029,23.379
			c1.61,4.584,8.069,12.986,5.01,16.7c-6.528-2.378-2.717-15.097-10.021-16.7c1.91,5.465,3.104,25.17-6.679,28.389
			c0.719,3.735,8.23,0.677,11.689,1.67c-6.265,8.184-20.213-1.04-26.72-3.34c-3.876,4.475-8.029,8.673-15.03,10.02
			c4.635,12.784,22.169,21.033,15.03,40.079c5.107,6.024,12.865,9.401,25.05,8.35c-6.147,3.853-19.862,0.987-23.38-3.34
			c3.61,6.945-3.359,6.165-1.67-1.67c-6.837,3.184-8.269,11.771-11.689,18.369c-4.326-11.823,7.397-15.704,8.348-26.719
			c1.559-17.981-15.649-31.422-25.048-43.419c0.818-5.271-3.009-5.897-1.669-11.689c-20.397,3.141-26.345-8.167-35.069-16.7
			c5.154-30.499,53.961-6.036,70.138-21.709c1.26-10.167-2.67-15.144-1.67-25.049c9.078-23.435,48.324-13.503,40.079,18.369
			c13.035-4.806,34.503-15.678,40.079,3.34c5.792-1.339,6.418,2.487,11.689,1.67c16.892,10.729,3.454,42.608-16.699,31.729
			c-4.013,5.357-14.088,11.998-23.38,6.68c-4.905,9.658-0.008,16.96-1.67,26.719c-1.797,10.555-9.64,20.372-10.02,31.729
			c-0.309,9.228,6.184,18.539,3.34,30.06C267.763,168.292,281.326,151.79,268.862,151.965z M272.202,26.719
			c-3.265-20.384-29.648-23.125-33.398,0c5.421,3.229,5.487,6.836,1.67,11.689c7.998,6.476,9.172,19.774,23.379,20.04
			C267.984,47.411,274.157,38.921,272.202,26.719z M290.571,43.419c9.593,5.995,21.197,9.976,21.71,25.049
			c11.938-6.671-2.979-15.068,1.67-25.049c-4.649-1.277-9.206-7.662-11.69-1.67c-2.7-2.309-2.075-7.943-8.35-6.68
			C293.193,38.249,290.313,39.265,290.571,43.419z M230.452,51.769c-3.297,6.273,8.562,5.649,3.341,8.35
			c-8.338-0.951-22.554-10.646-28.39-3.34c7.638,3.498,12.096,10.171,21.712,11.689c3.874-14.504,31.663,0.896,33.397-8.35
			c-11.789,1.213-14.487-6.664-18.371-13.359C240.879,51.059,236.812,52.561,230.452,51.769z M172.005,63.458
			c6.333,8.699,11.286,18.774,28.39,16.7c2.989-5.359,6.759-9.94,11.69-13.36C202.18,54.665,181.327,46.287,172.005,63.458z
			 M237.133,81.828c1.415-4.914-4.522-10.852-6.681-6.68C234.38,75.673,231.444,83.064,237.133,81.828z"/>
		<path fill-rule="evenodd" clip-rule="evenodd" fill="#FFFFFF" d="M91.847,130.256c6.291,3.267,0.497,21.825,3.34,35.068
			c-12.78-10.479-10.374-27.775-13.359-45.088c-0.4-2.319-3.095-4.168-3.34-6.68c-1.4-14.382,5.303-30.201-1.67-41.749
			c-4.807,5.768,2.558,23.71-6.68,25.049c1.635,2.262,5.63,2.164,6.68,5.01c-7.362,17.131-0.3,48.686-30.059,43.418
			c-2.401-7.617-1.84-18.2-8.35-21.709c4.263-11.797,2.869-23.453,0-33.399c1.577-2.875,6.174-2.733,5.01-8.35
			c-7.45,1.456-6.016,11.797-13.36,13.359c0.517,2.267,4.181,1.385,6.68,1.67c0.705,10.817,2.382,16.726-1.67,25.05
			c6.684,11.128,7.831,27.794,11.69,41.748c3.029,4.764,8.178,7.407,6.68,16.7c-6.522,0.399-6.044-6.204-8.35-10.02
			c-11.146-8.895-22.049-18.029-23.379-36.739c5.253-1.913,4.058,2.62,6.68,3.34c-0.922-5.201-1.364-10.883-3.34-15.029
			c-2.267,0.517-1.385,4.181-1.67,6.68c-3.956-3.28-3.398-11.075-3.34-18.37c-8.385-1.254,2.853,6.784-5.01,5.01
			c-1.683-7.679-4.737-13.919-5.01-20.04C8.944,71.089,29.094,59.774,43.419,45.089c-0.306,5.898,7.067,9.142,3.34,13.359
			c6.931-5.56,15.072,3.851,16.699-1.67c15.098,0.68,26.346,13.472,21.709,28.389C92.16,94.579,98.776,117.495,91.847,130.256z
			 M83.498,90.177c3.253,2.87,3.599,8.646,3.34,15.03C95.963,103.441,85.14,86.505,83.498,90.177z M53.438,68.468
			c5.213,1.466,5.483,7.877,10.02,10.02c-4.76-4.589-0.848-16.589-1.67-13.36C60.774,68.011,53.867,64.999,53.438,68.468z
			 M28.389,66.798c-0.504,4.4,2.312,5.481,6.68,5.01c0.261-1.965-0.287-4.741,1.67-5.01c1.296-0.373,3.294-0.045,3.34-1.67
			C34.657,64.159,32.31,66.267,28.389,66.798z M50.099,101.867c10.373,2.41,8.701-9.796,16.699-5.01
			c-0.187-4.266-3.061-5.845-5.01-8.35C62.702,97.771,52.529,95.947,50.099,101.867z M56.778,115.227
			c0.454-3.442,7.395-0.398,6.68-5.01C60.408,110.142,52.771,113.743,56.778,115.227z M83.498,125.247c0,2.228,0,4.453,0,6.68
			c2.473-0.31,1.53-4.035,1.67-6.68c2.108-4.571,1.645-11.714,5.01-15.03C83.049,110.324,86.278,120.79,83.498,125.247z
			 M61.788,133.596c-2.293-3.807,4.305-6.277,0-6.68C61.3,127.942,57.634,133.345,61.788,133.596z"/>
		<path fill-rule="evenodd" clip-rule="evenodd" d="M86.837,105.207c0.259-6.383-0.086-12.16-3.34-15.03
			C85.14,86.505,95.963,103.441,86.837,105.207z"/>
		<path fill-rule="evenodd" clip-rule="evenodd" d="M61.788,65.128c0.822-3.229-3.09,8.771,1.67,13.36
			c-4.537-2.143-4.807-8.554-10.02-10.02C53.867,64.999,60.774,68.011,61.788,65.128z"/>
		<path fill-rule="evenodd" clip-rule="evenodd" d="M61.788,88.507c1.949,2.505,4.823,4.083,5.01,8.35
			c-7.998-4.786-6.327,7.42-16.699,5.01C52.529,95.947,62.702,97.771,61.788,88.507z"/>
		<path fill-rule="evenodd" clip-rule="evenodd" d="M63.458,110.217c0.715,4.612-6.226,1.567-6.68,5.01
			C52.771,113.743,60.408,110.142,63.458,110.217z"/>
		<path fill-rule="evenodd" clip-rule="evenodd" d="M90.177,110.217c-3.365,3.315-2.902,10.458-5.01,15.03
			c-0.14,2.645,0.803,6.37-1.67,6.68c0-2.227,0-4.452,0-6.68C86.278,120.79,83.049,110.324,90.177,110.217z"/>
		<path fill-rule="evenodd" clip-rule="evenodd" d="M61.788,126.917c4.305,0.402-2.293,2.873,0,6.68
			C57.634,133.345,61.3,127.942,61.788,126.917z"/>
		<path fill-rule="evenodd" clip-rule="evenodd" fill="#FFFFFF" d="M46.759,150.295c6.562-5.492,18.952,4.752,21.709-5.01
			c5.924,6.036-3.637,10.754-5.01,15.029c-5.122-2.671-14.587-0.998-15.029-8.35c3.34,0,6.68,0,10.02,0
			C57.729,148.231,50.218,151.291,46.759,150.295z"/>
		<path fill-rule="evenodd" clip-rule="evenodd" fill="#FFFFFF" d="M212.085,66.798c-4.932,3.42-8.701,8.001-11.69,13.36
			c-17.104,2.074-22.057-8.001-28.39-16.7C181.327,46.287,202.18,54.665,212.085,66.798z"/>
	</g>
</g>
</svg>
