<?xml version="1.0" encoding="utf-8"?>
<!-- Generator: Adobe Illustrator 15.1.0, SVG Export Plug-In  -->
<!DOCTYPE svg PUBLIC "-//W3C//DTD SVG 1.1//EN" "http://www.w3.org/Graphics/SVG/1.1/DTD/svg11.dtd" [
	<!ENTITY ns_flows "http://ns.adobe.com/Flows/1.0/">
]>
<svg version="1.1"
	 xmlns="http://www.w3.org/2000/svg" xmlns:xlink="http://www.w3.org/1999/xlink" xmlns:a="http://ns.adobe.com/AdobeSVGViewerExtensions/3.0/"
	 x="0px" y="0px" width="294px" height="189px" viewBox="0.044 0 294 189" enable-background="new 0.044 0 294 189"
	 xml:space="preserve">
<defs>
</defs>
<g>
	<g>
		<path fill-rule="evenodd" clip-rule="evenodd" fill="#FFFFFF" d="M1.044,0c97.654,0,195.31,0,292.963,0
			c0,62.992,0,125.984,0,188.977c-97.986,0-195.976,0-293.963,0c0-61.992,0-123.985,0-185.977C-0.042,1.581-0.121,0.168,1.044,0z
			 M99.032,110.986c14.522,1.291,22.791-6.447,20.997-16.998c-1.221-7.183-13.224-11.072-13.998-17.998
			c-11.862-2.47-26.041-2.623-33.996-8.999c5.562-1.047,1.996-9.687,2-13.999c2.499-3.834,4.312-8.354,6-12.998
			c1.57,0.43,0.854,3.145,3.999,2c1.54-4.322,5.896-1.953,8.999-3c5.482-6.476,18.177-8.098,18.998-18.998
			C112.703,11.066,105.562,1.715,93.032,3C79.005,4.438,73.591,26.874,51.038,20.998C39.441,32.141,23.606,37.909,19.042,55.993
			c-1.307,5.178-0.459,10.573-2,16.998C7.725,77.338,2.777,86.056,4.043,100.987c3.364,5.275,4.78,8.116,5,14.998
			c15.255-0.071,26.62-0.1,38.995,1c3.07-4.596,9.966-5.365,15.998-6.999c-2.793,6.269-10.219,12.402-7.999,23.997
			c0.417,2.18,2.682,4.38,3,6.999c0.79,6.512,0.185,15.724-1,21.997c-0.626,3.314-2.551,4.51-2,7.999
			c0.335,2.123,3.173,4.061,3,5.999c12.666,2.334,30.193,7.923,37.995-2.999c-4.464-9.667-16.007-7.483-17.998-17.998
			c-1.428-7.544,2.866-18.309,4.999-27.996c0.92-4.178,0.888-9.51,2-13.999c2.349-9.48,6.091-16.36,0-24.997
			c2.656,0.01,5.71-0.377,6.999,1c-1.734,2.932-2.357,6.975-2,11.999C93.63,105.056,96.166,108.187,99.032,110.986z M256.012,39.995
			c2.907,3.468,8.779-1.756,10.999-5c1.666,0,3.333,0,4.999,0c12.696-7.418,9.479-23.012,0-30.996
			c-13.901-3.824-21.783,5.013-27.996,11.999c-8.3,2.032-14.494,6.17-25.997,5c-11.757,7.24-21.258,16.737-30.996,25.997
			c-0.938,9.061-1.613,18.384-3.999,25.997c-3.567,1.1-5.079,4.253-8.999,5c-2.159,6.173-5.266,11.399-4,20.997
			c3.114,4.388,6.035,6.562,4,13.999c3.981,2.2,11.868,0.343,16.998,0.999c1.497,0.192,4.699,4.778,3.999,0
			c-4.647-3.352-18.562,2.565-18.998-4.999c9.774-4.315,26.046,0.952,38.995,0c-0.493,3.16,4.962,0.371,4,4
			c-5.102,3.563-19.531-2.2-22.997,2.999c7.834-0.501,14.13,0.535,20.997,1c3.793-1.896,6.12-10.515,11.999-6.999
			c-2.362,6.304-7.711,9.62-8.999,16.998c1.017,5.166,4.284,8.257,4.999,13.998c1.386,11.116-5.064,24.011-2,34.995
			c10.059,6.04,30.466,11.286,38.995,0c-0.289-5.043-3.705-6.96-8.998-6.999c-11.876-6.541-8.399-23.796-5-36.995
			c1.6-6.209,0.908-13.247,2-17.998c0.89-3.874,3.552-6.896,3.999-10.998c0.396-3.632-0.289-6.117,0-9.999
			c-0.086-2.58-4.28-1.052-2.999-5c11.292-2.373,19.713-7.617,31.996-8.999c2.917-4.706,6.283-7.37,5.999-12.999
			c-0.809-16.006-29.706-18.367-28.996,3c-2.729-0.728-2.013,1.987-4,2c-6.333-1-13.498-1.167-16.998-5
			c0.737-10.996,2.494-15.303,6-23.997C247.461,45.361,254.004,42.864,256.012,39.995z"/>
		<path fill-rule="evenodd" clip-rule="evenodd" fill="#FFFFFF" d="M54.037,84.989c-1.927-14.135-10.223-23.579-4-37.995
			c-2.31,2.356-4.167,5.165-4,9.999c-4.237,2.762-9.433,4.566-13.998,7c4.191,2.817,7.715-3.587,12.998-3
			c0.542,6.458,4.8,9.199,5,15.998c-10.646,6.355-21.42-0.804-28.996-5.999c-1.72-9.376,4.245-17.947,5.999-26.997
			c7.824-7.174,18.287-11.71,24.997-19.998c5.993-0.908,10.383,0.082,14.998-1C80.143,19.926,85.618,5.028,97.032,5.999
			c6.21,0.529,14.791,7.486,10.999,18.998c-5.214,0.452-5.37,5.962-10.999,5.999c-1.586,5.746-11.093,3.572-13.998,7.999
			c-2.611-2.388-3.379-6.62-4-10.999c2.878-2.122,6.984-3.014,5.999-8.999c3.61-2.015,4.84,0.1,7.999,1c0.638-3.637-2.07-3.929-5-4
			c-6.055,0.944-5.671,8.327-9.999,10.999c-1.025-0.779-1.023-2.128-3-2c-1.748,0.113-0.061,2.363-1,3c-0.375,0.254-2.749-2.469-3-2
			c-1.327,2.484,3.072,7.281,5,11.999c0.094,8.427-4.236,12.429-7.999,16.998c0.15,1.849,3.386,0.614,4,2
			c1.291,5.958-2.553,6.78-3,10.999c-1.539-1.127-2.46-2.873-4-4c-1.03,3.111,1.461,2.935-2,5.999
			c8.415-0.389,19.868,5.941,29.996,6.999c5.518,0.577,10.679,1.302,13.999,5C94.129,89.331,69.953,88.867,54.037,84.989z
			 M59.037,52.993c-4.122-5.414-0.235-15.2-4-17.998C53.347,40.289,53,52.166,59.037,52.993z"/>
		<path fill-rule="evenodd" clip-rule="evenodd" fill="#FFFFFF" d="M259.012,15.998c0.138,1.862,0.657,3.342,2,4
			c3.278-2.073-1.829-4.076-3-5c-8.842,0.158-8.241,9.756-14.998,11.999c0,1.667,0,3.333,0,5c-1.774,2.667-0.729-5.858-1-7.999
			c-1.837,2.7-0.692,2.867-4.999,2c6.023,8.012,6.337,23.043-3,27.997c3.877-0.057,4.213,9.545,0,11.999
			c-3.406,0.74-1.648-3.685-3.999-4c-0.601,3.066-3.37,3.963-4,6.999c8.92-3.531,19.975,6.164,34.996,3
			c1.627,2.705,2.715,5.95,5.999,6.999c-10.604,6.603-28.866,10.176-45.994,6.999c-3.363-7.079-8.931-13.448-8.999-21.997
			c-0.064-8.115,6.483-14.422,5.999-22.997c-5.704,6.294-3.633,20.364-12.998,22.997c7.109-1.461,4.186,7.871,8.999,10.999
			c-0.745,2.255-5.608,0.391-7.999,1c-0.169,2.168,3.546,0.453,4.999,1c-5.259,4.413-20.195-2.923-23.997-8.999
			c-0.467-2.134,1.429-1.905,3-2c-1.749-4.25-0.745-11.254-1-16.998c1.844-3.802,7.712-7.249,11.998-10.999
			c1.902-1.664,1.844-3.319,5-4c2.599-0.56,1.546-2.917,2.999-4c0.878-0.654,4.243-0.705,5.999-2c1.54-1.135,2.137-3.675,3-4
			c4.437-1.666,9.414-0.069,13.998-1c2.51-0.51,5.731-3.059,8.999-4c1.643-0.473,4.108,0.5,4.999,0
			c7.965-4.471,10.287-15.959,21.998-12.999c4.955,1.253,6.636,8.761,9.998,9.999c2.548,16.213-12.799,14.531-17.997,22.997
			c-5.201-4.979-7.675,3.626-13.999,0c0.332-3.998-1.782-5.55-0.999-9.999C249.658,24.642,251.961,17.947,259.012,15.998z
			 M225.016,48.994c-4.504-3.229,0.568-16.501-2.999-17.998C223.083,36.929,219.394,47.617,225.016,48.994z M197.02,65.992
			c2.818-0.515,8.45,1.785,6.999-3C202.35,64.657,196.718,62.357,197.02,65.992z"/>
		<path fill-rule="evenodd" clip-rule="evenodd" fill="#FFFFFF" d="M76.035,29.996c1.434,1.233,1.894,3.438,2,6
			C75.479,35.884,76.05,32.647,76.035,29.996z"/>
		<path fill-rule="evenodd" clip-rule="evenodd" d="M222.017,30.996c3.567,1.497-1.505,14.769,2.999,17.998
			C219.394,47.617,223.083,36.929,222.017,30.996z"/>
		<path fill-rule="evenodd" clip-rule="evenodd" d="M55.037,34.996c3.764,2.797-0.122,12.583,4,17.998
			C53,52.166,53.347,40.289,55.037,34.996z"/>
		<path fill-rule="evenodd" clip-rule="evenodd" fill="#FFFFFF" d="M273.01,78.99c0.04-5.959,9.238-2.76,9.999-7.999
			c1.336-5.335-3.336-4.664-2-9.999c-4.388-1.162-7.423-3.099-10.999-2c-4.916,1.512-3.496,8.493-7.999,9.999
			c-0.179-11.768,9.931-16.027,19.998-11.999C291.361,64.667,283.932,81.255,273.01,78.99z"/>
		<path fill-rule="evenodd" clip-rule="evenodd" fill="#FFFFFF" d="M279.009,61.992c-1.087,4.086,1.069,4.931,3,6
			c0.49,4.764-7.78,7.083-8.999,4c-2.979,0.02-1.282,4.717-3,5.999c-3.314-0.352-4.337-2.995-5.999-5
			C266.949,66.161,268.302,58.631,279.009,61.992z M270.01,65.992c0.033,3.634,2.94,4.393,7,4c0.622-3.872,0.827-4.117-1-6.999
			C273.03,63.012,269.917,62.899,270.01,65.992z"/>
		<path fill-rule="evenodd" clip-rule="evenodd" d="M204.019,62.992c1.451,4.784-4.181,2.485-6.999,3
			C196.718,62.357,202.35,64.657,204.019,62.992z"/>
		<path fill-rule="evenodd" clip-rule="evenodd" d="M276.01,62.992c1.827,2.882,1.622,3.127,1,6.999c-4.06,0.393-6.967-0.366-7-4
			C269.917,62.899,273.03,63.012,276.01,62.992z M275.01,67.992c0-0.667,0-1.333,0-2C273.165,62.67,270.135,68.993,275.01,67.992z"
			/>
		<path fill-rule="evenodd" clip-rule="evenodd" fill="#FFFFFF" d="M275.01,65.992c0,0.667,0,1.333,0,2
			C270.135,68.993,273.165,62.67,275.01,65.992z"/>
		<path fill-rule="evenodd" clip-rule="evenodd" fill="#FFFFFF" d="M35.04,79.99c-6.281,2.261-14.993-1.657-14.998-8.999
			C23.69,75.341,28.504,78.526,35.04,79.99z"/>
		<path fill-rule="evenodd" clip-rule="evenodd" fill="#FFFFFF" d="M186.021,70.991c3.342,3.657,8.685,5.313,12.999,7.999
			C194.936,82.864,186.675,76.854,186.021,70.991z"/>
		<path fill-rule="evenodd" clip-rule="evenodd" fill="#FFFFFF" d="M28.041,80.99c-1.783,3.217-6.579,3.419-6.999,7.999
			c5.232-3.766,12.174-5.824,18.998-7.999c-2.156,7.479-5.938,17.641-3,26.997c-8.333,0-16.665,0-24.997,0
			c-8.396-9.408-4.942-29.9,6.999-32.996C20.911,78.121,23.707,80.324,28.041,80.99z"/>
		<path fill-rule="evenodd" clip-rule="evenodd" fill="#FFFFFF" d="M192.02,79.99c-0.326,4.672-5.672,4.326-5.999,8.999
			c4.967-0.713,9.874-10.113,20.998-7.999c-2.991,7.184-7.868,14.93-5,24.997c-8.895,0.562-14.903-1.761-23.997-0.999
			c-1.338-1.995-2.331-4.335-4.999-5c-0.857-12.856,2.061-21.937,11.998-23.997C188.413,76.265,188.448,79.896,192.02,79.99z"/>
		<path fill-rule="evenodd" clip-rule="evenodd" fill="#FFFFFF" d="M51.038,79.99c0,1.666,0,3.333,0,4.999
			c8.596,3.979,20.561,9.854,31.996,5c9.292,20.243-8.013,42.376-6.999,66.992c1.133,4.865,6.381,5.617,6.999,10.998
			c5.904,0.095,8.843,3.155,10.999,7c-11.343,5.933-22.902,0.499-34.996-1c-0.312-5.312-0.422-10.421,3-11.999
			c-2.754-8.052,3.625-23.92-3-29.996c-0.199-13.863,8.047-19.283,12.999-27.996c-3.096-1.393-8.693,3.277-11.999,4.999
			c-7.412,0.08-14.892,0.227-20.998-1C38.81,95.846,36.868,80.195,51.038,79.99z M72.035,131.983c-1.849,2.189-7.111,6.17-5,8.999
			c0.239-1.086,1.646-2.4,2-1c0.564,4.563-1.772,6.228-1,10.999C72.516,147.796,70.493,138.107,72.035,131.983
			c4.023-0.977,3.507-6.491,4-10.998C72.012,121.962,73.379,128.328,72.035,131.983z"/>
		<path fill-rule="evenodd" clip-rule="evenodd" fill="#FFFFFF" d="M214.018,79.99c3.007,1.326,3.849,4.816,4.999,7.999
			c11.316,4.232,28.541-3.268,32.996,7c-3.505,21.492-9.086,40.908-10.999,63.992c4.644,6.354,8.967,13.03,17.998,14.998
			c-7.105,10.748-25.96,4.267-33.996-1c-0.407-10.25,4.25-21.991,3-33.996c-0.845-8.106-5.482-11.685-1-18.997
			c3.981-6.496,6.091-12.563,12.998-13.999c-10.952-3.562-24.79,6.871-35.995,0C204.004,93.974,203.923,81.894,214.018,79.99z
			 M236.015,131.983c-1.648,2.352-4.475,3.524-5,6.999c4.142-0.142,1.042,6.958,2,9.999c3.88-0.25,1.932-10.09,1-11.999
			c2.845-4.487,6.555-8.109,6.999-14.998C237.434,123.404,238.255,129.225,236.015,131.983z"/>
		<path fill-rule="evenodd" clip-rule="evenodd" fill="#FFFFFF" d="M113.03,96.988c-2.956,2.661-2.937-3.713-7.999-2
			c-1.313,0.354-1.573,1.76-3,2c1.167,1.833,2.614,3.385,4,4.999c2.688,0.688,1.933-2.067,3-3c2.715,0.91-1.019,3.504-1,5
			c-2.968-1.031-7.245-0.754-8.999-3c1.779-5.952-0.573-7.202-1-12.999c1.838-2.827,6.03-3.302,10.999-3
			C109.981,89.527,115.504,92.011,113.03,96.988z"/>
		<path fill-rule="evenodd" clip-rule="evenodd" fill="#FFFFFF" d="M113.03,87.989c1.23,0.437,2.054,1.28,2,3
			C113.799,90.552,112.976,89.709,113.03,87.989z"/>
		<path fill-rule="evenodd" clip-rule="evenodd" fill="#FFFFFF" d="M96.032,91.988c-0.812,7.344,2.659,13.189,10.999,13.998
			c4.4-3.265,7.889-7.441,8.999-13.998c4.917,8.859-2.72,19.941-15.998,16.998c1.061-3.035-3.523-1.906-4.999-3.999
			C92.518,101.422,91.767,93.84,96.032,91.988z"/>
		<path fill-rule="evenodd" clip-rule="evenodd" fill="#FFFFFF" d="M106.031,96.988c0.667,0,1.333,0,2,0c0,0.666,0,1.333,0,1.999
			c-0.667,0-1.333,0-2,0C106.031,98.321,106.031,97.654,106.031,96.988z"/>
		<path fill-rule="evenodd" clip-rule="evenodd" fill="#FFFFFF" d="M11.042,108.986c11.078,0.896,33.375-2.817,38.995,4.999
			c-12.668-0.663-27.992,1.329-38.995-0.999C11.042,111.652,11.042,110.319,11.042,108.986z"/>
		<path fill-rule="evenodd" clip-rule="evenodd" d="M91.033,101.987c-0.357-5.023,0.265-9.067,2-11.999
			c-1.289-1.377-4.343-0.99-6.999-1c6.091,8.636,2.349,15.516,0,24.997c-1.112,4.489-1.08,9.821-2,13.999
			c-2.133,9.688-6.427,20.452-4.999,27.996c1.99,10.515,13.534,8.331,17.998,17.998c-7.802,10.922-25.33,5.333-37.995,2.999
			c0.174-1.938-2.664-3.876-3-5.999c-0.552-3.489,1.374-4.685,2-7.999c1.185-6.273,1.79-15.485,1-21.997
			c-0.318-2.619-2.583-4.819-3-6.999c-2.22-11.595,5.206-17.729,7.999-23.997c-6.032,1.634-12.928,2.403-15.998,6.999
			c-12.375-1.1-23.74-1.071-38.995-1c-0.22-6.882-1.635-9.723-5-14.998C2.777,86.056,7.725,77.338,17.042,72.991
			c1.541-6.424,0.693-11.82,2-16.998c4.565-18.084,20.4-23.853,31.996-34.996C73.591,26.874,79.005,4.438,93.032,3
			c12.53-1.284,19.67,8.067,18.998,16.998c-0.821,10.899-13.515,12.521-18.998,18.998c-3.103,1.046-7.459-1.323-8.999,3
			c-3.145,1.146-2.429-1.57-3.999-2c-1.688,4.645-3.501,9.164-6,12.998c-0.003,4.312,3.562,12.951-2,13.999
			c7.955,6.376,22.133,6.529,33.996,8.999c0.774,6.926,12.777,10.814,13.998,17.998c1.793,10.551-6.475,18.289-20.997,16.998
			C96.166,108.187,93.63,105.056,91.033,101.987z M95.032,104.987c1.476,2.093,6.06,0.964,4.999,3.999
			c13.278,2.943,20.915-8.139,15.998-16.998c-1.11,6.557-4.599,10.733-8.999,13.998c-8.34-0.809-11.811-6.654-10.999-13.998
			C91.767,93.84,92.518,101.422,95.032,104.987z M20.042,70.991c0.005,7.342,8.717,11.26,14.998,8.999
			C28.504,78.526,23.69,75.341,20.042,70.991z M19.042,74.991c-11.941,3.095-15.395,23.587-6.999,32.996c8.332,0,16.665,0,24.997,0
			c-2.939-9.355,0.844-19.517,3-26.997c-6.824,2.175-13.765,4.233-18.998,7.999c0.42-4.58,5.216-4.782,6.999-7.999
			C23.707,80.324,20.911,78.121,19.042,74.991z M107.031,81.99c-3.319-3.698-8.481-4.423-13.999-5
			c-10.128-1.058-21.582-7.388-29.996-6.999c3.461-3.064,0.969-2.888,2-5.999c1.54,1.127,2.46,2.872,4,4
			c0.447-4.219,4.291-5.042,3-10.999c-0.614-1.386-3.849-0.15-4-2c3.763-4.569,8.093-8.571,7.999-16.998
			c-1.928-4.718-6.327-9.515-5-11.999c0.25-0.469,2.625,2.254,3,2c0.939-0.636-0.748-2.886,1-3c1.977-0.129,1.974,1.221,3,2
			c4.327-2.672,3.944-10.054,9.999-10.999c2.929,0.071,5.637,0.362,5,4c-3.159-0.9-4.389-3.015-7.999-1
			c0.985,5.985-3.121,6.877-5.999,8.999c0.62,4.379,1.388,8.61,4,10.999c2.905-4.427,12.412-2.253,13.998-7.999
			c5.629-0.037,5.785-5.547,10.999-5.999c3.792-11.512-4.789-18.469-10.999-18.998C85.618,5.028,80.143,19.926,67.036,22.997
			c-4.615,1.082-9.005,0.092-14.998,1c-6.71,8.288-17.173,12.824-24.997,19.998c-1.754,9.049-7.719,17.62-5.999,26.997
			c7.576,5.195,18.35,12.354,28.996,5.999c-0.2-6.799-4.458-9.54-5-15.998c-5.283-0.587-8.807,5.817-12.998,3
			c4.565-2.434,9.761-4.238,13.998-7c-0.168-4.834,1.69-7.642,4-9.999c-6.224,14.416,2.072,23.86,4,37.995
			C69.953,88.867,94.129,89.331,107.031,81.99z M109.03,84.989c-4.969-0.303-9.16,0.172-10.999,3c0.427,5.796,2.779,7.046,1,12.999
			c1.753,2.246,6.03,1.969,8.999,3c-0.019-1.496,3.715-4.09,1-5c-1.067,0.933-0.311,3.688-3,3c-1.386-1.614-2.833-3.166-4-4.999
			c1.427-0.24,1.687-1.646,3-2c5.062-1.713,5.043,4.661,7.999,2C115.504,92.011,109.981,89.527,109.03,84.989z M115.03,90.989
			c0.054-1.72-0.77-2.563-2-3C112.976,89.709,113.799,90.552,115.03,90.989z M78.034,35.996c-0.105-2.561-0.566-4.767-2-6
			C76.05,32.647,75.479,35.884,78.034,35.996z M39.039,107.986c6.106,1.227,13.585,1.08,20.998,1
			c3.305-1.722,8.903-6.392,11.999-4.999c-4.952,8.713-13.197,14.133-12.999,27.996c6.624,6.076,0.245,21.944,3,29.996
			c-3.421,1.578-3.311,6.688-3,11.999c12.093,1.499,23.653,6.933,34.996,1c-2.155-3.845-5.094-6.905-10.999-7
			c-0.618-5.381-5.866-6.133-6.999-10.998c-1.014-24.615,16.292-46.749,6.999-66.992c-11.435,4.855-23.4-1.021-31.996-5
			c0-1.667,0-3.333,0-4.999C36.868,80.195,38.81,95.846,39.039,107.986z M106.031,98.987c0.667,0,1.333,0,2,0
			c0-0.666,0-1.333,0-1.999c-0.667,0-1.333,0-2,0C106.031,97.654,106.031,98.321,106.031,98.987z M11.042,112.986
			c11.003,2.328,26.327,0.336,38.995,0.999c-5.62-7.816-27.917-4.104-38.995-4.999C11.042,110.319,11.042,111.652,11.042,112.986z"
			/>
		<path fill-rule="evenodd" clip-rule="evenodd" d="M245.014,41.995c-3.506,8.694-5.263,13.001-6,23.997
			c3.5,3.833,10.665,4,16.998,5c1.987-0.013,1.271-2.728,4-2c-0.71-21.367,28.188-19.005,28.996-3
			c0.284,5.628-3.082,8.292-5.999,12.999c-12.283,1.382-20.704,6.626-31.996,8.999c-1.281,3.948,2.913,2.419,2.999,5
			c-0.289,3.882,0.396,6.367,0,9.999c-0.447,4.102-3.109,7.124-3.999,10.998c-1.092,4.751-0.4,11.789-2,17.998
			c-3.399,13.199-6.876,30.454,5,36.995c5.293,0.039,8.709,1.956,8.998,6.999c-8.529,11.286-28.937,6.04-38.995,0
			c-3.064-10.984,3.386-23.879,2-34.995c-0.715-5.741-3.982-8.832-4.999-13.998c1.288-7.378,6.637-10.694,8.999-16.998
			c-5.879-3.516-8.206,5.103-11.999,6.999c-6.867-0.465-13.163-1.501-20.997-1c3.466-5.199,17.896,0.564,22.997-2.999
			c0.962-3.629-4.493-0.84-4-4c-12.949,0.952-29.221-4.315-38.995,0c0.436,7.564,14.351,1.647,18.998,4.999
			c0.7,4.778-2.502,0.192-3.999,0c-5.13-0.656-13.017,1.201-16.998-0.999c2.035-7.438-0.886-9.611-4-13.999
			c-1.266-9.598,1.841-14.824,4-20.997c3.92-0.746,5.432-3.9,8.999-5c2.386-7.612,3.062-16.936,3.999-25.997
			c9.738-9.259,19.239-18.756,30.996-25.997c11.503,1.171,17.697-2.967,25.997-5C250.227,9.013,258.108,0.176,272.01,4
			c9.479,7.984,12.696,23.578,0,30.996c-1.666,0-3.333,0-4.999,0c-2.22,3.244-8.092,8.467-10.999,5
			C254.004,42.864,247.461,45.361,245.014,41.995z M245.014,28.997c-0.783,4.449,1.331,6,0.999,9.999
			c6.324,3.626,8.798-4.979,13.999,0c5.198-8.466,20.545-6.784,17.997-22.997c-3.362-1.238-5.043-8.746-9.998-9.999
			c-11.711-2.96-14.033,8.527-21.998,12.999c-0.891,0.5-3.356-0.473-4.999,0c-3.268,0.941-6.489,3.49-8.999,4
			c-4.584,0.931-9.562-0.666-13.998,1c-0.863,0.324-1.46,2.865-3,4c-1.756,1.294-5.121,1.346-5.999,2
			c-1.453,1.083-0.4,3.439-2.999,4c-3.156,0.68-3.098,2.335-5,4c-4.286,3.75-10.154,7.196-11.998,10.999
			c0.255,5.744-0.749,12.748,1,16.998c-1.571,0.095-3.467-0.134-3,2c3.802,6.076,18.738,13.412,23.997,8.999
			c-1.453-0.547-5.168,1.168-4.999-1c2.391-0.609,7.254,1.255,7.999-1c-4.813-3.128-1.89-12.46-8.999-10.999
			c9.365-2.633,7.294-16.703,12.998-22.997c0.484,8.575-6.063,14.882-5.999,22.997c0.068,8.549,5.636,14.918,8.999,21.997
			c17.128,3.177,35.391-0.396,45.994-6.999c-3.284-1.049-4.372-4.294-5.999-6.999c-15.021,3.164-26.076-6.531-34.996-3
			c0.63-3.036,3.399-3.933,4-6.999c2.351,0.315,0.593,4.739,3.999,4c4.213-2.453,3.877-12.055,0-11.999
			c9.337-4.954,9.023-19.985,3-27.997c4.307,0.867,3.162,0.7,4.999-2c0.271,2.141-0.774,10.667,1,7.999c0-1.667,0-3.333,0-5
			c6.757-2.242,6.156-11.841,14.998-11.999c1.171,0.923,6.278,2.926,3,5c-1.343-0.658-1.862-2.137-2-4
			C251.961,17.947,249.658,24.642,245.014,28.997z M282.009,56.993c-10.067-4.029-20.177,0.23-19.998,11.999
			c4.503-1.506,3.083-8.487,7.999-9.999c3.576-1.1,6.611,0.838,10.999,2c-1.336,5.335,3.336,4.664,2,9.999
			c-0.761,5.239-9.959,2.04-9.999,7.999C283.932,81.255,291.361,64.667,282.009,56.993z M264.011,72.991
			c1.662,2.005,2.685,4.648,5.999,5c1.718-1.282,0.021-5.979,3-5.999c1.219,3.083,9.489,0.765,8.999-4c-1.931-1.069-4.087-1.913-3-6
			C268.302,58.631,266.949,66.161,264.011,72.991z M185.021,75.991c-9.938,2.06-12.855,11.141-11.998,23.997
			c2.668,0.665,3.661,3.005,4.999,5c9.094-0.762,15.103,1.562,23.997,0.999c-2.868-10.066,2.009-17.813,5-24.997
			c-11.124-2.114-16.031,7.286-20.998,7.999c0.327-4.672,5.673-4.326,5.999-8.999C188.448,79.896,188.413,76.265,185.021,75.991z
			 M199.02,78.99c-4.314-2.686-9.657-4.342-12.999-7.999C186.675,76.854,194.936,82.864,199.02,78.99z M204.019,105.986
			c11.205,6.871,25.043-3.562,35.995,0c-6.907,1.436-9.017,7.503-12.998,13.999c-4.482,7.312,0.155,10.891,1,18.997
			c1.25,12.005-3.407,23.746-3,33.996c8.036,5.267,26.891,11.748,33.996,1c-9.031-1.968-13.354-8.644-17.998-14.998
			c1.913-23.084,7.494-42.5,10.999-63.992c-4.455-10.268-21.68-2.768-32.996-7c-1.15-3.183-1.992-6.673-4.999-7.999
			C203.923,81.894,204.004,93.974,204.019,105.986z"/>
		<path fill-rule="evenodd" clip-rule="evenodd" d="M76.035,120.985c-0.492,4.507,0.023,10.021-4,10.998
			c-1.542,6.124,0.48,15.812-4,18.998c-0.772-4.771,1.563-6.436,1-10.999c-0.353-1.4-1.76-0.086-2,1
			c-2.111-2.829,3.151-6.81,5-8.999C73.379,128.328,72.012,121.962,76.035,120.985z"/>
		<path fill-rule="evenodd" clip-rule="evenodd" d="M241.014,121.984c-0.444,6.889-4.154,10.511-6.999,14.998
			c0.932,1.909,2.88,11.749-1,11.999c-0.958-3.041,2.142-10.141-2-9.999c0.525-3.475,3.352-4.647,5-6.999
			C238.255,129.225,237.434,123.404,241.014,121.984z"/>
	</g>
</g>
</svg>
