<?xml version="1.0" encoding="utf-8"?>
<!-- Generator: Adobe Illustrator 15.1.0, SVG Export Plug-In  -->
<!DOCTYPE svg PUBLIC "-//W3C//DTD SVG 1.1//EN" "http://www.w3.org/Graphics/SVG/1.1/DTD/svg11.dtd" [
	<!ENTITY ns_flows "http://ns.adobe.com/Flows/1.0/">
]>
<svg version="1.1"
	 xmlns="http://www.w3.org/2000/svg" xmlns:xlink="http://www.w3.org/1999/xlink" xmlns:a="http://ns.adobe.com/AdobeSVGViewerExtensions/3.0/"
	 x="0px" y="0px" width="406px" height="136px" viewBox="12.044 0 406 136" enable-background="new 12.044 0 406 136"
	 xml:space="preserve">
<defs>
</defs>
<g>
	<g>
		<path fill-rule="evenodd" clip-rule="evenodd" d="M34.04,20.998C36.235,17.943,40.444,22.151,34.04,20.998L34.04,20.998z"/>
		<path fill-rule="evenodd" clip-rule="evenodd" d="M160.024,25.997c0.776,0.89,1.074,2.258,1,4c-1.764,0.287-3.097-4.708-4-2
			C153.812,26.868,157.987,25.143,160.024,25.997z"/>
		<path fill-rule="evenodd" clip-rule="evenodd" d="M46.038,27.997c0.651-2.819,1.161,2.303,1,3
			C46.575,33.004,45.16,31.803,46.038,27.997z"/>
		<path fill-rule="evenodd" clip-rule="evenodd" d="M167.022,30.996c2.963-2.896,3.93,4.688,5,6.999
			C168.567,37.45,170.269,31.75,167.022,30.996z"/>
		<path fill-rule="evenodd" clip-rule="evenodd" d="M188.021,31.996c0,1,0,2,0,3c-2,0-4,0-6,0
			C183.755,33.729,184.642,31.616,188.021,31.996z"/>
		<path fill-rule="evenodd" clip-rule="evenodd" d="M66.036,33.996C63.84,37.05,59.632,32.842,66.036,33.996L66.036,33.996z"/>
		<path fill-rule="evenodd" clip-rule="evenodd" fill="#FFFFFF" d="M389.995,54.993c-6.173,3.573-7.846,9.372-14.998,9.999
			c-6.016,0.527-14.704-0.049-23.997,1c-1.045-7.711,8.264-5.068,11.999-8c-2.749-2.397-9.896,2.558-10.999-2.999
			c-1.085,13.841-16.95,27.146-4.999,38.995c-5.573-2.49-2.293,1.258-4,3.999c-5.056,0.724-7.564-1.101-9.999-2.999
			c1.994-14.671,4.71-28.619,6.999-42.994c9.904-8.095,19.284-16.712,37.996-15.999c1.663,5.002,10.527,2.803,10.998,8.999
			c2.227-1.828,4.173,1.021,6.999,1c5.532-0.043,11.566-4.158,15.998,0c1.604,4.838,1.02,10.178-1,13.998
			c-5.718,1.074-12.133,0.794-15.998,0C391.94,59.713,392.799,55.521,389.995,54.993z M396.994,49.994c0.145-1.182,1.78-2.268,0-3
			C396.851,48.176,395.214,49.261,396.994,49.994z M343.001,53.993c0.667,0,1.333,0,2,0c0.055-1.278,1.281-1.385,1-2.999
			c-0.667,0-1.333,0-2,0C343.946,52.271,342.72,52.379,343.001,53.993z M363.998,57.992c3.282-0.384,4.409-2.924,6.999-3.999
			c0.24,1.446,8.229,2.324,7-1c-4.447,0.447-7.289-0.71-9.999-1.999C369.205,55.867,364.023,54.352,363.998,57.992z M342.001,56.992
			c0.667,0,1.333,0,2,0c0-0.666,0-1.332,0-1.999c-0.667,0-1.333,0-2,0C342.001,55.66,342.001,56.326,342.001,56.992z"/>
		<path fill-rule="evenodd" clip-rule="evenodd" d="M206.019,39.995c0.125-2.208,4.241-0.425,5.999-1
			C211.893,41.203,207.776,39.42,206.019,39.995z"/>
		<path fill-rule="evenodd" clip-rule="evenodd" d="M176.022,40.995c1.15-3.235,1.131,2.685,1,3.999
			C175.87,48.229,175.89,42.31,176.022,40.995z"/>
		<path fill-rule="evenodd" clip-rule="evenodd" d="M217.017,43.994c-0.318-1.765,5.602-1.784,4,1
			C219.223,45.121,218.907,43.771,217.017,43.994z"/>
		<path fill-rule="evenodd" clip-rule="evenodd" d="M75.035,44.994c3.023,1.514-0.829,4.389,0,7
			C71.659,51.582,74.474,47.238,75.035,44.994z"/>
		<path fill-rule="evenodd" clip-rule="evenodd" d="M396.994,46.994c1.78,0.732,0.145,1.818,0,3
			C395.214,49.261,396.851,48.176,396.994,46.994z"/>
		<path fill-rule="evenodd" clip-rule="evenodd" fill="#FFFFFF" d="M331.003,88.989c-2.958-1.752,0.577-5.327,0-7.999
			c-3.378-1.955-8.229-2.437-12.999-3c6.084-10.914,3.034-30.963,22.997-27.996C333.262,58.585,336.09,77.745,331.003,88.989z"/>
		<path fill-rule="evenodd" clip-rule="evenodd" d="M344.001,50.994c0.667,0,1.333,0,2,0c0.281,1.614-0.945,1.721-1,2.999
			c-0.667,0-1.333,0-2,0C342.72,52.379,343.946,52.271,344.001,50.994z"/>
		<path fill-rule="evenodd" clip-rule="evenodd" d="M367.998,50.994c2.71,1.289,5.552,2.446,9.999,1.999c1.229,3.324-6.76,2.446-7,1
			c-2.59,1.075-3.717,3.615-6.999,3.999C364.023,54.352,369.205,55.867,367.998,50.994z"/>
		<path fill-rule="evenodd" clip-rule="evenodd" fill="#FFFFFF" d="M206.019,52.993c2.752,3.471-0.068,9.894,0,13.999
			c-2.266,0.178-11.038-4.918-13.998,1c-3.059,0.725-2.941-1.726-6-1c2.885-1.781,5.841-3.492,8.999-5
			c-3.013-3.59-4.735,2.529-8.999,1c2.536-1.797,4.723-3.943,4-8.999C195.37,49.854,200.794,55.443,206.019,52.993z"/>
		<path fill-rule="evenodd" clip-rule="evenodd" d="M72.035,52.993c0.667,0,1.333,0,2,0c0,0.667,0,1.333,0,2c-0.667,0-1.333,0-2,0
			C72.035,54.326,72.035,53.66,72.035,52.993z"/>
		<path fill-rule="evenodd" clip-rule="evenodd" d="M342.001,54.993c0.667,0,1.333,0,2,0c0,0.667,0,1.333,0,1.999
			c-0.667,0-1.333,0-2,0C342.001,56.326,342.001,55.66,342.001,54.993z"/>
		<path fill-rule="evenodd" clip-rule="evenodd" fill="#FFFFFF" d="M50.038,58.992c2.88,0.119,6.545-0.546,7.999,1
			c-2.676,4.99-5.45,9.881-6.999,15.998C47.183,71.514,48.154,64.787,50.038,58.992z"/>
		<path fill-rule="evenodd" clip-rule="evenodd" fill="#FFFFFF" d="M61.036,59.992c0.065,7.369,7.381,11.404,10.999,17.998
			c-1.625,8.156-0.199,16.046,1,23.997c-7.822-3.212-14.21,2.015-14.998,8.999c-2.586-6.079-1.562-15.769-10.999-14.998
			c-0.125-4.125,1.738-6.262,1-10.999c2.747,1.253,2.591,5.408,3,8.999c3.993-2.678-3.482-21.878,6.999-20.997
			C51.199,70.203,60.181,64.314,61.036,59.992z M69.035,78.99c-3.291-1.075-6.292-7.661-9.999-4.999
			C63.036,74.358,66.982,79.998,69.035,78.99z"/>
		<path fill-rule="evenodd" clip-rule="evenodd" fill="#FFFFFF" d="M173.022,60.992c-0.719,2.391-5.809,6.639-6,1
			C170.079,62.715,170.667,60.97,173.022,60.992z"/>
		<path fill-rule="evenodd" clip-rule="evenodd" d="M405.993,105.986c-1.539,3.664-7.092-2.72-10.999-2.999
			c-3.888-11.443-8.131-22.532-7.999-37.995c-0.423-1.924,0.686-3.609,1-2c0.8,16.083,5.554,25.605,7.999,37.995
			C398.867,103.113,404.329,102.651,405.993,105.986z"/>
		<path fill-rule="evenodd" clip-rule="evenodd" fill="#FFFFFF" d="M222.017,62.992c2.379,2.287,3.247,6.084,2.999,10.999
			c-3.504-0.829-4.68-3.986-5.999-6.999C221.07,66.713,221.012,64.32,222.017,62.992z"/>
		<path fill-rule="evenodd" clip-rule="evenodd" d="M38.039,71.991c2.348,0.318,2.238,3.095,4,3.999
			C40.367,78.867,37.991,74.134,38.039,71.991z"/>
		<path fill-rule="evenodd" clip-rule="evenodd" d="M383.996,74.99c0.666,0,1.333,0,2,0c0,0.667,0,1.334,0,2c-0.667,0-1.334,0-2,0
			C383.996,76.324,383.996,75.657,383.996,74.99z"/>
		<path fill-rule="evenodd" clip-rule="evenodd" fill="#FFFFFF" d="M202.019,77.99c-2.443,6.988,1.549,1.522,2,6.999
			c-2.285-1.381-6.238-1.094-6-4.999C200.006,79.977,199.29,77.262,202.019,77.99z"/>
		<path fill-rule="evenodd" clip-rule="evenodd" fill="#FFFFFF" d="M208.019,94.988c2.475-2.663,6.887,1.791,8.998-2
			c2.934,0.85-1.3,2.517,0,4.999C213.815,97.189,211.972,95.034,208.019,94.988z"/>
		<path fill-rule="evenodd" clip-rule="evenodd" fill="#FFFFFF" d="M330.003,93.988c3.682-0.921,1.817,5.273,1,5.999
			C328.794,99.863,330.578,95.746,330.003,93.988z"/>
		<path fill-rule="evenodd" clip-rule="evenodd" fill="#FFFFFF" d="M37.04,105.986c2.208,0.125,0.424,4.242,1,6
			c-3.912,1.58-2.07-2.596-4-3C34.15,107.097,37.345,108.292,37.04,105.986z"/>
		<path fill-rule="evenodd" clip-rule="evenodd" fill="#FFFFFF" d="M1.044,0c140.317,0,280.63,0,420.947,0
			c0,45.328,0,90.655,0,135.984c-140.647,0-281.301,0-421.947,0c0-44.329,0-88.657,0-132.985C-0.042,1.581-0.121,0.168,1.044,0z
			 M88.033,53.993c2.6-2.427,7.817-7.478,5-11.999c-0.156,1.178,0.172,2.839-1,3c0.305-8.739,5.829-1.125,7,0
			c6.874,6.605,4.25,11.199,2,17.998c-3.323,10.038-5.478,20.52-10.999,28.996c4.98-1.25,6.13-7.89,7.999-12.998
			c0.424-1.158,2.595-2.815,3-4c1.44-4.213,0.953-8.934,2-11.998c0.827-2.422,2.831-2.674,3-5
			c1.138-15.671-10.466-20.523-21.998-23.997c-0.454-4.212-4.729-4.603-5.999-7.999c-9.962-3.037-21.891-4.106-33.996-4.999
			c-4.352-9.315-20.534-16.764-26.997-7C9.46,25.452,24.075,34.287,28.041,40.995c-1.643,8.772,6.252,16.313,5.999,26.997
			c-5.241,7.572,3.078,18.852,0,26.996c-1.685-3.647-6.095-4.57-11.999-4c-8.221,5.831-7.426,24.086,3,26.998
			c4.525-0.141,4.883-4.449,9.999-4c5.505,1.041,5.587,8.516,10.999,8.998c5.852,0.523,8.69-4.754,10.999-10.998
			c-0.934,8.92,2.21,15.357,7.999,15.998c4.716,0.521,5.511-4.6,10.999-4c2.467,2.533,3.773,6.227,6.999,8
			c17.802,2.402,16.614-29.052,1-27.997c2.214-6.785,3.822-14.176,5-21.997c0.614,0.292,3.849,2.486,4,0
			c-1.78-0.554-4.152-0.515-5-2c-0.548-8.22-4.881-14.188-3-21.998c1.952-1.104,9.817-1.438,6.999-3.999
			C92.748,55.615,87.317,55.615,88.033,53.993z M205.019,91.988c-4.277,1.5-3.76-2.191-3-2.999c1.041-1.107,7.357,0.497,5,5.999
			c3.357,1.308,6.883,2.449,8.998,4.999c-1.766,0.646-5.351,4.542-2.999,5.999c8.46-10.837,17.19-30.618,10.998-46.994
			c1.817-5.182,3.014-10.984,3-17.997c-12.973-13.076-37.829-19.428-62.992-16.998c-2.614-2.385-6.309-3.69-7.999-6.999
			c-20.927-8.162-26.784,23.908-7.999,25.996c-0.075,1.742,0.223,3.11,1,4c2.333,0,4.666,0,6.999,0c1.562,3.104,2.617,6.715,5,8.999
			c-17.54,2.006-11.046,37.299,6.998,23.997c4.379,4.505,1.373,12.41,3,17.997c1.736-3.263,0.972-9.026,4-10.998
			c4.004-0.245,12.309,1.812,15.998,4.999c-0.359,3.975-1.074,7.592-4,8.999c4.962-3.366,1.412,3.527,4,4.999
			c2.39-3.275,1.188-10.145,2.999-13.998C199.895,91.621,201.247,93.312,205.019,91.988z M394.994,62.992
			c5.908,0.729,7.95-0.176,14.999,0c-0.661-3.986,3.666-2.27,4.999-5c2.927-5.994-0.978-13.313-5.999-15.998
			c-5.578-0.578-8.844,1.156-12.999,2c-7.268-2.232-11.388-8.788-17.997-9.999c-10.443-1.912-18.768,3.336-24.997,5
			c-1.327,0.354-0.241,1.556-1,2c-6.325,3.698-11.923,9.099-20.997,6.999c-10.634,4.379-8.25,12.85-11.999,24.997
			c-0.484,1.57-2.489,1.851-2.999,2.999c-2.936,6.608,0.156,15.561-2,21.997c-0.783,2.336-3.815,6.541-5,7.999
			c-0.658,0.812-3.217,0.261-3.999,1c-0.759,0.719-1.068,2.914-2,4c-1.017,1.186-1.925,1.706-2.999,3
			c0.619,2.713-1.27,7.936,0.999,8.998c1.409-3.59,1.094-8.904,3-11.999c12.564-3.1,11.943-19.386,14.998-31.996
			c2.224,0.776,5.422,0.577,5.999,3c-0.232,6.432-1.606,11.725-1,18.997c3.38,1.157,4.267-0.706,6,1
			c-5.384,6.616-13.047,10.95-14.998,20.997c3.086-0.912,3.32-4.678,3.999-7.998c4.816-0.85,4.89-6.442,9.999-7
			c-1.612-3.9,3.174-6.587,5.999-8.999c1.593,1.005,4.023,0.946,2,3c3.935-1.397,8.217-2.448,9.999-5.999
			c0.898,2.768-2.055,9.387,1.999,8.999c5.129-3.537,4.152-13.18,5-20.998c-2.54-0.46-2.832-3.168-4-4.999
			c0.176,4.842-2.224,7.107-2.999,10.998c-3.479-3.086-2.552-13.861,0.999-15.997c0.229,1.771-1.007,5.007,2,3.999
			c0.709-3.708-1.708-4.291-1-7.999c4.753-3.913,16.921-0.41,20.998-4.999c8.337,11.326,11.909,27.419,17.997,40.994
			c-5.348,0.652-13.312-1.312-16.998,1c3.662,1.705,10.328,1,15.998,1c5.688,0,12.827,1.615,14.999-2c-3.667,0-7.333,0-10.999,0
			c-7.321-11.676-8.98-29.015-17.998-38.994c8.328-0.338,11.314-6.018,16.998-9C393.145,58.177,391.275,63.378,394.994,62.992z
			 M395.994,100.987c-2.445-12.39-7.199-21.912-7.999-37.995c-0.314-1.609-1.423,0.076-1,2c-0.132,15.463,4.111,26.552,7.999,37.995
			c3.907,0.279,9.46,6.663,10.999,2.999C404.329,102.651,398.867,103.113,395.994,100.987z M383.996,76.99c0.666,0,1.333,0,2,0
			c0-0.666,0-1.333,0-2c-0.667,0-1.334,0-2,0C383.996,75.657,383.996,76.324,383.996,76.99z"/>
		<path fill-rule="evenodd" clip-rule="evenodd" d="M92.032,53.993c2.818,2.562-5.047,2.895-6.999,3.999
			c-1.881,7.81,2.451,13.778,3,21.998c0.847,1.485,3.219,1.446,5,2c-0.15,2.486-3.386,0.292-4,0c-1.177,7.821-2.786,15.212-5,21.997
			c15.614-1.055,16.803,30.399-1,27.997c-3.226-1.773-4.532-5.467-6.999-8c-5.488-0.6-6.283,4.521-10.999,4
			c-5.789-0.641-8.933-7.078-7.999-15.998c-2.308,6.244-5.146,11.521-10.999,10.998c-5.411-0.482-5.493-7.957-10.999-8.998
			c-5.116-0.449-5.474,3.859-9.999,4c-10.426-2.912-11.221-21.167-3-26.998c5.904-0.57,10.313,0.353,11.999,4
			c3.078-8.145-5.241-19.424,0-26.996c0.253-10.684-7.642-18.225-5.999-26.997c-3.966-6.708-18.58-15.543-10.999-26.997
			c6.463-9.764,22.645-2.316,26.997,7c12.105,0.893,24.034,1.962,33.996,4.999c1.271,3.396,5.545,3.787,5.999,7.999
			c11.531,3.473,23.136,8.326,21.998,23.997c-0.169,2.326-2.172,2.578-3,5c-1.047,3.064-0.56,7.785-2,11.998
			c-0.404,1.185-2.576,2.842-3,4c-1.869,5.108-3.019,11.748-7.999,12.998c5.521-8.477,7.675-18.958,10.999-28.996
			c2.251-6.799,4.874-11.393-2-17.998c-1.171-1.125-6.694-8.739-7,0c1.172-0.161,0.844-1.822,1-3c2.818,4.521-2.4,9.572-5,11.999
			C87.317,55.615,92.748,55.615,92.032,53.993z M65.036,29.996c-2.668-0.665-3.661-3.004-4.999-4.999
			c-10.018,2.539-17.371-4.35-21.998-1c0.549-3.988,0.549-3.011,0-6.999C26.274,3.753,9.501,20.404,23.041,31.996
			c1.758,0.575,5.875-1.208,6,1c0.224,1.89-1.127,2.206-1,4c4.77-0.77,4.438,3.561,8.999,3c4.103-3.881,1.468-10.565,2-13.999
			c4.011,5.282,3.23,13.406-2,16.998c-4.146,1.146-3.896-2.103-7-1.999c-1.377,7.376,2.758,9.241,5,12.998
			c-0.385,6.718-0.184,12.85,3,15.998c-1,0-2,0-3,0c-1.01,12.009,3.46,18.537,2,30.996c-3.878-0.179-8.378,6.141-4,7.999
			c-1.187-4.185,1.521-4.477,4.999-3.999c1.527-3.14,1.514-7.818,6-7.999c0.425-11.113,7.727-21.669,0-29.996
			c2.255-0.745,0.391-5.609,1-8c-2.285-2.081-9.035-4.917-7.999-6.998c5.56,0.439,6.442,5.555,12.998,4.998
			c-0.549-5.469-8.742-8.561-5-14.998c2.157,7.843,6.321,13.678,13.999,15.998c1.598-3.379-4.244-4.266-1-5.998
			c9.504,3.827,7.142,19.521,16.998,22.996c-2.738,10.201,1.541,22.708,1,31.996c-0.064,1.1-1.788,2.812-2,4
			c-0.412,2.303,2.208,7.581-2,7c-0.299-1.967,1.35-1.984,2-3c-3.698-0.697-4.417,1.582-4,5c1.667,0,3.333,0,5,0
			c2.468-12.489,16.812-27.595,8.999-43.996c0.115,0.242,0.215-2.631,0-4.999c-0.418-4.62-4.592-7.412-3.999-11.999
			c9.661-5.33-6.736-14.705,0-19.997c0.236,4.32,2.192,8.026,5.999,5.999c-2.451,1.759-2.329,5.998,0,7.999
			c3.188-2.812,4.816-7.182,4-13.998c-4.879-0.244-4.229-3.794-8.999-2c0.658-3.658-2.164-3.836-2-7
			c-4.617-2.991-15.596-4.707-15.998-4C63.608,26.901,67.16,29.677,65.036,29.996z M51.038,75.99
			c1.549-6.117,4.323-11.008,6.999-15.998c-1.454-1.546-5.119-0.881-7.999-1C48.154,64.787,47.183,71.514,51.038,75.99z
			 M58.037,72.991c-10.481-0.881-3.006,18.319-6.999,20.997c-0.409-3.591-0.253-7.746-3-8.999c0.738,4.737-1.125,6.874-1,10.999
			c9.437-0.771,8.412,8.919,10.999,14.998c0.788-6.984,7.176-12.21,14.998-8.999c-1.198-7.951-2.624-15.841-1-23.997
			c-3.618-6.594-10.934-10.629-10.999-17.998C60.181,64.314,51.199,70.203,58.037,72.991z M34.04,108.986
			c1.93,0.404,0.087,4.581,4,3c-0.575-1.758,1.208-5.875-1-6C37.345,108.292,34.15,107.097,34.04,108.986z"/>
		<path fill-rule="evenodd" clip-rule="evenodd" fill="#FFFFFF" d="M63.036,25.997c0.402-0.708,11.381,1.008,15.998,4
			c-0.164,3.164,2.657,3.342,2,7c4.77-1.795,4.12,1.755,8.999,2c0.817,6.816-0.812,11.187-4,13.998c-2.329-2.001-2.451-6.24,0-7.999
			c-3.807,2.027-5.763-1.679-5.999-5.999c-6.736,5.292,9.661,14.667,0,19.997c-0.593,4.587,3.581,7.379,3.999,11.999
			c0.215,2.368,0.115,5.241,0,4.999c7.813,16.401-6.53,31.507-8.999,43.996c-1.667,0-3.333,0-5,0c-0.417-3.418,0.302-5.697,4-5
			c-0.649,1.016-2.299,1.033-2,3c4.208,0.58,1.588-4.697,2-7c0.212-1.188,1.936-2.9,2-4c0.541-9.288-3.738-21.794-1-31.996
			c-9.856-3.475-7.494-19.169-16.998-22.996c-3.244,1.732,2.598,2.619,1,5.998c-7.677-2.32-11.842-8.155-13.999-15.998
			c-3.743,6.438,4.45,9.529,5,14.998c-6.556,0.557-7.438-4.559-12.998-4.998c-1.037,2.081,5.713,4.917,7.999,6.998
			c-0.609,2.391,1.255,7.255-1,8c7.727,8.327,0.425,18.883,0,29.996c-4.485,0.181-4.473,4.859-6,7.999
			c-3.478-0.479-6.186-0.187-4.999,3.999c-4.378-1.857,0.122-8.177,4-7.999c1.46-12.459-3.01-18.987-2-30.996c1,0,2,0,3,0
			c-3.184-3.148-3.384-9.28-3-15.998c-2.242-3.757-6.376-5.622-5-12.998c3.103-0.104,2.854,3.146,7,1.999
			c5.229-3.592,6.01-11.716,2-16.998c-0.531,3.434,2.104,10.118-2,13.999c-4.562,0.562-4.229-3.77-8.999-3
			c-0.127-1.793,1.224-2.109,1-4c-0.125-2.208-4.242-0.425-6-1C9.501,20.404,26.274,3.753,38.039,16.998
			c0.549,3.988,0.549,3.011,0,6.999c4.626-3.35,11.98,3.539,21.998,1c1.338,1.995,2.331,4.334,4.999,4.999
			C67.16,29.677,63.608,26.901,63.036,25.997z M34.04,20.998C40.444,22.151,36.235,17.943,34.04,20.998L34.04,20.998z
			 M47.038,30.996c0.161-0.696-0.349-5.819-1-3C45.16,31.803,46.575,33.004,47.038,30.996z M66.036,33.996
			C59.632,32.842,63.84,37.05,66.036,33.996L66.036,33.996z M75.035,51.994c-0.829-2.611,3.023-5.486,0-7
			C74.474,47.238,71.659,51.582,75.035,51.994z M72.035,54.993c0.667,0,1.333,0,2,0c0-0.667,0-1.333,0-2c-0.667,0-1.333,0-2,0
			C72.035,53.66,72.035,54.326,72.035,54.993z M81.034,69.991c-0.485-1.182-1.066-2.267-2-2.999
			C78.88,68.328,80.605,72.504,81.034,69.991z M42.039,75.99c-1.761-0.904-1.652-3.681-4-3.999
			C37.991,74.134,40.367,78.867,42.039,75.99z"/>
		<path fill-rule="evenodd" clip-rule="evenodd" d="M194.02,91.988c-1.812,3.854-0.609,10.723-2.999,13.998
			c-2.588-1.472,0.962-8.365-4-4.999c2.926-1.407,3.641-5.024,4-8.999c-3.689-3.188-11.994-5.244-15.998-4.999
			c-3.028,1.972-2.264,7.735-4,10.998c-1.627-5.587,1.379-13.492-3-17.997c-18.044,13.302-24.538-21.991-6.998-23.997
			c-2.383-2.284-3.438-5.896-5-8.999c-2.333,0-4.666,0-6.999,0c-0.777-0.89-1.075-2.258-1-4
			c-18.785-2.088-12.928-34.158,7.999-25.996c1.69,3.309,5.385,4.614,7.999,6.999c25.163-2.43,50.02,3.922,62.992,16.998
			c0.014,7.013-1.183,12.815-3,17.997c6.192,16.376-2.538,36.157-10.998,46.994c-2.352-1.457,1.233-5.353,2.999-5.999
			c-2.115-2.55-5.641-3.691-8.998-4.999c2.357-5.502-3.959-7.106-5-5.999c-0.76,0.808-1.277,4.499,3,2.999
			C201.247,93.312,199.895,91.621,194.02,91.988z M217.017,97.987c-1.3-2.482,2.934-4.149,0-4.999c-2.111,3.791-6.523-0.663-8.998,2
			C211.972,95.034,213.815,97.189,217.017,97.987z M191.021,88.989c-7.796-3.968,2.367-19.174-4-20.997
			c1.232,9.564-2.676,13.988-5.999,18.997C185.987,85.406,189.101,90.842,191.021,88.989z M170.022,24.997
			c-4.299-0.473-1.279,2.691-3,3c-8.422-1.242-10.978-12.326-23.997-7.999c-6.318,4.667-3.891,15.759,1,19.998
			c3.246,0.579,4.652-0.681,6.999-1c-0.426,1.907-2.856,1.81-2,4.999c3.147,1.002,6.349-0.212,9.999,2
			c4.79-4.468,0.482-10.4,2-14.998c4.559,11.582-6.751,26.585,9.998,28.996c-1.391-4.312-9.492-13.762-1-15.998
			c-7.168,10.332,14.293,26.512,18.998,10.999c-1.182-0.485-2.268-1.066-3-2c7.133-0.215,11.777-8.2,15.998-7.999
			c0.265,3.264-3.879,2.119-4,5c5.443,3.777,12.057-2.553,14.999-1c-5.149,6.135-2.87,13.676-5.999,21.997
			c13.233-2.564,16.328-15.493,17.997-26.997c-6.406-6.264-14.972-15.683-26.997-12.998c0.779,0.221,1.163,0.837,1,2
			c-1.566-2.433-6.607-1.392-5.998-6c-5.535-1.385-5.674,0.462-10,2c-1.486-7.954-13.592,1.625-14.998-3
			C169.424,26.072,171.847,25.773,170.022,24.997z M190.021,53.993c0.723,5.056-1.464,7.202-4,8.999c4.264,1.529,5.986-4.59,8.999-1
			c-3.158,1.508-6.114,3.219-8.999,5c3.059-0.726,2.941,1.725,6,1c2.96-5.918,11.732-0.822,13.998-1
			c-0.068-4.105,2.752-10.528,0-13.999C200.794,55.443,195.37,49.854,190.021,53.993z M167.022,61.992c0.191,5.639,5.281,1.391,6-1
			C170.667,60.97,170.079,62.715,167.022,61.992z M219.017,66.992c1.319,3.013,2.495,6.17,5.999,6.999
			c0.248-4.915-0.62-8.712-2.999-10.999C221.012,64.32,221.07,66.713,219.017,66.992z M161.024,67.992
			c0.17,1.495-0.357,3.689,0.999,3.999c-1.059-2.535,2.105-5.699,3-3c-2.042,0.868-2.944,4.967-2,6.999
			c0.657-2.994,2.138,0.956,3.999,0c-0.732-3.466,1.092-9.483,0-9.998C166.013,67.648,162.776,67.078,161.024,67.992z
			 M204.019,77.99c0.211-1.883,4.008-5.196,2-5.999C205.609,73.677,201.308,76.484,204.019,77.99z M198.019,79.99
			c-0.238,3.905,3.715,3.618,6,4.999c-0.451-5.477-4.443-0.011-2-6.999C199.29,77.262,200.006,79.977,198.019,79.99z"/>
		<path fill-rule="evenodd" clip-rule="evenodd" fill="#FFFFFF" d="M181.021,86.989c3.323-5.009,7.231-9.433,5.999-18.997
			c6.367,1.823-3.796,17.029,4,20.997C189.101,90.842,185.987,85.406,181.021,86.989z"/>
		<path fill-rule="evenodd" clip-rule="evenodd" fill="#FFFFFF" d="M168.022,25.997c1.406,4.625,13.512-4.954,14.998,3
			c4.326-1.538,4.465-3.385,10-2c-0.609,4.608,4.432,3.567,5.998,6c0.163-1.163-0.221-1.779-1-2
			c12.025-2.685,20.591,6.734,26.997,12.998c-1.669,11.504-4.764,24.433-17.997,26.997c3.129-8.321,0.85-15.862,5.999-21.997
			c-2.942-1.553-9.556,4.777-14.999,1c0.121-2.881,4.265-1.736,4-5c-4.221-0.201-8.865,7.784-15.998,7.999
			c0.732,0.934,1.818,1.515,3,2c-4.705,15.513-26.166-0.667-18.998-10.999c-8.492,2.236-0.391,11.686,1,15.998
			c-16.749-2.411-5.439-17.414-9.998-28.996c-1.518,4.598,2.79,10.53-2,14.998c-3.65-2.212-6.852-0.998-9.999-2
			c-0.857-3.189,1.574-3.092,2-4.999c-2.347,0.319-3.753,1.579-6.999,1c-4.891-4.239-7.318-15.331-1-19.998
			c13.019-4.327,15.575,6.757,23.997,7.999c1.721-0.309-1.299-3.473,3-3C171.847,25.773,169.424,26.072,168.022,25.997z
			 M157.024,27.997c0.903-2.708,2.236,2.286,4,2c0.074-1.741-0.224-3.109-1-4C157.987,25.143,153.812,26.868,157.024,27.997z
			 M172.022,37.995c-1.07-2.312-2.037-9.895-5-6.999C170.269,31.75,168.567,37.45,172.022,37.995z M182.021,34.996c2,0,4,0,6,0
			c0-1,0-2,0-3C184.642,31.616,183.755,33.729,182.021,34.996z M203.019,39.995c4.181,0.422-0.462-2.995-1-4
			C201.794,37.886,203.146,38.201,203.019,39.995z M212.018,38.995c-1.758,0.575-5.874-1.208-5.999,1
			C207.776,39.42,211.893,41.203,212.018,38.995z M177.022,44.994c0.131-1.314,0.15-7.234-1-3.999
			C175.89,42.31,175.87,48.229,177.022,44.994z M221.017,44.994c1.602-2.784-4.318-2.765-4-1
			C218.907,43.771,219.223,45.121,221.017,44.994z"/>
		<path fill-rule="evenodd" clip-rule="evenodd" d="M389.995,57.992c-5.684,2.982-8.67,8.662-16.998,9
			c9.018,9.979,10.677,27.318,17.998,38.994c3.666,0,7.332,0,10.999,0c-2.172,3.615-9.311,2-14.999,2c-5.67,0-12.336,0.705-15.998-1
			c3.687-2.312,11.65-0.348,16.998-1c-6.088-13.575-9.66-29.668-17.997-40.994c-4.077,4.589-16.245,1.086-20.998,4.999
			c-0.708,3.708,1.709,4.291,1,7.999c-3.007,1.008-1.771-2.228-2-3.999c-3.551,2.136-4.479,12.911-0.999,15.997
			c0.775-3.891,3.175-6.156,2.999-10.998c1.168,1.831,1.46,4.539,4,4.999c-0.848,7.818,0.129,17.461-5,20.998
			c-4.054,0.388-1.101-6.231-1.999-8.999c-1.782,3.551-6.064,4.602-9.999,5.999c2.023-2.054-0.407-1.995-2-3
			c-2.825,2.411-7.611,5.099-5.999,8.999c-5.109,0.559-5.183,6.151-9.999,7c-0.679,3.32-0.913,7.086-3.999,7.998
			c1.951-10.047,9.614-14.381,14.998-20.997c-1.733-1.706-2.62,0.157-6-1c-0.606-7.272,0.768-12.565,1-18.997
			c-0.577-2.423-3.775-2.224-5.999-3c-3.055,12.609-2.434,28.896-14.998,31.996c-1.906,3.094-1.591,8.409-3,11.999
			c-2.269-1.062-0.38-6.285-0.999-8.998c1.074-1.295,1.982-1.814,2.999-3c0.932-1.086,1.241-3.281,2-4
			c0.782-0.738,3.341-0.188,3.999-1c1.185-1.458,4.217-5.663,5-7.999c2.156-6.437-0.936-15.389,2-21.997
			c0.51-1.148,2.515-1.429,2.999-2.999c3.749-12.147,1.365-20.618,11.999-24.997c9.074,2.1,14.672-3.301,20.997-6.999
			c0.759-0.444-0.327-1.646,1-2c6.229-1.663,14.554-6.912,24.997-5c6.609,1.21,10.729,7.766,17.997,9.999
			c4.155-0.844,7.421-2.578,12.999-2c5.021,2.685,8.926,10.004,5.999,15.998c-1.333,2.73-5.66,1.014-4.999,5
			c-7.049-0.176-9.091,0.729-14.999,0C391.275,63.378,393.145,58.177,389.995,57.992z M394.994,59.992
			c3.865,0.794,10.28,1.074,15.998,0c2.02-3.82,2.604-9.16,1-13.998c-4.432-4.158-10.466-0.043-15.998,0
			c-2.826,0.021-4.772-2.828-6.999-1c-0.471-6.195-9.335-3.996-10.998-8.999c-18.712-0.714-28.092,7.904-37.996,15.999
			c-2.289,14.375-5.005,28.323-6.999,42.994c2.435,1.898,4.943,3.723,9.999,2.999c1.707-2.741-1.573-6.489,4-3.999
			c-11.951-11.85,3.914-25.154,4.999-38.995c1.104,5.557,8.25,0.602,10.999,2.999c-3.735,2.932-13.044,0.289-11.999,8
			c9.293-1.049,17.981-0.473,23.997-1c7.152-0.627,8.825-6.426,14.998-9.999C392.799,55.521,391.94,59.713,394.994,59.992z
			 M341.001,49.994c-19.963-2.967-16.913,17.082-22.997,27.996c4.77,0.563,9.621,1.045,12.999,3c0.577,2.672-2.958,6.247,0,7.999
			C336.09,77.745,333.262,58.585,341.001,49.994z M331.003,99.987c0.817-0.726,2.682-6.92-1-5.999
			C330.578,95.746,328.794,99.863,331.003,99.987z"/>
		<path fill-rule="evenodd" clip-rule="evenodd" d="M202.019,35.996c0.538,1.005,5.181,4.421,1,4
			C203.146,38.201,201.794,37.886,202.019,35.996z"/>
		<path fill-rule="evenodd" clip-rule="evenodd" fill="#FFFFFF" d="M167.022,65.992c1.092,0.515-0.732,6.532,0,9.998
			c-1.861,0.956-3.342-2.994-3.999,0c-0.944-2.032-0.042-6.131,2-6.999c-0.895-2.699-4.059,0.465-3,3
			c-1.356-0.31-0.829-2.504-0.999-3.999C162.776,67.078,166.013,67.648,167.022,65.992z"/>
		<path fill-rule="evenodd" clip-rule="evenodd" d="M79.034,66.992c0.934,0.732,1.515,1.817,2,2.999
			C80.605,72.504,78.88,68.328,79.034,66.992z"/>
		<path fill-rule="evenodd" clip-rule="evenodd" fill="#FFFFFF" d="M206.019,71.991c2.008,0.803-1.789,4.116-2,5.999
			C201.308,76.484,205.609,73.677,206.019,71.991z"/>
		<path fill-rule="evenodd" clip-rule="evenodd" d="M59.037,73.991c3.707-2.662,6.708,3.924,9.999,4.999
			C66.982,79.998,63.036,74.358,59.037,73.991z"/>
	</g>
</g>
</svg>
