<?xml version="1.0" encoding="utf-8"?>
<!-- Generator: Adobe Illustrator 15.1.0, SVG Export Plug-In  -->
<!DOCTYPE svg PUBLIC "-//W3C//DTD SVG 1.1//EN" "http://www.w3.org/Graphics/SVG/1.1/DTD/svg11.dtd" [
	<!ENTITY ns_flows "http://ns.adobe.com/Flows/1.0/">
]>
<svg version="1.1"
	 xmlns="http://www.w3.org/2000/svg" xmlns:xlink="http://www.w3.org/1999/xlink" xmlns:a="http://ns.adobe.com/AdobeSVGViewerExtensions/3.0/"
	 x="0px" y="0px" width="238px" height="101px" viewBox="0 0 238 101" enable-background="new 0 0 238 101" xml:space="preserve">
<defs>
</defs>
<g>
	<g>
		<path fill-rule="evenodd" clip-rule="evenodd" fill="#FFFFFF" d="M237.971,61.992c-2.819-1.514-6.25-2.416-10.999-2
			c7.106-15.204-9.476-18.584-20.997-14.998c-2.337-8.444,1.407-18.269,2.999-25.997c1.203-3.589,6.267,2.039,9.999-2
			c2.202-6.128,0.75-12.979-3-15.998c-8.145,1.847-8.429,3.238-15.998,0c-4.952,0.952-6.366,15.398,0,15.998
			c-4.883,6.115-5.943,16.054-9.998,22.997c-20.507,5.49-52.613-0.62-66.992,10.998c-0.516,12.482-2.347,23.65-3.999,34.996
			c-3.493,2.84-7.127,5.538-10.999,7.999c-1.162,5.162,2.759,5.24,5,6.999c-37.662,0-75.324,0-112.986,0C0,67.325,0,33.663,0,0
			c79.324,0,158.646,0,237.971,0C237.971,20.664,237.971,41.328,237.971,61.992z M89.989,8.999c-2.83,0.175-6.95-0.219-10.999,0
			c-1.605,0.086-0.848,0.496-3,1c-10.511,2.459-24.595-1.754-35.996,0c-9.87,1.519-16.953,7.437-24.997,10.999
			c-1.114,10.551-2.773,20.557-3,31.996C9.266,57.26,4.475,59.468,1,62.992c0,1.333,0,2.666,0,3.999
			c6.011,2.72,14.457,0.006,19.998-0.999c3.848-6.817-0.195-21.526,6.999-24.997c0.14-2.874-2.779-7.797,0-9.999
			c16.351,0.525,32.92,1.01,51.994,1c-3.139,4.55-1.314,9.363,3,12.998c7.293-0.372,9.495-5.836,13.998-8.999
			c3.891-0.442,6.037-2.629,8.999-4c8.205-2.298,20.155,4.567,22.997-2c-0.351-3.315-5.763-1.569-8.998-2
			c2.227-4.106,1.435-6.739,0-10.999c-6.352-3.624-16.191-7.226-20.998,0C95.553,14.767,93.358,11.295,89.989,8.999z"/>
		<path fill-rule="evenodd" clip-rule="evenodd" d="M98.988,16.998c4.806-7.226,14.646-3.624,20.998,0
			c1.435,4.26,2.227,6.893,0,10.999c3.235,0.431,8.647-1.316,8.998,2c-2.842,6.567-14.792-0.298-22.997,2
			c-2.962,1.371-5.108,3.557-8.999,4c-4.503,3.163-6.705,8.626-13.998,8.999c-4.314-3.635-6.139-8.448-3-12.998
			c-19.074,0.01-35.643-0.475-51.994-1c-2.779,2.202,0.14,7.125,0,9.999c-7.194,3.471-3.151,18.18-6.999,24.997
			C15.457,66.997,7.011,69.711,1,66.991c0-1.333,0-2.666,0-3.999c3.475-3.524,8.266-5.732,10.999-9.999
			c0.227-11.438,1.886-21.444,3-31.996c8.044-3.562,15.127-9.48,24.997-10.999c11.401-1.754,25.484,2.459,35.996,0
			c2.152-0.503,1.395-0.913,3-1c4.048-0.219,8.168,0.175,10.999,0C93.358,11.295,95.553,14.767,98.988,16.998z M68.991,12.999
			c0.258,4.408,1.598,7.734,1,12.998c6.631,2.261,11.935,2.082,15.998-2c-0.324-1.996-3.228-9.86,1-9.999
			c-0.256,4.922,0.886,8.446,4.999,8.999c-1.915-4.914,3.323-2.676,3-5.999C90.432,8.839,79.053,10.998,68.991,12.999z
			 M45.994,12.999c-0.087,1.461,3.479,7.822,2,13.998c6.09,0.442,14.972,2.917,17.998-2c0.772-4.772-1.563-6.436-1-10.999
			C56.971,15.789,51.312,10.665,45.994,12.999z M17.998,21.997c-1.76,6.251-1.924,14.805-2,22.997
			c-0.042,4.468-3.633,12.129,3,10.999c1.771-9.288,6.385-18.584,5-27.997c8.044-0.311,13.857,2.076,20.997,0
			c-0.014-5.318,0.627-11.292-2-13.999C32.051,14.053,25.498,18.499,17.998,21.997z M102.987,21.997c2.55,0.116,5.144,0.188,4.999,3
			c2.242,0.765,3.188-4.617,5-1c2.226,4.959-8.896,1.679-5.999,4c7.694,1.028,12.878-0.454,10.999-8.999
			c-4.188-1.812-8.584-3.415-14.998-3C102.897,19.733,101.866,18.848,102.987,21.997z M94.988,31.996c2.67-1.895-1.518-8.476-4-5
			C93.749,27.236,93.27,30.714,94.988,31.996z M81.99,41.995c1.453-0.547,5.168,1.168,5-1c-2.73-1.27-3.987-4.013-6-6
			C79.562,36.408,81.208,39.852,81.99,41.995z M3,64.992c5.254,1.494,15.369,1.247,15.998-5c-3.091-0.574-3.126-4.206-6.999-3.999
			C10.726,60.72,6.04,62.033,3,64.992z"/>
		<path fill-rule="evenodd" clip-rule="evenodd" fill="#FFFFFF" d="M94.988,16.998c0.323,3.323-4.915,1.085-3,5.999
			c-4.113-0.553-5.255-4.077-4.999-8.999c-4.228,0.139-1.324,8.003-1,9.999c-4.063,4.082-9.367,4.26-15.998,2
			c0.598-5.264-0.742-8.59-1-12.998C79.053,10.998,90.432,8.839,94.988,16.998z"/>
		<path fill-rule="evenodd" clip-rule="evenodd" fill="#FFFFFF" d="M64.992,13.998c-0.563,4.563,1.772,6.227,1,10.999
			c-3.025,4.916-11.907,2.441-17.998,2c1.479-6.176-2.087-12.537-2-13.998C51.312,10.665,56.971,15.789,64.992,13.998z"/>
		<path fill-rule="evenodd" clip-rule="evenodd" fill="#FFFFFF" d="M42.995,13.998c2.626,2.707,1.985,8.68,2,13.999
			c-7.14,2.076-12.953-0.311-20.997,0c1.386,9.412-3.229,18.709-5,27.997c-6.632,1.13-3.041-6.531-3-10.999
			c0.076-8.192,0.24-16.746,2-22.997C25.498,18.499,32.051,14.053,42.995,13.998z"/>
		<path fill-rule="evenodd" clip-rule="evenodd" fill="#FFFFFF" d="M102.987,15.998c6.414-0.415,10.811,1.188,14.998,3
			c1.88,8.545-3.305,10.027-10.999,8.999c-2.897-2.32,8.225,0.959,5.999-4c-1.812-3.617-2.757,1.765-5,1
			c0.145-2.812-2.449-2.884-4.999-3C101.866,18.848,102.897,19.733,102.987,15.998z"/>
		<path fill-rule="evenodd" clip-rule="evenodd" fill="#FFFFFF" d="M90.989,26.997c2.482-3.476,6.669,3.105,4,5
			C93.27,30.714,93.749,27.236,90.989,26.997z"/>
		<path fill-rule="evenodd" clip-rule="evenodd" fill="#FFFFFF" d="M80.99,34.996c2.013,1.987,3.269,4.73,6,6
			c0.168,2.168-3.546,0.453-5,1C81.208,39.852,79.562,36.408,80.99,34.996z"/>
		<path fill-rule="evenodd" clip-rule="evenodd" fill="#FFFFFF" d="M153.98,59.992c-8.811,1.078-17.936-2.165-22.997,1
			c3.185,11.631-2.727,18.932-5.999,26.997c-4.761-2.69-3.642-12.234-2-18.998c0.877-3.612,2.69-12.672,4-16.998
			c3.609-2.434,15.163-4.949,20.997-6.999C154.25,42.792,158.812,52.99,153.98,59.992z"/>
		<path fill-rule="evenodd" clip-rule="evenodd" fill="#FFFFFF" d="M155.98,44.994c2.435-1.106,3.551,1.916,6.999,2
			c0.393,0.01,6.358-1.367,4.999-2c5.394,2.511,5.264,6.784,3,13.998c-5.428-0.762-8.099,1.234-12.998,1
			C158.368,53.938,157.913,48.728,155.98,44.994z"/>
		<path fill-rule="evenodd" clip-rule="evenodd" fill="#FFFFFF" d="M11.999,55.993c3.873-0.207,3.908,3.425,6.999,3.999
			c-0.629,6.247-10.744,6.494-15.998,5C6.04,62.033,10.726,60.72,11.999,55.993z"/>
		<path fill-rule="evenodd" clip-rule="evenodd" fill="#FFFFFF" d="M237.971,63.992c0,12.332,0,24.663,0,36.995
			c-39.662,0-79.324,0-118.985,0c2.254-3.079,6.362-4.303,10.998-4.999c-2.51-13.282,6.64-21.822,5-33.996
			C169.46,63.271,203.46,65.251,237.971,63.992z"/>
		<path fill-rule="evenodd" clip-rule="evenodd" fill="#FFFFFF" d="M119.985,87.989c3.234,0.098,2.134,4.531,6.999,2.999
			c-1.867,5.304-9.586,8.375-15.998,6C111.067,91.069,119.135,93.138,119.985,87.989z"/>
		<path fill-rule="evenodd" clip-rule="evenodd" fill="#FFFFFF" d="M221.973,55.993c-4.064-0.815-12.188-0.319-11.999-7.999
			c6.207-2.116,7.991-0.239,14.998,1c1.688,3.294,0.593,6.393,0,9.999c-14.57-0.849-32.72,3.202-48.994-0.999
			c2.546-4.64-0.371-8.633-0.999-12.999c6.025,0.359,8.973-2.359,14.998-2c0,2.333,0,4.666,0,6.999c-4.78-0.113-8.086,1.247-8.999,5
			c2.191,1.691,5.554-1.85,6.999-4c3.027,1.223-0.707,3.816-1,5c4.267,2.472,5.851-5.146,4.999-10.999
			c3.081-0.918,6.259-1.74,5-6.999c-1.352,0.982-1.999,2.668-3,4c-2.651-2.075,1.45-5.815,3-6.999
			c-1.259-6.093,0.134-7.301,2.999-12.999c0.661-1.314,1.702-4.594,2-4.999c1.262-1.716,7.029-3.589,5-9.999
			c2.634-0.301,3.281,1.385,2.999,4c-6.311,8.687-7.962,22.035-7.999,36.996c-0.629,1.704-3.021,1.646-3.999,2.999
			c1.613,3.363,3.166-3.143,4.999,0c0.58,3.246-0.681,4.652-1,7c5.072,0.516,4.104-6.115,3-9c2.324,2.008,4.53,4.135,5.999,7
			C215.12,55.425,220.154,63.351,221.973,55.993z"/>
		<path fill-rule="evenodd" clip-rule="evenodd" d="M237.971,61.992c0,0.667,0,1.333,0,2c-34.511,1.259-68.511-0.721-102.987-2
			c1.64,12.174-7.51,20.714-5,33.996c-4.636,0.696-8.744,1.92-10.998,4.999c-2,0-4,0-6,0c-2.24-1.759-6.162-1.837-5-6.999
			c3.872-2.461,7.506-5.159,10.999-7.999c1.652-11.346,3.483-22.514,3.999-34.996c14.379-11.618,46.485-5.508,66.992-10.998
			c4.055-6.943,5.115-16.882,9.998-22.997c-6.366-0.6-4.952-15.046,0-15.998c7.569,3.238,7.854,1.847,15.998,0
			c3.75,3.019,5.202,9.87,3,15.998c-3.732,4.038-8.796-1.59-9.999,2c-1.592,7.728-5.336,17.552-2.999,25.997
			c11.521-3.586,28.104-0.206,20.997,14.998C231.721,59.576,235.151,60.479,237.971,61.992z M210.974,55.993
			c-1.469-2.864-3.675-4.991-5.999-7c1.104,2.884,2.072,9.515-3,9c0.319-2.348,1.58-3.754,1-7c-1.833-3.143-3.386,3.363-4.999,0
			c0.979-1.354,3.37-1.295,3.999-2.999c0.037-14.961,1.688-28.309,7.999-36.996c0.282-2.615-0.365-4.301-2.999-4
			c2.029,6.41-3.738,8.283-5,9.999c-0.298,0.405-1.339,3.685-2,4.999c-2.865,5.697-4.258,6.906-2.999,12.999
			c-1.55,1.184-5.651,4.924-3,6.999c1.001-1.332,1.648-3.018,3-4c1.259,5.259-1.919,6.081-5,6.999
			c0.852,5.853-0.732,13.471-4.999,10.999c0.293-1.184,4.027-3.777,1-5c-1.445,2.15-4.808,5.691-6.999,4
			c0.913-3.753,4.219-5.113,8.999-5c0-2.333,0-4.666,0-6.999c-6.025-0.359-8.973,2.359-14.998,2
			c0.628,4.366,3.545,8.359,0.999,12.999c16.274,4.201,34.424,0.15,48.994,0.999c0.593-3.605,1.688-6.704,0-9.999
			c-7.007-1.238-8.791-3.116-14.998-1c-0.188,7.68,7.935,7.184,11.999,7.999C220.154,63.351,215.12,55.425,210.974,55.993z
			 M147.981,44.994c-5.834,2.05-17.388,4.565-20.997,6.999c-1.31,4.326-3.123,13.386-4,16.998c-1.642,6.764-2.761,16.308,2,18.998
			c3.272-8.065,9.184-15.366,5.999-26.997c5.062-3.165,14.187,0.078,22.997-1C158.812,52.99,154.25,42.792,147.981,44.994z
			 M157.98,59.992c4.899,0.234,7.57-1.762,12.998-1c2.264-7.214,2.394-11.487-3-13.998c1.359,0.633-4.606,2.01-4.999,2
			c-3.448-0.084-4.564-3.106-6.999-2C157.913,48.728,158.368,53.938,157.98,59.992z M110.986,96.988
			c6.412,2.375,14.131-0.696,15.998-6c-4.865,1.532-3.765-2.901-6.999-2.999C119.135,93.138,111.067,91.069,110.986,96.988z"/>
	</g>
</g>
</svg>
