<?xml version="1.0" encoding="utf-8"?>
<!-- Generator: Adobe Illustrator 15.1.0, SVG Export Plug-In  -->
<!DOCTYPE svg PUBLIC "-//W3C//DTD SVG 1.1//EN" "http://www.w3.org/Graphics/SVG/1.1/DTD/svg11.dtd" [
	<!ENTITY ns_flows "http://ns.adobe.com/Flows/1.0/">
]>
<svg version="1.1"
	 xmlns="http://www.w3.org/2000/svg" xmlns:xlink="http://www.w3.org/1999/xlink" xmlns:a="http://ns.adobe.com/AdobeSVGViewerExtensions/3.0/"
	 x="0px" y="0px" width="530px" height="230px" viewBox="5 5 530 230" enable-background="new 5 5 530 230" xml:space="preserve">
<defs>
</defs>
<g>
	<g>
		<path fill-rule="evenodd" clip-rule="evenodd" d="M430.9,124c3.4,0.3,4.7,7.2-1,6C429.8,127.5,429.8,125.2,430.9,124z"/>
		<path fill-rule="evenodd" clip-rule="evenodd" d="M205,129c1.6,1.7,4.2,2.5,4,6C205.3,135.3,202.6,131.6,205,129z"/>
		<path fill-rule="evenodd" clip-rule="evenodd" d="M175,145c3.4,0.3,4.7,7.2-1,6C173.8,148.5,173.8,146.2,175,145z"/>
		<path fill-rule="evenodd" clip-rule="evenodd" d="M406.9,189c0,1,0,2,0,3c-2.1,0.4-2.6-0.7-4-1C403.2,189.2,404.7,188.7,406.9,189
			z"/>
		<path fill-rule="evenodd" clip-rule="evenodd" d="M122,119c1.6-3.1,5.8-3.5,11-3c1.9-5.5,10.5-4.2,14-8c4.5,0.5,5.3,4.7,12,3
			c1.3,4,4.5,6.2,8,8c0.4,1.9-1.4,6,2,5l0.1,3.1l2.9,0.9c0.7,3.1-3.4,1.2-2,5l-2.5,0.5l0.5,2.5c-3.2,6.1-5.4,13.3-12,16l-1.5-4.5
			L153,152c-4,0-8,0-12,0l0.5-4.8L137,149c-6.4-1.3-6.8-8.5-11-12c0-4,0-8,0-12c-1,0-2,0-3,0l-0.5-3L122,119z"/>
		<path fill-rule="evenodd" clip-rule="evenodd" d="M401,47c-1.8-5.5-3.2-11.4-6-16c1.9-7.4,4-14.6,9-19c6.9,0.4,9.9-3.7,16-3
			c3.1,0.3,0.8,1.8,3,3c3.1,1.6,9.9,1.7,13,5c0.1,12.8,1.2,26.5-5,33c-3.3,0-6.7,0-10,0l-2.5-1.5l-1.5,2.5c-2.4-1.9-8-0.6-12-1
			l-0.5-3.5L401,47z"/>
		<g>
			<path fill-rule="evenodd" clip-rule="evenodd" fill="none" stroke="#000000" stroke-width="3.283" stroke-linecap="round" d="
				M420.1,98.8c-2-6.9-2.8-14.2-4.2-21.3"/>
			<path fill-rule="evenodd" clip-rule="evenodd" fill="none" stroke="#000000" stroke-width="3.7189" stroke-linecap="round" d="
				M416.4,128c1.4-0.8,2.6-1.8,4.1-2.3c0.7-1.6,0.3-3.5,0.4-5.2"/>
			<path fill-rule="evenodd" clip-rule="evenodd" fill="none" stroke="#000000" stroke-width="3.7545" stroke-linecap="round" d="
				M437.1,140.5c-0.5-1.3,0.3-2.9-0.7-4"/>
			<path fill-rule="evenodd" clip-rule="evenodd" fill="none" stroke="#000000" stroke-width="3.0908" stroke-linecap="round" d="
				M196.5,136.5c1.3,0,2.7,0,4,0"/>
			<path fill-rule="evenodd" clip-rule="evenodd" fill="none" stroke="#000000" stroke-width="3.234" stroke-linecap="round" d="
				M442.1,161.5c-2.9-1.2-3-4.9-5-7"/>
			<path fill-rule="evenodd" clip-rule="evenodd" fill="none" stroke="#000000" stroke-width="3.1221" stroke-linecap="round" d="
				M160.5,156c2,0.6,1.6,3,3,4.2"/>
			<path fill-rule="evenodd" clip-rule="evenodd" fill="none" stroke="#000000" stroke-width="3.8168" stroke-linecap="round" d="
				M159.8,193.5c-1.9-1.1-2.7-2.5-2.8-4"/>
			<path fill-rule="evenodd" clip-rule="evenodd" fill="none" stroke="#000000" stroke-width="3.6344" stroke-linecap="round" d="
				M44.5,187.7c-6.9,0.9-13.3-5.1-19.6-1.8"/>
			<path fill-rule="evenodd" clip-rule="evenodd" fill="none" stroke="#000000" stroke-width="5.0615" stroke-linecap="round" d="
				M24.9,185.9c-0.3,3,1.6,5.6,1.1,8.6"/>
			<path fill-rule="evenodd" clip-rule="evenodd" fill="none" stroke="#000000" stroke-width="4.5498" stroke-linecap="round" d="
				M24.9,185.9c-2.8-3.4-6.8-6.8-6.9-11.4"/>
			<path fill-rule="evenodd" clip-rule="evenodd" fill="none" stroke="#000000" stroke-width="4.9663" stroke-linecap="round" d="
				M10.5,142.2c17.7-1,35.4,2.5,51.3,8.7"/>
			<path fill-rule="evenodd" clip-rule="evenodd" fill="none" stroke="#000000" stroke-width="3.8129" stroke-linecap="round" d="
				M61.8,151c6.7,0.3,11.2,4.3,16.2,8.1"/>
			<path fill-rule="evenodd" clip-rule="evenodd" fill="none" stroke="#000000" stroke-width="5.798" stroke-linecap="round" d="
				M78,159.1c2.6-1,3.2-4.6,6-5.1"/>
			<path fill-rule="evenodd" clip-rule="evenodd" fill="none" stroke="#000000" stroke-width="4.3629" stroke-linecap="round" d="
				M84,154c8-13.9,20.1-31.9,38.5-32"/>
			<path fill-rule="evenodd" clip-rule="evenodd" fill="none" stroke="#000000" stroke-width="2.7133" stroke-linecap="round" d="
				M167.5,133.5c1.8,1.9,4,3.7,5.3,6"/>
			<path fill-rule="evenodd" clip-rule="evenodd" fill="none" stroke="#000000" stroke-width="3.4528" stroke-linecap="round" d="
				M164.5,174.2c-7.9-6.4-10.8-16.7-10-26.7"/>
			<path fill-rule="evenodd" clip-rule="evenodd" fill="none" stroke="#000000" stroke-width="4.3398" stroke-linecap="round" d="
				M137.8,186.5c4.5,2.6,2.6,8.6,3.4,12.8c7.6,6.9,21.7,10,27.1-0.8c6.7-8.2,6.3-19.5,9.4-29.5"/>
			<path fill-rule="evenodd" clip-rule="evenodd" fill="none" stroke="#000000" stroke-width="5.339" stroke-linecap="round" d="
				M177.7,169c-1-5.4,3.7-9.4,4.2-14.7c5.4-4.3,11.6-8,19-4.9c6.4-2.5,12.4-6.1,18.9-7.9c1.7-2.3,4.8-2.8,6.6-5"/>
			<path fill-rule="evenodd" clip-rule="evenodd" fill="none" stroke="#000000" stroke-width="4.7899" stroke-linecap="round" d="
				M226.5,136.5c0.1-12.2,2.3-23.2-6.6-30.3c-10-7.9-23.4-0.5-35.5,1.6c1.5,9.8-16.7,5.5-10.2,16.9"/>
			<path fill-rule="evenodd" clip-rule="evenodd" fill="none" stroke="#000000" stroke-width="4.737" stroke-linecap="round" d="
				M174.2,124.7c2.2,1,1.5,3.9,2.1,5.8"/>
			<path fill-rule="evenodd" clip-rule="evenodd" fill="none" stroke="#000000" stroke-width="4.6254" stroke-linecap="round" d="
				M174.2,124.7c-1.5,1.2-3.6,1.2-5.1,2.3"/>
			<path fill-rule="evenodd" clip-rule="evenodd" fill="none" stroke="#000000" stroke-width="2.8719" stroke-linecap="round" d="
				M84,154c3.9,3.7,4.8,9.3,9.5,12.5"/>
			<path fill-rule="evenodd" clip-rule="evenodd" fill="none" stroke="#000000" stroke-width="3.491" stroke-linecap="round" d="
				M78,159.1c7,7.8,15.1,19.1,26.6,19.9"/>
			<path fill-rule="evenodd" clip-rule="evenodd" fill="none" stroke="#000000" stroke-width="6.3238" stroke-linecap="round" d="
				M104.7,179c0.1-0.3,0.2-0.7,0.3-1"/>
			<path fill-rule="evenodd" clip-rule="evenodd" fill="none" stroke="#000000" stroke-width="3.7634" stroke-linecap="round" d="
				M105,178c-0.9-2.4-1-3.1-1.5-4.5"/>
			<path fill-rule="evenodd" clip-rule="evenodd" fill="none" stroke="#000000" stroke-width="4.5404" stroke-linecap="round" d="
				M120.7,178.5c6.5,0.8,10.9-5.2,17.1-4.5"/>
			<path fill-rule="evenodd" clip-rule="evenodd" fill="none" stroke="#000000" stroke-width="3.1421" stroke-linecap="round" d="
				M137.8,174c1.1-6.9,1.2-14.6-0.1-21.5"/>
			<path fill-rule="evenodd" clip-rule="evenodd" fill="none" stroke="#000000" stroke-width="2.9199" stroke-linecap="round" d="
				M137.7,152.5c-6.9-0.3-15.6-1.5-16.9,7.3"/>
			<path fill-rule="evenodd" clip-rule="evenodd" fill="none" stroke="#000000" stroke-width="4.3122" stroke-linecap="round" d="
				M137.7,152.5c0.9-2,2.5-3.6,3.7-5.3"/>
			<path fill-rule="evenodd" clip-rule="evenodd" fill="none" stroke="#000000" stroke-width="4.1337" stroke-linecap="round" d="
				M177.7,169c20.4-5.2,38.9-15.9,58.8-23c0.4-1,0.4-2.2,0.5-3.1c-1.8-4.3-5.6-7.6-10.5-6.4"/>
			<path fill-rule="evenodd" clip-rule="evenodd" fill="none" stroke="#000000" stroke-width="4.0959" stroke-linecap="round" d="
				M52.7,187.3c0.3,0.8,0.3,2.7,0.4,4c3.9,5.4,9.6,7.1,14.7,10.7c11.6-8.5,25.6-10.4,37.6-18.9"/>
			<path fill-rule="evenodd" clip-rule="evenodd" fill="none" stroke="#000000" stroke-width="6.1636" stroke-linecap="round" d="
				M105.3,183c-0.3-1.2-0.4-3-0.7-4.1"/>
			<path fill-rule="evenodd" clip-rule="evenodd" fill="none" stroke="#000000" stroke-width="3.7178" stroke-linecap="round" d="
				M61.8,151c1.5,13-0.8,26.2-9.1,36.4"/>
			<path fill-rule="evenodd" clip-rule="evenodd" fill="none" stroke="#000000" stroke-width="4.9467" stroke-linecap="round" d="
				M105.3,183c5.3,0.8,11.7-0.6,15.3-4.6"/>
			<path fill-rule="evenodd" clip-rule="evenodd" fill="none" stroke="#000000" stroke-width="5.0829" stroke-linecap="round" d="
				M120.7,178.5c-1-1.7-1.6-2.7-2-3.2c-2.3-1.4-5.1-1.4-7.6-1.1c-1.8,1.6-3.9,2.9-6,3.9"/>
			<path fill-rule="evenodd" clip-rule="evenodd" fill="none" stroke="#000000" stroke-width="4.1319" stroke-linecap="round" d="
				M52.7,187.3c-2.7-0.5-5.6-0.7-8.2,0.4"/>
			<path fill-rule="evenodd" clip-rule="evenodd" fill="none" stroke="#000000" stroke-width="4.2809" stroke-linecap="round" d="
				M44.5,187.7c2.1,10.1,7.3,20.3,12.7,28.8c27.1-9.4,53.3-21.4,80.6-30"/>
			<path fill-rule="evenodd" clip-rule="evenodd" fill="none" stroke="#000000" stroke-width="3.1141" stroke-linecap="round" d="
				M137.8,186.5c0.9-4,1.2-8.6,0-12.5"/>
			<path fill-rule="evenodd" clip-rule="evenodd" fill="none" stroke="#000000" stroke-width="5.4307" stroke-linecap="round" d="
				M336.5,200.5c-5.9-3.3-12-9.4-19.5-8.2"/>
			<path fill-rule="evenodd" clip-rule="evenodd" fill="none" stroke="#000000" stroke-width="4.4949" stroke-linecap="round" d="
				M317,192.3c-1,9.2,7.3,18.3-0.1,26.6"/>
			<path fill-rule="evenodd" clip-rule="evenodd" fill="none" stroke="#000000" stroke-width="5.0491" stroke-linecap="round" d="
				M317,192.3c-1-0.5-1.5-1.6-1.9-2.4"/>
			<path fill-rule="evenodd" clip-rule="evenodd" fill="none" stroke="#000000" stroke-width="4.1811" stroke-linecap="round" d="
				M289.9,162.9c8.4-12.4,26.8-7,39.3-6c6.7,0.2,13.8-0.5,19.9,2.8"/>
			<path fill-rule="evenodd" clip-rule="evenodd" fill="none" stroke="#000000" stroke-width="4.3665" stroke-linecap="round" d="
				M349,159.8c7.1,0.4,12.5,3.9,19.3,5.2"/>
			<path fill-rule="evenodd" clip-rule="evenodd" fill="none" stroke="#000000" stroke-width="5.6173" stroke-linecap="round" d="
				M368.3,165c1.1-2-0.1-4.6,1.6-6.2c1.7-0.7,3.4-1.7,5.2-1.8"/>
			<path fill-rule="evenodd" clip-rule="evenodd" fill="none" stroke="#000000" stroke-width="3.5536" stroke-linecap="round" d="
				M375.1,157c10.9-8.7,16.5-25.8,33.1-24"/>
			<path fill-rule="evenodd" clip-rule="evenodd" fill="none" stroke="#000000" stroke-width="5.8719" stroke-linecap="round" d="
				M408.2,133c3.2-9.6-4.1-18.5-0.2-28"/>
			<path fill-rule="evenodd" clip-rule="evenodd" fill="none" stroke="#000000" stroke-width="4.3615" stroke-linecap="round" d="
				M407.9,105c-7.1-17.3-7-39.9-3.5-58.5"/>
			<path fill-rule="evenodd" clip-rule="evenodd" fill="none" stroke="#000000" stroke-width="2.8027" stroke-linecap="round" d="
				M407.9,105c2.1,0,3.5-1.8,5-3"/>
			<path fill-rule="evenodd" clip-rule="evenodd" fill="none" stroke="#000000" stroke-width="4.8642" stroke-linecap="round" d="
				M408.2,133c2,5.3,5.3,10.1,5.7,15.9"/>
			<path fill-rule="evenodd" clip-rule="evenodd" fill="none" stroke="#000000" stroke-width="4.5929" stroke-linecap="round" d="
				M413.9,148.9c2.5,1.7,3.7,5.6,6.9,7.2"/>
			<path fill-rule="evenodd" clip-rule="evenodd" fill="none" stroke="#000000" stroke-width="3.5783" stroke-linecap="round" d="
				M413.9,148.9c-4.6,3.2-10.2,7-11.5,12.6"/>
			<path fill-rule="evenodd" clip-rule="evenodd" fill="none" stroke="#000000" stroke-width="3.5935" stroke-linecap="round" d="
				M375.1,157c4.4,2.7,5.6,9.3,5.8,14.5"/>
			<path fill-rule="evenodd" clip-rule="evenodd" fill="none" stroke="#000000" stroke-width="7.2102" stroke-linecap="round" d="
				M398.5,185c1.3-1,2.3-2.1,3.3-3.1"/>
			<path fill-rule="evenodd" clip-rule="evenodd" fill="none" stroke="#000000" stroke-width="4.7428" stroke-linecap="round" d="
				M401.7,181.8c-0.4-0.5-0.9-1.4-1.5-2.4"/>
			<path fill-rule="evenodd" clip-rule="evenodd" fill="none" stroke="#000000" stroke-width="4.5789" stroke-linecap="round" d="
				M401.7,181.8c1.5-0.8,3.3-0.9,4.9-0.8c7.8,6.2,14.2,3.7,23.3-0.3c12.9-5.7,33.2-14.1,40.4-23.7c0.6,0,1.6,0.5,2.9,0.9
				c7.3-7.5,19.2-2.8,27.2-8.3c5.3-4.5,9.7-10.3,15.5-13.8"/>
			<path fill-rule="evenodd" clip-rule="evenodd" fill="none" stroke="#000000" stroke-width="4.3827" stroke-linecap="round" d="
				M515.9,135.9c3.5-15.6-12.8-29.3-27.3-28c-0.5,0.6-1,1.3-1.5,1.8c-12.1-4.2-14.4,8.7-24.5,8.6c-1.4,1.3-2.1,2.2-3.4,2.9
				c-0.8,1-0.8,2.9-0.4,4.2c1.9,0.9,2.2,3,3.2,4.6"/>
			<path fill-rule="evenodd" clip-rule="evenodd" fill="none" stroke="#000000" stroke-width="3.527" stroke-linecap="round" d="
				M462,129.9c1.4,1.3,1.8,2.9,2.2,3.6c8.5,3.1,21.2,9.2,28.7,2.8"/>
			<path fill-rule="evenodd" clip-rule="evenodd" fill="none" stroke="#000000" stroke-width="3.2619" stroke-linecap="round" d="
				M462,129.9c-2.4,2.8-6.3,0.6-9.1,2.2"/>
			<path fill-rule="evenodd" clip-rule="evenodd" fill="none" stroke="#000000" stroke-width="3.8205" stroke-linecap="round" d="
				M452.9,132.2c-1.7,9.7,7.2,16.5,5.5,26.3"/>
			<path fill-rule="evenodd" clip-rule="evenodd" fill="none" stroke="#000000" stroke-width="4.6145" stroke-linecap="round" d="
				M452.9,132.2c-10.6-4.8-12.4-13.2-16-23.5c-1-2.8-3.2-4.8-3.8-7.6c-1.5-6.4-0.2-12.4-2.1-18.7c0-0.2-1.3-0.7-1.4-1.3
				c-1.7-8.1-5.3-9.3-8.4-15.6c-1.5-3-2.3-11-2.8-16.9"/>
			<path fill-rule="evenodd" clip-rule="evenodd" fill="none" stroke="#000000" stroke-width="6.1341" stroke-linecap="round" d="
				M343,199.9c-2.2,0.2-4.4-0.2-6.5,0.6"/>
			<path fill-rule="evenodd" clip-rule="evenodd" fill="none" stroke="#000000" stroke-width="4.1295" stroke-linecap="round" d="
				M336.5,200.5c2.5,9.5,6.9,19,12.4,26.8c59.3-26.9,119.2-55,177.8-82.4c0.7-1,0.8-2.9,0.9-4.3c-2.9-3.6-8-2.3-11.6-4.7"/>
			<path fill-rule="evenodd" clip-rule="evenodd" fill="none" stroke="#000000" stroke-width="4.3651" stroke-linecap="round" d="
				M368.3,165c1.8,2,4.2,3.4,5.4,6c2.3,0.9,4.9,0.3,7.3,0.5"/>
			<path fill-rule="evenodd" clip-rule="evenodd" fill="none" stroke="#000000" stroke-width="4.1915" stroke-linecap="round" d="
				M343,199.9c5.3,2.8,8.5,7.7,12.7,11.8c14.3-1.5,28.1-9.9,40.9-16.5c0-3.6,2.1-6.6,1.9-10.2"/>
			<path fill-rule="evenodd" clip-rule="evenodd" fill="none" stroke="#000000" stroke-width="5.7836" stroke-linecap="round" d="
				M398.5,185c-7.6-2.4-12.9-7.7-17.5-13.5"/>
			<path fill-rule="evenodd" clip-rule="evenodd" fill="none" stroke="#000000" stroke-width="3.9558" stroke-linecap="round" d="
				M349,159.8c0.4,14.2,1,28.2-6,40.1"/>
		</g>
	</g>
</g>
</svg>
