<?xml version="1.0" encoding="utf-8"?>
<!-- Generator: Adobe Illustrator 15.1.0, SVG Export Plug-In  -->
<!DOCTYPE svg PUBLIC "-//W3C//DTD SVG 1.1//EN" "http://www.w3.org/Graphics/SVG/1.1/DTD/svg11.dtd" [
	<!ENTITY ns_flows "http://ns.adobe.com/Flows/1.0/">
]>
<svg version="1.1"
	 xmlns="http://www.w3.org/2000/svg" xmlns:xlink="http://www.w3.org/1999/xlink" xmlns:a="http://ns.adobe.com/AdobeSVGViewerExtensions/3.0/"
	 x="0px" y="0px" width="173px" height="124px" viewBox="0 0 173 124" enable-background="new 0 0 173 124" xml:space="preserve">
<defs>
</defs>
<g>
	<g>
		<path fill-rule="evenodd" clip-rule="evenodd" fill="#FFFFFF" d="M172.979,102.987c-3.528-6.949-7.431,1.234-10.999,2.999
			c1.027-4.025-1.557-4.441-2.999-5.999c-7.227,2.593-10.536,5.973-17.998,5.999c-11.306,0.041-21.57-8.343-33.996-4.999
			c1.375-6.934,5.938-13.852,4-21.997c-1.35-5.669-6.188-6.425-7.999-10.999c7.336-0.835,5.099-13.093,2.999-17.998
			c-4.224,0.025-6.457-1.935-9.998,0c-3.508,1.825-3.168,7.498-3,12.999c-3.19,0.594-3.093-1.876-4.999,0
			c-0.689,18.021,0.988,33.674,1,50.993c-0.521,4.146-5.047,4.286-4,9.999c-28.33,0-56.66,0-84.989,0C0,82.656,0,41.328,0,0
			c57.659,0,115.319,0,172.979,0C172.979,34.329,172.979,68.658,172.979,102.987z M8.999,20.998c0.493-5.159-1.376-7.957-6-7.999
			c-4.167,9.919,0.017,20.785,1,30.996c1.012,10.512,0.708,21.574,2,32.996c-0.451,2.882-3.538,3.128-3,6.999
			c1.92,1.413,1.81,4.856,3,6.999c2.667,0,5.333,0,7.999,0c1.272-3.061,1.418-7.247,3-9.998c4.849-1.151,14.414,2.415,15.998-2
			c-5.68-0.653-13.98,1.314-17.998-1c7.584-3.089,24.032-2.621,32.996-1c-0.593,3.773-13.424,0.528-11.999,3
			c2.391,0.608,7.254-1.256,7.999,1c-4.827,8.171-9.003,16.993-13.999,24.996c3.854,6.812,5.794,15.537,17.998,13.999
			c0.782-4.449-1.332-6.001-1-9.999c3.588,0.589,4.837-1.162,6.999-2c0.699-7.039-1.516-10.923,0-16.998
			c0.974-3.901,7.193-9.546,7.999-11.998c5.429-16.51-26.22-19.693-34.996-20.998c4.6-9.994,6.161-29.418-4-34.996
			c5.832-6.849,3.888-12.862,0-20.997C6.395-3.349,8.429,12.135,8.999,20.998z"/>
		<path fill-rule="evenodd" clip-rule="evenodd" fill="#FFFFFF" d="M20.998,4c2.786,4.241,3.872,11.152,1,15.998
			c-4.821,0.1-10.618-5.897-5.999-8.999c-0.272-2.355-4.428-0.611-4,1C9.016,7.313,14.207,2.236,20.998,4z"/>
		<path fill-rule="evenodd" clip-rule="evenodd" fill="#FFFFFF" d="M4,15.998c6.027,3.783,0.966,13.398,2,20.998
			c-2.126,1.735-0.027-9.262-2-10.999C4,22.664,4,19.331,4,15.998z"/>
		<path fill-rule="evenodd" clip-rule="evenodd" fill="#FFFFFF" d="M19.998,37.995c2.939,1.727,7.208,2.125,8.999,5
			c-1.676,4.323-3.956,8.043-4,13.998c-2.333,0-4.667,0-7,0C17.969,49.965,20.656,45.653,19.998,37.995z"/>
		<path fill-rule="evenodd" clip-rule="evenodd" fill="#FFFFFF" d="M5.999,50.994c1.546-3.057,0.881,4.337,1,5.999
			C5.453,60.049,6.119,52.656,5.999,50.994z"/>
		<path fill-rule="evenodd" clip-rule="evenodd" fill="#FFFFFF" d="M103.987,65.992c-2.043-0.957-3.957-2.043-6-3
			c-0.132-2.465-0.151-4.817,1-6c-2.502-0.169-3.13,1.536-3.999,3c-1.909-3.283,1.736-9.565,7.999-7.999
			C107.473,54.746,105.834,61.63,103.987,65.992z"/>
		<path fill-rule="evenodd" clip-rule="evenodd" d="M9.999,57.993c3.557,0.3,2.08,9.189,2,9.999
			C8.514,67.477,10.532,61.459,9.999,57.993z"/>
		<path fill-rule="evenodd" clip-rule="evenodd" fill="#FFFFFF" d="M29.996,61.992c-1.418,3.581-0.214,9.784-2,12.998
			c-4,0-7.999,0-11.999,0c-0.89-5.556,1.92-7.411,2-11.998C21.01,65.026,24.128,60.254,29.996,61.992z"/>
		<path fill-rule="evenodd" clip-rule="evenodd" fill="#FFFFFF" d="M41.995,100.987c-0.664,7.33,3.004,10.328,3,16.998
			c-7.508-0.157-8.224-7.107-11.998-10.999c2.95-7.715,9.888-11.442,9.999-21.997c3.911-2.422,6.878-5.787,8.999-9.999
			c-5.212-2.744-15.077,2.454-20.998-0.999c-0.357-5.024,0.615-8.717,2-11.999c12.092,2.03,25.724,4.264,25.997,13.998
			C59.22,84.104,44.238,93.463,41.995,100.987z M42.995,93.988c4.25-1.415,6.012-5.32,7.999-8.999
			C46.365,86.026,43.276,88.604,42.995,93.988z"/>
		<path fill-rule="evenodd" clip-rule="evenodd" fill="#FFFFFF" d="M88.989,64.992c1.773-2.668,0.729,5.858,0.999,7.999
			C88.215,75.658,89.26,67.133,88.989,64.992z"/>
		<path fill-rule="evenodd" clip-rule="evenodd" fill="#FFFFFF" d="M95.988,63.992c1.438,1.562,2.519,3.479,4.999,3.999
			c-0.869,1.464-1.497,3.169-3.999,3c0.367-1.701-0.78-1.887-2-2C95.827,67.831,96.307,66.311,95.988,63.992z"/>
		<path fill-rule="evenodd" clip-rule="evenodd" fill="#FFFFFF" d="M93.988,123.984c-0.667,0-1.333,0-2,0
			c-3.916-8.036,0.651-20.009,1-30.996c0.264-8.321-3.661-16.31,2-20.997c3.737-0.071,5.726,1.606,6.999,3.999
			c1.165-0.168,1.086-1.58,1-2.999c3.954,1.047,6.259,7.944,4.999,10.998c-2.789-0.876-4.938-2.394-7.999-2.999
			c-0.487,2.746,0.286,9.444-1,13.998c-1.321-0.012-0.913-1.753-1.999-2c-2.031,3.189,0.922,4.852,0.999,7.999
			C98.163,108.125,92.921,115.012,93.988,123.984z M92.988,106.986c6.065,0.819-0.28-8.91,0-7.999
			C92.988,101.654,92.988,104.32,92.988,106.986z"/>
		<path fill-rule="evenodd" clip-rule="evenodd" d="M50.994,84.989c-1.987,3.679-3.749,7.584-7.999,8.999
			C43.276,88.604,46.365,86.026,50.994,84.989z"/>
		<path fill-rule="evenodd" clip-rule="evenodd" fill="#FFFFFF" d="M105.986,84.989c4.861,3.711-1.022,11.701-2.999,14.998
			c-4.748-1.917,1.014-9.286,0-13.998C104.406,86.075,105.818,86.154,105.986,84.989z"/>
		<path fill-rule="evenodd" clip-rule="evenodd" fill="#FFFFFF" d="M51.994,90.988c2.379,2.123,0.193,8.135-4,6.999
			C48.925,95.253,51.062,93.724,51.994,90.988z"/>
		<path fill-rule="evenodd" clip-rule="evenodd" d="M92.988,98.987c-0.28-0.911,6.065,8.818,0,7.999
			C92.988,104.32,92.988,101.654,92.988,98.987z"/>
		<path fill-rule="evenodd" clip-rule="evenodd" fill="#FFFFFF" d="M52.993,102.987c-0.63,3.702-3.09,5.575-7.999,4.999
			C40.388,101.293,50.128,97.165,52.993,102.987z"/>
		<path fill-rule="evenodd" clip-rule="evenodd" fill="#FFFFFF" d="M111.986,113.985c-4.666,0-9.332,0-13.999,0
			c-0.896-8.562,6.259-9.073,11.999-10.998C114.197,103.109,110.979,110.66,111.986,113.985z"/>
		<path fill-rule="evenodd" clip-rule="evenodd" fill="#FFFFFF" d="M115.985,102.987c9.34,2.072,21.922,6.794,33.996,7.999
			c11.23,1.121,13.864-3.091,19.997-7.999c3.734,7.025-4.05,10.401-5.999,14.998c-8.923-2.076-15.321-6.677-25.997-6.999
			c2.284,2.383,5.704,3.628,9.999,3.999c-10.031,2.689-20.214-3.108-32.996-1C113.363,110.584,114.834,106.393,115.985,102.987z"/>
		<path fill-rule="evenodd" clip-rule="evenodd" fill="#FFFFFF" d="M159.98,103.987c0.826,2.826-1.41,2.59-1,4.999
			c-3.538,0.538-4.382-1.617-6-3C153.392,103.274,157.735,101.861,159.98,103.987z"/>
		<path fill-rule="evenodd" clip-rule="evenodd" fill="#FFFFFF" d="M172.979,110.986c0,4.333,0,8.665,0,12.998
			c-25.33,0-50.66,0-75.99,0c0.059-1.72-0.21-3.395,0.999-3.999c6.902-3.451,21.914,2.638,27.997,0c2.66-0.007,2.551-2.782,3.999-4
			c5.079,0.254,7.848,2.818,11.999,4c10.537-6.084,26.444,6.431,29.996-8.999C172.312,110.986,172.645,110.986,172.979,110.986z"/>
		<path fill-rule="evenodd" clip-rule="evenodd" fill="#FFFFFF" d="M96.988,116.985c3.28-1.73,9.622-1.057,14.998-1
			c5.353,0.057,12.123-1.669,13.998,2C116.482,117.488,104.889,119.084,96.988,116.985z"/>
		<path fill-rule="evenodd" clip-rule="evenodd" fill="#FFFFFF" d="M11.999,16.998c3.368,2.208,4.175,6.528,0,7.999
			c2.084,1.582,4.073,3.259,6.999,4c1.274-0.227,1.311-2.984,0-3c5.31-2.12,9.916,7.545,7.999,12.999
			c-3.516-0.151-2.402-4.931-6.999-4c-0.804,0.529-1.623,1.043-3,1c-2.74,14.579,1.076,29.648-5,40.995
			c0.489,4.805,2.702,12.091-4,11.999c-0.451-2.203,1.778-1.442,2-3c1.049-7.356,0.134-18.815,0-27.997
			c-0.145-9.969-2.673-18.74-1-27.997C9.833,25.379,13.316,22.115,11.999,16.998z M11.999,67.991c0.08-0.81,1.557-9.699-2-9.999
			C10.532,61.459,8.514,67.477,11.999,67.991z"/>
		<path fill-rule="evenodd" clip-rule="evenodd" d="M22.997,2c3.888,8.135,5.832,14.148,0,20.997c10.161,5.578,8.6,25.002,4,34.996
			c8.775,1.305,40.425,4.488,34.996,20.998c-0.806,2.452-7.025,8.097-7.999,11.998c-1.516,6.075,0.699,9.959,0,16.998
			c-2.162,0.838-3.411,2.589-6.999,2c-0.332,3.998,1.782,5.55,1,9.999c-12.204,1.538-14.144-7.187-17.998-13.999
			c4.996-8.003,9.171-16.825,13.999-24.996c-0.745-2.256-5.608-0.392-7.999-1c-1.426-2.472,11.405,0.773,11.999-3
			c-8.964-1.621-25.412-2.089-32.996,1c4.018,2.314,12.318,0.347,17.998,1c-1.584,4.415-11.149,0.849-15.998,2
			c-1.582,2.751-1.728,6.938-3,9.998c-2.666,0-5.333,0-7.999,0c-1.19-2.143-1.079-5.586-3-6.999c-0.539-3.871,2.548-4.117,3-6.999
			C4.708,65.568,5.012,54.506,4,43.995C3.016,33.783-1.168,22.917,3,12.999c4.624,0.042,6.492,2.84,6,7.999
			C8.429,12.135,6.395-3.349,22.997,2z M11.999,11.999c-0.428-1.611,3.728-3.355,4-1c-4.619,3.102,1.178,9.099,5.999,8.999
			c2.872-4.846,1.786-11.757-1-15.998C14.207,2.236,9.016,7.313,11.999,11.999z M4,25.997c1.973,1.737-0.127,12.734,2,10.999
			c-1.033-7.6,4.028-17.215-2-20.998C4,19.331,4,22.664,4,25.997z M8.999,29.996c-1.673,9.257,0.854,18.027,1,27.997
			c0.134,9.181,1.049,20.64,0,27.997c-0.222,1.558-2.45,0.797-2,3c6.701,0.092,4.489-7.194,4-11.999
			c6.076-11.347,2.26-26.416,5-40.995c1.376,0.043,2.195-0.471,3-1c4.597-0.931,3.483,3.849,6.999,4
			c1.917-5.454-2.689-15.119-7.999-12.999c1.311,0.016,1.274,2.773,0,3c-2.926-0.74-4.915-2.418-6.999-4
			c4.175-1.471,3.368-5.791,0-7.999C13.316,22.115,9.833,25.379,8.999,29.996z M17.998,56.993c2.333,0,4.667,0,7,0
			c0.044-5.955,2.323-9.675,4-13.998c-1.792-2.875-6.06-3.272-8.999-5C20.656,45.653,17.969,49.965,17.998,56.993z M6.999,56.993
			c-0.119-1.662,0.546-9.056-1-5.999C6.119,52.656,5.453,60.049,6.999,56.993z M17.998,62.992c-0.079,4.587-2.89,6.442-2,11.998
			c4,0,7.999,0,11.999,0c1.785-3.214,0.582-9.417,2-12.998C24.128,60.254,21.01,65.026,17.998,62.992z M58.993,75.99
			c-0.273-9.734-13.904-11.968-25.997-13.998c-1.385,3.282-2.357,6.975-2,11.999c5.92,3.453,15.786-1.745,20.998,0.999
			c-2.121,4.212-5.088,7.577-8.999,9.999c-0.111,10.555-7.049,14.282-9.999,21.997c3.774,3.892,4.49,10.842,11.998,10.999
			c0.005-6.67-3.664-9.668-3-16.998C44.238,93.463,59.22,84.104,58.993,75.99z M47.994,97.987c4.192,1.136,6.379-4.876,4-6.999
			C51.062,93.724,48.925,95.253,47.994,97.987z M44.994,107.986c4.909,0.576,7.369-1.297,7.999-4.999
			C50.128,97.165,40.388,101.293,44.994,107.986z"/>
		<path fill-rule="evenodd" clip-rule="evenodd" d="M172.979,102.987c0,2.666,0,5.332,0,7.999c-0.334,0-0.667,0-1,0
			c-3.552,15.43-19.459,2.915-29.996,8.999c-4.151-1.182-6.92-3.746-11.999-4c-1.448,1.218-1.339,3.993-3.999,4
			c-6.083,2.638-21.095-3.451-27.997,0c-1.209,0.604-0.94,2.279-0.999,3.999c-1,0-2,0-3,0c-1.067-8.973,4.175-15.859,3.999-22.997
			c-0.077-3.147-3.03-4.81-0.999-7.999c1.086,0.247,0.678,1.988,1.999,2c1.286-4.554,0.513-11.252,1-13.998
			c3.061,0.605,5.21,2.123,7.999,2.999c1.26-3.054-1.045-9.951-4.999-10.998c0.086,1.419,0.165,2.831-1,2.999
			c-1.273-2.393-3.262-4.07-6.999-3.999c-5.661,4.688-1.736,12.676-2,20.997c-0.349,10.987-4.916,22.96-1,30.996
			c-2.333,0-4.666,0-6.999,0c-1.047-5.713,3.479-5.853,4-9.999c-0.012-17.319-1.689-32.973-1-50.993
			c1.906-1.876,1.809,0.594,4.999,0c-0.168-5.501-0.508-11.174,3-12.999c3.541-1.935,5.774,0.025,9.998,0
			c2.1,4.905,4.337,17.163-2.999,17.998c1.812,4.574,6.649,5.33,7.999,10.999c1.938,8.146-2.625,15.063-4,21.997
			c12.426-3.344,22.69,5.04,33.996,4.999c7.462-0.026,10.771-3.406,17.998-5.999c1.442,1.558,4.026,1.974,2.999,5.999
			C165.548,104.222,169.45,96.038,172.979,102.987z M102.987,51.994c-6.263-1.566-9.908,4.716-7.999,7.999
			c0.869-1.464,1.497-3.169,3.999-3c-1.151,1.182-1.132,3.535-1,6c2.043,0.957,3.957,2.043,6,3
			C105.834,61.63,107.473,54.746,102.987,51.994z M89.988,72.991c-0.271-2.141,0.774-10.667-0.999-7.999
			C89.26,67.133,88.215,75.658,89.988,72.991z M94.988,68.991c1.22,0.113,2.367,0.299,2,2c2.502,0.169,3.13-1.536,3.999-3
			c-2.48-0.52-3.562-2.438-4.999-3.999C96.307,66.311,95.827,67.831,94.988,68.991z M102.987,85.989
			c1.014,4.712-4.748,12.081,0,13.998c1.977-3.297,7.86-11.287,2.999-14.998C105.818,86.154,104.406,86.075,102.987,85.989z
			 M109.986,102.987c-5.74,1.925-12.895,2.437-11.999,10.998c4.667,0,9.333,0,13.999,0
			C110.979,110.66,114.197,103.109,109.986,102.987z M114.985,113.985c12.782-2.108,22.965,3.689,32.996,1
			c-4.295-0.371-7.715-1.616-9.999-3.999c10.676,0.322,17.074,4.923,25.997,6.999c1.949-4.597,9.733-7.973,5.999-14.998
			c-6.133,4.908-8.767,9.12-19.997,7.999c-12.074-1.205-24.656-5.927-33.996-7.999C114.834,106.393,113.363,110.584,114.985,113.985
			z M152.98,105.986c1.618,1.383,2.462,3.538,6,3c-0.41-2.409,1.826-2.173,1-4.999C157.735,101.861,153.392,103.274,152.98,105.986z
			 M125.984,117.985c-1.875-3.669-8.646-1.943-13.998-2c-5.376-0.057-11.718-0.73-14.998,1
			C104.889,119.084,116.482,117.488,125.984,117.985z"/>
	</g>
</g>
</svg>
