<?xml version="1.0" encoding="utf-8"?>
<!-- Generator: Adobe Illustrator 15.1.0, SVG Export Plug-In  -->
<!DOCTYPE svg PUBLIC "-//W3C//DTD SVG 1.1//EN" "http://www.w3.org/Graphics/SVG/1.1/DTD/svg11.dtd" [
	<!ENTITY ns_flows "http://ns.adobe.com/Flows/1.0/">
]>
<svg version="1.1"
	 xmlns="http://www.w3.org/2000/svg" xmlns:xlink="http://www.w3.org/1999/xlink" xmlns:a="http://ns.adobe.com/AdobeSVGViewerExtensions/3.0/"
	 x="0px" y="0px" width="304px" height="124px" viewBox="0.044 0 304 124" enable-background="new 0.044 0 304 124"
	 xml:space="preserve">
<defs>
</defs>
<g>
	<g>
		<path fill-rule="evenodd" clip-rule="evenodd" d="M84.033,10.999c-4.682-2.587-6.374,2.63-7.999,6
			C72.926,13.917,82.226,3.032,84.033,10.999z"/>
		<path fill-rule="evenodd" clip-rule="evenodd" d="M237.015,22.997c0.666,0,1.333,0,1.999,0c0,0.667,0,1.333,0,2
			c-0.666,0-1.333,0-1.999,0C237.015,24.33,237.015,23.664,237.015,22.997z"/>
		<path fill-rule="evenodd" clip-rule="evenodd" d="M249.013,24.997C252.709,28.028,245.977,28.365,249.013,24.997L249.013,24.997z"
			/>
		<path fill-rule="evenodd" clip-rule="evenodd" fill="#FFFFFF" d="M269.011,34.996c0.999,0,1.999,0,2.999,0
			c5.261,10.408,14.146,22.511,16.998,31.996c-5.854,0.601-8.058-7.753-10.999-12.998c-3.045-5.431-6.291-11.454-8.998-15.998
			C267.811,36.682,268.62,36.423,269.011,34.996z"/>
		<path fill-rule="evenodd" clip-rule="evenodd" fill="#FFFFFF" d="M32.04,50.994c1.714,1.286,3.932,2.067,4,5
			C34.326,54.707,32.108,53.925,32.04,50.994z"/>
		<path fill-rule="evenodd" clip-rule="evenodd" d="M245.014,52.993c0.38-1.903,1.271,0.639,0.999,2
			C245.633,56.896,244.741,54.354,245.014,52.993z"/>
		<path fill-rule="evenodd" clip-rule="evenodd" fill="#FFFFFF" d="M246.013,59.993c3.816-0.467,1.895,7.81,1,8.999
			C244.744,67.928,246.633,62.706,246.013,59.993z"/>
		<path fill-rule="evenodd" clip-rule="evenodd" fill="#FFFFFF" d="M243.014,61.992c3.943-0.61,1.176,5.489,2,7.999
			c-7.258,6.407-16.333,10.998-22.997,17.998c-2.742-7.093-1.174-18.491,5.999-18.998c0.138,1.862,0.657,3.342,2,4
			C235.539,70.516,239.391,66.368,243.014,61.992z"/>
		<path fill-rule="evenodd" clip-rule="evenodd" fill="#FFFFFF" d="M250.013,62.992C254.346,63.409,248.959,68.795,250.013,62.992
			L250.013,62.992z"/>
		<path fill-rule="evenodd" clip-rule="evenodd" fill="#FFFFFF" d="M104.031,90.988c0.667,0,1.333,0,2,0c0,0.667,0,1.334,0,2
			c-0.667,0-1.333,0-2,0C104.031,92.322,104.031,91.655,104.031,90.988z"/>
		<path fill-rule="evenodd" clip-rule="evenodd" fill="#FFFFFF" d="M154.024,98.987c0.125-2.208,4.242-0.425,6-1
			C159.899,100.196,155.782,98.412,154.024,98.987z"/>
		<path fill-rule="evenodd" clip-rule="evenodd" fill="#FFFFFF" d="M110.03,99.987c3.957-3.564,2.383,6.905,7.999,5
			c0.168,2.168-3.546,0.452-5,0.999C113.41,102.607,111.297,101.721,110.03,99.987z"/>
		<path fill-rule="evenodd" clip-rule="evenodd" fill="#FFFFFF" d="M130.028,102.987c-1.599,1.734-4.5,2.165-7.999,2
			C123.877,103.503,126.779,103.071,130.028,102.987z"/>
		<path fill-rule="evenodd" clip-rule="evenodd" d="M115.03,101.987c6.962,0.297,12.328-1.004,16.998-3c0-5.332,0-10.665,0-15.998
			c3.694-1.609,13.305-1.609,16.998,0c0,4.333,0,8.666,0,12.999c4.646-1.105,12.491-1.775,16.998,0
			c-1.065,6.267-8.628,6.036-15.998,5.999c-2.32,5.013-0.344,14.321-1,20.997c-3.627-2.955-2-12.255-2-18.997
			c0-7.211,0-14.709,0-20.998c-9.453-1.176-5.974,11.315-5.999,15.998c-0.04,7.465,1.126,16.282,0,21.998
			c-0.766,3.884-0.978-5.331-1-6c-0.331-10.13,0.242-21.104,0-31.996c-8.874-1.374-5.999,10.846-5.999,17.998
			c0,8.22-0.39,17.092,1,21.997c-5.834-0.498-1.807-10.858-3-15.998c-24.457,1.54-45.722,6.271-69.991,7.999
			c4.589-5.409,16.532-3.465,24.997-4.999c-7.528-2.845-15.805,2.181-24.997,1c1.271-4.388,6.606-2.472,9.999-3
			c10.493-1.633,25.597-3.844,37.995-4.999c-6.312-4.354-13.812-7.52-14.998-16.998c-2.747-2.919-7.006-4.325-10.999-5.999
			c-6.443-8.889-11.132-19.531-19.997-25.997c-0.107,10.445,0.078,29.247,0,42.995c-3.743-1.241-1.921-6.769-2-9.999
			c-0.236-9.661,0.176-22.475,0-32.996c-6.097,10.104-0.698,30.234-4,44.994c-2.329-11.669-0.336-27.66-1-40.995
			c-3.654-1.292-7.159,6.151-12.998,6c-1.971-2.089-0.764-6.64,0-8.999c-4.952,0.047-6.042,3.957-9.999,5
			c-2.699,12.298-7.129,22.867-9.999,34.996c-3.919,1.747-5.66,5.672-7.999,8.999c0.201-6.809,8.955-13.701,9.999-22.997
			c-1.756-3.91-6.616-4.716-8.999-7.999c-3.252-1.081-9.205,0.538-9.999-3c9.384-0.385,13.883,4.115,18.998,7.999
			c4.967-4.365,1.449-17.216,7.999-19.998c-3.37-5.628-7.123-10.875-11.999-14.998C6.678,46.962,6.683,66.298,2.043,80.99
			c-1.991-5.348,0.491-14.824,4-17.998C3.57,39.521,29.622,44.576,32.04,25.997c5.78-6.552,14.799-9.864,20.997-15.998
			c7.964-0.921,13.79,0.007,19.998-1C76.988,5.954,81.281,3.246,86.033,1c24.218,4.902,2.752,33.87-11.999,23.997
			c-0.332,3.998,1.782,5.55,1,9.999c2.615-0.385,2.793-3.206,6.999-2c0.294,2.039,2.706,1.96,3,4
			c0.772,4.438-3.307,4.025-4.999,5.999c2.622,4.377,5.243,8.755,5.999,14.998c11.165,6.833,15.358,20.637,24.997,28.997
			c1.035,2.631,1.196,6.136,1,9.999C112.338,99.346,115.502,98.848,115.03,101.987z M91.033,4
			c-10.298-1.632-12.081,5.25-17.998,7.999c-19.5-2.502-27.489,6.507-37.995,12.999c1.207,7.458-8.317,9.823-7.999,14.998
			c0.057,0.929,4.687,5.39,6,6.999c2.218,2.719,4.169,5.757,6.999,6.999c6.48-2.186,11.744-5.587,17.998-7.999
			c0.022-2.355-1.722-2.944-1-5.999c-6.743,0.078-13.529,0.197-17.998-2c4.465-3.091,10.285,1.017,15.998,0
			c1.078-2.554-4.305-3.5-1-4.999c4.305,3.694,5.11,10.888,7.999,15.998c10.621,6.71,15.95,18.712,22.997,28.997
			c5.636,1.363,9.149,4.85,13.999,6.999c-1.57,5.173,2.743,12.392,9.999,11.999c1.443-15.163-13.885-22.07-18.998-33.996
			c-8.917-1.526-6.02-11.38-9.999-17.998c-0.669-1.112-2.652-0.011-3-2c-0.788-4.506-3.984-2.885-4.999-6.999
			c2.394-7.582-4.964-13.562-8.999-17.998c5.433-0.252,2.862,4.516,6.999,1c-0.147,2.48-0.186,4.853,2,5
			c2.811-2.091-0.162-3.758,3-5c-0.154,2.487,1.571,3.095,2,5C87.963,26.172,101.454,14.047,91.033,4z M26.041,43.995
			c1.046,2.62,3.172,4.16,5,5.999C30.688,46.679,28.045,45.656,26.041,43.995z M36.04,55.993c-0.068-2.932-2.286-3.714-4-5
			C32.108,53.925,34.326,54.707,36.04,55.993z M160.024,97.987c-1.758,0.575-5.875-1.208-6,1
			C155.782,98.412,159.899,100.196,160.024,97.987z M113.03,105.986c1.453-0.547,5.168,1.169,5-0.999
			c-5.616,1.905-4.042-8.564-7.999-5C111.297,101.721,113.41,102.607,113.03,105.986z M122.029,104.987
			c3.499,0.165,6.4-0.266,7.999-2C126.779,103.071,123.877,103.503,122.029,104.987z M88.033,108.986
			c8.02-0.979,17.737-0.261,22.998-3.999C103.962,106.918,94.686,106.641,88.033,108.986z"/>
		<path fill-rule="evenodd" clip-rule="evenodd" fill="#FFFFFF" d="M77.034,23.997c-0.429-1.904-2.154-2.512-2-5
			c-3.161,1.242-0.188,2.908-3,5c-2.186-0.147-2.147-2.52-2-5c-4.137,3.516-1.566-1.252-6.999-1
			c4.035,4.437,11.393,10.417,8.999,17.998c1.015,4.114,4.211,2.493,4.999,6.999c0.348,1.989,2.331,0.887,3,2
			c3.979,6.618,1.082,16.472,9.999,17.998c5.113,11.926,20.441,18.833,18.998,33.996c-7.256,0.393-11.568-6.826-9.999-11.999
			c-4.85-2.149-8.363-5.636-13.999-6.999c-7.047-10.284-12.376-22.286-22.997-28.997c-2.889-5.11-3.694-12.304-7.999-15.998
			c-3.305,1.5,2.078,2.445,1,4.999c-5.713,1.017-11.533-3.091-15.998,0c4.469,2.197,11.254,2.078,17.998,2
			c-0.722,3.055,1.022,3.644,1,5.999c-6.253,2.412-11.518,5.813-17.998,7.999c-2.83-1.242-4.781-4.28-6.999-6.999
			c-1.313-1.609-5.942-6.07-6-6.999c-0.318-5.175,9.206-7.54,7.999-14.998c10.506-6.492,18.496-15.5,37.995-12.999
			C78.952,9.25,80.735,2.367,91.033,4C101.454,14.047,87.963,26.172,77.034,23.997z M104.031,94.988c1,0,2,0,3,0
			c1.635-1.62,1.205-6.279-2-5.999C103.115,89.834,102.325,93.375,104.031,94.988z M76.035,16.998c1.625-3.369,3.317-8.587,7.999-6
			C82.226,3.032,72.926,13.917,76.035,16.998z M68.036,37.995c-3.093-4.906-9.727-6.271-13.999-9.999
			C56.574,33.458,63.085,34.946,68.036,37.995z M71.035,50.994c0.055,1.052,1.282,0.787,1-1
			C68.625,48.154,67.315,49.463,71.035,50.994z M84.033,66.991c-2.828-0.838-3.403-3.929-4.999-5.999c-0.057,0.61-0.149,1.184-1,1
			c0,0.667,0,1.333,0,2C81.048,63.39,81.44,70.479,84.033,66.991z"/>
		<path fill-rule="evenodd" clip-rule="evenodd" fill="#FFFFFF" d="M31.04,49.994c-1.827-1.839-3.953-3.379-5-5.999
			C28.045,45.656,30.688,46.679,31.04,49.994z"/>
		<path fill-rule="evenodd" clip-rule="evenodd" d="M105.031,88.989c3.205-0.28,3.635,4.379,2,5.999c-1,0-2,0-3,0
			C102.325,93.375,103.115,89.834,105.031,88.989z M104.031,92.988c0.667,0,1.333,0,2,0c0-0.666,0-1.333,0-2c-0.667,0-1.333,0-2,0
			C104.031,91.655,104.031,92.322,104.031,92.988z"/>
		<path fill-rule="evenodd" clip-rule="evenodd" d="M256.012,36.996c0.859,2.473,6.96-0.294,7.999,2
			c-1.025,9.201-17.847,12.504-11.998,21.997c2.953-0.869-2.32-1.497-1-4c3.144-0.144,3.435,2.564,3.999,5
			c6.381-3.618,12.282-7.716,16.998-12.999c-1.515-4.484-4.816-7.182-5.999-11.998c2.488-4.178,7.318-6.014,11.998-7.999
			c5.132,1.201,4.53,8.135,7.999,10.999c5.518-3.148,9.361-7.97,15.998-9.999c-3.11,5.889-11.211,6.787-14.998,11.999
			c4.768,0.416,12.048-5.27,14.998-9.999c2.721,7.736-9.454,9.198-12.998,13.998c0.822,6.568,15.061,17.021,3.999,19.998
			c0.354-1.313,1.761-1.573,2-3c-2.874-5.671-5.868-11.398-8.999-16.998c-2.938-5.255-5.348-11.404-9.998-14.998
			c-3.196,4.659,3.93,12.557,6.999,17.998c3.517,6.235,7.957,12.136,8.999,18.998c-2.444,0.89-4.336,2.331-7.999,2
			c-2.5-4.832-5.167-9.499-7.999-13.998c-9.422,5.243-16.104,13.226-25.997,17.998c0,5.278,0,11.823,0,17.997
			c0,5.668,1.671,13.136-2,15.998c0-10.332,0-20.664,0-30.996c-4.474,6.858-0.807,21.857-2,31.996
			c-3.709-2.021-1.928-9.089-1.999-13.998c-0.078-5.344,0.06-10.625,0-14.998c-8.732,3.933-13.592,11.738-22.997,14.998
			c3.841-7.277,11.707-10.347,17.997-14.998c11.558-8.547,23.059-17.468,34.996-26.997c-17.431,8.901-34.022,27.303-53.993,36.995
			c1.094,4.428-1.693,4.973-2,7.999c-1.835-6.188,2.509-19.008,0-25.996c2.548-0.785,4.851-1.815,5.999-4
			c-3.55-4.782-5.692-10.972-10.998-13.998c-7.051,1.616-11.281,6.05-14.998,10.999c-0.427,6.28,1.371,11.14,0,17.997
			c-0.312,1.562-0.266,5.923-3,6c1.626-12.75-1.945-24.566,4.999-31.997c18.396-2.721,18.269-23.018,16.998-42.995
			c9.645-6.891,23.804,0.2,32.996,5C258.762,15.082,258.117,1.771,274.01,5c4.885,4.052,6.366,9.949,4.999,15.998
			c-0.463,2.048-1.777,0.519-3.999,4c-1.1,1.722-1.47,5.48-2,5.999c-0.146,0.144-3.497,0.864-4.999,2c-1.696,1.283-3.087,3.027-3,3
			c-1.425,0.453-2.673-3.247-4.999-3C256.623,33.356,258.227,37.4,256.012,36.996z M261.012,28.997c1.711,0.955,2.014,3.318,3.999,4
			c4.24-4.425,8.048-9.284,12.998-12.999c1.077-9.076-4.224-11.774-9.998-13.999c-4.139,3.194-10.777,3.888-9.999,11.999
			c-5.773-0.792-3.855,3.129-4.999,5c-3.794-3.012-2.807-0.496-6,1c1.331-8.33-9.176-4.822-10.998-9.999
			c-19.941-3.049-19.074,5.106-14.998,17.998c5.772,5.559,13.598,9.065,17.997,15.998c-1.958,3.553,1.306,3.634,1,7.999
			c4.887-3.215,2.766,3.867,8.999,2c-3.617-15.713-11.184-27.478-19.997-37.995c2.728-0.09,2.013,1.666,3.999,0
			c2.161,2.505,2.033,7.299,5,8.999c0.112-1.22,0.299-2.368,1.999-2c-0.584,5.25,3.313,6.019,5,8.999
			c-1.85,3.089,0.996,8.589,3.999,9.999c4.708-1.812,3.701-10.571,4-13.998C254.923,36.005,260.31,32.192,261.012,28.997z
			 M220.017,33.996c-3.546,3.454-1.875,12.124-4,16.998c5.475,3.51,10.896,10.182,10.999,15.998
			c2.838-4.827,8.092-7.239,10.999-11.998C236.891,43.118,226.418,40.593,220.017,33.996z M269.011,37.995
			c2.707,4.544,5.953,10.567,8.998,15.998c2.941,5.245,5.146,13.599,10.999,12.998c-2.853-9.484-11.737-21.587-16.998-31.996
			c-1,0-2,0-2.999,0C268.62,36.423,267.811,36.682,269.011,37.995z M247.013,68.991c0.895-1.188,2.816-9.465-1-8.999
			C246.633,62.706,244.744,67.928,247.013,68.991z M230.016,72.991c-1.343-0.658-1.862-2.138-2-4
			c-7.173,0.507-8.741,11.905-5.999,18.998c6.664-7,15.739-11.591,22.997-17.998c-0.824-2.51,1.943-8.609-2-7.999
			C239.391,66.368,235.539,70.516,230.016,72.991z M250.013,62.992C248.959,68.795,254.346,63.409,250.013,62.992L250.013,62.992z"
			/>
		<path fill-rule="evenodd" clip-rule="evenodd" fill="#FFFFFF" d="M1.044,0C102.03,0,203.02,0,304.006,0
			c0,41.328,0,82.656,0,123.984c-101.32,0-202.643,0-303.962,0c0-40.328,0-80.656,0-120.985C-0.042,1.581-0.121,0.168,1.044,0z
			 M260.012,32.996c2.326-0.248,3.574,3.452,4.999,3c-0.087,0.027,1.304-1.717,3-3c1.502-1.136,4.853-1.856,4.999-2
			c0.53-0.519,0.9-4.277,2-5.999c2.222-3.48,3.536-1.951,3.999-4c1.367-6.049-0.114-11.946-4.999-15.998
			c-15.893-3.228-15.248,10.083-23.997,13.998c-9.192-4.799-23.352-11.891-32.996-5c1.271,19.977,1.397,40.274-16.998,42.995
			c-6.944,7.43-3.373,19.247-4.999,31.997c2.734-0.077,2.688-4.438,3-6c1.371-6.857-0.427-11.717,0-17.997
			c3.717-4.949,7.947-9.383,14.998-10.999c5.306,3.026,7.448,9.216,10.998,13.998c-1.148,2.185-3.451,3.215-5.999,4
			c2.509,6.988-1.835,19.808,0,25.996c0.307-3.026,3.094-3.571,2-7.999c19.971-9.692,36.562-28.094,53.993-36.995
			c-11.938,9.529-23.438,18.45-34.996,26.997c-6.29,4.651-14.156,7.721-17.997,14.998c9.405-3.26,14.265-11.065,22.997-14.998
			c0.06,4.373-0.078,9.654,0,14.998c0.071,4.909-1.71,11.978,1.999,13.998c1.193-10.139-2.474-25.138,2-31.996
			c0,10.332,0,20.664,0,30.996c3.671-2.862,2-10.33,2-15.998c0-6.174,0-12.719,0-17.997c9.894-4.772,16.575-12.755,25.997-17.998
			c2.832,4.5,5.499,9.166,7.999,13.998c3.663,0.331,5.555-1.11,7.999-2c-1.042-6.862-5.482-12.763-8.999-18.998
			c-3.069-5.441-10.195-13.338-6.999-17.998c4.65,3.594,7.06,9.743,9.998,14.998c3.131,5.6,6.125,11.327,8.999,16.998
			c-0.239,1.427-1.646,1.687-2,3c11.062-2.978-3.177-13.43-3.999-19.998c3.544-4.8,15.719-6.262,12.998-13.998
			c-2.95,4.729-10.23,10.415-14.998,9.999c3.787-5.212,11.888-6.11,14.998-11.999c-6.637,2.029-10.48,6.851-15.998,9.999
			c-3.469-2.863-2.867-9.797-7.999-10.999c-4.68,1.985-9.51,3.821-11.998,7.999c1.183,4.816,4.484,7.514,5.999,11.998
			c-4.716,5.283-10.617,9.381-16.998,12.999c-0.564-2.435-0.855-5.143-3.999-5c-1.32,2.503,3.953,3.13,1,4
			c-5.849-9.493,10.973-12.796,11.998-21.997c-1.039-2.293-7.14,0.474-7.999-2C258.227,37.4,256.623,33.356,260.012,32.996z
			 M112.03,96.988c0.197-3.863,0.036-7.368-1-9.999c-9.639-8.359-13.832-22.164-24.997-28.997
			c-0.756-6.243-3.377-10.621-5.999-14.998c1.692-1.974,5.771-1.561,4.999-5.999c-0.294-2.039-2.705-1.961-3-4
			c-4.206-1.207-4.384,1.615-6.999,2c0.782-4.449-1.332-6.001-1-9.999C88.785,34.87,110.251,5.902,86.033,1
			c-4.752,2.246-9.045,4.954-12.999,7.999c-6.208,1.006-12.034,0.079-19.998,1c-6.198,6.134-15.217,9.446-20.997,15.998
			C29.622,44.576,3.57,39.521,6.043,62.992c-3.509,3.174-5.99,12.65-4,17.998c4.639-14.692,4.635-34.028,19.998-37.996
			c4.876,4.123,8.628,9.37,11.999,14.998c-6.55,2.782-3.032,15.632-7.999,19.998c-5.115-3.884-9.614-8.384-18.998-7.999
			c0.794,3.538,6.747,1.919,9.999,3c2.382,3.283,7.243,4.089,8.999,7.999c-1.043,9.296-9.797,16.188-9.999,22.997
			c2.339-3.327,4.08-7.252,7.999-8.999c2.869-12.129,7.299-22.697,9.999-34.996c3.957-1.043,5.047-4.952,9.999-5
			c-0.764,2.359-1.971,6.91,0,8.999c5.839,0.151,9.344-7.291,12.998-6c0.664,13.334-1.329,29.326,1,40.995
			c3.302-14.76-2.098-34.89,4-44.994c0.176,10.521-0.236,23.335,0,32.996c0.079,3.23-1.743,8.758,2,9.999
			c0.078-13.748-0.107-32.55,0-42.995c8.865,6.466,13.554,17.108,19.997,25.997c3.993,1.674,8.252,3.08,10.999,5.999
			c1.186,9.479,8.686,12.645,14.998,16.998c-12.398,1.155-27.502,3.366-37.995,4.999c-3.393,0.528-8.729-1.388-9.999,3
			c9.192,1.181,17.469-3.845,24.997-1c-8.465,1.534-20.408-0.41-24.997,4.999c24.27-1.728,45.534-6.459,69.991-7.999
			c1.193,5.14-2.835,15.5,3,15.998c-1.389-4.905-1-13.777-1-21.997c0-7.152-2.875-19.372,5.999-17.998
			c0.242,10.892-0.331,21.866,0,31.996c0.022,0.669,0.234,9.884,1,6c1.126-5.716-0.04-14.533,0-21.998
			c0.025-4.683-3.454-17.174,5.999-15.998c0,6.289,0,13.787,0,20.998c0,6.742-1.627,16.042,2,18.997
			c0.656-6.676-1.32-15.984,1-20.997c7.37,0.037,14.933,0.268,15.998-5.999c-4.507-1.775-12.352-1.105-16.998,0
			c0-4.333,0-8.666,0-12.999c-3.693-1.609-13.304-1.609-16.998,0c0,5.333,0,10.666,0,15.998c-4.67,1.996-10.035,3.297-16.998,3
			C115.502,98.848,112.338,99.346,112.03,96.988z"/>
		<path fill-rule="evenodd" clip-rule="evenodd" fill="#FFFFFF" d="M238.015,54.993c-2.907,4.759-8.161,7.171-10.999,11.998
			c-0.103-5.815-5.524-12.487-10.999-15.998c2.125-4.875,0.454-13.544,4-16.998C226.418,40.593,236.891,43.118,238.015,54.993z"/>
		<path fill-rule="evenodd" clip-rule="evenodd" d="M265.011,14.998c-4.232-0.899-1.018,5.649-4.999,5c-0.723-3.056,1.022-3.644,1-6
			c2.479-0.147,4.852-0.186,4.999,2C265.481,17.537,264.968,16.062,265.011,14.998z"/>
		<path fill-rule="evenodd" clip-rule="evenodd" d="M54.037,27.997c4.272,3.727,10.905,5.093,13.999,9.999
			C63.085,34.946,56.574,33.458,54.037,27.997z"/>
		<path fill-rule="evenodd" clip-rule="evenodd" d="M72.035,49.994c0.282,1.787-0.945,2.052-1,1
			C67.315,49.463,68.625,48.154,72.035,49.994z"/>
		<path fill-rule="evenodd" clip-rule="evenodd" d="M78.034,63.992c0-0.667,0-1.333,0-2c0.851,0.184,0.943-0.39,1-1
			c1.596,2.07,2.171,5.161,4.999,5.999C81.44,70.479,81.048,63.39,78.034,63.992z"/>
		<path fill-rule="evenodd" clip-rule="evenodd" fill="#FFFFFF" d="M111.03,104.987c-5.261,3.738-14.978,3.021-22.998,3.999
			C94.686,106.641,103.962,106.918,111.03,104.987z"/>
		<path fill-rule="evenodd" clip-rule="evenodd" fill="#FFFFFF" d="M253.013,31.996c-0.299,3.427,0.708,12.186-4,13.998
			c-3.003-1.41-5.849-6.909-3.999-9.999c-1.687-2.98-5.584-3.749-5-8.999c-1.7-0.368-1.887,0.78-1.999,2
			c-2.967-1.7-2.839-6.494-5-8.999c-1.986,1.666-1.271-0.09-3.999,0c8.813,10.517,16.38,22.282,19.997,37.995
			c-6.233,1.868-4.112-5.214-8.999-2c0.306-4.365-2.958-4.446-1-7.999c-4.399-6.933-12.225-10.439-17.997-15.998
			c-4.076-12.892-4.943-21.047,14.998-17.998c1.822,5.177,12.329,1.669,10.998,9.999c3.193-1.496,2.206-4.012,6-1
			c1.144-1.87-0.774-5.791,4.999-5c-0.778-8.111,5.86-8.804,9.999-11.999c5.774,2.225,11.075,4.923,9.998,13.999
			c-4.95,3.715-8.758,8.573-12.998,12.999c-1.985-0.682-2.288-3.045-3.999-4C260.31,32.192,254.923,36.005,253.013,31.996z
			 M266.011,15.998c-0.147-2.186-2.52-2.147-4.999-2c0.022,2.355-1.723,2.944-1,6c3.981,0.649,0.767-5.899,4.999-5
			C264.968,16.062,265.481,17.537,266.011,15.998z M237.015,24.997c0.666,0,1.333,0,1.999,0c0-0.667,0-1.333,0-2
			c-0.666,0-1.333,0-1.999,0C237.015,23.664,237.015,24.33,237.015,24.997z M249.013,24.997
			C245.977,28.365,252.709,28.028,249.013,24.997L249.013,24.997z M246.013,54.993c0.272-1.361-0.619-3.903-0.999-2
			C244.741,54.354,245.633,56.896,246.013,54.993z"/>
	</g>
</g>
</svg>
