<?xml version="1.0" encoding="utf-8"?>
<!-- Generator: Adobe Illustrator 15.1.0, SVG Export Plug-In  -->
<!DOCTYPE svg PUBLIC "-//W3C//DTD SVG 1.1//EN" "http://www.w3.org/Graphics/SVG/1.1/DTD/svg11.dtd" [
	<!ENTITY ns_flows "http://ns.adobe.com/Flows/1.0/">
]>
<svg version="1.1"
	 xmlns="http://www.w3.org/2000/svg" xmlns:xlink="http://www.w3.org/1999/xlink" xmlns:a="http://ns.adobe.com/AdobeSVGViewerExtensions/3.0/"
	 x="0px" y="0px" width="206px" height="134px" viewBox="0.044 0 206 134" enable-background="new 0.044 0 206 134"
	 xml:space="preserve">
<defs>
</defs>
<g>
	<g>
		<path fill-rule="evenodd" clip-rule="evenodd" fill="#FFFFFF" d="M1.044,0c68.325,0,136.649,0,204.975,0
			c0,44.661,0,89.322,0,133.983c-68.659,0-137.316,0-205.975,0c0-43.661,0-87.323,0-130.984C-0.042,1.581-0.121,0.168,1.044,0z
			 M42.039,14.998c-11.882,1.883-18.202-1.795-22.997-6.999c-3.551,5.114-14.708,2.623-17.998,7.999
			c1.007,3.895,3.441,0.155,6.999,1c0.979,3.687,4.379,4.953,5.999,7.999c-0.459,14.614,5.291,19.269,6,33.996
			c11.19,6.069,4.743,21.633,4,32.996c2.567,4.766,6.022,8.643,5.999,15.998c5.302,2.522,14.556,5.894,21.998,3
			c1.176-16.488,12.35-22.979,13.998-38.995c3.651-0.016,4.49-2.843,6.999-4c0-7.999,2.957-13.041,6-17.998
			c0.52-9.479-1.45-21.448,2-27.997c7.545-0.863,12.857,3.268,15.998-2c-5.548-1.118-9.338-3.994-16.998-3
			c-1.887-2.78-4.274-5.059-8.999-5c-5.248,4.417-14.857,4.474-24.997,4c-0.936-6.115,0.09-8.037,0-14.998c-1,0-2,0-3,0
			C42.394,5.354,44.343,12.303,42.039,14.998z M151.025,71.991c-5.422-0.756-6.786,2.546-9.999,3.999
			c-7.381-1.284-14.72-2.611-16.998-8.999c-6.899-0.838-12.775,0.574-17.998,2c-0.481,4.814,6.207,2.459,7,5.999
			c5.752,17.911,26.157,21.17,26.996,43.995c-1.408,2.925-5.213,3.452-3.999,8.999c4.445-0.221,2.491-6.841,6.999-6.999
			c5.023,4.384,14.479,4.772,22.997,2.999c0.395,3.605-0.369,8.368,2.999,8.999c1.121-4.486-1.346-8.922-1.999-15.998
			c2.122-3.211,4.275-6.39,7.999-7.999c6.248,2.291,5.886,5.048,6.999,11.999c3.933,2.066,6.783,5.214,12.998,4.999
			c9.168-5.779,0.055-18.977,4-25.997c2.491-0.948,6.031,3.57,5.999-1c-0.076-5.923-7.244-4.755-7.999-9.998
			c-9.692-2.64-14.604-10.06-19.998-16.998c-0.21-8.209,4.895-11.104,3-20.998c-3.479-7.587-23.344-9.186-23.997,2
			c-2.161-6.077-0.854-16.669,0-22.997c-0.221-0.779-0.837-1.162-2-1C152.185,42.487,153.409,59.044,151.025,71.991z"/>
		<path fill-rule="evenodd" clip-rule="evenodd" fill="#FFFFFF" d="M22.041,14.998c-1.907-0.426-1.809-2.857-4.999-2
			c1.624,2.042,1.452,5.88,4.999,5.999c-0.969,10.301,6.013,12.652,5,22.997c-1.871-1.128-4.817-1.182-4-4.999
			c-4.214,1.244-0.04,5.106,1,6.999c-2.362,5.588,1.012,11.684,3,15.998c3.046-3.719-4.197-10.022-1-13.999
			c4.163,0.17,5.132,3.534,6,6.999c-2.571,2.429-3.289,6.71-4,10.999c-3.369-3.631-7.053-6.945-6-14.999
			c-4.43-5.344-5.406-19.11-4.999-25.997c-1.283-2.716-5.121-2.878-6-5.999C11.104,11.963,21.755,8.2,22.041,14.998z"/>
		<path fill-rule="evenodd" clip-rule="evenodd" fill="#FFFFFF" d="M4.043,15.998c-0.168-2.168,3.546-0.453,5-1
			C9.211,17.167,5.497,15.451,4.043,15.998z"/>
		<path fill-rule="evenodd" clip-rule="evenodd" fill="#FFFFFF" d="M46.038,81.99c-2.624,4.616-15.69,7.133-12.998-4
			c8.259-3.739,13.227-10.77,19.997-15.998c-0.085,1.419-0.165,2.832,1,3c3.004-4.995,3.058-12.94,10.999-12.998
			c-0.624,10.375-8.628,13.368-11.999,20.998c3.075-1.136,9.082-6.931,10.999-9.999c3.673-5.879,0.948-9.02,1-15.998
			c0.049-6.639,6.956-13.124,6-19.998c-1.798-1.869-3.292-4.041-5-5.999c1.002-3.998,2.901-7.098,8.999-6
			c2.695,9.89,0.789,21.803,1,35.996c-4.247,3.085-4.992,9.673-6,15.998c-3.362,2.304-7.5,3.833-9.999,7
			c-0.551,2.05,1.909,2.385,2,0.999c2.501,3.875-3.628,7.674-5.999,9.999c4.824,6.432-8.277,10.612-5,21.997
			c-6.905,3.146-12.487-1.634-18.998-1.999c0.583-8.582-6.55-9.449-5-18.998C33.217,85.526,43.499,91.865,46.038,81.99z
			 M47.038,80.99c2.396-2.522,8.24-11.412,4-13.999C52.711,74.023,44.242,76.161,47.038,80.99z M52.038,93.988
			c-0.605-2.062,1.613-6.946-2-5.999C50.053,90.641,49.483,93.876,52.038,93.988z M42.039,100.987c0.882,1.896-1.496,3.92,2,4.999
			c2.683-7.87-5.922-12.604-11.999-14.998C33.161,96.82,39.718,95.999,42.039,100.987z"/>
		<path fill-rule="evenodd" clip-rule="evenodd" fill="#FFFFFF" d="M22.041,16.998c2.039-2.295,8.304-0.362,11.999-1
			C32.001,18.292,25.736,16.36,22.041,16.998z"/>
		<path fill-rule="evenodd" clip-rule="evenodd" fill="#FFFFFF" d="M58.037,16.998c-2.839,4.493-13.872,0.792-19.998,2
			C42.483,13.921,52.035,19.49,58.037,16.998z"/>
		<path fill-rule="evenodd" clip-rule="evenodd" fill="#FFFFFF" d="M24.041,18.998c12.761,0.904,26.317,1.013,38.995,2
			c1.688,3.312,3.647,6.351,5.999,8.999c-1.902,6.431-6.741,9.923-5.999,18.998c-6.966,0.033-5.306,8.692-10.999,9.999
			c2.097-14.851-10.134-21.08-19.998-12.999C29.336,36.644,26.694,29.963,24.041,18.998z"/>
		<path fill-rule="evenodd" clip-rule="evenodd" fill="#FFFFFF" d="M82.034,20.998c0.353-1.147,1.76-2.535,2-1
			c2.408,0.325,11.429-0.853,8.999,1C89.366,20.998,85.7,20.998,82.034,20.998z"/>
		<path fill-rule="evenodd" clip-rule="evenodd" fill="#FFFFFF" d="M49.038,58.993c-4.741,2.591-3.925,10.74-12.998,8.999
			c0.259-2.66-2.759-5.767-3-8.999c-0.113-1.52,1.801-1.73,2-4c0.073-0.829-1.694-2.294-1-4c2.587-6.354,9.078-10.109,13.999-2
			c-0.443,1.89,1.36,6.026-2,5C45.288,57.41,50.101,55.264,49.038,58.993z"/>
		<path fill-rule="evenodd" clip-rule="evenodd" fill="#FFFFFF" d="M176.021,50.994c0,2.333,0,4.666,0,6.999
			c-2.318-0.319-3.839,0.161-4.999,1c-1.555,3.554,3.396,0.604,3,3c-0.891,4.109-5.591,4.408-5,9.999
			c-3.997,0.983-6.001,0.983-9.998,0c-1.685-3.904-0.004-12.158-1-17.998C160.93,47.342,170.798,45.152,176.021,50.994z"/>
		<path fill-rule="evenodd" clip-rule="evenodd" fill="#FFFFFF" d="M31.04,58.993c2.582-0.549,0.408,12.233,5,12.999
			c-3.333,2.722-5.211,7.41-5,10.998c-7.167-2.326-0.831-11.125,0-16.998C31.415,63.343,30.752,61.358,31.04,58.993z"/>
		<path fill-rule="evenodd" clip-rule="evenodd" fill="#FFFFFF" d="M154.024,66.992c1.151-3.235,1.132,2.685,1,4
			C153.873,74.227,153.893,68.306,154.024,66.992z"/>
		<path fill-rule="evenodd" clip-rule="evenodd" d="M51.038,66.992c4.241,2.586-1.603,11.476-4,13.999
			C44.242,76.161,52.711,74.023,51.038,66.992z"/>
		<path fill-rule="evenodd" clip-rule="evenodd" fill="#FFFFFF" d="M173.022,67.991c0.129,6.204,4.573,8.092,4.999,13.999
			c3.321,1.678,7.463,2.535,7.999,6.999c-10.197-1.135-18.166-4.498-26.996-6.999c2.038-2.295,8.304-0.362,11.998-1
			c1.379-6.378-10.168,0.169-9.999-5C168.836,77.137,172.207,73.842,173.022,67.991z"/>
		<path fill-rule="evenodd" clip-rule="evenodd" fill="#FFFFFF" d="M41.039,69.991c-0.658,1.342-2.138,1.862-4,2
			C37.28,70.232,38.76,69.712,41.039,69.991z"/>
		<path fill-rule="evenodd" clip-rule="evenodd" fill="#FFFFFF" d="M158.024,75.99c0.826,2.826-1.409,2.591-1,5
			c-2.635,0.301-3.281-1.385-3-4C154.914,76.214,156.282,75.915,158.024,75.99z"/>
		<path fill-rule="evenodd" clip-rule="evenodd" fill="#FFFFFF" d="M131.027,79.99c3.014-3.59,4.736,2.529,8.999,1
			c0.729,2.728-1.986,2.013-2,3.999C134.817,84.199,133.658,81.359,131.027,79.99z"/>
		<path fill-rule="evenodd" clip-rule="evenodd" fill="#FFFFFF" d="M173.022,97.987c1.23,7.817-2.838,13.671-8.999,10.999
			c-0.11,4.958,0.981,4.913,0,8.999c-5.073,2.015-16.359,3.58-20.997,0c0.461-9.793-4.191-14.473-4-23.997
			c1.686-2.171,6.638-4.632,9.999-2c1.407-5.406-5.374-2.624-6.999-4.999c-0.127-1.794,1.224-2.109,1-4
			c3.979-0.646,4.02,2.646,7.999,2C150.852,96.589,162.158,100.592,173.022,97.987z M140.026,99.987
			c9.562-0.229,11.053,7.612,16.998,10.999c-0.147,2.479-0.187,4.853,2,4.999c3.878-10.683-10.688-11.207-11.999-19.997
			C143.288,95.917,141.3,97.595,140.026,99.987z"/>
		<path fill-rule="evenodd" clip-rule="evenodd" fill="#FFFFFF" d="M153.024,87.989c8.8-3.291,14.567,4.634,23.997,3.999
			C170.799,97.469,155.47,97.021,153.024,87.989z"/>
		<path fill-rule="evenodd" clip-rule="evenodd" d="M50.038,87.989c3.613-0.947,1.395,3.938,2,5.999
			C49.483,93.876,50.053,90.641,50.038,87.989z"/>
		<path fill-rule="evenodd" clip-rule="evenodd" d="M32.04,90.988c6.077,2.395,14.682,7.128,11.999,14.998
			c-3.496-1.079-1.118-3.103-2-4.999C39.718,95.999,33.161,96.82,32.04,90.988z"/>
		<path fill-rule="evenodd" clip-rule="evenodd" fill="#FFFFFF" d="M196.02,91.988c-0.56,1.44-1.56,2.44-3,3
			c-0.169,2.502,1.536,3.13,3,3.999c-4.889,5.645,3.092,15.183-1,22.997c-3.52,1.597-6.895-1.337-9.999-2.999
			c-0.568-9.742,3.298-16.481-1-24.997C185.828,90.802,192.161,90.225,196.02,91.988z"/>
		<path fill-rule="evenodd" clip-rule="evenodd" fill="#FFFFFF" d="M180.021,93.988c-0.713,4.399,6.704,11.1,2,15.998
			c-4.263-2.403-7.001-6.331-6-13.998C178.301,96.268,179.78,95.747,180.021,93.988z"/>
		<path fill-rule="evenodd" clip-rule="evenodd" d="M147.025,95.988c1.311,8.79,15.877,9.314,11.999,19.997
			c-2.187-0.146-2.147-2.52-2-4.999c-5.945-3.387-7.437-11.229-16.998-10.999C141.3,97.595,143.288,95.917,147.025,95.988z"/>
		<path fill-rule="evenodd" clip-rule="evenodd" fill="#FFFFFF" d="M43.039,110.986c-0.168-2.169,3.546-0.453,5-1
			C48.207,112.154,44.492,110.439,43.039,110.986z"/>
		<path fill-rule="evenodd" clip-rule="evenodd" d="M43.039,1c1,0,2,0,3,0c0.09,6.961-0.936,8.883,0,14.998
			c10.14,0.475,19.749,0.418,24.997-4c4.725-0.059,7.112,2.22,8.999,5c7.66-0.994,11.45,1.881,16.998,3
			c-3.141,5.268-8.453,1.136-15.998,2c-3.45,6.549-1.479,18.518-2,27.997c-3.042,4.957-5.999,9.999-6,17.998
			c-2.509,1.157-3.348,3.984-6.999,4c-1.648,16.017-12.822,22.507-13.998,38.995c-7.442,2.894-16.695-0.478-21.998-3
			c0.023-7.355-3.432-11.232-5.999-15.998c0.744-11.362,7.19-26.926-4-32.996c-0.708-14.727-6.458-19.382-6-33.996
			c-1.62-3.046-5.02-4.312-5.999-7.999c-3.558-0.845-5.992,2.895-6.999-1c3.29-5.376,14.446-2.885,17.998-7.999
			c4.795,5.204,11.115,8.882,22.997,6.999C44.343,12.303,42.394,5.354,43.039,1z M27.041,85.989c-1.55,9.549,5.582,10.416,5,18.998
			c6.51,0.365,12.093,5.145,18.998,1.999c-3.277-11.385,9.823-15.565,5-21.997c2.371-2.325,8.5-6.124,5.999-9.999
			c-0.09,1.386-2.55,1.051-2-0.999c2.499-3.167,6.637-4.695,9.999-7c1.007-6.325,1.752-12.913,6-15.998
			c-0.211-14.193,1.695-26.105-1-35.996c-6.098-1.098-7.997,2.001-8.999,6c1.708,1.958,3.202,4.13,5,5.999
			c0.956,6.874-5.951,13.359-6,19.998c-0.051,6.978,2.673,10.119-1,15.998c-1.917,3.068-7.924,8.863-10.999,9.999
			c3.37-7.629,11.375-10.623,11.999-20.998c-7.94,0.058-7.995,8.003-10.999,12.998c-1.165-0.168-1.085-1.581-1-3
			c-6.77,5.229-11.738,12.259-19.997,15.998c-2.692,11.133,10.374,8.616,12.998,4C43.499,91.865,33.217,85.526,27.041,85.989z
			 M11.042,16.998c0.878,3.121,4.716,3.283,6,5.999c-0.407,6.886,0.569,20.653,4.999,25.997c-1.053,8.053,2.631,11.368,6,14.999
			c0.71-4.289,1.429-8.57,4-10.999c-0.867-3.465-1.837-6.829-6-6.999c-3.197,3.976,4.046,10.279,1,13.999
			c-1.987-4.314-5.361-10.41-3-15.998c-1.04-1.893-5.214-5.755-1-6.999c-0.817,3.817,2.128,3.871,4,4.999
			c1.013-10.345-5.968-12.696-5-22.997c-3.547-0.119-3.375-3.957-4.999-5.999c3.19-0.857,3.092,1.574,4.999,2
			C21.755,8.2,11.104,11.963,11.042,16.998z M9.043,14.998c-1.453,0.547-5.168-1.168-5,1C5.497,15.451,9.211,17.167,9.043,14.998z
			 M34.04,15.998c-3.695,0.638-9.96-1.295-11.999,1C25.736,16.36,32.001,18.292,34.04,15.998z M38.039,18.998
			c6.125-1.207,17.159,2.494,19.998-2C52.035,19.49,42.483,13.921,38.039,18.998z M32.04,45.994
			c9.863-8.081,22.094-1.852,19.998,12.999c5.692-1.307,4.032-9.966,10.999-9.999c-0.742-9.074,4.097-12.567,5.999-18.998
			c-2.352-2.648-4.311-5.687-5.999-8.999c-12.678-0.987-26.234-1.096-38.995-2C26.694,29.963,29.336,36.644,32.04,45.994z
			 M93.032,20.998c2.43-1.853-6.591-0.675-8.999-1c-0.239-1.535-1.646-0.147-2,1C85.7,20.998,89.366,20.998,93.032,20.998z
			 M46.038,53.993c3.36,1.027,1.557-3.109,2-5c-4.921-8.109-11.411-4.354-13.999,2c-0.694,1.705,1.073,3.171,1,4
			c-0.199,2.27-2.113,2.479-2,4c0.241,3.231,3.259,6.339,3,8.999c9.073,1.741,8.257-6.408,12.998-8.999
			C50.101,55.264,45.288,57.41,46.038,53.993z M31.04,65.992c-0.831,5.873-7.167,14.671,0,16.998c-0.211-3.588,1.667-8.276,5-10.998
			c-4.592-0.766-2.417-13.548-5-12.999C30.752,61.358,31.415,63.343,31.04,65.992z M37.04,71.991c1.862-0.138,3.341-0.658,4-2
			C38.76,69.712,37.28,70.232,37.04,71.991z M48.038,109.986c-1.453,0.547-5.168-1.169-5,1
			C44.492,110.439,48.207,112.154,48.038,109.986z"/>
		<path fill-rule="evenodd" clip-rule="evenodd" fill="#FFFFFF" d="M115.029,71.991c0.691-1.975,2.667-2.666,5-3
			c1.555,3.555-3.396,0.604-3,3c-1.235,3.235,3.235,0.764,2,3.999c10.219,1.113,10.042,12.622,20.997,12.999
			c-1.226,3.106-4.648,4.017-3.999,8.998C127.087,91.263,120.75,81.936,115.029,71.991z"/>
		<path fill-rule="evenodd" clip-rule="evenodd" d="M154.024,28.997c1.163-0.163,1.779,0.221,2,1c-0.854,6.328-2.161,16.92,0,22.997
			c0.653-11.186,20.519-9.586,23.997-2c1.895,9.893-3.21,12.788-3,20.998c5.394,6.938,10.306,14.358,19.998,16.998
			c0.755,5.243,7.923,4.075,7.999,9.998c0.032,4.57-3.508,0.052-5.999,1c-3.945,7.021,5.168,20.218-4,25.997
			c-6.215,0.215-9.065-2.933-12.998-4.999c-1.113-6.951-0.751-9.708-6.999-11.999c-3.724,1.609-5.877,4.788-7.999,7.999
			c0.653,7.076,3.12,11.512,1.999,15.998c-3.368-0.631-2.604-5.394-2.999-8.999c-8.518,1.773-17.974,1.385-22.997-2.999
			c-4.508,0.158-2.554,6.778-6.999,6.999c-1.214-5.547,2.591-6.074,3.999-8.999c-0.839-22.825-21.244-26.084-26.996-43.995
			c-0.793-3.54-7.481-1.185-7-5.999c5.223-1.426,11.099-2.838,17.998-2c2.278,6.387,9.617,7.714,16.998,8.999
			c3.213-1.453,4.577-4.755,9.999-3.999C153.409,59.044,152.185,42.487,154.024,28.997z M158.024,53.993
			c0.996,5.84-0.685,14.094,1,17.998c3.997,0.983,6.001,0.983,9.998,0c-0.591-5.591,4.109-5.89,5-9.999c0.396-2.396-4.555,0.555-3-3
			c1.16-0.839,2.681-1.319,4.999-1c0-2.333,0-4.666,0-6.999C170.798,45.152,160.93,47.342,158.024,53.993z M155.024,70.991
			c0.132-1.314,0.151-7.234-1-4C153.893,68.306,153.873,74.227,155.024,70.991z M161.023,75.99c-0.169,5.169,11.378-1.378,9.999,5
			c-3.694,0.638-9.96-1.295-11.998,1c8.83,2.501,16.799,5.864,26.996,6.999c-0.536-4.464-4.678-5.321-7.999-6.999
			c-0.426-5.907-4.87-7.795-4.999-13.999C172.207,73.842,168.836,77.137,161.023,75.99z M136.027,97.987
			c-0.649-4.981,2.773-5.892,3.999-8.998c-10.955-0.377-10.778-11.886-20.997-12.999c1.235-3.235-3.235-0.764-2-3.999
			c-0.396-2.396,4.555,0.555,3-3c-2.333,0.334-4.309,1.025-5,3C120.75,81.936,127.087,91.263,136.027,97.987z M154.024,76.99
			c-0.281,2.615,0.365,4.301,3,4c-0.409-2.409,1.826-2.174,1-5C156.282,75.915,154.914,76.214,154.024,76.99z M138.026,84.989
			c0.014-1.986,2.729-1.271,2-3.999c-4.263,1.529-5.985-4.59-8.999-1C133.658,81.359,134.817,84.199,138.026,84.989z
			 M177.021,91.988c-9.43,0.635-15.197-7.29-23.997-3.999C155.47,97.021,170.799,97.469,177.021,91.988z M151.025,84.989
			c-3.979,0.646-4.021-2.646-7.999-2c0.224,1.891-1.127,2.206-1,4c1.625,2.375,8.406-0.407,6.999,4.999
			c-3.361-2.632-8.313-0.171-9.999,2c-0.191,9.524,4.461,14.204,4,23.997c4.638,3.58,15.924,2.015,20.997,0
			c0.981-4.086-0.11-4.041,0-8.999c6.161,2.672,10.229-3.182,8.999-10.999C162.158,100.592,150.852,96.589,151.025,84.989z
			 M184.021,93.988c4.298,8.516,0.432,15.255,1,24.997c3.104,1.662,6.479,4.596,9.999,2.999c4.092-7.814-3.889-17.353,1-22.997
			c-1.464-0.869-3.169-1.497-3-3.999c1.44-0.56,2.44-1.56,3-3C192.161,90.225,185.828,90.802,184.021,93.988z M176.021,95.988
			c-1.001,7.667,1.737,11.595,6,13.998c4.704-4.898-2.713-11.599-2-15.998C179.78,95.747,178.301,96.268,176.021,95.988z"/>
	</g>
</g>
</svg>
