<?xml version="1.0" encoding="utf-8"?>
<!-- Generator: Adobe Illustrator 15.1.0, SVG Export Plug-In  -->
<!DOCTYPE svg PUBLIC "-//W3C//DTD SVG 1.1//EN" "http://www.w3.org/Graphics/SVG/1.1/DTD/svg11.dtd" [
	<!ENTITY ns_flows "http://ns.adobe.com/Flows/1.0/">
]>
<svg version="1.1"
	 xmlns="http://www.w3.org/2000/svg" xmlns:xlink="http://www.w3.org/1999/xlink" xmlns:a="http://ns.adobe.com/AdobeSVGViewerExtensions/3.0/"
	 x="0px" y="0px" width="300px" height="300px" viewBox="0 0 300 300" enable-background="new 0 0 300 300" xml:space="preserve">
<defs>
</defs>
<g>
	<g>
		<path fill-rule="evenodd" clip-rule="evenodd" fill="#FFFFFF" d="M244.7,300c5.6-5.3,18.5-4.1,26.8-7c3.1-9.2-0.9-17.5,0-26.5
			c1-10.3,7-18,6.3-27.9c-0.6-8.1-7.4-15.3-7.9-23.7c-0.6-9.9,3.9-13.8,6.3-23.7c25.9,5.1,28-29.6,11.1-34.9
			c0.2-13.6,1.4-30.6-3.2-44.7c6.1-9.8,14.7-30.3,4.7-48.8c-4.8-9-23.8-17-25.3-23.7c-1.5-7.3,6.2-13.6,4.7-22.3
			c-1.7-10.5-12.5-17.4-25.3-15.3c-15.6,2.6-20.7,23.8-15.8,41.9c2.6,3.8,12.5,1,12.6,7c1.9,10.2-10.4,11.3-12.6,19.5
			c-2.4,9,5.1,21.3,4.7,34.9c-0.4,12.4-4.1,24-1.6,37.7c-25.8-13.4-34.4,22.4-17.4,32.1c5.8,0.4,10.3-0.2,14.2-1.4
			c0,21.4-1.4,47.4-3.2,71.2c-5.2,9.9-20.4,10.8-25.3,20.9c6.4,12.4,26.8,3.2,39.5,4.2c7.3-9.8-5.6-35.1,11.1-39.1
			c-2.3,18.2,9.6,26.9,3.2,39.1c-5.9,11.1-20.8,9.6-31.6,19.5c1.7,7.3,11.4,7.6,17.4,11.2c-79.5,0-158.9,0-238.4,0C0,200,0,100,0,0
			c100,0,200,0,300,0c0,100,0,200,0,300C281.6,300,263.2,300,244.7,300z M47.4,32.1c-18.1-2.5-27.1,3-31.6,12.6
			c1.3,5.3,2.6,10.5-3.2,12.6c2.2,4.1,4.2,8.3,3.2,15.3c2.8,3.5,11.6,1.9,12.6,7c-10,18.1,13.1,39.4-11.1,47.4
			c0.7,8.3-2.6,11.6,0,18.1c-5.8-0.9-6.1,3-11.1,2.8c-7.2,11.9-7.6,36.9,15.8,33.5c5.2-2.8,6-9.6,11.1-12.6c2.1,5.1,8,6.9,9.5,12.6
			c-7,5-19.5,5.1-20.5,15.3c3.9,2.2,8.1,4,12.6,5.6c-4.1,19,11.6,20.4,15.8,32.1c16.9,11.2,29.7-4.9,47.4-5.6
			c11.7-15.4,10-44.3-15.8-40.5c2.7-4.6,5-9.6,4.7-16.7c9.1-4.1,18.6-7.7,30-9.8c15.5-14.4,7.1-39.4-9.5-47.4
			C98,90.2,78.2,75.1,55.3,62.8C55.8,54.4,60.1,35.8,47.4,32.1z"/>
		<path fill-rule="evenodd" clip-rule="evenodd" d="M271.6,54.4c-3.6,1.5-5.6,4.4-11.1,4.2C260.4,53.8,266.4,54.5,271.6,54.4z"/>
		<path fill-rule="evenodd" clip-rule="evenodd" d="M71.1,85.1c-7.7-1.2-10.5,1.9-15.8,2.8C55.3,83.6,68.9,78.5,71.1,85.1z"/>
		<path fill-rule="evenodd" clip-rule="evenodd" d="M271.6,85.1c6.9,1.4,1.4,13.6,3.2,19.5C267.9,103.3,273.3,91,271.6,85.1z"/>
		<path fill-rule="evenodd" clip-rule="evenodd" fill="#FFFFFF" d="M31.6,110.2c4.6-0.3,5.4,2.6,7.9,4.2
			C37.4,118,29.2,115.3,31.6,110.2z"/>
		<path fill-rule="evenodd" clip-rule="evenodd" fill="#FFFFFF" d="M235.3,110.2c9.6,9,2.8,29.6-1.6,39.1
			C234,138.7,229.2,120.1,235.3,110.2z"/>
		<path fill-rule="evenodd" clip-rule="evenodd" fill="#FFFFFF" d="M41.1,118.6c11.5,1.4,14.4,10.5,18.9,18.1
			c-2.7,1.8-4.1,4.7-9.5,4.2C51.6,129.7,44.2,126.1,41.1,118.6z"/>
		<path fill-rule="evenodd" clip-rule="evenodd" fill="#FFFFFF" d="M48.9,142.3c-4.2,0-8.4,0-12.6,0c1.6-3.7,6.3-4.7,7.9-8.4
			c-5.1,3.8-16,11.2-23.7,4.2c-1.5-11.1,6.3-14,12.6-18.1C44.2,122.4,48.7,130.4,48.9,142.3z"/>
		<path fill-rule="evenodd" clip-rule="evenodd" fill="#FFFFFF" d="M85.3,132.6c0.6-2.7,2,0.9,1.6,2.8
			C86.2,138,84.8,134.5,85.3,132.6z"/>
		<path fill-rule="evenodd" clip-rule="evenodd" fill="#FFFFFF" d="M243.2,131.2c7.1,0.2,13.5,1.1,18.9,2.8
			C257.9,136.7,244.2,135.9,243.2,131.2z"/>
		<path fill-rule="evenodd" clip-rule="evenodd" fill="#FFFFFF" d="M241.6,135.3c6,1.2,12.7,1.8,20.5,1.4c3.3,5,0.8,15.1,1.6,22.3
			c-5.8-7.7-16.6,1.4-18.9-2.8c-2.6,3.7-5.9,6.9-4.7,14c-3.2,0-6.3,0-9.5,0C231.4,156.1,238.9,147.9,241.6,135.3z"/>
		<path fill-rule="evenodd" clip-rule="evenodd" fill="#FFFFFF" d="M22.1,142.3c6.6,3.3,4.9,1.1,12.6,0c-1.6,4.2,3.5,2.5,6.3,2.8
			c0.3,1.2-0.6,1.3-1.6,1.4c-5.6-0.3-3.1,6.5-9.5,5.6C29.5,147,21.9,148.1,22.1,142.3z"/>
		<path fill-rule="evenodd" clip-rule="evenodd" fill="#FFFFFF" d="M63.2,167.4c-7.5,1.6-6.7-4.3-14.2-2.8c1.3,4.9,10,3.3,14.2,5.6
			c3.1,7.8,1.2,20.4,0,25.1c-9.8-9.1-46.3-36.9-20.5-48.8C58.6,139.1,65.7,150.7,63.2,167.4z"/>
		<path fill-rule="evenodd" clip-rule="evenodd" fill="#FFFFFF" d="M282.6,146.5c2.2-4.4,1.6,4.9,1.6,7
			C282,157.9,282.6,148.6,282.6,146.5z"/>
		<path fill-rule="evenodd" clip-rule="evenodd" fill="#FFFFFF" d="M233.7,180c-4,8.9-3.1-2.3-3.2-8.4c3.7,0.5,6.5,1.7,9.5,2.8
			c-3.5,22.7,6.9,33,6.3,53c-9.8,4.4-7,19.9-14.2,26.5c-15.3-10.5,3.1-38.3-1.6-53c3.5,1.1,2.1,6.6,6.3,7
			C235.5,204.2,228.4,190,233.7,180z M233.7,240c-0.9-4.7,0.6-9.4,4.7-5.6c-3.1-6.8,2.3-12.5-1.6-18.1
			C234.9,221.8,229.6,238.3,233.7,240z"/>
		<path fill-rule="evenodd" clip-rule="evenodd" fill="#FFFFFF" d="M44.2,182.8c4.9,0.8,4.2,6.6,9.5,7c-5.7,2.4-15.1,1.5-15.8,8.4
			c-5,0.2-9.5,0-11.1-2.8C29.1,188,41.1,189.4,44.2,182.8z"/>
		<path fill-rule="evenodd" clip-rule="evenodd" fill="#FFFFFF" d="M72.6,213.5c6.7,3.8,6.7,13.6,18.9,12.6
			c-12,4.6-31.2,16-41.1,2.8C57,222.9,68.6,221.6,72.6,213.5z"/>
		<path fill-rule="evenodd" clip-rule="evenodd" d="M236.8,216.3c3.9,5.7-1.6,11.4,1.6,18.1c-4.2-3.8-5.7,0.9-4.7,5.6
			C229.6,238.3,234.9,221.8,236.8,216.3z"/>
		<path fill-rule="evenodd" clip-rule="evenodd" d="M262.1,231.6c3,5.6,8.4,15.4,6.3,20.9C262,249.4,263.7,239,262.1,231.6z"/>
		<path fill-rule="evenodd" clip-rule="evenodd" fill="#FFFFFF" d="M221.1,251.2c6,2.6,8,8.1,17.4,4.2c0,3.7,0,7.4,0,11.2
			c-13.6-0.6-18.4,1.1-36.3,1.4C202.2,256.8,219.1,260.6,221.1,251.2z"/>
		<path fill-rule="evenodd" clip-rule="evenodd" fill="#FFFFFF" d="M252.6,274.9c6,2.6,5.1,11.3,17.4,8.4c4,9-7.1,6.5-14.2,8.4
			c-8.1,2.1-22.6,8.2-30-1.4C231.3,282.1,246.8,282.7,252.6,274.9z"/>
		<path fill-rule="evenodd" clip-rule="evenodd" fill="#FFFFFF" d="M240,41.9c-5.5-1.1-6.7,2.6-9.5,0c1.1-7-0.9-11.3-3.2-15.3
			c6.1-4.8,3-15.3,11.1-20.9c20.4-4.5,27.8,4.3,26.8,16.7c-0.6,7.8-7.7,14.3-1.6,23.7c0.2,0.4,10.6,9.5,12.6,11.2
			c4.1,3.3,7.4,2.8,11.1,7c-2.1,13.8,6.3,28.9-3.2,40.5c-3.5-1.4,2.1-6.4,0-11.2c-4,6.1-5.3,11.3-1.6,18.1
			c-2.8,5.9-6.4,11.1-4.7,20.9c2.5-2.9,3.3-7.3,3.2-12.6c8.3,16.1-8.7,34.6-3.2,55.8c-3.3,1.2-4.7,4.2-9.5,4.2
			c2.5-22.7-8-46.5,0-68.4c-12.4-7.2-3.2-31-14.2-36.3c-4.3-1,1.1,6.6-3.2,5.6c0.5,1.9,4,1.2,6.3,1.4c-3,21.2,9.3,28.4,4.7,47.4
			c-5.8,0-11.6,0-17.4,0c0.3-16.5-9.6-24.1-11.1-39.1c2.5-1.3,18.6,5.6,20.5-2.8c-6-1.1-7.5,1.7-12.6,1.4c-3.2-1.3-4.4-4.5-6.3-7
			c-1.9,0.2-1.3,2.5-1.6,4.2c-6.3-5.2-3.5-21.3,3.2-23.7c4.1,4.2-8.2,11.6-1.6,18.1c3.2-8.3,4.8-18.1,12.6-22.3
			c-2.2-0.1-4.5-0.2-4.7,1.4C244.3,56.6,244.9,46.9,240,41.9z M255.8,23.7c-3.9,7.3-8.6,13.8-12.6,20.9c6.5-0.8,8.3-5.7,7.9-12.6
			c9.6,1.3,7-20.9,0-11.2C253.5,21.1,256.5,20.7,255.8,23.7z M251.1,54.4c-0.3-2.6,3.7-11.4,0-8.4C252.8,49.6,246.3,52.7,251.1,54.4
			z M260.5,58.6c5.5,0.2,7.4-2.7,11.1-4.2C266.4,54.5,260.4,53.8,260.5,58.6z M274.7,104.7c-1.7-5.9,3.7-18.2-3.2-19.5
			C273.3,91,267.9,103.3,274.7,104.7z"/>
		<path fill-rule="evenodd" clip-rule="evenodd" d="M251.1,20.9c7-9.8,9.6,12.5,0,11.2c0.4,6.9-1.4,11.8-7.9,12.6
			c4.1-7.1,8.8-13.7,12.6-20.9C256.5,20.7,253.5,21.1,251.1,20.9z"/>
		<path fill-rule="evenodd" clip-rule="evenodd" d="M55.3,62.8c22.9,12.3,42.7,27.4,52.1,51.6c16.6,8,25,33.1,9.5,47.4
			c-11.4,2.1-20.9,5.7-30,9.8c0.2,7.2-2,12.2-4.7,16.7c25.8-3.9,27.5,25.1,15.8,40.5c-17.6,0.7-30.4,16.8-47.4,5.6
			c-4.2-11.7-19.9-13.1-15.8-32.1c-4.5-1.6-8.8-3.4-12.6-5.6c1-10.3,13.5-10.4,20.5-15.3c-1.5-5.7-7.3-7.5-9.5-12.6
			c-5.1,2.9-5.8,9.7-11.1,12.6c-23.4,3.4-23-21.6-15.8-33.5c5,0.2,5.3-3.7,11.1-2.8c-2.6-6.6,0.7-9.9,0-18.1
			c24.2-8.1,1-29.3,11.1-47.4c-1-5.1-9.8-3.4-12.6-7c1.1-7-0.9-11.3-3.2-15.3c5.7-2.1,4.5-7.2,3.2-12.6c4.5-9.5,13.4-15.1,31.6-12.6
			C60.1,35.8,55.8,54.4,55.3,62.8z M58.4,115.8c2.6,7.4,1.7,18,4.7,25.1c2.1,3.4,5.9-1.5,6.3,1.4c-9.2,15,3.5,36.6-1.6,53
			c-0.8,2.7-4.4,4.5-4.7,7c-0.3,2.1,3.7,7.7,1.6,9.8c6.5,0.6,10.1-1.3,14.2-2.8c-4.8-20.4,8.3-33.7,6.3-55.8c-6.2-2.2-0.5,6-4.7,5.6
			c-0.6-6.6,0-12.1,3.2-15.3c-0.5-4.9-4.3,0.1-4.7-2.8c1-6.1,2.6-11.7,7.9-14c2.2-9-5-17-1.6-22.3c2.7,7.8,4.1,16.9,12.6,19.5
			c-2.1,0-4.2,0-6.3,0c-0.5,5.6-0.1,10.3,3.2,12.6c11.5,1.3,12-7.1,15.8-12.6c-7-9.1-12.1-20-17.4-30.7C79.8,81.6,64,71.8,48.9,61.4
			c14.3-13.1-2.1-34.9-23.7-25.1c-6.8,11.2-8,18.8-6.3,34.9c5.8,0,11.6,0,17.4,0c0.4-6.9,17.1-12.9,4.7-18.1c3.2-2.9,8,0,7.9,4.2
			C42.7,63,41.1,76.6,30,74c-0.4,5.5,6.8,4.3,6.3,9.8c-2.3-0.7-4-2.1-6.3-2.8c-0.7,8.7-3.1,21,6.3,26.5c-1.3-10.2,2.1-18.1,3.2-22.3
			c7.3,3.7-2.1,10.5-1.6,16.7c0.7,8.8,6.2,16.9,17.4,18.1c-0.2-7.3-7.7-8.1-7.9-15.3c3.9,2.1,6.2,5.7,7.9,9.8c3.7-0.4,6.8-3,7.9,1.4
			C61.3,115.6,59.6,113.3,58.4,115.8z M39.5,114.4c-2.4-1.6-3.3-4.5-7.9-4.2C29.2,115.3,37.4,118,39.5,114.4z M33.2,120
			c-6.4,4.1-14.1,7.1-12.6,18.1c7.7,7.1,18.6-0.4,23.7-4.2c-1.6,3.7-6.3,4.7-7.9,8.4c4.2,0,8.4,0,12.6,0
			C48.7,130.4,44.2,122.4,33.2,120z M50.5,140.9c5.3,0.5,6.7-2.4,9.5-4.2c-4.5-7.6-7.4-16.7-18.9-18.1
			C44.2,126.1,51.6,129.7,50.5,140.9z M112.1,124.2c-5.2,8.9-3.6,14.3-6.3,20.9c-5.4-2.7-9.5-6.5-17.4-7c-4.2,8.9,1.7,18.2,0,29.3
			c20.7-2,46.4-20.4,28.4-39.1c-2.4,2.2-4.9,11.4-9.5,7C111.9,135.1,115.8,127.1,112.1,124.2z M86.8,135.3c0.4-1.9-1-5.4-1.6-2.8
			C84.8,134.5,86.2,138,86.8,135.3z M63.2,145.1c-2.1,0.2-2-8.1-4.7-2.8C60.6,142.1,61.6,149.4,63.2,145.1z M30,152.1
			c6.4,1,3.9-5.9,9.5-5.6c1-0.1,1.9-0.2,1.6-1.4c-2.8-0.3-7.9,1.4-6.3-2.8c-7.8,1.1-6,3.3-12.6,0C21.9,148.1,29.5,147,30,152.1z
			 M42.6,146.5c-25.7,11.9,10.7,39.8,20.5,48.8c1.2-4.7,3.1-17.3,0-25.1c-4.3-2.3-12.9-0.7-14.2-5.6c7.5-1.6,6.7,4.3,14.2,2.8
			C65.7,150.7,58.6,139.1,42.6,146.5z M26.8,195.3c1.5,2.8,6.1,3,11.1,2.8c0.7-6.9,10.1-6,15.8-8.4c-5.3-0.4-4.6-6.2-9.5-7
			C41.1,189.4,29.1,188,26.8,195.3z M50.5,228.8c9.9,13.2,29,1.8,41.1-2.8c-12.2,1.1-12.2-8.7-18.9-12.6
			C68.6,221.6,57,222.9,50.5,228.8z"/>
		<path fill-rule="evenodd" clip-rule="evenodd" d="M251.1,46c3.7-3.1-0.3,5.8,0,8.4C246.3,52.7,252.8,49.6,251.1,46z"/>
		<path fill-rule="evenodd" clip-rule="evenodd" d="M41.1,76.7C45.1,65.5,38.3,86,41.1,76.7L41.1,76.7z"/>
		<path fill-rule="evenodd" clip-rule="evenodd" d="M78.9,107.4c-4,3-4.2,9.4-9.5,11.2C71.7,114,73.6,109.2,78.9,107.4z"/>
		<path fill-rule="evenodd" clip-rule="evenodd" fill="#FFFFFF" d="M107.4,135.3c4.6,4.4,7.1-4.8,9.5-7c18,18.7-7.8,37-28.4,39.1
			c1.7-11.1-4.2-20.4,0-29.3c7.9,0.5,12,4.3,17.4,7c2.7-6.7,1.1-12,6.3-20.9C115.8,127.1,111.9,135.1,107.4,135.3z"/>
		<path fill-rule="evenodd" clip-rule="evenodd" fill="#FFFFFF" d="M58.4,142.3c2.7-5.3,2.6,3,4.7,2.8
			C61.6,149.4,60.6,142.1,58.4,142.3z"/>
		<path fill-rule="evenodd" clip-rule="evenodd" d="M244.7,300c-2.1,0-4.2,0-6.3,0c-6-3.5-15.7-3.8-17.4-11.2
			c10.7-9.9,25.7-8.5,31.6-19.5c6.4-12.1-5.5-20.9-3.2-39.1c-16.7,4-3.8,29.2-11.1,39.1c-12.7-1-33.1,8.2-39.5-4.2
			c4.9-10.1,20.1-11.1,25.3-20.9c1.8-23.8,3.2-49.7,3.2-71.2c-3.9,1.2-8.5,1.8-14.2,1.4c-17.1-9.7-8.4-45.5,17.4-32.1
			c-2.6-13.7,1.2-25.3,1.6-37.7c0.4-13.6-7.2-25.9-4.7-34.9c2.2-8.2,14.6-9.4,12.6-19.5c-0.1-5.9-10.1-3.2-12.6-7
			c-4.9-18,0.1-39.3,15.8-41.9c12.8-2.1,23.5,4.8,25.3,15.3c1.4,8.7-6.3,15.1-4.7,22.3c1.4,6.8,20.4,14.7,25.3,23.7
			c9.9,18.6,1.4,39.1-4.7,48.8c4.6,14.1,3.4,31.1,3.2,44.7c16.9,5.3,14.9,39.9-11.1,34.9c-2.4,9.9-7,13.8-6.3,23.7
			c0.5,8.4,7.3,15.6,7.9,23.7c0.7,9.9-5.3,17.6-6.3,27.9c-0.9,9,3.1,17.3,0,26.5C263.3,295.9,250.3,294.7,244.7,300z M236.8,207.9
			c-4.3-0.4-2.8-5.9-6.3-7c4.7,14.7-13.7,42.5,1.6,53c7.2-6.7,4.4-22.1,14.2-26.5c0.6-20-9.9-30.4-6.3-53c-3-1.1-5.8-2.3-9.5-2.8
			c0.1,6-0.9,17.3,3.2,8.4C228.4,190,235.5,204.2,236.8,207.9z M243.2,60c0.3-1.6,2.5-1.5,4.7-1.4c-7.9,4.2-9.4,14-12.6,22.3
			c-6.6-6.5,5.7-14,1.6-18.1c-6.6,2.5-9.4,18.6-3.2,23.7c0.2-1.6-0.3-4,1.6-4.2c1.9,2.5,3.1,5.7,6.3,7c5.1,0.3,6.7-2.5,12.6-1.4
			c-1.9,8.4-18,1.5-20.5,2.8c1.5,15,11.3,22.5,11.1,39.1c5.8,0,11.6,0,17.4,0c4.6-19.1-7.7-26.2-4.7-47.4c-2.4-0.2-5.8,0.5-6.3-1.4
			c4.3,1-1.1-6.6,3.2-5.6c11,5.3,1.8,29.1,14.2,36.3c-8,21.9,2.5,45.7,0,68.4c4.8,0.1,6.1-2.9,9.5-4.2c-5.6-21.2,11.4-39.7,3.2-55.8
			c0.1,5.2-0.7,9.6-3.2,12.6c-1.7-9.9,1.9-15,4.7-20.9c-3.7-6.9-2.4-12.1,1.6-18.1c2.1,4.7-3.5,9.7,0,11.2c9.4-11.6,1-26.6,3.2-40.5
			c-3.7-4.2-7-3.7-11.1-7c-2.1-1.6-12.4-10.8-12.6-11.2c-6.1-9.5,1-15.9,1.6-23.7c0.9-12.4-6.5-21.3-26.8-16.7
			c-8,5.6-4.9,16.1-11.1,20.9c2.2,4.1,4.2,8.3,3.2,15.3c2.8,2.6,4-1.1,9.5,0C244.9,46.9,244.3,56.6,243.2,60z M233.7,149.3
			c4.3-9.4,11.2-30,1.6-39.1C229.2,120.1,234,138.7,233.7,149.3z M262.1,134c-5.5-1.7-11.8-2.6-18.9-2.8
			C244.2,135.9,257.9,136.7,262.1,134z M230.5,170.2c3.2,0,6.3,0,9.5,0c-1.2-7.1,2.1-10.2,4.7-14c2.4,4.2,13.1-4.9,18.9,2.8
			c-0.8-7.2,1.7-17.3-1.6-22.3c-7.9,0.4-14.5-0.2-20.5-1.4C238.9,147.9,231.4,156.1,230.5,170.2z M284.2,153.5c0-2,0.6-11.4-1.6-7
			C282.6,148.6,282,157.9,284.2,153.5z M268.4,259.5c14.8-15.4,0.8-27.4-1.6-44.7c-1.2-8.5,4.1-12.5,1.6-15.3
			c-1.6,1.9-2.6,4.2-4.7,5.6c0.4-10.4,20-13.4,4.7-22.3c-5.1,1.5-5.4,7.3-11.1,8.4c-7.5,1-10.4-2-14.2-4.2
			c-0.1,6.1,0.6,11.5,3.2,15.3c-0.2-4.8,3.1-6.6,4.7-9.8c-3.8,12.2,10.8,15.5,6.3,23.7c-1.7-5.5-6-8.7-7.9-14
			c-2.2,14,3.4,21.2,6.3,30.7c-6.2,3.1-3.3,6.7-3.2,14c3.1,0.4,3.1-1.9,4.7-2.8c1.8,12.8-5.3,33.5,7.9,36.3
			C268.3,275.3,269,268,268.4,259.5z M202.1,267.9c17.9-0.3,22.8-2,36.3-1.4c0-3.7,0-7.4,0-11.2c-9.3,3.9-11.4-1.6-17.4-4.2
			C219.1,260.6,202.2,256.8,202.1,267.9z M225.8,290.2c7.4,9.6,21.9,3.5,30,1.4c7.1-1.9,18.2,0.6,14.2-8.4
			c-12.3,3-11.4-5.7-17.4-8.4C246.8,282.7,231.3,282.1,225.8,290.2z"/>
		<path fill-rule="evenodd" clip-rule="evenodd" fill="#FFFFFF" d="M265.3,280.5c-13.2-2.7-6.1-23.4-7.9-36.3
			c-1.6,0.9-1.6,3.2-4.7,2.8c-0.1-7.3-3.1-10.8,3.2-14c-2.9-9.5-8.5-16.7-6.3-30.7c1.9,5.3,6.2,8.5,7.9,14
			c4.5-8.2-10.1-11.5-6.3-23.7c-1.7,3.2-4.9,4.9-4.7,9.8c-2.5-3.8-3.2-9.2-3.2-15.3c3.8,2.2,6.7,5.2,14.2,4.2
			c5.6-1.1,6-6.8,11.1-8.4c15.3,8.9-4.4,12-4.7,22.3c2.1-1.4,3.2-3.7,4.7-5.6c2.5,2.9-2.8,6.8-1.6,15.3c2.4,17.3,16.4,29.3,1.6,44.7
			C269,268,268.3,275.3,265.3,280.5z M268.4,252.6c2.1-5.6-3.3-15.3-6.3-20.9C263.7,239,262,249.4,268.4,252.6z"/>
		<path fill-rule="evenodd" clip-rule="evenodd" fill="#FFFFFF" d="M63.2,115.8c-1.1-4.4-4.2-1.8-7.9-1.4c-1.7-4.1-4-7.6-7.9-9.8
			c0.2,7.2,7.7,8.1,7.9,15.3c-11.1-1.2-16.7-9.4-17.4-18.1c-0.5-6.2,8.9-13,1.6-16.7c-1.1,4.3-4.4,12.1-3.2,22.3
			c-9.4-5.5-7-17.8-6.3-26.5c2.3,0.7,4,2.1,6.3,2.8c0.4-5.5-6.8-4.3-6.3-9.8C41.1,76.6,42.7,63,48.9,57.2c0.1-4.2-4.6-7.1-7.9-4.2
			c12.3,5.2-4.4,11.2-4.7,18.1c-5.8,0-11.6,0-17.4,0c-1.7-16.1-0.5-23.7,6.3-34.9c21.6-9.8,38,12,23.7,25.1
			C64,71.8,79.8,81.6,93.2,93.5c5.3,10.7,10.3,21.6,17.4,30.7c-3.8,5.5-4.3,13.8-15.8,12.6c-3.2-2.2-3.7-7-3.2-12.6
			c2.1,0,4.2,0,6.3,0c-8.6-2.7-9.9-11.7-12.6-19.5c-3.4,5.4,3.8,13.3,1.6,22.3c-5.3,2.3-6.9,7.9-7.9,14c0.5,2.9,4.3-2.1,4.7,2.8
			c-3.2,3.2-3.8,8.7-3.2,15.3c4.2,0.4-1.5-7.8,4.7-5.6c2,22.2-11.1,35.4-6.3,55.8c-4.1,1.5-7.7,3.4-14.2,2.8
			c2.1-2.1-1.8-7.6-1.6-9.8c0.3-2.5,3.9-4.3,4.7-7c5.1-16.4-7.6-38,1.6-53c-0.4-2.9-4.2,2-6.3-1.4c-3-7.1-2.1-17.7-4.7-25.1
			C59.6,113.3,61.3,115.6,63.2,115.8z M41.1,76.7C38.3,86,45.1,65.5,41.1,76.7L41.1,76.7z M55.3,87.9c5.3-0.9,8.1-4,15.8-2.8
			C68.9,78.5,55.3,83.6,55.3,87.9z M69.5,118.6c5.3-1.8,5.5-8.2,9.5-11.2C73.6,109.2,71.7,114,69.5,118.6z"/>
	</g>
</g>
</svg>
