<?xml version="1.0" encoding="utf-8"?>
<!-- Generator: Adobe Illustrator 15.1.0, SVG Export Plug-In  -->
<!DOCTYPE svg PUBLIC "-//W3C//DTD SVG 1.1//EN" "http://www.w3.org/Graphics/SVG/1.1/DTD/svg11.dtd" [
	<!ENTITY ns_flows "http://ns.adobe.com/Flows/1.0/">
]>
<svg version="1.1"
	 xmlns="http://www.w3.org/2000/svg" xmlns:xlink="http://www.w3.org/1999/xlink" xmlns:a="http://ns.adobe.com/AdobeSVGViewerExtensions/3.0/"
	 x="0px" y="0px" width="149px" height="198px" viewBox="0 0 149 198" enable-background="new 0 0 149 198" xml:space="preserve">
<defs>
</defs>
<g>
	<g>
		<path fill-rule="evenodd" clip-rule="evenodd" fill="#FFFFFF" d="M22.997,0c-7.095,1.904-11.649,6.348-9.999,16.998
			c-3.333,0-6.666,0-9.999,0c-1.875,4.85-0.002,5.878,2,8.999c-1.499,17.83,1.232,31.43,9.999,38.995
			c-9.384,9.787-4.689,25.957-2,39.996c1.008,5.264,3.139,10.528,3,13.998c-0.226,5.624-6.044,10.976-6.999,16.998
			c-0.509,3.212,0.79,6.012,1,8.998c0.781,11.1-2.55,24.594,6,31.996c8.137-4.469,19.186-3.084,27.997-2.999
			c2.255-0.745,0.391-5.608,1-7.999c-1.744-3.256-6.293-3.706-5.999-8.999c-6.671-1.671-10.269,3.935-13.998,2
			c1.812-5.448,0.583-11.143,2-16.998c1.929-7.971,7.759-15.527,8.999-22.997c3.681-22.174-2.968-44.314,3-65.992
			c1.289-1.377,4.343-0.989,6.999-1c3.044-5.955,8.932-9.066,9.999-16.998c3.749-0.917,6.082-3.25,6.999-6.999
			c3.333,0,6.666,0,9.999,0c0.388-4.054-6.231-1.101-8.999-2c0.351-3.315,5.763-1.569,8.999-2
			c-6.113-3.444-11.402-7.316-18.998-6.999c-2.461,0.103-3.688,2.476-5.999,3c-5.307,1.202-9.252-1.017-13.999-2
			C35.202,7.793,31.903,2.093,24.997,0c41.328,0,82.656,0,123.984,0c0,14.332,0,28.663,0,42.995c-4.571,0.572-5.551-2.449-8.999-3
			c-4.039,3.754-12.772,3.725-17.998,1c2.298-5.788,0.358-13.77-1-18.998c-9.567-6.754-23.934,0.952-18.997,13.999
			c-1.454-1.546-5.119-0.88-7.999-1c0.336,7.221,1.144,8.125,3,12.999c-5.104,12.274,0.255,25.565,5.999,32.996
			c-7.249,9.203-7.122,15.925-5,31.997c0.742,5.614,3.631,10.833,3,15.997c-0.646,5.29-6.144,9.588-6.999,14.999
			c-0.784,4.961,1.789,11.497,1,16.997c-0.768,5.347-5.03,9.789-5,12.999c0.052,5.395,6.067,9.467,6,13.998
			c2.94,4.059,13.11,0.888,10.998,9.999c-35.662,0-71.324,0-106.986,0C0,131.984,0,65.991,0,0C7.666,0,15.332,0,22.997,0z"/>
		<path fill-rule="evenodd" clip-rule="evenodd" fill="#FFFFFF" d="M26.997,5c4.157,3.972,2.657,8.436,4,13.998
			c-3.581-1.418-9.784-0.214-12.999-2c-0.715-2.715,4.715,0.715,4-2c1.027-3.359-3.109-1.556-4.999-2
			C16.096,6.097,20.252,4.254,26.997,5z"/>
		<path fill-rule="evenodd" clip-rule="evenodd" d="M148.981,42.995c0,3.666,0,7.333,0,10.999
			c-10.542,4.456-9.221,20.776-23.997,20.998c-5.459,12.264-1.979,29.08-4,43.995c-0.984,7.271-4.901,13.336-3.999,19.997
			c-6.985,13.507-19.695,43.872,2,49.994c0,2.999,0,5.999,0,8.999c-1,0-2,0-3,0c5.477-7.205-8.174-10.48-4.999,0
			c-1.333,0-2.667,0-4,0c2.112-9.111-8.058-5.94-10.998-9.999c0.067-4.531-5.948-8.604-6-13.998c-0.03-3.21,4.232-7.652,5-12.999
			c0.789-5.5-1.784-12.036-1-16.997c0.855-5.411,6.354-9.709,6.999-14.999c0.631-5.164-2.258-10.383-3-15.997
			c-2.122-16.071-2.249-22.794,5-31.997c-5.744-7.43-11.104-20.721-5.999-32.996c-1.856-4.874-2.664-5.778-3-12.999
			c2.88,0.12,6.545-0.546,7.999,1c-4.937-13.047,9.43-20.753,18.997-13.999c1.358,5.229,3.298,13.21,1,18.998
			c5.226,2.725,13.959,2.754,17.998-1C143.431,40.546,144.41,43.566,148.981,42.995z M116.985,23.997
			c-6.333-2.192-12.319,0.654-11.998,7.999c2.223-0.434,5.422-2.298,5.999,1c-1.571,0.095-3.467-0.134-3,2
			c1.309,3.691,6.084,3.916,9.999,5C120.228,35.213,120.009,29.298,116.985,23.997z M103.987,38.995c-0.694-0.783-5.579-2.226-6,0
			C99.74,38.719,102.977,41.811,103.987,38.995z M125.984,43.995c-5.849-0.171-12.694-4.61-17.998-2
			C114.11,41.891,121.343,45.942,125.984,43.995z M136.982,45.994c3.614,11.571-8.705,14.176-15.998,17.998
			c-0.318-2.319,0.161-3.839,1-5c-3.699-0.3-3.598-4.401-8.998-3c1.207-4.874-3.976-3.358-4-7
			c-6.925-0.592-10.509,2.156-9.999,8.999c4.628,1.706,10.532,2.133,9.999,8.999c10.257,3.765,19.186,7.38,24.997,0
			c1.112-1.412,2.434-2.168,2.999-3c2.199-3.228,2.602-8.967,5-10.999c1.151-0.976,3.08,0.212,3.999-1c1.319-1.739,0.746-4.614,2-6
			c-3.913,0.581-5.806-0.86-7.999-2C140.111,45.79,138.989,46.334,136.982,45.994z M132.983,47.994c1.602-2.785-4.318-2.765-4-1
			C130.726,46.919,132.094,47.217,132.983,47.994z M127.984,57.993c1.36-2.972,5.185-3.48,5.999-6.999
			c-3.828-1.529-10.447-5.518-14.998-3C123.557,49.755,125.267,54.377,127.984,57.993z M121.984,53.993
			c-2.297-0.114-4.4-5.492-6.999-2C117.542,51.849,120.45,56.422,121.984,53.993z M105.986,82.99c5.785-0.786,7.214,2.785,12.999,2
			c1.097-2.902,0.902-7.096,1.999-9.999c-1.673-1.326-3.35-2.649-6.999-2c-0.17,1.496,0.357,3.69-0.999,4
			c-1.389-1.278-0.612-4.721-2-5.999c-6.678-0.322-5.145-8.854-11.999-8.999C95.681,74.162,114.248,75.249,105.986,82.99z
			 M101.987,104.987c5.337-2.364,9.749,2.226,15.998,1.999c0.384-5.615,1.54-10.458,1-16.998c-5-1.333-10.844-1.821-14.998-4
			C100.24,89.976,100.603,98.539,101.987,104.987z M97.987,141.982c0.047,5.619-0.554,11.886,2,14.998
			c-1.479-6.472,1.236-5.19,4-9.999c1.656-2.883-1.933-7.065,2.999-5.999c2.093,6.642-5.123,12.05-4.999,19.997
			c-1.333,0-2.666,0-4,0c1.066,4.661-2.612,7.886,0,10.999c-1.493,1.506-5.7,0.299-4.999,3.999
			c5.337,4.329,5.893,13.438,15.998,12.999c-11.733-13.706-2.078-38.483,4.999-50.994c-3.636-7.35,6.064-14.949,3-27.996
			c-4.617-1.049-8.5-2.832-14.998-2C102.453,120.687,107.231,135.542,97.987,141.982z"/>
		<path fill-rule="evenodd" clip-rule="evenodd" fill="#FFFFFF" d="M41.995,22.997c-9.016,1.732-26.211-0.802-32.996-2
			c-11.864-2.094,13.881-1.361,17.998-1C33.353,20.554,37.527,22.646,41.995,22.997z"/>
		<path fill-rule="evenodd" clip-rule="evenodd" fill="#FFFFFF" d="M61.992,21.997c-3.84,8.158-10.458,13.54-13.998,21.998
			c-1.172-0.162-0.844-1.823-1-3c-4.41-0.078-2.877,5.788-8.999,3.999c-0.086,1.419-0.165,2.832,1,3
			c-5.619,3.156-10.926,0.255-16.998-1c0.11-2.487,1.874-3.095,0-5c-3.7,4.154-10.893-0.711-13.998,3
			C7.511,33.93,9.583,29.069,15.998,28.997c5.458-0.062,8.885,10.742,15.998,7.999c0.776,0.89,1.075,2.258,1,4
			c11.294-2.704,17.946-10.051,20.997-20.998C57.81,19.514,60.375,20.281,61.992,21.997z"/>
		<path fill-rule="evenodd" clip-rule="evenodd" fill="#FFFFFF" d="M117.985,39.995c-3.915-1.084-8.69-1.309-9.999-5
			c-0.467-2.134,1.429-1.904,3-2c-0.577-3.298-3.776-1.434-5.999-1c-0.321-7.345,5.665-10.191,11.998-7.999
			C120.009,29.298,120.228,35.213,117.985,39.995z"/>
		<path fill-rule="evenodd" clip-rule="evenodd" fill="#FFFFFF" d="M45.994,25.997c2.215,4.909-6.69,7.288-9.999,9.999
			c-3.537-0.796-3.663-5.003-6.999-6C31.298,23.101,40.245,29.01,45.994,25.997z"/>
		<path fill-rule="evenodd" clip-rule="evenodd" fill="#FFFFFF" d="M97.987,38.995c0.421-2.226,5.306-0.783,6,0
			C102.977,41.811,99.74,38.719,97.987,38.995z"/>
		<path fill-rule="evenodd" clip-rule="evenodd" fill="#FFFFFF" d="M139.982,43.995c2.193,1.139,4.086,2.58,7.999,2
			c-1.254,1.386-0.681,4.26-2,6c-0.919,1.211-2.848,0.024-3.999,1c-2.398,2.032-2.801,7.771-5,10.999
			c-0.565,0.831-1.887,1.587-2.999,3c-5.812,7.38-14.74,3.765-24.997,0c0.533-6.866-5.371-7.293-9.999-8.999
			c-0.51-6.843,3.074-9.591,9.999-8.999c0.024,3.642,5.207,2.126,4,7c5.4-1.402,5.299,2.7,8.998,3c-0.839,1.161-1.318,2.681-1,5
			c7.293-3.822,19.612-6.427,15.998-17.998C138.989,46.334,140.111,45.79,139.982,43.995z"/>
		<path fill-rule="evenodd" clip-rule="evenodd" fill="#FFFFFF" d="M9.999,45.994c5.723,0.609,9.147,3.518,12.999,6
			c-0.485,2.275-1.984,5.108,0,6.999c2.801-0.532,1.849-4.817,3-6.999c3.868-0.535,4.881,1.785,8.999,1
			c-2.011,2.989-0.565,9.434-1,13.999C22.476,67.704,9.294,57.646,9.999,45.994z"/>
		<path fill-rule="evenodd" clip-rule="evenodd" fill="#FFFFFF" d="M128.983,46.994c-0.318-1.765,5.602-1.785,4,1
			C132.094,47.217,130.726,46.919,128.983,46.994z"/>
		<path fill-rule="evenodd" clip-rule="evenodd" fill="#FFFFFF" d="M118.985,47.994c4.551-2.518,11.17,1.471,14.998,3
			c-0.814,3.519-4.639,4.027-5.999,6.999C125.267,54.377,123.557,49.755,118.985,47.994z"/>
		<path fill-rule="evenodd" clip-rule="evenodd" fill="#FFFFFF" d="M148.981,53.993c0,47.994,0,95.988,0,143.982
			c-9.999,0-19.997,0-29.996,0c0-3,0-6,0-8.999c-21.695-6.122-8.985-36.487-2-49.994c-0.902-6.661,3.015-12.727,3.999-19.997
			c2.021-14.915-1.459-31.731,4-43.995C139.761,74.769,138.439,58.449,148.981,53.993z"/>
		<path fill-rule="evenodd" clip-rule="evenodd" fill="#FFFFFF" d="M98.987,61.992c6.854,0.145,5.321,8.677,11.999,8.999
			c1.388,1.278,0.611,4.721,2,5.999c1.356-0.31,0.829-2.503,0.999-4c3.649-0.649,5.326,0.674,6.999,2
			c-1.097,2.903-0.902,7.096-1.999,9.999c-5.785,0.786-7.214-2.785-12.999-2C114.248,75.249,95.681,74.162,98.987,61.992z"/>
		<path fill-rule="evenodd" clip-rule="evenodd" fill="#FFFFFF" d="M33.996,73.991c-0.954,5.379-1.242,11.423-1,17.998
			c-6,0-11.999,0-17.998,0c-1.786-5.493-3.599-18.607,3-22.997C23.966,70.022,28.381,72.606,33.996,73.991z"/>
		<path fill-rule="evenodd" clip-rule="evenodd" fill="#FFFFFF" d="M103.987,85.989c4.154,2.178,9.998,2.667,14.998,4
			c0.54,6.54-0.616,11.382-1,16.998c-6.249,0.227-10.661-4.363-15.998-1.999C100.603,98.539,100.24,89.976,103.987,85.989z"/>
		<path fill-rule="evenodd" clip-rule="evenodd" fill="#FFFFFF" d="M15.998,93.988c6.304-0.305,11.84,0.158,16.998,1
			c0.038,13.036,0.49,26.487-6,32.996c-0.829,11.836-6.172,19.158-5.999,31.996c2.478,4.589,9.858,2.62,13.998,0.999
			c-1.21,8.789-10.266,9.731-17.998,11.999c-3.351-5.648-3.075-14.923-3-23.997c5.807,5.632,6.34-9.05,8.999-12.998
			c-5.406,0.593-5.542,6.456-7.999,9.998c-6.494-9.148,4.442-16.503,5-25.996C20.579,110.081,13.552,104.742,15.998,93.988z"/>
		<path fill-rule="evenodd" clip-rule="evenodd" fill="#FFFFFF" d="M101.987,107.986c6.498-0.832,10.381,0.951,14.998,2
			c3.064,13.047-6.636,20.646-3,27.996c-7.077,12.511-16.732,37.288-4.999,50.994c-10.105,0.439-10.661-8.67-15.998-12.999
			c-0.701-3.7,3.506-2.493,4.999-3.999c-2.612-3.113,1.066-6.338,0-10.999c1.334,0,2.667,0,4,0
			c-0.124-7.947,7.092-13.355,4.999-19.997c-4.932-1.066-1.343,3.116-2.999,5.999c-2.764,4.809-5.479,3.527-4,9.999
			c-2.554-3.112-1.953-9.379-2-14.998C107.231,135.542,102.453,120.687,101.987,107.986z"/>
		<path fill-rule="evenodd" clip-rule="evenodd" fill="#FFFFFF" d="M41.995,165.979c0.132,2.465,0.151,4.817-1,5.999
			c-3.056,0.723-3.644-1.022-6-1C35.697,167.681,37.127,165.111,41.995,165.979z"/>
		<path fill-rule="evenodd" clip-rule="evenodd" fill="#FFFFFF" d="M115.985,197.976c-1.666,0-3.333,0-4.999,0
			C107.812,187.495,121.462,190.771,115.985,197.976z"/>
		<path fill-rule="evenodd" clip-rule="evenodd" fill="#FFFFFF" d="M107.986,41.995c5.304-2.61,12.149,1.829,17.998,2
			C121.343,45.942,114.11,41.891,107.986,41.995z"/>
		<path fill-rule="evenodd" clip-rule="evenodd" d="M22.997,0c0.667,0,1.333,0,2,0c6.906,2.093,10.205,7.793,8.999,17.998
			c4.746,0.983,8.691,3.202,13.999,2c2.311-0.523,3.538-2.897,5.999-3c7.595-0.317,12.885,3.555,18.998,6.999
			c-3.235,0.431-8.648-1.316-8.999,2c2.768,0.899,9.386-2.054,8.999,2c-3.333,0-6.666,0-9.999,0
			c-0.917,3.749-3.25,6.082-6.999,6.999c-1.067,7.932-6.955,11.043-9.999,16.998c-2.656,0.01-5.71-0.378-6.999,1
			c-5.967,21.678,0.682,43.818-3,65.992c-1.24,7.47-7.07,15.026-8.999,22.997c-1.417,5.855-0.188,11.55-2,16.998
			c3.729,1.935,7.327-3.671,13.998-2c-0.294,5.293,4.255,5.743,5.999,8.999c-0.609,2.391,1.255,7.254-1,7.999
			c-8.811-0.085-19.859-1.47-27.997,2.999c-8.549-7.402-5.219-20.896-6-31.996c-0.21-2.986-1.509-5.786-1-8.998
			c0.955-6.022,6.773-11.374,6.999-16.998c0.14-3.47-1.991-8.734-3-13.998c-2.689-14.039-7.384-30.208,2-39.996
			C6.232,57.427,3.501,43.827,5,25.997c-2.002-3.121-3.875-4.148-2-8.999c3.333,0,6.666,0,9.999,0
			C11.348,6.348,15.902,1.904,22.997,0z M16.998,12.999c1.89,0.443,6.026-1.36,4.999,2c0.715,2.715-4.715-0.715-4,2
			c3.214,1.785,9.417,0.582,12.999,2c-1.342-5.562,0.158-10.026-4-13.998C20.252,4.254,16.096,6.097,16.998,12.999z M26.997,19.998
			c-4.116-0.361-29.861-1.094-17.998,1c6.784,1.197,23.98,3.732,32.996,2C37.527,22.646,33.353,20.554,26.997,19.998z
			 M53.993,19.998c-3.051,10.947-9.703,18.293-20.997,20.998c0.075-1.742-0.224-3.11-1-4c-7.113,2.743-10.541-8.061-15.998-7.999
			c-6.415,0.073-8.487,4.934-7.999,15.998c3.105-3.711,10.298,1.155,13.998-3c1.874,1.904,0.11,2.512,0,5
			c6.072,1.255,11.379,4.156,16.998,1c-1.165-0.168-1.086-1.581-1-3c6.122,1.789,4.589-4.077,8.999-3.999
			c0.156,1.176-0.172,2.838,1,3c3.541-8.458,10.158-13.839,13.998-21.998C60.375,20.281,57.81,19.514,53.993,19.998z M28.997,29.996
			c3.336,0.997,3.462,5.203,6.999,6c3.309-2.711,12.213-5.09,9.999-9.999C40.245,29.01,31.298,23.101,28.997,29.996z M33.996,66.992
			c0.435-4.565-1.011-11.01,1-13.999c-4.118,0.785-5.131-1.535-8.999-1c-1.151,2.182-0.198,6.467-3,6.999
			c-1.984-1.891-0.485-4.724,0-6.999c-3.851-2.481-7.275-5.39-12.999-6C9.294,57.646,22.476,67.704,33.996,66.992z M17.998,68.991
			c-6.599,4.39-4.786,17.504-3,22.997c6,0,11.999,0,17.998,0c-0.242-6.574,0.046-12.619,1-17.998
			C28.381,72.606,23.966,70.022,17.998,68.991z M19.998,119.985c-0.558,9.493-11.493,16.848-5,25.996
			c2.457-3.542,2.593-9.405,7.999-9.998c-2.659,3.948-3.192,18.63-8.999,12.998c-0.075,9.074-0.351,18.349,3,23.997
			c7.731-2.268,16.788-3.21,17.998-11.999c-4.14,1.621-11.52,3.59-13.998-0.999c-0.173-12.838,5.17-20.16,5.999-31.996
			c6.49-6.509,6.038-19.96,6-32.996c-5.158-0.842-10.694-1.305-16.998-1C13.552,104.742,20.579,110.081,19.998,119.985z
			 M34.996,170.979c2.355-0.022,2.944,1.723,6,1c1.151-1.182,1.131-3.534,1-5.999C37.127,165.111,35.697,167.681,34.996,170.979z"/>
		<path fill-rule="evenodd" clip-rule="evenodd" fill="#FFFFFF" d="M114.985,51.994c2.599-3.492,4.702,1.885,6.999,2
			C120.45,56.422,117.542,51.849,114.985,51.994z"/>
	</g>
</g>
</svg>
